<?xml version="1.0" encoding="utf-8"?>
<!-- Generator: Adobe Illustrator 24.2.3, SVG Export Plug-In . SVG Version: 6.00 Build 0)  -->
<svg version="1.1" id="Countryflags.com" xmlns="http://www.w3.org/2000/svg" xmlns:xlink="http://www.w3.org/1999/xlink" x="0px"
	 y="0px" viewBox="0 0 300 200" style="enable-background:new 0 0 300 200;" xml:space="preserve">
<style type="text/css">
	.st0{fill:#06612E;}
	.st1{fill:#FFFFFF;}
	.st2{fill:#F8C800;}
</style>
<g>
	<rect id="_x36_8" x="0" y="0" class="st0" width="300" height="200"/>
	<path id="_x36_7" d="M88.55,94.82c-0.98-0.62-2-1.28-3.03-1.9c-0.26-0.16-0.58-0.27-0.88-0.34c-0.61-0.14-1.02,0.26-0.92,0.87
		c0.04,0.24,0.11,0.49,0.21,0.72c0.54,1.21,0.67,2.51,0.8,3.81c0.3,2.95,0.5,5.91,1.41,8.76c0.7,2.19,1.75,4.17,3.34,5.86
		c0.55,0.59,1,1.26,1.5,1.89c0.16,0.21,0.34,0.41,0.53,0.59c0.45,0.41,0.96,0.34,1.25-0.19c0.2-0.35,0.33-0.74,0.48-1.1
		c0,1.16,0,2.34,0,3.52c-0.02,0-0.07,0.01-0.09-0.01c-1.24-0.98-2.49-1.96-3.71-2.96c-0.45-0.37-0.84-0.8-1.27-1.19
		c-0.1-0.09-0.21-0.16-0.32-0.22c-0.64-0.36-1.14-0.09-1.13,0.66c0.01,1.45,0.06,2.9,0.39,4.32c1.06,4.55,3.53,8.1,7.55,10.51
		c1.23,0.74,2.57,1.22,3.98,1.48c0.72,0.14,1.02-0.04,1.25-0.68c0.41,0.85,0.83,1.73,1.25,2.61c-0.7-0.26-1.44-0.5-2.16-0.8
		c-1.25-0.52-2.48-1.09-3.72-1.63c-0.4-0.17-0.8-0.35-1.21-0.49c-0.33-0.11-0.69-0.16-0.97,0.11c-0.3,0.29-0.24,0.67-0.11,1
		c0.49,1.19,0.91,2.42,1.54,3.55c2.85,5.14,7.1,8.54,12.82,10.03c1.66,0.43,3.38,0.59,5.06,0.39c0.77-0.09,1.3,0.1,1.86,0.49
		c0.08,0.05,0.16,0.09,0.24,0.14c0.02,0.01,0.03,0.04,0.06,0.09c-0.86-0.05-1.7-0.16-2.54-0.15c-1.54,0.03-3.08,0.1-4.62,0.21
		c-0.37,0.03-0.75,0.24-1.07,0.46c-0.43,0.29-0.39,0.79,0.05,1.07c0.18,0.11,0.38,0.21,0.58,0.24c1.15,0.21,2.1,0.83,3.04,1.46
		c1.92,1.3,3.81,2.66,5.78,3.88c2.68,1.67,5.6,2.74,8.72,3.22c2.11,0.33,4.23,0.37,6.35,0.12c0.76-0.09,1.53-0.16,2.26-0.36
		c0.42-0.11,0.76-0.12,1.16,0.02c2.06,0.68,4.17,1,6.34,0.99c0.35,0,0.71-0.03,1.06-0.11c0.61-0.14,0.84-0.57,0.63-1.17
		c-0.14-0.39-0.33-0.77-0.54-1.13c-2.7-4.69-6.59-8.14-11.37-10.58c-2.4-1.23-4.91-2.22-7.36-3.36c-1.02-0.48-2-1.05-3.01-1.57
		c-0.44-0.23-0.88-0.49-1.34-0.66c-0.48-0.18-0.97-0.15-1.34,0.37c-0.1-0.14-0.19-0.27-0.27-0.39c-1.94-2.94-4.56-5.17-7.49-7.06
		c-0.4-0.26-0.79-0.53-1.22-0.72c-0.37-0.17-0.43-0.44-0.46-0.78c-0.15-1.78-0.56-3.51-1.2-5.18c-0.9-2.34-2.23-4.39-4.16-6.02
		c-0.22-0.18-0.46-0.36-0.72-0.48c-0.56-0.28-0.89-0.18-1.32,0.39c-0.01-0.19-0.02-0.3-0.02-0.42c-0.04-3.4-1.05-6.47-3.13-9.18
		c-0.15-0.2-0.2-0.35-0.08-0.6c0.92-1.83,1.39-3.8,1.65-5.82c0.24-1.87,0.42-3.75,0.65-5.62c0.05-0.44,0.23-0.86,0.36-1.29
		c0.07-0.23,0.17-0.44,0.23-0.67c0.17-0.68-0.24-1.1-0.89-0.88c-0.51,0.17-0.98,0.43-1.47,0.67c-0.22,0.11-0.42,0.25-0.69,0.33
		c0.3-0.37,0.6-0.74,0.89-1.11c1.34-1.71,2.52-3.51,3.19-5.6c0.33-1.05,0.49-2.13,0.45-3.23c-0.04-1.17-0.27-1.39-1.46-1.34
		c0.27-0.17,0.49-0.31,0.71-0.44c1.93-1.17,3.78-2.46,5.34-4.12c1.19-1.27,2.13-2.69,2.5-4.42c0.18-0.84,0.31-1.68,0.11-2.53
		c0.93-0.4,1.85-0.75,2.74-1.17c2.32-1.1,4.45-2.47,6.18-4.4c0.86-0.96,1.68-1.96,2.12-3.21c0.04-0.1,0.26-0.18,0.4-0.19
		c2.09-0.04,4.15-0.34,6.17-0.88c2.55-0.68,4.94-1.68,6.96-3.41c0.48-0.42,0.87-0.95,1.31-1.42c0.08-0.08,0.2-0.18,0.3-0.17
		c4,0.4,7.63-0.76,11.11-2.59c0.62-0.33,1.22-0.68,1.8-1.06c0.46-0.3,0.86-0.66,0.89-1.29c0.8,0,1.59,0,2.4,0
		c0.07,0.62,0.47,1.02,0.96,1.33c2.78,1.76,5.75,3.03,9.02,3.53c1.26,0.19,2.52,0.23,3.79,0.09c0.1-0.01,0.27,0.03,0.32,0.11
		c0.84,1.31,2.08,2.16,3.39,2.91c2.34,1.36,4.9,2.13,7.56,2.52c1.2,0.18,2.41,0.22,3.62,0.34c0.11,0.01,0.28,0.1,0.31,0.19
		c0.52,1.41,1.46,2.53,2.48,3.59c2.29,2.36,5.11,3.87,8.16,5c0.11,0.04,0.22,0.08,0.33,0.13c0.02,0.01,0.04,0.03,0.04,0.04
		c-0.26,2.38,0.53,4.42,2,6.23c1.57,1.93,3.56,3.36,5.65,4.67c0.35,0.22,0.7,0.43,1.04,0.64c0.01,0.01,0.02,0.02,0.03,0.04
		c-0.01,0.01-0.03,0.03-0.04,0.03c-1.04-0.35-1.41,0.21-1.46,1.18c-0.09,1.95,0.45,3.75,1.34,5.46c0.83,1.61,1.92,3.06,3.09,4.44
		c0.05,0.06,0.1,0.12,0.12,0.22c-0.39-0.22-0.78-0.46-1.18-0.67c-0.34-0.17-0.69-0.34-1.06-0.43c-0.59-0.15-0.97,0.23-0.82,0.82
		c0.13,0.52,0.4,1.01,0.48,1.54c0.2,1.27,0.35,2.56,0.48,3.84c0.29,2.83,0.68,5.62,1.96,8.21c0.05,0.1,0.02,0.29-0.04,0.37
		c-1.7,2.19-2.71,4.66-3.07,7.39c-0.1,0.74-0.11,1.5-0.16,2.16c-0.26-0.11-0.57-0.34-0.87-0.32c-0.32,0.02-0.68,0.22-0.95,0.43
		c-2.07,1.64-3.45,3.78-4.39,6.22c-0.66,1.72-1.06,3.5-1.2,5.34c-0.02,0.26-0.15,0.39-0.36,0.51c-2.72,1.57-5.2,3.42-7.25,5.81
		c-0.64,0.75-1.21,1.56-1.83,2.36c-0.57-0.63-1.25-0.42-1.9-0.07c-0.92,0.49-1.78,1.09-2.72,1.53c-2.21,1.02-4.47,1.93-6.68,2.95
		c-3.36,1.56-6.44,3.55-9.06,6.19c-1.7,1.71-3.13,3.63-4.3,5.75c-0.13,0.24-0.23,0.5-0.3,0.77c-0.14,0.55,0.07,0.95,0.64,1.06
		c0.47,0.1,0.97,0.12,1.45,0.12c2.18-0.03,4.3-0.4,6.36-1.11c0.11-0.04,0.23-0.06,0.34-0.04c0.99,0.18,1.98,0.44,2.98,0.54
		c2.95,0.29,5.87,0.07,8.74-0.74c2.92-0.82,5.58-2.2,8.08-3.9c1.59-1.08,3.15-2.21,4.77-3.25c0.56-0.36,1.25-0.54,1.88-0.79
		c0.23-0.09,0.48-0.15,0.69-0.27c0.47-0.27,0.51-0.81,0.05-1.08c-0.41-0.24-0.88-0.45-1.35-0.51c-1.93-0.24-3.87-0.23-5.81-0.07
		c-0.35,0.03-0.7,0.06-1.15,0.1c0.48-0.31,0.88-0.58,1.29-0.83c0.06-0.04,0.15-0.03,0.22-0.02c0.93,0.05,1.87,0.17,2.79,0.13
		c7.15-0.3,14.25-5.61,16.92-12.82c0.18-0.49,0.39-0.98,0.5-1.49c0.13-0.58-0.2-0.96-0.79-0.85c-0.52,0.09-1.05,0.27-1.51,0.53
		c-1.85,1.03-3.87,1.65-5.83,2.41c-0.03,0.01-0.07,0.01-0.08,0.01c0.41-0.86,0.82-1.71,1.22-2.55c0.4,0.69,0.67,0.8,1.6,0.58
		c2.07-0.5,3.94-1.4,5.58-2.76c3.07-2.55,4.99-5.79,5.7-9.71c0.22-1.2,0.21-2.44,0.3-3.66c0.01-0.14-0.01-0.29-0.04-0.43
		c-0.09-0.41-0.46-0.66-0.83-0.46c-0.45,0.24-0.85,0.56-1.24,0.89c-1.45,1.22-2.89,2.46-4.33,3.69c-0.03-0.02-0.06-0.05-0.1-0.07
		c0-1.17,0-2.35,0-3.56c0.12,0.32,0.2,0.63,0.33,0.91c0.35,0.78,0.93,0.9,1.5,0.26c0.66-0.73,1.22-1.56,1.9-2.28
		c2.18-2.33,3.4-5.13,3.95-8.22c0.37-2.08,0.56-4.2,0.82-6.31c0.17-1.36,0.26-2.73,0.84-4c0.12-0.27,0.17-0.58,0.18-0.88
		c0.02-0.45-0.27-0.73-0.72-0.67c-0.33,0.04-0.68,0.14-0.97,0.31c-1.06,0.63-2.1,1.3-3.1,1.92c0.17-0.47,0.38-1.03,0.56-1.6
		c1.32-4.19,1.17-8.29-0.86-12.24c-0.99-1.93-2.29-3.6-4.15-4.79c-0.09-0.06-0.19-0.19-0.2-0.3c-0.08-3.44-1.7-6.1-4.17-8.35
		c-0.31-0.28-0.64-0.55-0.93-0.86c-0.36-0.39-0.69-0.83-1.03-1.24c-0.21-0.25-0.4-0.53-0.65-0.74c-0.51-0.43-1.15-0.35-1.5,0.22
		c-0.25,0.41-0.39,0.88-0.57,1.33c-0.03,0.08-0.05,0.16-0.1,0.32c-0.26-0.56-0.48-1.04-0.72-1.52c-1.42-2.82-3.56-4.99-6.18-6.69
		c-0.95-0.62-1.93-1.19-2.87-1.82c-0.38-0.25-0.7-0.6-1.05-0.9c-0.1-0.09-0.21-0.16-0.32-0.23c-1.18-0.74-2.12-0.24-2.18,1.15
		c0,0.08-0.01,0.16-0.02,0.24c-0.03,0-0.06,0.01-0.07-0.01c-1.05-1.59-2.58-2.64-4.23-3.49c-2.03-1.05-4.13-1.98-6.17-3.02
		c-1.1-0.56-2.17-1.19-3.2-1.86c-0.43-0.28-0.74-0.74-1.11-1.12c-0.35-0.36-0.73-0.69-1.26-0.76c-0.42-0.05-0.74,0.13-1.02,0.49
		c-1.1-1.25-2.44-2.15-4.05-2.68c0.6-0.45,1.19-0.85,1.72-1.31c1.51-1.28,2.51-2.87,2.88-4.82c0.14-0.74-0.28-1.12-1.01-0.93
		c-0.06,0.02-0.13,0.04-0.18,0.07c-1.36,0.82-2.93,1-4.42,1.4c-0.8,0.21-1.6,0.42-2.47,0.65c0.1-0.17,0.17-0.28,0.24-0.4
		c0.75-1.23,1.35-2.53,1.66-3.95c0.06-0.25,0.07-0.53,0.05-0.78c-0.04-0.45-0.41-0.67-0.82-0.49c-0.24,0.1-0.48,0.24-0.65,0.43
		c-0.59,0.66-1.35,1.09-2.12,1.5c-1.93,1.03-3.87,2.05-5.58,3.43c-0.17,0.14-0.34,0.28-0.59,0.48c0.09-0.42,0.18-0.75,0.22-1.08
		c0.04-0.3,0.06-0.61,0.03-0.91c-0.04-0.41-0.39-0.63-0.77-0.46c-0.27,0.12-0.52,0.31-0.74,0.52c-0.29,0.27-0.54,0.58-0.84,0.91
		c-0.23-0.23-0.41-0.4-0.59-0.56c-0.27-0.25-0.52-0.54-0.83-0.73c-0.2-0.12-0.54-0.2-0.72-0.1c-0.18,0.09-0.31,0.41-0.33,0.64
		c-0.03,0.33,0.06,0.68,0.11,1.02c0.04,0.23,0.1,0.46,0.16,0.75c-0.4-0.31-0.74-0.59-1.09-0.86c-1.64-1.23-3.46-2.17-5.26-3.14
		c-0.69-0.37-1.36-0.75-1.88-1.35c-0.14-0.16-0.31-0.28-0.49-0.4c-0.58-0.36-1.08-0.1-1.07,0.58c0.01,0.39,0.1,0.78,0.21,1.16
		c0.34,1.23,0.89,2.36,1.55,3.45c0.06,0.1,0.12,0.2,0.2,0.34c-0.88-0.23-1.71-0.46-2.55-0.68c-0.69-0.18-1.39-0.3-2.07-0.51
		c-0.64-0.19-1.25-0.46-1.88-0.69c-0.23-0.09-0.46-0.21-0.7-0.26c-0.61-0.13-1,0.18-0.89,0.79c0.12,0.65,0.3,1.31,0.56,1.92
		c0.71,1.7,1.99,2.93,3.48,3.95c0.17,0.12,0.35,0.23,0.59,0.39c-1.61,0.55-2.96,1.41-3.98,2.59c-0.38-0.14-0.71-0.38-1.03-0.35
		c-0.36,0.03-0.83,0.19-1.04,0.46c-1.74,2.15-4.24,3.06-6.62,4.19c-1.9,0.91-3.83,1.76-5.6,2.92c-1.09,0.72-2.08,1.53-2.86,2.75
		c-0.03-0.27-0.04-0.45-0.06-0.62c-0.1-0.97-0.84-1.45-1.75-1.08c-0.33,0.14-0.63,0.38-0.93,0.59c-0.73,0.52-1.41,1.1-2.17,1.57
		c-1.75,1.09-3.47,2.22-4.91,3.72c-1.46,1.52-2.59,3.25-3.4,5.2c-0.04,0.08-0.07,0.17-0.14,0.31c-0.12-0.37-0.22-0.7-0.33-1.01
		c-0.19-0.52-0.42-1.03-1.05-1.12c-0.62-0.09-1.04,0.31-1.31,0.79c-0.56,1.01-1.47,1.68-2.28,2.45c-1.7,1.61-3.09,3.44-3.64,5.77
		c-0.17,0.7-0.23,1.43-0.3,2.15c-0.03,0.3-0.11,0.49-0.37,0.68c-2.73,1.86-4.28,4.53-5.17,7.63c-1.03,3.6-0.6,7.12,0.73,10.57
		C88.46,94.6,88.52,94.75,88.55,94.82z M159.81,155.22c-0.2,0-0.4,0-0.59,0c-1-0.02-1.08-0.16-0.59-1.04
		c1.65-2.95,3.81-5.47,6.44-7.57c2.71-2.16,5.76-3.73,8.93-5.09c2.34-1.01,4.76-1.86,6.89-3.32c0.21-0.15,0.47-0.24,0.72-0.31
		c0.37-0.11,0.54-0.01,0.56,0.37c0.02,0.3-0.02,0.61-0.1,0.89c-0.49,1.76-1.32,3.35-2.37,4.84c-2.53,3.6-5.84,6.31-9.69,8.38
		C166.83,154.08,163.47,155.2,159.81,155.22z M140.23,155.25c-1.95-0.06-3.61-0.31-5.45-0.88c-4.31-1.34-8.06-3.63-11.32-6.72
		c-2.06-1.96-3.79-4.18-4.92-6.81c-0.34-0.78-0.71-1.56-0.7-2.45c0.01-0.52,0.17-0.65,0.66-0.46c0.39,0.15,0.75,0.37,1.12,0.57
		c1,0.53,1.97,1.12,3,1.58c2.68,1.19,5.43,2.24,8,3.67c4.06,2.26,7.49,5.19,9.98,9.15c0.37,0.59,0.69,1.21,1.02,1.82
		c0.14,0.25,0.05,0.41-0.23,0.44C141.02,155.2,140.62,155.22,140.23,155.25z M167.47,154.37c0-0.02,0-0.05,0-0.07
		c0.13-0.06,0.25-0.12,0.38-0.17c3.8-1.6,7.15-3.87,10.01-6.85c0.24-0.25,0.47-0.46,0.83-0.56c2.57-0.72,5.18-1.21,7.84-1.42
		c1.85-0.15,3.69-0.15,5.53,0.03c0.42,0.04,0.82,0.21,1.23,0.31c-0.01,0.05-0.01,0.09-0.02,0.14c-0.17,0.06-0.34,0.11-0.51,0.18
		c-0.7,0.29-1.44,0.52-2.1,0.88c-0.78,0.43-1.51,0.97-2.23,1.49c-2.01,1.45-4.05,2.86-6.28,3.97c-3.91,1.94-8.04,2.72-12.38,2.35
		C169.01,154.58,168.24,154.46,167.47,154.37z M132.62,154.4c-1.25,0.12-2.42,0.28-3.58,0.32c-4.2,0.16-8.15-0.8-11.86-2.77
		c-2.2-1.17-4.19-2.63-6.21-4.07c-1.19-0.85-2.4-1.68-3.88-1.98c-0.11-0.02-0.21-0.09-0.32-0.13c-0.01-0.03-0.01-0.06-0.02-0.1
		c0.28-0.1,0.55-0.25,0.83-0.28c0.84-0.09,1.68-0.18,2.52-0.2c3.84-0.08,7.59,0.49,11.27,1.54c0.23,0.06,0.46,0.2,0.62,0.37
		c2.02,2.13,4.3,3.93,6.86,5.36C130.04,153.15,131.28,153.72,132.62,154.4z M93.48,129.45c0.19,0.03,0.27,0.03,0.34,0.06
		c0.61,0.27,1.21,0.57,1.83,0.83c1.56,0.64,3.11,1.28,4.68,1.89c2.34,0.91,4.61,1.93,6.67,3.4c0.29,0.21,0.48,0.44,0.59,0.79
		c0.81,2.43,2.17,4.5,4.1,6.18c0.26,0.23,0.53,0.46,0.87,0.75c-4.77,0.3-8.85-1.21-12.47-4.08
		C96.88,136.73,94.73,133.44,93.48,129.45z M187.56,143.37c0-0.03-0.01-0.06-0.01-0.1c0.05-0.04,0.09-0.09,0.14-0.13
		c2.29-1.81,3.89-4.09,4.8-6.86c0.07-0.21,0.23-0.41,0.41-0.55c1.65-1.22,3.46-2.15,5.36-2.93c2.47-1.02,5.03-1.79,7.38-3.09
		c0.24-0.13,0.53-0.18,0.79-0.27c0.03,0.03,0.07,0.06,0.1,0.1c-0.17,0.46-0.35,0.92-0.52,1.38c-2.54,7.01-9.61,12.23-16.42,12.45
		C188.92,143.39,188.24,143.37,187.56,143.37z M194.21,129.04c0.02,0.03,0.04,0.07,0.06,0.1c-0.09,0.14-0.17,0.29-0.28,0.4
		c-0.47,0.46-0.75,1.02-0.91,1.64c-0.2,0.79-0.38,1.59-0.56,2.38c-0.43,2.01-1.03,3.95-2.15,5.69c-1.69,2.61-4.08,4.39-6.86,5.66
		c-0.59,0.27-1.29,0.3-1.94,0.43c-0.28-0.94-0.14-2.81,0.22-3.62c0.32-0.73,0.67-1.47,0.87-2.24c0.18-0.69,0.47-1.31,0.87-1.88
		c0.46-0.64,0.92-1.29,1.43-1.89c2.31-2.69,5.14-4.72,8.26-6.36C193.52,129.21,193.88,129.15,194.21,129.04z M105.77,129.15
		c0.02-0.04,0.04-0.07,0.06-0.11c0.35,0.12,0.72,0.19,1.05,0.36c0.65,0.34,1.29,0.71,1.92,1.09c2.81,1.73,5.32,3.8,7.26,6.49
		c0.43,0.6,0.84,1.22,1.13,1.89c0.41,0.93,0.71,1.92,1.05,2.88c0.1,0.3,0.22,0.6,0.24,0.91c0.05,0.73,0.06,1.47,0.08,2.21
		c0,0.15-0.05,0.3-0.08,0.42c-1.33-0.05-2.47-0.52-3.56-1.17c-2.73-1.61-4.92-3.7-6.23-6.63c-0.74-1.65-1.1-3.4-1.47-5.15
		c-0.23-1.06-0.47-2.11-1.29-2.91C105.87,129.36,105.82,129.25,105.77,129.15z M92.2,114.67c-0.07,0.02-0.14,0.04-0.21,0.06
		c-0.1-0.14-0.19-0.28-0.3-0.42c-0.55-0.69-1.05-1.43-1.65-2.07c-1.34-1.46-2.34-3.11-3.02-4.96c-1.03-2.83-1.3-5.79-1.58-8.76
		c-0.15-1.58-0.26-3.18-0.93-4.66c-0.09-0.19-0.1-0.41-0.18-0.73c0.38,0.16,0.66,0.24,0.91,0.37c3.01,1.55,5.13,3.95,6.6,6.96
		c0.07,0.14,0.08,0.36,0.03,0.52c-1.22,3.58-1.04,7.15,0.05,10.72c0.14,0.47,0.34,0.89,0.95,0.99
		C92.64,113.37,92.42,114.02,92.2,114.67z M215.58,93.17c0.03,0.03,0.07,0.06,0.1,0.1c-0.06,0.22-0.1,0.46-0.19,0.66
		c-0.57,1.24-0.69,2.59-0.85,3.92c-0.24,2-0.41,4.01-0.73,6c-0.4,2.45-1.18,4.79-2.66,6.82c-0.94,1.28-2,2.48-3.01,3.72
		c-0.09,0.11-0.22,0.2-0.42,0.37c-0.23-0.75-0.44-1.41-0.65-2.1c0.61-0.04,0.82-0.45,0.93-0.89c0.3-1.33,0.65-2.66,0.82-4.01
		c0.29-2.32-0.01-4.6-0.77-6.81c-0.04-0.12-0.04-0.29,0.01-0.4c1.46-2.98,3.53-5.39,6.51-6.95
		C214.95,93.42,215.27,93.3,215.58,93.17z M212.63,113.39c0.02,0.18,0.04,0.27,0.03,0.35c-0.08,1.08-0.08,2.17-0.25,3.23
		c-0.68,4.15-2.74,7.5-6.09,10.04c-1.49,1.13-3.17,1.87-5.01,2.23c-0.47,0.09-0.57,0-0.49-0.46c0.16-0.92,0.31-1.85,0.56-2.74
		c0.9-3.22,2.9-5.69,5.4-7.81c1.75-1.48,3.7-2.73,5.28-4.41C212.2,113.66,212.4,113.56,212.63,113.39z M87.33,113.5
		c0.04-0.02,0.08-0.05,0.12-0.07c0.19,0.15,0.4,0.28,0.58,0.44c0.42,0.38,0.79,0.81,1.23,1.17c1.47,1.2,2.99,2.35,4.43,3.59
		c3.03,2.6,4.98,5.82,5.48,9.84c0.1,0.85,0.05,0.9-0.77,0.71c-2.68-0.63-4.9-2.02-6.76-4.02c-2.28-2.46-3.67-5.35-4.11-8.67
		C87.39,115.5,87.39,114.5,87.33,113.5z M93.84,76.36c0.04,0.04,0.08,0.08,0.13,0.12c-0.01,0.14,0,0.29-0.04,0.42
		c-0.36,1.26-0.25,2.53-0.17,3.81c0.13,2.12,0.33,4.23,0.18,6.36c-0.03,0.41-0.12,0.78-0.35,1.15c-0.94,1.43-1.61,2.99-1.95,4.67
		c-0.11,0.53-0.12,1.09-0.31,1.58c-0.23,0.58-0.6,1.11-0.92,1.65c-0.06,0.1-0.16,0.18-0.27,0.31c-0.13-0.19-0.23-0.33-0.31-0.48
		c-1.64-3.3-2.46-6.75-1.82-10.44c0.52-2.99,1.81-5.6,4-7.73C92.53,77.23,93.21,76.83,93.84,76.36z M209.87,96.5
		c-0.39-0.67-0.71-1.22-1.02-1.78c-0.09-0.17-0.2-0.35-0.22-0.54c-0.24-2.09-0.93-4.02-2.07-5.78c-0.34-0.53-0.49-1.07-0.48-1.67
		c0.06-1.99,0.14-3.98,0.21-5.97c0.04-1.3,0.2-2.61-0.19-3.89c-0.04-0.13-0.02-0.28-0.03-0.43c0.47,0.12,1.24,0.6,1.92,1.27
		c2.67,2.61,4.04,5.81,4.25,9.51c0.18,3.05-0.62,5.9-1.95,8.61C210.19,96.02,210.06,96.2,209.87,96.5z M101.92,71.44
		c0.15-0.45,0.19-0.86,0.4-1.15c0.97-1.4,2.13-2.65,3.44-3.75c2.46-2.06,5.32-3.27,8.41-4.01c1.27-0.3,2.55-0.54,3.72-1.15
		c0.26-0.13,0.58-0.17,0.88-0.19c0.37-0.02,0.58,0.17,0.51,0.53c-0.08,0.41-0.21,0.82-0.41,1.18c-0.91,1.59-2.12,2.92-3.58,4.02
		c-2.25,1.7-4.71,2.98-7.44,3.73c-1.08,0.3-2.16,0.61-3.25,0.77C103.76,71.54,102.89,71.44,101.92,71.44z M198.16,71.44
		c-0.51,0.04-0.87,0.08-1.24,0.08c-1.83,0.04-3.57-0.43-5.28-1c-2.27-0.76-4.41-1.8-6.36-3.19c-1.66-1.19-3.07-2.62-4.1-4.39
		c-0.19-0.33-0.33-0.69-0.43-1.05c-0.13-0.46,0.1-0.73,0.57-0.7c0.28,0.02,0.59,0.07,0.84,0.2c1.16,0.61,2.43,0.85,3.69,1.14
		c4.81,1.1,8.78,3.5,11.69,7.52C197.79,70.42,197.92,70.9,198.16,71.44z M106.88,134.61c-1.5-0.76-2.92-1.48-4.34-2.2
		c-0.09-0.05-0.18-0.12-0.24-0.2c-0.8-1.04-1.44-2.17-1.8-3.44c-0.52-1.82-0.33-3.63,0.03-5.44c0.33-1.63,0.66-3.25,0.5-4.93
		c-0.02-0.19,0.01-0.4,0.05-0.59c0.05-0.26,0.19-0.38,0.44-0.21c0.3,0.21,0.61,0.42,0.88,0.67c2.29,2.1,3.63,4.75,4.36,7.73
		c0.22,0.91,0.36,1.85,0.54,2.82c-0.38-0.12-0.66-0.23-0.95-0.3c-0.43-0.11-0.91-0.2-1.18,0.25c-0.27,0.45,0.03,0.84,0.34,1.16
		c0.46,0.48,0.73,1.05,0.88,1.69c0.17,0.73,0.35,1.46,0.49,2.19C106.92,134.08,106.88,134.36,106.88,134.61z M192.69,128.81
		c0.27-1.25,0.46-2.46,0.8-3.63c0.8-2.81,2.19-5.28,4.45-7.18c0.24-0.2,0.56-0.31,0.84-0.46c0.08,0.32,0.25,0.66,0.21,0.97
		c-0.16,1.46,0.14,2.86,0.38,4.27c0.2,1.21,0.42,2.42,0.45,3.64c0.06,2.11-0.71,3.97-1.99,5.63c-0.14,0.19-0.36,0.34-0.57,0.45
		c-1.18,0.64-2.37,1.25-3.56,1.88c-0.16,0.08-0.31,0.18-0.54,0.33c-0.03-0.3-0.1-0.53-0.07-0.75c0.1-0.6,0.24-1.19,0.37-1.78
		c0.2-0.85,0.42-1.69,1.09-2.33c0.16-0.16,0.26-0.39,0.34-0.61c0.12-0.35-0.03-0.64-0.39-0.73c-0.22-0.06-0.47-0.07-0.7-0.03
		C193.48,128.55,193.15,128.68,192.69,128.81z M143.28,48.96c0.19-0.15,0.29-0.23,0.4-0.3c4.42-2.68,9.16-3.7,14.29-2.89
		c1.17,0.18,2.36,0.19,3.54,0.28c0.29,0.02,0.58,0.02,0.86,0.09c0.47,0.11,0.56,0.36,0.25,0.73c-0.22,0.27-0.48,0.53-0.77,0.74
		c-2.46,1.78-5.3,2.53-8.26,2.88c-1.91,0.22-3.82,0.23-5.73,0c-1.33-0.15-2.63-0.41-3.83-1.04
		C143.8,49.32,143.58,49.16,143.28,48.96z M180.05,61.5c-1.81-0.03-3.57-0.24-5.31-0.64c-2.62-0.6-5.11-1.49-7.24-3.17
		c-0.61-0.48-1.15-1.08-1.63-1.7c-0.32-0.4-0.11-0.72,0.42-0.76c0.26-0.02,0.54-0.04,0.79,0.01c1.33,0.31,2.68,0.16,4.02,0.22
		c1.25,0.06,2.51,0.09,3.74,0.28c3.05,0.48,5.77,1.76,8.25,3.58c0.52,0.38,1.02,0.8,1.61,1.26c-0.73,0.33-1.3,0.78-2.04,0.29
		c-0.25-0.17-0.58-0.26-0.89-0.31C181.04,60.48,180.35,60.45,180.05,61.5z M115.39,60.52c0.12-0.08,0.24-0.17,0.35-0.25
		c0.6-0.45,1.19-0.92,1.81-1.35c2.68-1.86,5.64-2.99,8.89-3.35c2.27-0.25,4.57,0.1,6.83-0.33c0.33-0.06,0.79-0.12,0.97,0.26
		c0.18,0.38-0.15,0.7-0.38,0.98c-0.8,0.94-1.78,1.65-2.84,2.25c-2.29,1.31-4.78,2.05-7.38,2.45c-1.21,0.18-2.43,0.26-3.63,0.39
		c-0.33-0.87-0.64-1.09-1.49-1.01c-0.38,0.04-0.8,0.13-1.12,0.33C116.65,61.34,116.07,60.96,115.39,60.52z M94.45,105.81
		c1.99,1.01,4.47,5.28,5.16,8.77c0.56,2.81-0.13,7.42-1.31,8.75c-0.98-1.92-2.32-3.55-3.92-4.98c-0.31-0.27-0.43-0.56-0.45-0.95
		c-0.14-2.27,0.06-4.53,0.26-6.79c0.1-1.14,0.11-2.29,0.17-3.43C94.38,106.75,94.42,106.31,94.45,105.81z M205.42,105.85
		c0.05,0,0.11,0.01,0.16,0.01c0.03,0.5,0.06,1.01,0.09,1.51c0.04,0.95,0.03,1.9,0.12,2.84c0.23,2.45,0.5,4.91,0.28,7.37
		c-0.02,0.22-0.15,0.47-0.3,0.64c-0.85,0.94-1.76,1.82-2.56,2.79c-0.58,0.7-1.02,1.52-1.55,2.32c-1.44-2.87-1.76-5.89-1.18-9.01
		C201.1,110.92,202.82,108.12,205.42,105.85z M99.57,93.47c-0.19,0.56-0.42,0.98-0.48,1.42c-0.24,1.64-0.45,3.29-0.64,4.93
		c-0.2,1.8-0.47,3.58-1.05,5.3c-0.21,0.61-0.47,1.21-0.75,1.91c-0.12-0.17-0.17-0.25-0.23-0.31c-0.45-0.45-0.87-0.92-1.35-1.33
		c-0.51-0.44-1.01-0.27-1.22,0.37c-0.05,0.14-0.08,0.28-0.08,0.42c-0.02,0.74-0.02,1.47-0.06,2.21c-0.04,0.8-0.13,1.6-0.17,2.41
		c-0.03,0.55-0.38,0.85-0.81,1.22c-0.13-0.41-0.26-0.76-0.36-1.11c-0.89-3.25-1.02-6.51,0.15-9.72c1.17-3.22,3.13-5.8,6.26-7.38
		C98.99,93.69,99.23,93.61,99.57,93.47z M200.48,93.51c0.92,0.28,1.66,0.73,2.34,1.23c2.1,1.54,3.57,3.57,4.52,5.97
		c1.42,3.59,1.24,7.21,0.13,10.84c-0.04,0.14-0.14,0.27-0.21,0.41c-0.59-0.44-0.75-0.69-0.78-1.29c-0.06-1.3-0.11-2.61-0.18-3.91
		c-0.02-0.35-0.05-0.71-0.16-1.05c-0.18-0.58-0.65-0.73-1.14-0.37c-0.21,0.15-0.39,0.35-0.58,0.53c-0.35,0.33-0.7,0.67-1.06,1.01
		c-0.02-0.02-0.05-0.04-0.06-0.08c-0.11-0.24-0.22-0.48-0.32-0.72c-1.07-2.6-1.33-5.35-1.59-8.1c-0.13-1.37-0.21-2.76-0.79-4.05
		C200.55,93.83,200.54,93.71,200.48,93.51z M93.86,75.72c0-0.2-0.01-0.38,0-0.54c0.19-2.1,1.03-3.92,2.35-5.55
		c1.23-1.52,2.93-2.58,3.98-4.27c0.28-0.45,0.57-0.37,0.83,0.1c0.06,0.11,0.14,0.23,0.16,0.36c0.17,0.9,0.43,1.8,0.48,2.71
		c0.09,1.66-0.35,3.24-1.04,4.74c-0.36,0.77-0.78,1.52-1.25,2.23c-0.35,0.54-0.87,0.97-1.2,1.52c-0.76,1.24-1.6,2.41-2.61,3.46
		c-0.21,0.21-0.42,0.42-0.73,0.72c-0.19-0.75-0.47-1.37-0.49-2c-0.02-0.79,0.15-1.59,0.26-2.38C94.7,76.13,94.51,75.81,93.86,75.72z
		 M206.17,75.71c-0.64,0.1-0.82,0.33-0.76,0.97c0.03,0.25,0.08,0.49,0.14,0.74c0.3,1.26,0.13,2.47-0.41,3.66
		c-0.12-0.08-0.23-0.13-0.3-0.21c-0.75-0.9-1.52-1.78-2.24-2.7c-0.51-0.65-0.93-1.37-1.41-2.05c-0.37-0.52-0.82-1-1.14-1.56
		c-0.36-0.61-0.64-1.27-0.9-1.93c-0.86-2.2-1.11-4.44-0.34-6.72c0.11-0.31,0.38-0.57,0.58-0.85c0.26,0.22,0.61,0.4,0.77,0.68
		c0.39,0.68,0.94,1.2,1.51,1.71c1.12,1.01,2.19,2.06,3.01,3.34C205.62,72.31,206.15,73.93,206.17,75.71z M108.16,71.18
		c0.05,0.31,0.12,0.51,0.09,0.69c-0.08,0.66-0.12,1.34-0.29,1.99c-0.53,1.99-1.83,3.47-3.32,4.81c-1.66,1.49-3.54,2.66-5.46,3.75
		c-0.79,0.45-1.59,0.88-2.39,1.3c-0.16,0.08-0.37,0.07-0.56,0.11c-0.01-0.19-0.07-0.39-0.02-0.56c0.28-0.94,0.53-1.9,0.88-2.82
		c0.86-2.27,2.16-4.24,4.15-5.7c1.27-0.93,2.71-1.5,4.19-2c0.74-0.25,1.45-0.56,2.02-1.11C107.63,71.46,107.86,71.37,108.16,71.18z
		 M191.91,71.21c0.24,0.15,0.45,0.28,0.65,0.41c0.44,0.28,0.86,0.61,1.32,0.85c0.44,0.22,0.93,0.36,1.4,0.52
		c2.2,0.75,4.12,1.92,5.58,3.78c1.53,1.95,2.38,4.2,2.97,6.57c0.04,0.16,0.01,0.33,0.01,0.57c-0.26-0.08-0.47-0.11-0.64-0.2
		c-0.79-0.42-1.58-0.84-2.36-1.28c-2.3-1.31-4.53-2.71-6.38-4.63c-1.34-1.39-2.38-2.96-2.62-4.93
		C191.78,72.33,191.67,71.8,191.91,71.21z M92.36,98.57c-0.04-0.01-0.07-0.01-0.11-0.02c-0.04-0.29-0.07-0.59-0.12-0.88
		c-0.23-1.35-0.25-2.71,0-4.05c0.67-3.57,2.46-6.48,5.35-8.66c0.86-0.65,1.88-1.11,2.85-1.6c0.46-0.23,0.57-0.13,0.63,0.38
		c0.02,0.13,0.02,0.26,0.02,0.4c0.04,1.16-0.19,2.28-0.59,3.36c-0.84,2.29-2.29,4.19-3.83,6.04c-1.25,1.5-2.48,3.01-3.73,4.51
		C92.67,98.22,92.52,98.4,92.36,98.57z M207.75,98.64c-0.23-0.25-0.4-0.42-0.56-0.61c-1.2-1.45-2.39-2.91-3.6-4.36
		c-1.3-1.55-2.54-3.13-3.43-4.96c-0.76-1.56-1.25-3.19-1.09-4.95c0.05-0.57,0.13-0.61,0.67-0.41c0.06,0.02,0.12,0.05,0.18,0.07
		c2.18,0.94,3.97,2.37,5.38,4.28c2.07,2.8,3.07,5.91,2.67,9.41C207.92,97.6,207.83,98.07,207.75,98.64z M184.4,59.48
		c-0.15-0.1-0.25-0.16-0.35-0.24c-3.46-2.7-7.36-4.26-11.78-4.42c-0.17-0.01-0.37-0.09-0.49-0.2c-0.77-0.68-1.55-1.35-2.26-2.09
		c-0.85-0.89-1.49-1.93-1.61-3.19c-0.05-0.58-0.03-1.18,0.07-1.76c0.08-0.46,0.41-0.55,0.81-0.29c0.23,0.15,0.45,0.33,0.62,0.54
		c0.58,0.74,1.28,1.34,2.1,1.77c1.44,0.76,2.9,1.5,4.37,2.2c1.92,0.92,3.88,1.78,5.65,2.98c0.99,0.67,1.9,1.42,2.49,2.49
		C184.39,57.96,184.52,58.67,184.4,59.48z M115.65,59.44c-0.03-0.05-0.06-0.07-0.06-0.09c-0.01-0.08-0.02-0.16-0.02-0.23
		c-0.04-0.96,0.3-1.78,0.89-2.51c0.83-1.04,1.88-1.82,3.04-2.43c1.87-0.99,3.79-1.9,5.69-2.83c1.54-0.75,3.13-1.42,4.46-2.52
		c0.47-0.39,0.85-0.9,1.31-1.31c0.2-0.17,0.55-0.36,0.75-0.29c0.2,0.06,0.37,0.43,0.41,0.69c0.18,1.08-0.02,2.12-0.53,3.1
		c-0.63,1.22-1.61,2.14-2.61,3.05c-0.57,0.52-1.16,0.94-1.99,0.82c-0.13-0.02-0.26,0.04-0.39,0.05c-3.1,0.26-5.96,1.26-8.59,2.91
		C117.21,58.33,116.45,58.89,115.65,59.44z M169.07,54.23c-0.59,0.35-1.04,0.6-1.66,0.43c-0.43-0.12-0.92-0.08-1.37-0.04
		c-0.41,0.04-0.79,0.24-0.9,0.67c-0.07,0.28-0.23,0.34-0.44,0.33c-1.12-0.02-2.25,0.04-3.35-0.11c-3.18-0.44-6.07-1.69-8.77-3.4
		c-0.23-0.14-0.41-0.34-0.62-0.52c0.01-0.03,0.03-0.06,0.04-0.09c1.52,0.46,2.94-0.12,4.4-0.37c0.92-0.16,1.85-0.33,2.78-0.39
		c2.96-0.19,5.66,0.61,8.13,2.22C167.88,53.35,168.44,53.77,169.07,54.23z M130.97,54.24c0.44-0.33,0.82-0.63,1.21-0.91
		c2.43-1.7,5.1-2.72,8.1-2.58c1.4,0.07,2.79,0.37,4.18,0.57c0.87,0.12,1.74,0.27,2.62,0.35c0.3,0.03,0.62-0.09,1.03-0.15
		c-0.17,0.18-0.26,0.29-0.37,0.39c-0.09,0.08-0.18,0.15-0.28,0.22c-2.2,1.38-4.53,2.46-7.06,3.08c-1.64,0.4-3.3,0.58-4.98,0.43
		c-0.17-0.02-0.43-0.13-0.49-0.26c-0.15-0.37-0.38-0.64-0.75-0.68c-0.54-0.06-1.11-0.1-1.64,0C131.93,54.8,131.5,54.56,130.97,54.24
		z M102.29,69.04c0.04-0.44-0.03-0.9,0.12-1.28c0.48-1.18,0.96-2.37,1.59-3.47c1.44-2.49,3.57-4.31,5.98-5.81
		c1.14-0.71,2.34-1.32,3.29-2.31c0.17-0.17,0.41-0.29,0.64-0.39c0.43-0.18,0.71-0.06,0.79,0.4c0.07,0.4,0.07,0.82,0.01,1.22
		c-0.26,1.61-0.89,3.07-1.76,4.45c-0.17,0.27-0.37,0.44-0.69,0.53c-2.64,0.78-5.05,2-7.11,3.82
		C104.18,67.07,103.28,68.06,102.29,69.04z M197.75,69c-0.12,0.01-0.14,0.02-0.14,0.02c-0.22-0.25-0.43-0.5-0.64-0.75
		c-2.51-2.9-5.63-4.85-9.3-5.93c-0.2-0.06-0.42-0.23-0.54-0.41c-0.8-1.19-1.38-2.48-1.71-3.88c-0.15-0.63-0.3-1.26-0.11-1.91
		c0.12-0.4,0.37-0.55,0.75-0.37c0.33,0.16,0.62,0.39,0.92,0.6c0.44,0.33,0.85,0.71,1.31,1.01c0.6,0.41,1.23,0.77,1.84,1.15
		c3.48,2.14,6.08,5.02,7.4,8.94C197.68,67.96,197.68,68.5,197.75,69z M161.23,34.43c0.05,0.02,0.1,0.05,0.15,0.07
		c-0.25,0.77-0.45,1.56-0.77,2.3c-1.4,3.14-3.62,5.63-6.28,7.76c-0.28,0.23-0.57,0.32-0.94,0.33c-0.43,0-0.87,0.06-1.3,0.11
		c-0.73,0.1-1.45,0.22-2.21,0.34c-0.02-0.55,0.01-1.06,0.31-1.55c0.45-0.74,0.84-1.52,1.27-2.27c0.17-0.3,0.36-0.62,0.6-0.86
		c0.39-0.39,0.81-0.76,1.24-1.1c1.52-1.21,3.23-2.13,4.94-3.04c0.98-0.52,1.97-1.02,2.71-1.88
		C161.03,34.54,161.14,34.49,161.23,34.43z M131.07,53.09c-0.02-0.03-0.03-0.06-0.05-0.1c0.1-0.13,0.2-0.26,0.31-0.39
		c1.05-1.27,1.6-2.72,1.5-4.37c-0.03-0.44,0.12-0.71,0.39-1c1.5-1.64,3.42-2.4,5.55-2.75c1.14-0.19,2.29-0.34,3.3-1
		c0.16-0.11,0.38-0.14,0.61-0.23c0.04,1.23-0.33,2.26-1.04,3.17c-1.26,1.63-2.89,2.84-4.61,3.93c-0.09,0.06-0.19,0.1-0.29,0.13
		c-1.83,0.45-3.47,1.3-5.01,2.36C131.53,52.96,131.29,53,131.07,53.09z M143.23,49.76c-0.15,0.09-0.27,0.14-0.37,0.22
		c-0.41,0.32-0.87,0.23-1.32,0.17c-0.09-0.01-0.21-0.16-0.21-0.25c-0.04-0.47-0.07-0.95-0.07-1.42c-0.01-0.43,0.14-0.79,0.45-1.13
		c0.73-0.79,1.35-1.69,1.48-2.78c0.09-0.73,0.4-1.22,0.97-1.61c0.05-0.04,0.1-0.09,0.16-0.12c1.39-0.85,2.77-1.72,4.18-2.55
		c1-0.59,2.02-1.14,2.79-2.05c0.12-0.15,0.29-0.25,0.51-0.44c-0.01,0.24,0,0.38-0.03,0.52c-0.13,0.58-0.24,1.16-0.43,1.72
		c-0.7,2.14-1.94,3.96-3.37,5.67c-0.18,0.21-0.44,0.36-0.69,0.48c-1.25,0.62-2.51,1.21-3.76,1.82c-0.21,0.1-0.4,0.26-0.57,0.42
		c-0.3,0.3-0.3,0.7-0.02,1.03C143.01,49.55,143.11,49.63,143.23,49.76z M167.38,37.86c0.03,0.09,0.05,0.11,0.05,0.14
		c0,0.05-0.01,0.11-0.02,0.16c-0.3,1.41-0.94,2.65-1.94,3.69c-1.59,1.66-3.58,2.67-5.7,3.44c-0.14,0.05-0.31,0.04-0.46,0.02
		c-1.05-0.12-2.09-0.25-3.14-0.37c-0.35-0.04-0.71-0.07-1.13-0.1c1.56-1.26,2.87-2.64,4.04-4.16c0.16-0.2,0.4-0.39,0.65-0.47
		c1.25-0.37,2.5-0.71,3.76-1.04c1.18-0.31,2.4-0.48,3.47-1.14C167.08,37.94,167.23,37.92,167.38,37.86z M132.58,37.82
		c0.31,0.13,0.54,0.24,0.78,0.34c0.52,0.21,1.04,0.45,1.58,0.6c1.26,0.34,2.52,0.67,3.79,0.95c1.25,0.27,2.34,0.75,2.99,1.94
		c0.11,0.2,0.31,0.36,0.46,0.54c0.12,0.13,0.23,0.27,0.35,0.39c-0.28,0.11-0.55,0.18-0.77,0.31c-0.77,0.47-1.61,0.68-2.49,0.84
		c-1.93,0.35-1.93,0.37-3.32-0.65c-1.64-1.2-2.83-2.71-3.3-4.72C132.62,38.22,132.61,38.06,132.58,37.82z M161.41,45.36
		c0.43-0.21,0.79-0.4,1.17-0.56c0.07-0.03,0.18,0.01,0.27,0.03c1.48,0.41,2.76,1.15,3.84,2.25c0.36,0.37,0.69,0.72,0.5,1.3
		c-0.03,0.09-0.01,0.21,0,0.31c0.07,1.56,0.65,2.91,1.67,4.08c0.06,0.07,0.11,0.15,0.16,0.23c-0.02,0.03-0.05,0.06-0.07,0.09
		c-0.24-0.11-0.51-0.19-0.73-0.33c-1.23-0.83-2.5-1.59-3.93-1.99c-1.11-0.31-2.04-0.89-2.93-1.56c-0.11-0.08-0.21-0.17-0.34-0.27
		c0.22-0.14,0.4-0.22,0.55-0.35c0.55-0.46,1.16-0.88,1.62-1.42c0.58-0.69,0.25-1.47-0.62-1.68
		C162.21,45.42,161.84,45.41,161.41,45.36z M138.67,34.4c0.12,0.04,0.16,0.04,0.19,0.07c0.09,0.06,0.18,0.12,0.25,0.2
		c0.6,0.69,1.38,1.12,2.17,1.57c1.48,0.83,2.95,1.68,4.4,2.56c0.6,0.36,1.13,0.84,1.69,1.26c-1.34,0.85-2.62,1.67-3.93,2.51
		C141.26,40.24,139.34,37.74,138.67,34.4z M205.52,81.68c-0.05,1.69-0.09,3.34-0.14,4.96c-0.79-0.75-1.6-1.53-2.41-2.29
		c0.03,0.01,0.08,0.02,0.12,0.04c1.21,0.43,1.55-0.22,1.37-1.28c-0.01-0.04-0.02-0.08-0.04-0.11c-0.21-0.74-0.41-1.48-0.63-2.25
		C204.32,81.19,204.65,81.93,205.52,81.68z M94.66,86.62c-0.05-1.63-0.1-3.29-0.15-4.9c0.23-0.02,0.47,0,0.68-0.08
		c0.2-0.08,0.36-0.25,0.54-0.39c0.17-0.14,0.34-0.28,0.5-0.41c-0.09,0.27-0.2,0.57-0.28,0.87c-0.16,0.66-0.35,1.32-0.42,1.99
		c-0.06,0.58,0.37,0.88,0.95,0.78c0.17-0.03,0.33-0.07,0.51-0.11C96.2,85.15,95.42,85.9,94.66,86.62z M99.55,126.59
		c-0.31-0.86-0.58-1.61-0.83-2.36c-0.03-0.1,0.05-0.24,0.1-0.35c0.27-0.59,0.6-1.15,0.79-1.76c0.32-0.99,0.55-2.02,0.82-3.03
		c-0.04,0.79-0.09,1.59-0.22,2.37C99.95,123.13,99.49,124.77,99.55,126.59z M199.67,119.21c0.01,0.02,0.03,0.04,0.03,0.07
		c0.23,1.65,0.7,3.21,1.53,4.66c0.06,0.1,0.07,0.26,0.04,0.36c-0.23,0.7-0.48,1.39-0.73,2.08
		C200.52,123.96,199.58,121.64,199.67,119.21z M194.68,72.08c1.1,0,2.32,0,3.54,0c0.26,0.65,0.52,1.31,0.81,2.04
		C197.61,73.11,196.07,72.56,194.68,72.08z M105.15,72.08c-1.17,0.52-2.64,1.19-4.07,1.83c0.23-0.58,0.48-1.22,0.72-1.83
		C103.04,72.08,104.24,72.08,105.15,72.08z M119.27,143.65c0.55,0.77,1.07,1.48,1.63,2.26c-0.65-0.16-1.2-0.3-1.72-0.43
		C119.21,144.86,119.24,144.29,119.27,143.65z M179.11,145.91c0.57-0.78,1.09-1.49,1.61-2.21c0.03,0.01,0.06,0.02,0.09,0.02
		c0,0.58,0,1.17,0,1.77C180.28,145.63,179.74,145.76,179.11,145.91z M115.6,61.51c-0.68,0.16-1.28,0.31-1.89,0.45
		c0.41-0.85,0.8-1.66,1.2-2.48c0.17,0.25,0.2,0.46-0.01,0.73c-0.24,0.31-0.15,0.69,0.16,0.94C115.2,61.27,115.36,61.36,115.6,61.51z
		 M184.42,61.51c0.23-0.15,0.41-0.25,0.56-0.37c0.29-0.24,0.39-0.59,0.17-0.88c-0.23-0.31-0.18-0.55-0.05-0.81
		c0.39,0.82,0.79,1.65,1.21,2.51C185.69,61.82,185.1,61.67,184.42,61.51z M208.45,98.54c0.1-0.93,0.2-1.74,0.29-2.57
		c0.27,0.37,0.52,0.72,0.77,1.08C209.19,97.5,208.85,97.97,208.45,98.54z M91.28,95.96c0.09,0.83,0.18,1.64,0.28,2.45
		c-0.02,0-0.05,0.01-0.07,0.01c-0.33-0.47-0.66-0.93-0.97-1.38C90.77,96.67,91.01,96.33,91.28,95.96z M138.62,50.08
		c0.57-0.4,1.01-1.06,1.77-0.46c0.02,0.02,0.06,0.02,0.07,0.04c0.08,0.11,0.16,0.23,0.3,0.42
		C139.98,50.08,139.34,50.08,138.62,50.08z M159.36,50.08c0.01-0.56,0.5-0.58,0.79-0.67c0.56-0.18,0.77,0.47,1.18,0.67
		C160.69,50.08,160.04,50.08,159.36,50.08z M148.51,39.51c-0.11-0.59-0.21-1.1-0.31-1.61c0.04-0.02,0.09-0.05,0.13-0.07
		c0.33,0.4,0.65,0.8,0.98,1.2C149.13,39.13,148.85,39.3,148.51,39.51z M130.48,53.61c0,0.45,0,0.8,0,1.17c-0.38,0-0.82,0-1.35,0
		C129.62,54.35,130.06,53.97,130.48,53.61z M169.42,53.7c0.04-0.04,0.08-0.07,0.11-0.11c0.43,0.38,0.86,0.75,1.36,1.19
		c-0.54,0-0.96,0-1.44,0C169.73,54.39,169.68,54.04,169.42,53.7z M92.31,99.89c-0.12-0.23-0.21-0.4-0.3-0.58
		c0.23-0.03,0.4-0.05,0.61-0.07C92.51,99.45,92.43,99.64,92.31,99.89z M208.02,99.31c-0.1,0.18-0.2,0.36-0.32,0.57
		c-0.11-0.24-0.2-0.43-0.3-0.65C207.64,99.26,207.82,99.28,208.02,99.31z"/>
	<path id="_x36_6" class="st1" d="M148.51,39.51c0.35-0.21,0.62-0.38,0.8-0.49c-0.33-0.4-0.65-0.8-0.98-1.2
		c-0.04,0.02-0.09,0.05-0.13,0.07C148.3,38.41,148.39,38.92,148.51,39.51z"/>
	<path id="_x36_5" class="st1" d="M208.02,99.31c-0.21-0.03-0.38-0.05-0.62-0.08c0.1,0.22,0.19,0.41,0.3,0.65
		C207.82,99.66,207.92,99.49,208.02,99.31z"/>
	<path id="_x36_4" d="M142.95,155.87c-0.3,0.1-0.58,0.2-0.88,0.29c-1.53,0.48-3.09,0.84-4.68,1.02c-1.03,0.12-2.06,0.17-3.1,0.22
		c-1.14,0.06-2.27-0.01-3.4-0.11c-3.08-0.29-6.07-1-8.95-2.1c-1.71-0.65-3.36-1.44-4.95-2.34c-0.1-0.06-0.21-0.1-0.32-0.13
		c-0.32-0.07-0.6,0.12-0.65,0.44c-0.05,0.33,0.06,0.63,0.17,0.93c0.25,0.73,0.54,1.45,0.74,2.19c0.37,1.39,0.1,2.71-0.6,3.95
		c-0.35,0.62-0.78,1.19-1.18,1.78c-0.24,0.34-0.49,0.67-0.54,1.1c-0.05,0.36,0.08,0.65,0.39,0.86c0.33,0.23,0.71,0.32,1.1,0.32
		c0.76,0,1.52-0.03,2.28-0.08c0.75-0.05,1.5-0.14,2.25-0.22c0.75-0.08,1.5-0.16,2.25-0.25c0.84-0.1,1.68-0.21,2.52-0.33
		c1.19-0.17,2.38-0.33,3.57-0.53c1.41-0.23,2.82-0.48,4.23-0.74c3.49-0.66,6.96-1.42,10.35-2.5c0.02-0.01,0.03,0,0.07-0.01
		c0.04,0.07,0.08,0.15,0.14,0.25c-0.39,0.12-0.76,0.25-1.13,0.36c-2.85,0.86-5.74,1.56-8.66,2.14c-1.6,0.32-3.21,0.6-4.82,0.88
		c-0.49,0.09-1,0.14-1.46,0.35c-0.13,0.06-0.26,0.13-0.38,0.22c-0.46,0.34-0.5,0.85-0.09,1.25c0.31,0.3,0.7,0.47,1.11,0.61
		c1.32,0.43,2.67,0.64,4.06,0.59c1.67-0.05,3.29-0.41,4.87-0.93c2.75-0.91,5.29-2.22,7.68-3.82c0.06-0.04,0.12-0.08,0.15-0.1
		c0.59,0.39,1.16,0.78,1.74,1.15c0.29,0.19,0.6,0.33,0.95,0.38c0.55,0.08,0.97-0.13,1.3-0.55c0.36-0.46,0.51-1,0.64-1.54
		c0.1-0.46,0.18-0.93,0.29-1.4c0.03,0.21,0.06,0.43,0.1,0.64c0.11,0.67,0.24,1.34,0.57,1.95c0.22,0.41,0.52,0.75,1,0.87
		c0.46,0.12,0.89,0.01,1.28-0.22c0.66-0.4,1.3-0.83,1.97-1.27c0.29,0.19,0.62,0.41,0.96,0.62c2.22,1.39,4.55,2.55,7.06,3.35
		c1.19,0.38,2.41,0.66,3.65,0.8c1.81,0.2,3.58,0.01,5.3-0.61c0.3-0.11,0.59-0.28,0.84-0.48c0.48-0.4,0.44-0.96-0.08-1.32
		c-0.44-0.3-0.95-0.4-1.46-0.49c-1.25-0.21-2.5-0.42-3.75-0.65c-2.49-0.46-4.95-1-7.39-1.66c-1.22-0.33-2.43-0.71-3.64-1.07
		c-0.05-0.01-0.1-0.04-0.16-0.06c0.05-0.09,0.09-0.16,0.13-0.25c0.49,0.15,0.97,0.3,1.45,0.44c2.21,0.64,4.44,1.17,6.7,1.63
		c1.75,0.35,3.5,0.68,5.25,0.98c1.45,0.25,2.91,0.46,4.36,0.67c1.39,0.2,2.79,0.38,4.19,0.54c1.18,0.14,2.36,0.25,3.55,0.35
		c0.65,0.05,1.31,0.07,1.96,0.06c0.3,0,0.62-0.08,0.9-0.19c0.56-0.2,0.77-0.66,0.6-1.22c-0.11-0.37-0.34-0.67-0.57-0.97
		c-0.6-0.78-1.13-1.61-1.5-2.53c-0.5-1.25-0.46-2.5-0.03-3.76c0.2-0.58,0.42-1.15,0.62-1.73c0.06-0.18,0.11-0.38,0.12-0.57
		c0.03-0.53-0.4-0.79-0.88-0.55c-0.21,0.11-0.42,0.23-0.63,0.35c-2.9,1.59-5.97,2.76-9.22,3.5c-1.31,0.3-2.63,0.53-3.98,0.63
		c-1.09,0.08-2.17,0.15-3.26,0.15c-3.02-0.01-5.97-0.49-8.82-1.49c-0.05-0.02-0.09-0.04-0.17-0.07c0.07-0.05,0.13-0.09,0.18-0.12
		c1.55-0.95,2.94-2.08,4.04-3.52c0.4-0.53,0.74-1.1,0.98-1.71c0.44-1.11,0.25-2.1-0.51-3.01c-0.66-0.8-1.53-1.21-2.57-1.32
		c-1.12-0.12-2.21,0.06-3.29,0.3c-1.16,0.25-2.31,0.53-3.47,0.78c-1,0.22-2.02,0.34-3.05,0.26c-0.92-0.07-1.83-0.26-2.73-0.46
		c-1.14-0.25-2.27-0.53-3.42-0.75c-0.94-0.19-1.9-0.26-2.86-0.06c-1.39,0.3-2.29,1.14-2.74,2.44c-0.22,0.63-0.07,1.27,0.16,1.88
		c0.36,0.95,0.97,1.75,1.65,2.49c0.99,1.07,2.13,1.96,3.38,2.71c0.03,0.02,0.07,0.04,0.1,0.07
		C142.92,155.83,142.93,155.84,142.95,155.87z M143.01,156.57c0.02,0.4,0.03,0.82,0.08,1.23c0.05,0.41,0.15,0.81,0.24,1.23
		c-0.04,0.01-0.1,0.04-0.16,0.05c-2.59,0.82-5.23,1.45-7.9,1.99c-1.68,0.34-3.36,0.65-5.04,0.95c-1.2,0.21-2.4,0.39-3.6,0.57
		c-0.94,0.14-1.89,0.26-2.83,0.39c-0.83,0.11-1.66,0.21-2.49,0.3c-0.83,0.09-1.66,0.19-2.5,0.26c-0.76,0.07-1.52,0.12-2.28,0.14
		c-0.33,0.01-0.67-0.07-1-0.15c-0.27-0.07-0.33-0.23-0.22-0.47c0.09-0.2,0.2-0.39,0.33-0.56c0.54-0.7,1.04-1.42,1.43-2.21
		c0.67-1.34,0.9-2.73,0.5-4.18c-0.2-0.74-0.49-1.46-0.74-2.19c-0.05-0.15-0.1-0.29-0.16-0.49c0.09,0.05,0.13,0.07,0.17,0.09
		c0.55,0.29,1.09,0.59,1.65,0.87c2.8,1.39,5.74,2.42,8.83,3.04c1.76,0.35,3.54,0.57,5.34,0.63c1.31,0.04,2.62,0.01,3.93-0.12
		c1.31-0.13,2.61-0.33,3.88-0.65C141.32,157.06,142.15,156.81,143.01,156.57z M183.33,153.42c-0.04,0.16-0.07,0.27-0.11,0.37
		c-0.2,0.56-0.42,1.11-0.61,1.68c-0.45,1.33-0.5,2.67-0.01,4c0.38,1.02,0.95,1.93,1.61,2.8c0.17,0.22,0.33,0.46,0.46,0.71
		c0.16,0.32,0.09,0.49-0.26,0.58c-0.31,0.08-0.64,0.14-0.95,0.13c-1.09-0.06-2.18-0.13-3.27-0.24c-1.52-0.16-3.03-0.34-4.55-0.54
		c-1.46-0.19-2.92-0.39-4.37-0.63c-1.89-0.31-3.79-0.66-5.67-1.02c-2.63-0.5-5.23-1.11-7.79-1.86c-0.38-0.11-0.76-0.24-1.16-0.36
		c0.29-0.82,0.32-1.65,0.35-2.48c0.03,0,0.04,0,0.05,0c1.97,0.68,3.99,1.12,6.07,1.34c1.48,0.16,2.95,0.2,4.44,0.14
		c1.59-0.06,3.17-0.24,4.74-0.54c3.46-0.66,6.74-1.81,9.85-3.43C182.52,153.86,182.9,153.65,183.33,153.42z M143.33,155.31
		c-0.02-0.01-0.04-0.02-0.07-0.03c-1.31-0.79-2.5-1.71-3.51-2.85c-0.59-0.67-1.11-1.39-1.4-2.24c-0.13-0.37-0.22-0.74-0.15-1.13
		c0.13-0.66,0.51-1.17,1.02-1.6c0.67-0.56,1.49-0.69,2.33-0.69c0.8,0,1.59,0.14,2.38,0.31c1.34,0.29,2.67,0.61,4.02,0.88
		c1.37,0.28,2.75,0.28,4.11,0c1.24-0.25,2.47-0.55,3.71-0.82c0.99-0.21,1.98-0.4,3-0.37c1.31,0.05,2.29,0.6,2.87,1.78
		c0.18,0.36,0.21,0.72,0.15,1.1c-0.11,0.65-0.41,1.22-0.77,1.77c-0.78,1.17-1.8,2.12-2.94,2.95c-0.46,0.33-0.94,0.64-1.4,0.95
		c-0.26-0.35-0.51-0.68-0.75-1.01c0.16-0.14,0.34-0.29,0.51-0.46c0.46-0.44,0.85-0.93,1.03-1.55c0.23-0.81-0.16-1.45-1.01-1.59
		c-0.3-0.05-0.62-0.06-0.92-0.02c-1.39,0.18-2.78,0.39-4.17,0.59c-0.68,0.1-1.37,0.17-2.06,0.08c-1.33-0.18-2.65-0.38-3.98-0.55
		c-0.53-0.07-1.07-0.13-1.6-0.11c-0.92,0.03-1.42,0.73-1.19,1.6c0.16,0.58,0.51,1.05,0.93,1.47c0.2,0.2,0.41,0.38,0.61,0.56
		C143.82,154.64,143.58,154.96,143.33,155.31z M143.69,156.95c-0.09-0.63,0.13-1.22,0.53-1.76c0.62-0.83,1.47-1.38,2.43-1.73
		c1.99-0.72,4.01-0.76,6.05-0.21c1.13,0.3,2.13,0.83,2.9,1.71c0.49,0.56,0.79,1.18,0.72,1.94c-0.03,0.28-0.04,0.57-0.07,0.85
		c-0.11,1.04-0.53,1.94-1.28,2.69c-0.68,0.68-1.48,1.21-2.31,1.69c-0.11,0.06-0.23,0.11-0.35,0.15c-0.38,0.12-0.68,0.04-0.9-0.29
		c-0.14-0.22-0.27-0.46-0.35-0.7c-0.26-0.71-0.34-1.46-0.43-2.2c-0.03-0.28-0.13-0.51-0.41-0.63c-0.37-0.15-0.73,0.07-0.82,0.51
		c-0.12,0.62-0.22,1.24-0.36,1.85c-0.1,0.45-0.23,0.9-0.55,1.26c-0.18,0.21-0.41,0.31-0.69,0.23c-0.19-0.06-0.39-0.12-0.56-0.23
		c-0.59-0.39-1.19-0.78-1.74-1.21c-0.66-0.51-1.18-1.14-1.48-1.93C143.79,158.32,143.7,157.67,143.69,156.95z M144.62,160.97
		c-0.27,0.18-0.53,0.35-0.8,0.52c-2.36,1.48-4.84,2.69-7.53,3.48c-1.05,0.31-2.12,0.53-3.21,0.63c-1.01,0.09-2.01,0.04-3.01-0.14
		c-0.66-0.12-1.32-0.25-1.93-0.54c-0.17-0.08-0.32-0.19-0.46-0.3c-0.11-0.09-0.1-0.19,0.02-0.26c0.14-0.08,0.28-0.18,0.43-0.22
		c0.34-0.09,0.68-0.16,1.02-0.22c1.32-0.24,2.65-0.46,3.96-0.71c2.2-0.41,4.38-0.89,6.54-1.47c1.46-0.39,2.9-0.84,4.35-1.26
		c0.09-0.03,0.15-0.03,0.21,0.05C144.34,160.67,144.47,160.81,144.62,160.97z M155.38,160.98c0.14-0.16,0.27-0.3,0.39-0.44
		c0.07-0.08,0.13-0.09,0.23-0.06c0.37,0.13,0.74,0.24,1.11,0.36c2.6,0.8,5.23,1.47,7.9,2c2.05,0.41,4.11,0.75,6.16,1.14
		c0.36,0.07,0.71,0.19,1.04,0.34c0.25,0.11,0.25,0.24,0.02,0.39c-0.19,0.13-0.39,0.25-0.61,0.33c-1.66,0.57-3.37,0.75-5.11,0.54
		c-1.16-0.14-2.28-0.41-3.39-0.77c-2.3-0.74-4.45-1.78-6.5-3.03C156.2,161.51,155.8,161.24,155.38,160.98z M144.56,153.89
		c-0.29-0.29-0.59-0.56-0.87-0.85c-0.24-0.26-0.43-0.57-0.53-0.92c-0.12-0.46,0.06-0.75,0.55-0.79c0.31-0.03,0.62-0.01,0.92,0.03
		c1.26,0.17,2.51,0.36,3.76,0.53c0.85,0.12,1.71,0.19,2.57,0.08c1.31-0.18,2.62-0.38,3.94-0.56c0.38-0.05,0.76-0.11,1.13-0.11
		c0.76,0,1,0.39,0.7,1.07c-0.29,0.63-0.78,1.09-1.33,1.5C152.74,151.64,147.12,151.76,144.56,153.89z"/>
	<path id="_x36_2" class="st1" d="M143.01,156.57c-0.85,0.24-1.69,0.49-2.54,0.7c-1.27,0.32-2.57,0.52-3.88,0.65
		c-1.31,0.13-2.62,0.17-3.93,0.12c-1.8-0.06-3.58-0.28-5.34-0.63c-3.09-0.62-6.02-1.64-8.83-3.04c-0.56-0.28-1.1-0.58-1.65-0.87
		c-0.04-0.02-0.08-0.04-0.17-0.09c0.06,0.19,0.11,0.34,0.16,0.49c0.25,0.73,0.54,1.45,0.74,2.19c0.39,1.45,0.16,2.84-0.5,4.18
		c-0.39,0.79-0.9,1.51-1.43,2.21c-0.13,0.17-0.24,0.37-0.33,0.56c-0.11,0.25-0.04,0.41,0.22,0.47c0.32,0.08,0.67,0.16,1,0.15
		c0.76-0.02,1.52-0.08,2.28-0.14c0.83-0.07,1.66-0.16,2.5-0.26c0.83-0.09,1.66-0.19,2.49-0.3c0.94-0.12,1.89-0.25,2.83-0.39
		c1.2-0.18,2.4-0.35,3.6-0.57c1.68-0.3,3.37-0.61,5.04-0.95c2.67-0.54,5.31-1.17,7.9-1.99c0.06-0.02,0.12-0.04,0.16-0.05
		c-0.08-0.42-0.18-0.82-0.24-1.23C143.03,157.39,143.03,156.97,143.01,156.57z"/>
	<path id="_x36_1" class="st1" d="M183.33,153.42c-0.43,0.23-0.81,0.44-1.19,0.64c-3.11,1.62-6.39,2.78-9.85,3.43
		c-1.56,0.3-3.14,0.48-4.74,0.54c-1.48,0.06-2.96,0.02-4.44-0.14c-2.08-0.22-4.1-0.66-6.07-1.34c-0.01,0-0.02,0-0.05,0
		c-0.03,0.83-0.06,1.66-0.35,2.48c0.39,0.12,0.77,0.25,1.16,0.36c2.56,0.75,5.17,1.36,7.79,1.86c1.89,0.36,3.78,0.7,5.67,1.02
		c1.45,0.24,2.91,0.44,4.37,0.63c1.51,0.2,3.03,0.38,4.55,0.54c1.09,0.11,2.18,0.18,3.27,0.24c0.31,0.02,0.64-0.05,0.95-0.13
		c0.35-0.09,0.43-0.25,0.26-0.58c-0.13-0.25-0.29-0.48-0.46-0.71c-0.66-0.87-1.23-1.78-1.61-2.8c-0.49-1.33-0.44-2.67,0.01-4
		c0.19-0.56,0.41-1.12,0.61-1.68C183.26,153.69,183.28,153.58,183.33,153.42z"/>
	<path id="_x36_0" class="st1" d="M143.33,155.31c0.25-0.34,0.49-0.66,0.74-0.99c-0.19-0.18-0.41-0.36-0.61-0.56
		c-0.42-0.42-0.77-0.89-0.93-1.47c-0.23-0.87,0.27-1.57,1.19-1.6c0.53-0.02,1.07,0.04,1.6,0.11c1.33,0.17,2.65,0.38,3.98,0.55
		c0.69,0.09,1.38,0.02,2.06-0.08c1.39-0.2,2.78-0.4,4.17-0.59c0.3-0.04,0.62-0.03,0.92,0.02c0.85,0.14,1.24,0.78,1.01,1.59
		c-0.18,0.62-0.57,1.11-1.03,1.55c-0.17,0.16-0.35,0.32-0.51,0.46c0.25,0.33,0.49,0.66,0.75,1.01c0.46-0.31,0.94-0.61,1.4-0.95
		c1.14-0.83,2.16-1.78,2.94-2.95c0.36-0.54,0.66-1.12,0.77-1.77c0.06-0.38,0.03-0.75-0.15-1.1c-0.58-1.17-1.56-1.73-2.87-1.78
		c-1.02-0.04-2.01,0.15-3,0.37c-1.24,0.27-2.47,0.56-3.71,0.82c-1.37,0.28-2.75,0.28-4.11,0c-1.34-0.28-2.68-0.59-4.02-0.88
		c-0.78-0.17-1.57-0.31-2.38-0.31c-0.85-0.01-1.66,0.13-2.33,0.69c-0.51,0.42-0.89,0.94-1.02,1.6c-0.07,0.39,0.02,0.76,0.15,1.13
		c0.3,0.85,0.81,1.57,1.4,2.24c1.01,1.14,2.2,2.06,3.51,2.85C143.29,155.29,143.32,155.3,143.33,155.31z"/>
	<path id="_x35_9" class="st1" d="M143.69,156.95c0.02,0.72,0.1,1.37,0.34,2c0.3,0.78,0.82,1.41,1.48,1.93
		c0.56,0.43,1.15,0.82,1.74,1.21c0.17,0.11,0.37,0.17,0.56,0.23c0.28,0.08,0.51-0.02,0.69-0.23c0.31-0.37,0.45-0.81,0.55-1.26
		c0.13-0.61,0.23-1.23,0.36-1.85c0.09-0.43,0.45-0.65,0.82-0.51c0.28,0.11,0.38,0.35,0.41,0.63c0.09,0.74,0.17,1.49,0.43,2.2
		c0.09,0.24,0.21,0.49,0.35,0.7c0.22,0.33,0.52,0.41,0.9,0.29c0.12-0.04,0.24-0.09,0.35-0.15c0.83-0.48,1.63-1.01,2.31-1.69
		c0.75-0.75,1.18-1.65,1.28-2.69c0.03-0.28,0.04-0.57,0.07-0.85c0.07-0.76-0.24-1.38-0.72-1.94c-0.77-0.88-1.77-1.41-2.9-1.71
		c-2.03-0.55-4.06-0.51-6.05,0.21c-0.97,0.35-1.81,0.9-2.43,1.73C143.81,155.73,143.6,156.33,143.69,156.95z"/>
	<path id="_x35_8" class="st1" d="M144.62,160.97c-0.15-0.16-0.28-0.3-0.4-0.45c-0.06-0.08-0.12-0.08-0.21-0.05
		c-1.45,0.42-2.89,0.87-4.35,1.26c-2.16,0.58-4.34,1.06-6.54,1.47c-1.32,0.25-2.64,0.47-3.96,0.71c-0.34,0.06-0.69,0.13-1.02,0.22
		c-0.15,0.04-0.29,0.14-0.43,0.22c-0.12,0.07-0.13,0.18-0.02,0.26c0.15,0.11,0.3,0.22,0.46,0.3c0.61,0.29,1.27,0.42,1.93,0.54
		c1,0.18,2,0.24,3.01,0.14c1.09-0.1,2.16-0.32,3.21-0.63c2.69-0.79,5.17-2.01,7.53-3.48C144.09,161.32,144.35,161.15,144.62,160.97z
		"/>
	<path id="_x35_7" class="st1" d="M155.38,160.98c0.42,0.27,0.83,0.53,1.24,0.79c2.05,1.25,4.2,2.29,6.5,3.03
		c1.11,0.36,2.23,0.63,3.39,0.77c1.75,0.21,3.45,0.03,5.11-0.54c0.22-0.07,0.42-0.2,0.61-0.33c0.22-0.15,0.22-0.28-0.02-0.39
		c-0.33-0.14-0.68-0.27-1.04-0.34c-2.05-0.39-4.11-0.73-6.16-1.14c-2.67-0.53-5.3-1.2-7.9-2c-0.37-0.11-0.74-0.23-1.11-0.36
		c-0.1-0.03-0.16-0.02-0.23,0.06C155.65,160.68,155.52,160.82,155.38,160.98z"/>
	<path id="_x35_6" class="st1" d="M167.3,52.97c-2.47-1.61-5.17-2.42-8.13-2.22c-0.93,0.06-1.86,0.23-2.78,0.39
		c-1.45,0.25-2.87,0.83-4.4,0.37c-0.01,0.03-0.03,0.06-0.04,0.09c0.2,0.17,0.39,0.38,0.62,0.52c2.7,1.71,5.59,2.96,8.77,3.4
		c1.1,0.15,2.23,0.09,3.35,0.11c0.21,0,0.37-0.05,0.44-0.33c0.11-0.43,0.49-0.63,0.9-0.67c0.46-0.04,0.94-0.07,1.37,0.04
		c0.62,0.17,1.07-0.08,1.66-0.43C168.44,53.77,167.88,53.35,167.3,52.97z M156.52,52.57c1.26,0.8,8.08,0.09,9.92,1.33
		C164.4,53.1,158.95,54.43,156.52,52.57z"/>
	<path id="_x35_5" class="st1" d="M184.02,57.3c-0.59-1.07-1.5-1.82-2.49-2.49c-1.77-1.21-3.73-2.06-5.65-2.98
		c-1.47-0.71-2.93-1.44-4.37-2.2c-0.82-0.43-1.52-1.03-2.1-1.77c-0.17-0.21-0.39-0.39-0.62-0.54c-0.4-0.26-0.73-0.17-0.81,0.29
		c-0.1,0.57-0.12,1.18-0.07,1.76c0.11,1.26,0.76,2.3,1.61,3.19c0.71,0.74,1.49,1.41,2.26,2.09c0.13,0.11,0.32,0.2,0.49,0.2
		c4.42,0.15,8.31,1.71,11.78,4.42c0.1,0.08,0.21,0.14,0.35,0.24C184.52,58.67,184.39,57.96,184.02,57.3z M171.5,50.98
		c1.26,2.12,9.92,3.72,11.38,6.11C180.46,54.52,173.74,55.05,171.5,50.98z"/>
	<path id="_x35_4" class="st1" d="M183.08,59.34c-2.48-1.82-5.2-3.11-8.25-3.58c-1.23-0.19-2.49-0.23-3.74-0.28
		c-1.34-0.06-2.69,0.09-4.02-0.22c-0.25-0.06-0.53-0.03-0.79-0.01c-0.53,0.04-0.74,0.35-0.42,0.76c0.48,0.61,1.02,1.21,1.63,1.7
		c2.13,1.69,4.63,2.58,7.24,3.17c1.74,0.4,3.5,0.6,5.31,0.64c0.3-1.06,1-1.03,1.71-0.92c0.31,0.04,0.63,0.14,0.89,0.31
		c0.74,0.49,1.31,0.04,2.04-0.29C184.11,60.14,183.61,59.72,183.08,59.34z M168.68,56.47c2.24,1.68,9.73,0.53,12.94,3.36
		C176.86,57.44,173.94,60.8,168.68,56.47z"/>
	<path id="_x35_3" class="st1" d="M168.85,52.78c-0.62-0.72-1.08-1.5-1.36-2.36c-1.4-1-3.21-1.68-4.8-2.73
		c-0.36,0.32-0.75,0.61-1.13,0.92c-0.15,0.13-0.33,0.21-0.55,0.35c0.13,0.1,0.23,0.19,0.34,0.27c0.9,0.67,1.82,1.25,2.93,1.56
		c1.43,0.4,2.7,1.15,3.93,1.99c0.22,0.15,0.48,0.22,0.73,0.33c0.02-0.03,0.05-0.06,0.07-0.09
		C168.95,52.93,168.91,52.85,168.85,52.78z"/>
	<path id="_x35_2" class="st1" d="M163.18,47.18c-0.05,0.06-0.1,0.11-0.15,0.16c1.42,0.67,3.03,1.35,4.29,2.48
		c-0.08-0.36-0.13-0.74-0.15-1.13c0-0.11-0.03-0.22,0-0.31c0.19-0.58-0.13-0.93-0.5-1.3c-1.08-1.1-2.36-1.84-3.84-2.25
		c-0.09-0.02-0.2-0.06-0.27-0.03c-0.38,0.17-0.74,0.36-1.17,0.56c0.44,0.05,0.8,0.06,1.15,0.14
		C163.44,45.72,163.76,46.5,163.18,47.18z"/>
	<path id="_x35_1" class="st1" d="M197.52,67.48c-1.32-3.92-3.91-6.8-7.4-8.94c-0.62-0.38-1.25-0.74-1.84-1.15
		c-0.46-0.31-0.87-0.68-1.31-1.01c-0.29-0.22-0.59-0.45-0.92-0.6c-0.38-0.18-0.63-0.03-0.75,0.37c-0.19,0.65-0.03,1.28,0.11,1.91
		c0.33,1.4,0.9,2.69,1.71,3.88c0.12,0.18,0.33,0.35,0.54,0.41c3.67,1.09,6.78,3.04,9.3,5.93c0.22,0.25,0.43,0.5,0.64,0.75
		c0,0.01,0.02,0,0.14-0.02C197.68,68.5,197.68,67.96,197.52,67.48z M188.63,58.95c0.39,0.97,4.87,3.9,6.13,6.55
		C193.59,63.2,189.89,62.4,188.63,58.95z"/>
	<path id="_x35_0" class="st1" d="M197.52,70.05c-2.91-4.03-6.88-6.42-11.69-7.52c-1.25-0.29-2.53-0.53-3.69-1.14
		c-0.25-0.13-0.55-0.18-0.84-0.2c-0.47-0.03-0.7,0.24-0.57,0.7c0.1,0.36,0.24,0.73,0.43,1.05c1.03,1.77,2.44,3.2,4.1,4.39
		c1.95,1.4,4.09,2.44,6.36,3.19c1.71,0.57,3.45,1.04,5.28,1c0.36-0.01,0.73-0.05,1.24-0.08C197.92,70.9,197.79,70.42,197.52,70.05z
		 M183.47,63.11c2.43,2.12,8.56,1.51,12.45,7.08C192.33,66.47,185.32,65.14,183.47,63.11z"/>
	<path id="_x34_9" class="st1" d="M205.42,76.68c-0.07-0.64,0.11-0.86,0.76-0.97c-0.03-1.78-0.56-3.41-1.51-4.91
		c-0.81-1.29-1.89-2.34-3.01-3.34c-0.57-0.51-1.12-1.03-1.51-1.71c-0.16-0.28-0.51-0.46-0.77-0.68c-0.2,0.28-0.47,0.54-0.58,0.85
		c-0.77,2.28-0.52,4.52,0.34,6.72c0.26,0.66,0.55,1.32,0.9,1.93c0.32,0.55,0.77,1.03,1.14,1.56c0.48,0.68,0.91,1.39,1.41,2.05
		c0.72,0.92,1.49,1.81,2.24,2.7c0.07,0.09,0.19,0.13,0.3,0.21c0.54-1.2,0.71-2.4,0.41-3.66C205.5,77.17,205.44,76.93,205.42,76.68z
		 M204.98,78.78c0.19-2.12-4.87-7.53-4.77-11.51C200.4,70.63,205.27,72.85,204.98,78.78z"/>
	<path id="_x34_8" class="st1" d="M203.84,83.33c-0.58-2.37-1.44-4.62-2.97-6.57c-1.46-1.86-3.38-3.02-5.58-3.78
		c-0.47-0.16-0.96-0.3-1.4-0.52c-0.46-0.23-0.88-0.56-1.32-0.85c-0.21-0.13-0.41-0.26-0.65-0.41c-0.24,0.58-0.13,1.12-0.06,1.65
		c0.24,1.98,1.28,3.54,2.62,4.93c1.85,1.92,4.08,3.32,6.38,4.63c0.78,0.44,1.57,0.87,2.36,1.28c0.18,0.09,0.39,0.12,0.64,0.2
		C203.84,83.66,203.87,83.49,203.84,83.33z M193.79,73.47c1.17,3.01,7.78,3.36,8.76,8.5C201.57,79.22,193.79,76.3,193.79,73.47z"/>
	<path id="_x34_7" class="st1" d="M212.24,87.22c-0.21-3.69-1.59-6.9-4.25-9.51c-0.68-0.67-1.45-1.15-1.92-1.27
		c0.01,0.15-0.01,0.3,0.03,0.43c0.39,1.28,0.24,2.59,0.19,3.89c-0.07,1.99-0.15,3.98-0.21,5.97c-0.02,0.6,0.14,1.14,0.48,1.67
		c1.14,1.76,1.83,3.69,2.07,5.78c0.02,0.19,0.13,0.37,0.22,0.54c0.31,0.56,0.64,1.11,1.02,1.78c0.19-0.3,0.32-0.48,0.42-0.68
		C211.62,93.11,212.42,90.26,212.24,87.22z M207.99,79.04c3.5,3.9,1.07,9.83,2.53,14.17C208.77,90.02,209.65,82.05,207.99,79.04z"/>
	<path id="_x34_6" class="st1" d="M207.34,100.72c-0.95-2.4-2.42-4.43-4.52-5.97c-0.69-0.5-1.42-0.95-2.34-1.23
		c0.06,0.21,0.08,0.32,0.12,0.43c0.59,1.29,0.66,2.67,0.79,4.05c0.26,2.76,0.51,5.51,1.59,8.1c0.1,0.24,0.21,0.48,0.32,0.72
		c0.01,0.03,0.05,0.06,0.06,0.08c0.36-0.34,0.71-0.68,1.06-1.01c0.19-0.18,0.37-0.38,0.58-0.53c0.28-0.2,0.55-0.23,0.77-0.13
		c-0.97-3.36-1.42-7.3-3.52-9.52c4.87,4.76,3.39,10.06,4.85,12.78c0.13,0.21,0.26,0.4,0.4,0.59c-0.16-0.18-0.29-0.38-0.4-0.59
		c-0.31-0.5-0.57-1.05-0.8-1.64c0.07,1.28,0.11,2.57,0.17,3.85c0.03,0.6,0.19,0.85,0.78,1.29c0.07-0.14,0.16-0.27,0.21-0.41
		C208.58,107.93,208.76,104.31,207.34,100.72z"/>
	<path id="_x34_5" class="st1" d="M215.58,93.17c-0.31,0.14-0.63,0.25-0.92,0.41c-2.98,1.56-5.05,3.97-6.51,6.95
		c-0.05,0.11-0.05,0.28-0.01,0.4c0.76,2.21,1.06,4.49,0.77,6.81c-0.17,1.35-0.52,2.68-0.82,4.01c-0.1,0.44-0.31,0.86-0.93,0.89
		c0.22,0.7,0.42,1.36,0.65,2.1c0.2-0.17,0.33-0.26,0.42-0.37c1.01-1.23,2.07-2.43,3.01-3.72c1.48-2.03,2.26-4.37,2.66-6.82
		c0.32-1.99,0.49-4,0.73-6c0.16-1.33,0.28-2.67,0.85-3.92c0.1-0.21,0.13-0.44,0.19-0.66C215.64,93.23,215.61,93.2,215.58,93.17z
		 M209.06,110.92c2.34-3.19-0.39-10,4.09-14.52C211.3,99.76,211.69,108.17,209.06,110.92z"/>
	<path id="_x34_4" class="st1" d="M205.3,87.71c-1.41-1.91-3.2-3.34-5.38-4.28c-0.06-0.03-0.12-0.05-0.18-0.07
		c-0.53-0.2-0.62-0.15-0.67,0.41c-0.16,1.76,0.33,3.39,1.09,4.95c0.89,1.83,2.13,3.41,3.43,4.96c1.21,1.44,2.4,2.91,3.6,4.36
		c0.16,0.19,0.33,0.36,0.56,0.61c0.08-0.57,0.17-1.05,0.22-1.53C208.37,93.62,207.37,90.51,205.3,87.71z M201.08,85.59
		c0.49,2.83,5.84,5.58,6.42,10.8C206.24,92.85,200.5,88.43,201.08,85.59z"/>
	<path id="_x34_3" class="st1" d="M205.79,110.22c-0.09-0.94-0.08-1.89-0.12-2.84c-0.02-0.5-0.06-1.01-0.09-1.51
		c-0.05,0-0.11-0.01-0.16-0.01c-2.6,2.27-4.32,5.07-4.95,8.48c-0.58,3.12-0.26,6.14,1.18,9.01c0.45-0.68,0.84-1.37,1.31-2
		c-0.92-4.33,2.27-10.87,1.83-12.47c0.72,2.99-1.32,8.78-1.53,12.08c0.79-0.95,1.68-1.81,2.51-2.73c0.15-0.17,0.28-0.42,0.3-0.64
		C206.29,115.12,206.01,112.67,205.79,110.22z"/>
	<path id="_x34_2" class="st1" d="M212.63,113.39c-0.23,0.17-0.43,0.27-0.57,0.42c-1.58,1.69-3.52,2.93-5.28,4.41
		c-2.51,2.12-4.5,4.59-5.4,7.81c-0.25,0.9-0.39,1.82-0.56,2.74c-0.08,0.46,0.02,0.55,0.49,0.46c1.84-0.36,3.52-1.1,5.01-2.23
		c3.35-2.54,5.41-5.89,6.09-10.04c0.17-1.06,0.18-2.15,0.25-3.23C212.67,113.66,212.65,113.57,212.63,113.39z M203.91,127.12
		c0.97-3.72,6.62-7.08,7.78-9.92C209.55,123.66,205.27,123.22,203.91,127.12z"/>
	<path id="_x34_1" class="st1" d="M199.83,126.42c-0.04-1.22-0.25-2.43-0.45-3.64c-0.24-1.42-0.54-2.82-0.38-4.27
		c0.03-0.31-0.14-0.64-0.21-0.97c-0.28,0.15-0.6,0.25-0.84,0.46c-2.27,1.91-3.65,4.37-4.45,7.18c-0.33,1.17-0.53,2.38-0.8,3.63
		c0.46-0.14,0.8-0.27,1.14-0.33c0.22-0.04,0.48-0.03,0.7,0.03c0.36,0.09,0.51,0.39,0.39,0.73c-0.08,0.22-0.18,0.46-0.34,0.61
		c-0.67,0.64-0.89,1.48-1.09,2.33c-0.14,0.59-0.27,1.18-0.37,1.78c-0.04,0.22,0.04,0.45,0.07,0.75c0.23-0.14,0.38-0.24,0.54-0.33
		c1.19-0.63,2.38-1.25,3.56-1.88c0.21-0.11,0.42-0.27,0.57-0.45C199.12,130.39,199.89,128.53,199.83,126.42z M194.95,132.61
		c2.34-3.1,0-8.06,2.82-12.39C196.51,123.75,198.26,129.51,194.95,132.61z"/>
	<path id="_x34_0" class="st1" d="M206.43,129.45c-0.27,0.09-0.55,0.13-0.79,0.27c-2.35,1.3-4.92,2.07-7.38,3.09
		c-1.89,0.78-3.71,1.71-5.36,2.93c-0.18,0.13-0.34,0.34-0.41,0.55c-0.92,2.77-2.51,5.05-4.8,6.86c-0.05,0.04-0.1,0.09-0.14,0.13
		c0,0.03,0.01,0.06,0.01,0.1c0.68,0,1.36,0.02,2.04,0c6.8-0.22,13.88-5.44,16.42-12.45c0.17-0.46,0.35-0.92,0.52-1.38
		C206.5,129.51,206.47,129.48,206.43,129.45z M191.35,141.46c2.72-5.04,10.87-6.04,13.02-9.04c0.07-0.11,0.15-0.22,0.22-0.34
		c-0.06,0.12-0.14,0.23-0.22,0.34C200.89,137.81,194.12,137.38,191.35,141.46z"/>
	<path id="_x33_9" class="st1" d="M194.21,129.04c-0.33,0.11-0.69,0.16-0.99,0.32c-3.12,1.64-5.95,3.66-8.26,6.36
		c-0.51,0.6-0.97,1.25-1.43,1.89c-0.4,0.57-0.69,1.18-0.87,1.88c-0.2,0.77-0.55,1.5-0.87,2.24c-0.35,0.81-0.5,2.68-0.22,3.62
		c0.65-0.14,1.35-0.16,1.94-0.43c2.78-1.27,5.17-3.05,6.86-5.66c1.13-1.74,1.72-3.68,2.15-5.69c0.17-0.8,0.35-1.59,0.56-2.38
		c0.16-0.62,0.44-1.18,0.91-1.64c0.12-0.11,0.19-0.27,0.28-0.4C194.25,129.11,194.23,129.07,194.21,129.04z M183.47,143.41
		c4.57-4.25,2.72-8.23,8.76-12.04C188.73,134.47,189.21,139.16,183.47,143.41z"/>
	<path id="_x33_8" class="st1" d="M192.06,145.33c-1.84-0.18-3.69-0.18-5.53-0.03c-2.66,0.21-5.27,0.7-7.84,1.42
		c-0.36,0.1-0.59,0.31-0.83,0.56c-2.23,2.34-4.77,4.22-7.59,5.7c5.07,0.41,13.35-6.38,19.14-6.2c-4.83,0.97-14.08,7.08-19.16,6.21
		c-0.78,0.41-1.58,0.79-2.4,1.14c-0.13,0.05-0.25,0.12-0.38,0.17c0,0.02,0,0.05,0,0.07c0.77,0.09,1.54,0.21,2.31,0.28
		c4.34,0.37,8.47-0.41,12.38-2.35c2.23-1.11,4.26-2.52,6.28-3.97c0.73-0.52,1.45-1.06,2.23-1.49c0.66-0.37,1.39-0.6,2.1-0.88
		c0.17-0.07,0.34-0.12,0.51-0.18c0.01-0.05,0.01-0.09,0.02-0.14C192.88,145.53,192.48,145.37,192.06,145.33z"/>
	<path id="_x33_7" class="st1" d="M182.17,138.26c-0.02-0.38-0.2-0.48-0.56-0.37c-0.25,0.07-0.51,0.17-0.72,0.31
		c-2.13,1.46-4.55,2.31-6.89,3.32c-3.17,1.36-6.22,2.93-8.93,5.09c-2.64,2.11-4.8,4.62-6.44,7.57c-0.49,0.88-0.41,1.02,0.59,1.04
		c0.2,0,0.4,0,0.59,0c3.66-0.03,7.02-1.15,10.2-2.86c3.85-2.07,7.16-4.78,9.69-8.38c1.04-1.49,1.88-3.08,2.37-4.84
		C182.15,138.86,182.19,138.55,182.17,138.26z M162.75,153.06c1.85-4.78,15.18-8.32,17.22-12.48
		C179.58,145.97,164.4,149.43,162.75,153.06z"/>
	<path id="_x33_6" class="st1" d="M145.68,38.79c-1.45-0.88-2.92-1.73-4.4-2.56c-0.78-0.44-1.56-0.88-2.17-1.57
		c-0.07-0.08-0.16-0.14-0.25-0.2c-0.03-0.02-0.07-0.03-0.19-0.07c0.66,3.33,2.59,5.83,4.77,8.15c1.31-0.84,2.59-1.65,3.93-2.51
		C146.81,39.63,146.28,39.16,145.68,38.79z M145.04,41.42c-1.95-1.33-3.89-2.74-4.38-4.69c0.68,1.51,3.02,2.74,4.96,4.25
		C145.43,41.06,145.23,41.33,145.04,41.42z"/>
	<path id="_x33_5" class="st1" d="M142.19,42.18c-0.16-0.18-0.35-0.34-0.46-0.54c-0.65-1.19-1.74-1.66-2.99-1.94
		c-1.27-0.28-2.54-0.6-3.79-0.95c-0.54-0.15-1.05-0.39-1.58-0.6c-0.24-0.09-0.47-0.2-0.78-0.34c0.03,0.24,0.04,0.39,0.07,0.54
		c0.48,2.01,1.66,3.52,3.3,4.72c1.4,1.02,1.39,1,3.32,0.65c0.88-0.16,1.72-0.38,2.49-0.84c0.22-0.13,0.48-0.2,0.77-0.31
		C142.42,42.45,142.31,42.32,142.19,42.18z M141.34,43.01c-2.82-0.97-6.13-1.68-7.1-3.54c1.56,1.86,5.06,1.77,8.08,3.1
		C142.02,42.66,141.63,42.83,141.34,43.01z"/>
	<path id="_x33_4" class="st1" d="M147.08,51.66c-0.88-0.09-1.74-0.23-2.62-0.35c-1.39-0.2-2.78-0.5-4.18-0.57
		c-3-0.14-5.67,0.88-8.1,2.58c-0.4,0.28-0.78,0.58-1.21,0.91c0.53,0.32,0.96,0.56,1.57,0.45c0.53-0.1,1.1-0.06,1.64,0
		c0.37,0.04,0.6,0.32,0.75,0.68c0.06,0.13,0.31,0.24,0.49,0.26c1.68,0.15,3.34-0.03,4.98-0.43c2.53-0.62,4.86-1.7,7.06-3.08
		c0.1-0.06,0.19-0.14,0.28-0.22c0.1-0.1,0.2-0.21,0.37-0.39C147.7,51.58,147.38,51.69,147.08,51.66z M133.56,53.9
		c1.85-1.24,8.66-0.53,9.92-1.33C141.05,54.43,135.6,53.1,133.56,53.9z"/>
	<path id="_x33_3" class="st1" d="M132.12,47.9c-0.04-0.26-0.22-0.62-0.41-0.69c-0.2-0.07-0.55,0.12-0.75,0.29
		c-0.46,0.41-0.84,0.92-1.31,1.31c-1.33,1.11-2.92,1.77-4.46,2.52c-1.9,0.93-3.82,1.84-5.69,2.83c-1.16,0.61-2.21,1.39-3.04,2.43
		c-0.59,0.73-0.93,1.56-0.89,2.51c0,0.08,0.01,0.16,0.02,0.23c0,0.02,0.03,0.04,0.06,0.09c0.79-0.54,1.56-1.11,2.36-1.61
		c2.63-1.65,5.49-2.65,8.59-2.91c0.13-0.01,0.27-0.06,0.39-0.05c0.83,0.12,1.42-0.3,1.99-0.82c1-0.91,1.98-1.83,2.61-3.05
		C132.1,50.03,132.3,48.99,132.12,47.9z M117.11,57.09c1.46-2.39,10.12-3.98,11.38-6.11C126.26,55.05,119.54,54.52,117.11,57.09z"/>
	<path id="_x33_2" class="st1" d="M134.24,55.5c-0.18-0.38-0.63-0.32-0.97-0.26c-2.26,0.42-4.56,0.08-6.83,0.33
		c-3.25,0.35-6.21,1.49-8.89,3.35c-0.62,0.43-1.21,0.9-1.81,1.35c-0.12,0.09-0.23,0.17-0.35,0.25c0.68,0.44,1.26,0.83,2,0.37
		c0.32-0.2,0.74-0.29,1.12-0.33c0.86-0.08,1.16,0.14,1.49,1.01c1.19-0.12,2.42-0.2,3.63-0.39c2.6-0.4,5.09-1.13,7.38-2.45
		c1.06-0.61,2.04-1.32,2.84-2.25C134.09,56.2,134.41,55.87,134.24,55.5z M118.38,59.83c3.21-2.83,10.7-1.68,12.94-3.36
		C126.06,60.8,123.14,57.44,118.38,59.83z"/>
	<path id="_x33_1" class="st1" d="M142.06,43.47c-1,0.66-2.15,0.81-3.3,1c-2.13,0.36-4.05,1.12-5.55,2.75
		c-0.27,0.29-0.42,0.56-0.39,1c0.1,1.65-0.44,3.11-1.5,4.37c-0.11,0.13-0.21,0.26-0.31,0.39c0.02,0.03,0.03,0.06,0.05,0.1
		c0.22-0.08,0.47-0.13,0.66-0.26c1.54-1.06,3.18-1.9,5.01-2.36c0.1-0.02,0.2-0.07,0.29-0.13c1.72-1.09,3.35-2.3,4.61-3.93
		c0.71-0.92,1.08-1.94,1.04-3.17C142.44,43.33,142.22,43.36,142.06,43.47z M132.73,50.68c1.79-3.42,6.76-3.95,8.32-5.9
		c0.05-0.07,0.1-0.13,0.15-0.21c-0.05,0.07-0.1,0.14-0.15,0.21C138.95,47.77,134.64,48.34,132.73,50.68z"/>
	<path id="_x33_0" class="st1" d="M162.37,46.14c-0.28-0.06-0.57-0.06-0.86-0.09c-1.18-0.09-2.37-0.1-3.54-0.28
		c-5.13-0.8-9.88,0.22-14.29,2.89c-0.11,0.07-0.21,0.15-0.4,0.3c0.3,0.2,0.52,0.36,0.76,0.49c1.2,0.63,2.5,0.89,3.83,1.04
		c1.91,0.22,3.82,0.22,5.73,0c2.97-0.35,5.8-1.09,8.26-2.88c0.29-0.21,0.54-0.46,0.77-0.74C162.93,46.49,162.84,46.24,162.37,46.14z
		 M146.3,48.41c5.35-2.3,10.61-0.35,13.14-1.42C156.32,48.5,148.93,47.79,146.3,48.41z"/>
	<path id="_x32_9" class="st1" d="M114.71,56.18c-0.08-0.46-0.36-0.58-0.79-0.4c-0.23,0.1-0.47,0.21-0.64,0.39
		c-0.95,0.99-2.15,1.6-3.29,2.31c-2.42,1.51-4.55,3.32-5.98,5.81c-0.63,1.1-1.11,2.29-1.59,3.47c-0.15,0.38-0.09,0.85-0.12,1.28
		c0.98-0.98,1.88-1.97,2.88-2.84c2.07-1.82,4.48-3.04,7.11-3.82c0.31-0.09,0.51-0.26,0.69-0.53c0.87-1.37,1.5-2.84,1.76-4.45
		C114.79,57,114.78,56.58,114.71,56.18z M105.24,65.5c1.26-2.66,5.74-5.58,6.13-6.55C110.11,62.4,106.41,63.2,105.24,65.5z"/>
	<path id="_x32_8" class="st1" d="M118.77,61.19c-0.3,0.02-0.62,0.06-0.88,0.19c-1.18,0.6-2.46,0.85-3.72,1.15
		c-3.09,0.74-5.95,1.95-8.41,4.01c-1.31,1.1-2.47,2.35-3.44,3.75c-0.2,0.29-0.25,0.7-0.4,1.15c0.97,0,1.84,0.1,2.67-0.02
		c1.1-0.16,2.18-0.48,3.25-0.77c2.72-0.75,5.19-2.03,7.44-3.73c1.46-1.1,2.67-2.43,3.58-4.02c0.2-0.36,0.33-0.77,0.41-1.18
		C119.35,61.36,119.14,61.17,118.77,61.19z M104.07,70.19c3.89-5.58,10.02-4.96,12.45-7.08C114.68,65.14,107.67,66.47,104.07,70.19z
		"/>
	<path id="_x32_7" class="st1" d="M101.66,68.52c-0.05-0.91-0.31-1.81-0.48-2.71c-0.02-0.13-0.1-0.24-0.16-0.36
		c-0.26-0.47-0.55-0.55-0.83-0.1c-1.05,1.69-2.75,2.76-3.98,4.27c-1.32,1.63-2.16,3.45-2.35,5.55c-0.02,0.17,0,0.34,0,0.54
		c0.65,0.09,0.85,0.4,0.75,1.08c-0.11,0.79-0.28,1.59-0.26,2.38c0.02,0.63,0.29,1.26,0.49,2c0.31-0.3,0.52-0.5,0.73-0.72
		c1.01-1.05,1.85-2.22,2.61-3.46c0.33-0.55,0.85-0.98,1.2-1.52c0.46-0.71,0.89-1.46,1.25-2.23
		C101.31,71.76,101.75,70.18,101.66,68.52z M95.02,78.78c-0.29-5.93,4.57-8.15,4.77-11.51C99.89,71.25,94.83,76.65,95.02,78.78z"/>
	<path id="_x32_6" class="st1" d="M108.16,71.18c-0.3,0.18-0.53,0.28-0.7,0.45c-0.58,0.56-1.28,0.86-2.02,1.11
		c-1.47,0.5-2.92,1.07-4.19,2c-1.99,1.46-3.29,3.43-4.15,5.7c-0.35,0.92-0.61,1.87-0.88,2.82c-0.05,0.17,0.01,0.37,0.02,0.56
		c0.19-0.03,0.4-0.02,0.56-0.11c0.81-0.42,1.6-0.85,2.39-1.3c1.93-1.09,3.81-2.27,5.46-3.75c1.49-1.33,2.79-2.82,3.32-4.81
		c0.17-0.64,0.21-1.32,0.29-1.99C108.27,71.69,108.2,71.49,108.16,71.18z M97.46,81.96c0.97-5.14,7.59-5.49,8.76-8.5
		C106.21,76.3,98.43,79.22,97.46,81.96z"/>
	<path id="_x32_5" class="st1" d="M93.75,80.7c-0.08-1.28-0.19-2.55,0.17-3.81c0.04-0.13,0.03-0.28,0.04-0.42
		c-0.04-0.04-0.08-0.08-0.13-0.12c-0.63,0.47-1.31,0.88-1.87,1.42c-2.19,2.13-3.48,4.74-4,7.73c-0.64,3.69,0.18,7.14,1.82,10.44
		c0.07,0.15,0.18,0.28,0.31,0.48c0.11-0.12,0.21-0.2,0.27-0.31c0.32-0.55,0.69-1.07,0.92-1.65c0.19-0.49,0.21-1.05,0.31-1.58
		c0.35-1.68,1.01-3.24,1.95-4.67c0.24-0.36,0.33-0.73,0.35-1.15C94.08,84.94,93.87,82.82,93.75,80.7z M89.48,93.21
		c1.46-4.34-0.97-10.27,2.53-14.17C90.35,82.05,91.23,90.02,89.48,93.21z"/>
	<path id="_x32_4" class="st1" d="M98.77,93.81c-3.13,1.58-5.09,4.17-6.26,7.38c-1.17,3.21-1.04,6.47-0.15,9.72
		c0.1,0.35,0.22,0.69,0.36,1.11c0.43-0.37,0.78-0.67,0.81-1.22c0.04-0.8,0.13-1.6,0.17-2.41c0.03-0.58,0.04-1.16,0.05-1.74
		c-0.24,0.65-0.52,1.26-0.86,1.81c-0.11,0.21-0.25,0.41-0.4,0.59c0.14-0.19,0.27-0.39,0.4-0.59c1.47-2.72-0.02-8.01,4.85-12.78
		c-2.11,2.23-2.55,6.18-3.53,9.54c0.24-0.15,0.54-0.1,0.85,0.16c0.48,0.41,0.91,0.88,1.35,1.33c0.06,0.06,0.11,0.15,0.23,0.31
		c0.28-0.71,0.54-1.3,0.75-1.91c0.58-1.72,0.85-3.5,1.05-5.3c0.18-1.65,0.39-3.29,0.64-4.93c0.07-0.44,0.29-0.86,0.48-1.42
		C99.23,93.61,98.99,93.69,98.77,93.81z"/>
	<path id="_x32_3" class="st1" d="M91.92,111.7c-1.09-3.57-1.27-7.14-0.05-10.72c0.05-0.15,0.04-0.37-0.03-0.52
		c-1.47-3.01-3.59-5.41-6.6-6.96c-0.25-0.13-0.53-0.22-0.91-0.37c0.07,0.31,0.09,0.54,0.18,0.73c0.67,1.48,0.78,3.08,0.93,4.66
		c0.28,2.96,0.55,5.93,1.58,8.76c0.68,1.85,1.67,3.51,3.02,4.96c0.6,0.65,1.1,1.38,1.65,2.07c0.11,0.13,0.2,0.28,0.3,0.42
		c0.07-0.02,0.14-0.04,0.21-0.06c0.22-0.65,0.44-1.3,0.67-1.99C92.26,112.58,92.06,112.16,91.92,111.7z M86.85,96.4
		c4.48,4.52,1.75,11.33,4.09,14.52C88.31,108.17,88.7,99.76,86.85,96.4z"/>
	<path id="_x32_2" class="st1" d="M100.98,84.12c0-0.13,0-0.26-0.02-0.4c-0.06-0.51-0.18-0.61-0.63-0.38
		c-0.97,0.5-1.98,0.95-2.85,1.6c-2.9,2.18-4.69,5.09-5.35,8.66c-0.25,1.35-0.23,2.7,0,4.05c0.05,0.29,0.08,0.59,0.12,0.88
		c0.04,0.01,0.07,0.01,0.11,0.02c0.15-0.18,0.31-0.35,0.46-0.53c1.24-1.5,2.48-3.01,3.73-4.51c1.54-1.85,2.99-3.75,3.83-6.04
		C100.78,86.4,101.01,85.29,100.98,84.12z M92.49,96.4c0.58-5.22,5.94-7.97,6.42-10.8C99.5,88.43,93.76,92.85,92.49,96.4z"/>
	<path id="_x32_1" class="st1" d="M99.61,114.58c-0.69-3.49-3.17-7.76-5.16-8.77c-0.03,0.5-0.07,0.94-0.09,1.38
		c-0.06,1.14-0.07,2.29-0.17,3.43c-0.2,2.26-0.4,4.52-0.26,6.79c0.02,0.38,0.14,0.67,0.45,0.95c0.87,0.77,1.66,1.62,2.37,2.53
		c-0.23-3.31-2.24-9.05-1.53-12.01c-0.44,1.59,2.73,8.1,1.84,12.42c0.46,0.64,0.88,1.32,1.24,2.04
		C99.48,122.01,100.16,117.39,99.61,114.58z"/>
	<path id="_x32_0" class="st1" d="M99.17,128.48c-0.49-4.02-2.45-7.24-5.48-9.84c-1.44-1.24-2.96-2.38-4.43-3.59
		c-0.44-0.36-0.81-0.79-1.23-1.17c-0.18-0.16-0.39-0.3-0.58-0.44c-0.04,0.02-0.08,0.05-0.12,0.07c0.06,1,0.06,2,0.19,2.99
		c0.44,3.32,1.83,6.22,4.11,8.67c1.86,2,4.08,3.39,6.76,4.02C99.22,129.38,99.27,129.33,99.17,128.48z M88.31,117.2
		c1.17,2.83,6.81,6.2,7.78,9.92C94.73,123.22,90.45,123.66,88.31,117.2z"/>
	<path id="_x31_9" class="st1" d="M106.39,131.62c-0.15-0.64-0.42-1.21-0.88-1.69c-0.3-0.32-0.61-0.71-0.34-1.16
		c0.27-0.45,0.75-0.36,1.18-0.25c0.29,0.07,0.57,0.18,0.95,0.3c-0.18-0.97-0.32-1.9-0.54-2.82c-0.73-2.98-2.06-5.63-4.36-7.73
		c-0.27-0.25-0.58-0.45-0.88-0.67c-0.25-0.18-0.4-0.05-0.44,0.21c-0.04,0.19-0.07,0.4-0.05,0.59c0.16,1.68-0.17,3.31-0.5,4.93
		c-0.36,1.81-0.55,3.62-0.03,5.44c0.36,1.27,1,2.4,1.8,3.44c0.06,0.08,0.15,0.15,0.24,0.2c1.42,0.72,2.84,1.44,4.34,2.2
		c0-0.25,0.04-0.54-0.01-0.8C106.73,133.08,106.55,132.35,106.39,131.62z M102.22,120.21c2.82,4.34,0.49,9.3,2.82,12.39
		C101.74,129.51,103.49,123.75,102.22,120.21z"/>
	<path id="_x31_8" class="st1" d="M111.7,142.61c-1.93-1.69-3.29-3.76-4.1-6.18c-0.12-0.35-0.3-0.58-0.59-0.79
		c-2.05-1.47-4.33-2.5-6.67-3.4c-1.57-0.61-3.13-1.25-4.68-1.89c-0.62-0.26-1.22-0.55-1.83-0.83c-0.07-0.03-0.15-0.03-0.34-0.06
		c1.24,3.99,3.4,7.27,6.61,9.83c3.62,2.87,7.7,4.38,12.47,4.08C112.23,143.07,111.96,142.84,111.7,142.61z M95.63,132.42
		c-0.08-0.11-0.15-0.22-0.22-0.34C95.48,132.19,95.56,132.3,95.63,132.42c2.15,3,10.3,4.01,13.02,9.04
		C105.88,137.38,99.11,137.81,95.63,132.42z"/>
	<path id="_x31_7" class="st1" d="M118.49,142.67c-0.02-0.31-0.14-0.61-0.24-0.91c-0.34-0.96-0.64-1.95-1.05-2.88
		c-0.3-0.67-0.71-1.3-1.13-1.89c-1.94-2.69-4.45-4.76-7.26-6.49c-0.63-0.39-1.27-0.76-1.92-1.09c-0.33-0.17-0.7-0.24-1.05-0.36
		c-0.02,0.04-0.04,0.07-0.06,0.11c0.06,0.1,0.1,0.21,0.18,0.28c0.83,0.8,1.07,1.85,1.29,2.91c0.37,1.75,0.73,3.5,1.47,5.15
		c1.31,2.93,3.5,5.03,6.23,6.63c1.09,0.64,2.23,1.12,3.56,1.17c0.02-0.12,0.08-0.27,0.08-0.42
		C118.55,144.14,118.55,143.4,118.49,142.67z M107.77,131.37c6.03,3.81,4.18,7.79,8.76,12.04
		C110.79,139.16,111.27,134.47,107.77,131.37z"/>
	<path id="_x31_6" class="st1" d="M129.79,152.98c-5.08,0.9-14.35-5.24-19.19-6.21c5.81-0.18,14.11,6.65,19.18,6.2
		c-0.31-0.16-0.62-0.33-0.92-0.5c-2.56-1.43-4.84-3.24-6.86-5.36c-0.16-0.17-0.4-0.31-0.62-0.37c-3.68-1.06-7.43-1.63-11.27-1.54
		c-0.84,0.02-1.68,0.11-2.52,0.2c-0.28,0.03-0.56,0.18-0.83,0.28c0.01,0.03,0.01,0.06,0.02,0.1c0.11,0.04,0.21,0.11,0.32,0.13
		c1.48,0.29,2.68,1.13,3.88,1.98c2.02,1.44,4.02,2.9,6.21,4.07c3.71,1.98,7.66,2.93,11.86,2.77c1.17-0.05,2.33-0.21,3.58-0.32
		C131.63,153.9,130.69,153.45,129.79,152.98z"/>
	<path id="_x31_5" class="st1" d="M141.64,154.71c-0.34-0.61-0.65-1.23-1.02-1.82c-2.49-3.96-5.92-6.89-9.98-9.15
		c-2.57-1.43-5.32-2.48-8-3.67c-1.03-0.46-2-1.05-3-1.58c-0.37-0.2-0.73-0.42-1.12-0.57c-0.49-0.19-0.66-0.06-0.66,0.46
		c-0.01,0.88,0.36,1.66,0.7,2.45c1.13,2.64,2.85,4.86,4.92,6.81c3.26,3.09,7.01,5.38,11.32,6.72c1.84,0.57,3.5,0.82,5.45,0.88
		c0.39-0.03,0.79-0.06,1.18-0.1C141.69,155.12,141.78,154.96,141.64,154.71z M120.03,140.57c2.04,4.16,15.37,7.7,17.22,12.48
		C135.6,149.43,120.42,145.97,120.03,140.57z"/>
	<path id="_x31_4" class="st1" d="M151.28,38.23c-0.76,0.91-1.79,1.46-2.79,2.05c-1.4,0.83-2.79,1.7-4.18,2.55
		c-0.06,0.03-0.1,0.08-0.16,0.12c-0.56,0.39-0.88,0.89-0.97,1.61c-0.13,1.09-0.75,1.99-1.48,2.78c-0.31,0.34-0.46,0.69-0.45,1.13
		c0.01,0.47,0.03,0.95,0.07,1.42c0.01,0.09,0.13,0.24,0.21,0.25c0.45,0.07,0.91,0.15,1.32-0.17c0.1-0.08,0.22-0.13,0.37-0.22
		c-0.13-0.13-0.23-0.21-0.31-0.31c-0.28-0.32-0.28-0.73,0.02-1.03c0.17-0.16,0.36-0.32,0.57-0.42c1.25-0.61,2.51-1.21,3.76-1.82
		c0.25-0.12,0.52-0.27,0.69-0.48c1.43-1.71,2.67-3.53,3.37-5.67c0.18-0.56,0.29-1.15,0.43-1.72c0.03-0.13,0.02-0.27,0.03-0.52
		C151.57,37.97,151.4,38.08,151.28,38.23z M142.12,48.59c1.17-4.78,7.01-5.67,7.78-8.5C149.61,43.1,142.7,46.46,142.12,48.59z"/>
	<path id="_x31_3_1_" class="st1" d="M161.23,34.43c-0.09,0.07-0.21,0.12-0.28,0.2c-0.74,0.86-1.74,1.35-2.71,1.88
		c-1.71,0.92-3.41,1.83-4.94,3.04c-0.43,0.34-0.86,0.71-1.24,1.1c-0.24,0.25-0.43,0.56-0.6,0.86c-0.43,0.75-0.82,1.53-1.27,2.27
		c-0.3,0.49-0.33,1.01-0.31,1.55c0.47-0.07,0.93-0.15,1.38-0.22c0.31-3.71,6.81-5.83,8.07-8.4c-0.87,3.62-7.18,5.66-8.07,8.4
		c0.28-0.04,0.55-0.09,0.83-0.12c0.43-0.06,0.86-0.11,1.3-0.11c0.36,0,0.65-0.1,0.94-0.33c2.66-2.13,4.88-4.62,6.28-7.76
		c0.33-0.73,0.52-1.53,0.77-2.3C161.34,34.48,161.29,34.45,161.23,34.43z"/>
	<path id="_x31_2_1_" class="st1" d="M167.38,37.86c-0.15,0.06-0.3,0.08-0.42,0.16c-1.07,0.66-2.29,0.83-3.47,1.14
		c-1.26,0.33-2.52,0.67-3.76,1.04c-0.24,0.07-0.49,0.26-0.65,0.47c-0.59,0.76-1.21,1.49-1.88,2.18c3.11-1.62,6.97-1.48,8.56-3.39
		c-1.3,2.51-6.84,2.99-9.9,4.67c-0.27,0.24-0.54,0.47-0.82,0.7c0.42,0.04,0.77,0.06,1.13,0.1c1.05,0.12,2.09,0.25,3.14,0.37
		c0.15,0.02,0.32,0.03,0.46-0.02c2.12-0.78,4.11-1.79,5.7-3.44c1-1.04,1.64-2.28,1.94-3.69c0.01-0.05,0.02-0.1,0.02-0.16
		C167.43,37.97,167.41,37.95,167.38,37.86z"/>
	<path id="_x31_1_1_" class="st1" d="M175.61,71.87c0.82,1.06,1.62,2.02,2.33,3.04c2.64,3.76,4.36,7.91,5.01,12.48
		c1.13,7.97-0.75,15.19-5.53,21.61c-4.73,6.36-11.09,10.32-18.71,12.29c-2.43,0.63-4.91,0.96-7.42,1.04
		c-7.98,0.25-15.28-1.82-21.78-6.5c-5.74-4.14-9.73-9.58-11.71-16.43c-1.09-3.77-1.35-7.6-0.84-11.49
		c0.77-5.85,3.15-10.96,6.96-15.43c0.15-0.17,0.3-0.35,0.38-0.58c-0.56,0.48-1.13,0.94-1.67,1.43c-4.34,3.96-7.61,8.65-9.6,14.22
		c-0.96,2.68-1.56,5.45-1.77,8.29c-0.67,9.18,2.09,17.25,7.97,24.23c5.48,6.51,12.49,10.59,20.69,12.65
		c4.02,1.01,8.11,1.38,12.24,1.15c8.62-0.48,16.43-3.24,23.23-8.62c6.24-4.95,10.52-11.23,12.48-19.03
		c0.85-3.36,1.11-6.78,0.83-10.24c-0.64-8.03-3.89-14.88-9.39-20.68c-1.09-1.15-2.31-2.17-3.48-3.25
		C175.8,72,175.74,71.96,175.61,71.87z"/>
	<path id="_x31_0_1_" class="st1" d="M147.35,80.59c-0.05,0.16-0.08,0.27-0.12,0.39c-0.24,0.69-0.49,1.37-0.71,2.07
		c-0.15,0.48-0.22,0.98-0.09,1.49c0.02,0.08,0.03,0.17,0.08,0.24c0.3,0.46,0.31,0.99,0.36,1.5c0.13,1.44,0.25,2.89,0.34,4.34
		c0.1,1.73,0.17,3.46,0.25,5.19c0.01,0.13-0.04,0.19-0.13,0.26c-1.08,0.75-2.25,1.23-3.56,1.36c-0.42,0.04-0.83,0.04-1.25,0.06
		c-0.01-0.02-0.01-0.04-0.02-0.06c0.05-0.02,0.09-0.05,0.14-0.07c0.6-0.3,1.21-0.59,1.8-0.91c0.42-0.22,0.79-0.51,1.08-0.89
		c0.02-0.02,0.04-0.04,0.05-0.07c0.44-0.7,0.44-0.92-0.12-1.56c-0.45-0.52-1.07-0.77-1.72-0.94c-0.95-0.25-1.91-0.29-2.88-0.21
		c-1.15,0.09-2.26,0.34-3.32,0.79c-0.89,0.38-1.69,0.88-2.31,1.63c-0.33,0.41-0.58,0.93-0.65,1.37c0.72-0.3,1.45-0.42,2.21-0.25
		c0.75,0.17,1.38,0.56,1.98,1c-0.77,1.02-1.53,2.04-2.3,3.08c-0.37-0.33-0.65-0.75-0.95-1.17c-0.29-0.42-0.58-0.85-0.86-1.27
		c-0.18,0.42-0.39,0.81-0.54,1.23c-0.11,0.32-0.16,0.67-0.22,1c-0.01,0.07,0.03,0.17,0.07,0.23c0.43,0.62,0.87,1.24,1.3,1.87
		c0.03,0.04,0.02,0.14-0.01,0.19c-0.54,1.05-1.01,2.13-1.32,3.26c-0.02,0.06-0.04,0.12-0.05,0.18c-0.03,0.36-0.23,0.59-0.52,0.8
		c-1.3,0.95-2.73,1.54-4.35,1.65c-0.81,0.05-1.6-0.05-2.32-0.45c-0.81-0.45-1.24-1.17-1.39-2.07c-0.19-1.06,0-2.09,0.29-3.1
		c0.09-0.32,0.21-0.63,0.31-0.95c0.02-0.05-0.01-0.11-0.02-0.17c-0.03-0.01-0.05-0.01-0.08-0.02c-0.3,0.48-0.61,0.95-0.89,1.44
		c-0.42,0.75-0.73,1.54-0.88,2.39c-0.37,2.13,0.58,3.91,2.55,4.77c0.75,0.33,1.54,0.5,2.36,0.52c0.88,0.01,1.69-0.27,2.48-0.63
		c0.69-0.31,1.34-0.7,1.96-1.15c0.04-0.03,0.08-0.06,0.14-0.09c0.04,0.31,0.07,0.6,0.12,0.89c0.34,2,1.4,3.49,3.16,4.49
		c1.05,0.6,2.19,0.91,3.39,0.99c2.78,0.18,5.23-0.67,7.37-2.45c0.53-0.44,0.99-0.95,1.41-1.5c0.06-0.07,0.15-0.14,0.24-0.16
		c1.05-0.16,2.07-0.44,3.06-0.81c0.1-0.04,0.15-0.02,0.21,0.06c0.8,1.08,1.92,1.41,3.2,1.28c1.48-0.15,2.75-0.84,3.93-1.69
		c1.38-1,2.56-2.22,3.63-3.54c0.4-0.49,0.78-1,1.17-1.51c0.09,0.3,0.18,0.61,0.28,0.9c0.28,0.82,0.66,1.59,1.27,2.23
		c0.88,0.93,1.97,1.3,3.22,1.11c1.76-0.26,3.15-1.16,4.3-2.49c0.35-0.4,0.45-0.88,0.51-1.39c0.16-1.45,0.27-2.91,0.28-4.37
		c0-1.4,0-2.81-0.05-4.21c-0.05-1.29-0.14-2.58-0.26-3.86c-0.12-1.27-0.27-2.54-0.45-3.81c-0.14-1.02-0.35-2.03-0.52-3.04
		c-0.01-0.04-0.01-0.08-0.02-0.16c0.05,0.07,0.08,0.11,0.11,0.15c1.28,2.13,2.42,4.34,3.25,6.69c0.51,1.43,0.89,2.88,1.09,4.39
		c0.31,2.38,0.14,4.71-0.83,6.94c-0.73,1.66-1.82,3.04-3.18,4.23c-1.78,1.55-3.81,2.68-5.96,3.62c-2.31,1.02-4.71,1.82-7.13,2.52
		c-1.25,0.36-2.52,0.7-3.78,1.05c-0.03,0.01-0.05,0.02-0.08,0.03c0.06,0.26,0.07,0.28,0.32,0.27c1.18-0.03,2.37-0.02,3.55-0.11
		c2.94-0.22,5.78-0.87,8.47-2.11c3-1.38,5.5-3.36,7.36-6.11c1.23-1.82,2.05-3.81,2.5-5.96c0.23-1.11,0.35-2.23,0.39-3.37
		c0.05-1.89-0.17-3.75-0.61-5.59c-0.78-3.27-2.18-6.26-4.02-9.06c-0.73-1.12-1.53-2.18-2.37-3.21c-0.01-0.02-0.03-0.03-0.06-0.07
		c-0.1,0.13-0.19,0.26-0.29,0.39c-0.37,0.5-0.74,1-1.11,1.5c-0.07,0.09-0.1,0.17-0.08,0.29c0.19,1.54,0.37,3.09,0.56,4.64
		c0.18,1.49,0.38,2.98,0.56,4.46c0.16,1.33,0.32,2.67,0.45,4c0.15,1.42,0.28,2.84,0.4,4.26c0.08,1.06,0.13,2.11,0.19,3.17
		c0.04,0.74,0.05,1.48,0.07,2.22c0.01,0.14-0.04,0.23-0.14,0.32c-0.72,0.7-1.55,1.19-2.56,1.35c-1.86,0.3-3.54-0.73-4.13-2.52
		c-0.12-0.36-0.08-0.72-0.09-1.08c-0.04-1.05-0.17-2.1-0.4-3.13c-0.03-0.12-0.02-0.2,0.1-0.28c0.99-0.64,1.91-1.36,2.74-2.19
		c0.5-0.5,0.96-1.05,1.32-1.66c0.49-0.83,0.72-1.7,0.52-2.66c-0.22-1.06-0.5-2.1-1.05-3.05c-0.25-0.42-0.54-0.81-0.92-1.12
		c-0.77-0.62-1.63-0.69-2.48-0.2c-0.71,0.41-1.22,1.02-1.67,1.69c-0.29,0.42-0.53,0.87-0.62,1.38c-0.1,0.62,0.12,1.1,0.64,1.44
		c0.44,0.29,0.94,0.42,1.45,0.5c1.03,0.17,2.07,0.16,3.1,0.11c0.08,0,0.16,0,0.24-0.01c0.01,0,0.02,0.01,0.07,0.03
		c-0.16,0.26-0.3,0.53-0.47,0.78c-0.61,0.85-1.4,1.52-2.25,2.13c-0.43,0.31-0.87,0.59-1.33,0.89c-0.66-1.93-1.55-3.72-2.56-5.48
		c-0.07,0.11-0.13,0.21-0.18,0.31c-0.34,0.57-0.68,1.14-1.02,1.71c-0.05,0.09-0.05,0.16-0.01,0.25c0.57,1.38,1.13,2.76,1.69,4.14
		c0.01,0.03,0.02,0.05,0.03,0.1c-0.99,0.44-2.01,0.77-3.11,0.96c0-0.14,0-0.26,0-0.38c-0.02-1.3-0.04-2.59-0.08-3.89
		c-0.04-1.32-0.09-2.64-0.17-3.96c-0.1-1.62-0.24-3.24-0.36-4.86c-0.02-0.21-0.04-0.43-0.05-0.64c0-0.06,0.04-0.12,0.07-0.18
		c0.21-0.31,0.46-0.59,0.64-0.92c0.31-0.54,0.26-1.09-0.12-1.59c-0.23-0.3-0.47-0.59-0.72-0.88c-0.47-0.56-0.83-1.19-1.02-1.9
		c-0.02-0.08-0.06-0.16-0.1-0.29c-0.31,1.07-0.62,2.08-0.88,3.1c-0.16,0.64-0.1,1.28,0.29,1.86c0.04,0.05,0.04,0.13,0.05,0.19
		c0.09,0.94,0.18,1.87,0.26,2.81c0.07,0.74,0.13,1.49,0.18,2.24c0.07,0.95,0.14,1.9,0.19,2.85c0.05,0.78,0.09,1.56,0.12,2.34
		c0.05,1.24,0.09,2.48,0.14,3.72c0.01,0.15,0.01,0.29,0.02,0.46c-0.37-0.01-0.7-0.08-1.03-0.2c-0.95-0.34-1.46-1.04-1.65-2.01
		c-0.19-0.97-0.08-1.92,0.16-2.86c0.21-0.83,0.49-1.63,0.74-2.45c0.02-0.05,0.04-0.11,0.06-0.17c-0.09-0.05-0.17-0.11-0.29-0.18
		c-0.27,0.36-0.55,0.7-0.8,1.06c-0.71,1.02-1.22,2.13-1.42,3.36c-0.25,1.56-0.02,3.03,0.97,4.31c0.75,0.96,1.76,1.5,2.96,1.71
		c0.11,0.02,0.21,0.03,0.34,0.05c0,0.15,0,0.3,0,0.45c0,0.5,0.01,1,0,1.5c0,0.06-0.04,0.13-0.08,0.17c-1.51,1.09-3.07,2.1-4.74,2.91
		c-0.03,0.01-0.06,0.02-0.11,0.04c-0.28-1.49,0.06-2.9,0.43-4.33c-0.09-0.04-0.18-0.09-0.32-0.15c-0.29,0.56-0.59,1.1-0.85,1.67
		c-0.44,0.97-0.7,1.98-0.73,3.05c0,0.13,0.04,0.31-0.03,0.39c-0.07,0.1-0.25,0.12-0.38,0.16c-0.34,0.11-0.68,0.21-1.05,0.33
		c0.06-0.25,0.13-0.48,0.18-0.7c0.23-1,0.31-2,0.18-3.02c-0.22-1.71-1.19-2.78-2.83-3.26c-0.79-0.23-1.6-0.33-2.41-0.37
		c-0.58-0.03-1.16-0.03-1.73-0.05c-0.03,0-0.07-0.01-0.12-0.01c0.04-0.12,0.07-0.24,0.11-0.34c0.13-0.29,0.18-0.58,0.15-0.89
		c-0.02-0.15,0.04-0.2,0.18-0.24c1-0.24,1.93-0.64,2.74-1.29c0.67-0.53,1.19-1.19,1.68-1.89c0.05-0.06,0.08-0.14,0.14-0.19
		c0.31-0.33,0.39-0.71,0.37-1.16c-0.05-1.17-0.04-2.33-0.09-3.5c-0.08-1.8-0.21-3.6-0.46-5.38c0-0.01,0-0.01,0-0.02
		c-0.12-0.34,0-0.6,0.26-0.85c0.18-0.18,0.32-0.41,0.45-0.63c0.29-0.49,0.27-0.99-0.05-1.46c-0.19-0.28-0.4-0.54-0.6-0.8
		c-0.47-0.58-0.84-1.22-1.04-1.95C147.38,80.68,147.37,80.66,147.35,80.59z M146.94,111.23c-0.03,0.04-0.04,0.05-0.05,0.06
		c-0.03,0.03-0.06,0.05-0.09,0.07c-0.86,0.66-1.82,1.15-2.85,1.47c-1.53,0.49-3.08,0.71-4.67,0.35c-1.61-0.36-3-1.12-4.04-2.43
		c-0.56-0.7-0.91-1.48-0.96-2.39c0-0.08,0.04-0.18,0.1-0.24c0.26-0.28,0.54-0.54,0.79-0.82c0.69-0.78,1.25-1.64,1.55-2.65
		c0.14-0.47,0.21-0.96,0.31-1.44c1.6,0.5,3.29,0.6,4.99,0.6c-0.01,0.05-0.01,0.08-0.01,0.1c-0.11,0.55-0.24,1.11-0.31,1.67
		c-0.1,0.82-0.04,1.63,0.24,2.41c0.5,1.42,1.53,2.3,2.91,2.81C145.51,111.05,146.21,111.17,146.94,111.23z M143.02,103.78
		c0.24,0,0.45-0.01,0.67,0c0.81,0.03,1.62,0.04,2.43,0.1c0.72,0.05,1.43,0.21,2.09,0.54c0.87,0.42,1.37,1.09,1.33,2.08
		c-0.03,0.84-0.27,1.64-0.64,2.39c-0.02,0.04-0.09,0.08-0.14,0.09c-0.88,0.09-1.74,0.04-2.6-0.18c-0.91-0.23-1.71-0.66-2.29-1.43
		C143.07,106.31,142.94,105.09,143.02,103.78z M154.67,109.25c0.06-0.04,0.09-0.06,0.13-0.08c0.25-0.14,0.5-0.28,0.75-0.43
		c1.48-0.89,2.82-1.94,3.95-3.25c0.1-0.11,0.15-0.23,0.15-0.38c0-0.83,0.02-1.65,0.01-2.48c0-0.18,0.05-0.21,0.2-0.24
		c1.17-0.28,2.28-0.75,3.35-1.29c0.06-0.03,0.12-0.05,0.18-0.09c0.01,0.04,0.02,0.06,0.03,0.09c0.22,0.89,0.38,1.79,0.46,2.71
		c0.01,0.06-0.03,0.14-0.07,0.19c-0.42,0.44-0.84,0.87-1.28,1.29c-1.05,1-2.16,1.91-3.4,2.67c-1,0.61-2.04,1.13-3.21,1.32
		C155.51,109.36,155.1,109.37,154.67,109.25z M143.78,99.9c-0.23,0.43-0.46,0.84-0.68,1.26c-0.05,0.11-0.11,0.15-0.23,0.14
		c-0.63-0.01-1.26,0-1.89-0.02c-0.83-0.03-1.66-0.08-2.49-0.15c-0.36-0.03-0.7-0.14-1.08-0.22c0.06-0.07,0.08-0.11,0.11-0.14
		c0.79-0.86,1.71-1.57,2.7-2.18c0.08-0.05,0.14-0.03,0.21,0.02c0.32,0.22,0.63,0.46,0.98,0.65
		C142.14,99.67,142.88,100.06,143.78,99.9z M165.81,90.7c0.4,0.03,0.79,0.1,1.14,0.31c0.09,0.05,0.18,0.12,0.25,0.2
		c0.12,0.14,0.09,0.27-0.08,0.34c-0.19,0.07-0.4,0.13-0.6,0.16c-0.41,0.06-0.81,0.02-1.19-0.17c-0.05-0.03-0.12-0.08-0.13-0.14
		C165.15,91.12,165.52,90.71,165.81,90.7z M135.6,103.58c0.02,0.01,0.04,0.02,0.06,0.02c0.05,0.69-0.26,1.24-0.72,1.72
		c-0.02-0.01-0.03-0.01-0.05-0.02C135.12,104.73,135.36,104.16,135.6,103.58z"/>
	<path id="_x39__1_" class="st1" d="M148.32,76.05c-0.48,0.17-0.94,0.35-1.42,0.5c-1.23,0.38-2.49,0.61-3.77,0.68
		c-1.2,0.06-2.4,0.1-3.6,0.09c-1.04-0.01-2.06-0.21-2.97-0.77c-0.62-0.38-1.09-0.91-1.51-1.5c-0.2-0.29-0.4-0.58-0.6-0.87
		c-0.37-0.53-1.04-0.63-1.52-0.18c-0.26,0.25-0.5,0.54-0.7,0.85c-0.44,0.7-0.84,1.44-1.28,2.14c-0.22,0.34-0.49,0.67-0.78,0.95
		c-0.55,0.53-1.14,0.28-1.48-0.21c-0.28-0.4-0.37-0.86-0.44-1.32c-0.11-0.73-0.21-1.47-0.31-2.2c-0.01-0.09-0.03-0.18-0.06-0.26
		c-0.02-0.05-0.07-0.08-0.1-0.13c-0.02,0.04-0.07,0.09-0.07,0.13c-0.02,0.63-0.05,1.27-0.04,1.9c0.01,0.75,0.12,1.5,0.31,2.23
		c0.14,0.54,0.32,1.08,0.68,1.52c0.37,0.46,0.85,0.57,1.38,0.32c0.54-0.25,0.93-0.68,1.29-1.14c0.78-0.98,1.37-2.08,1.94-3.19
		c0.05-0.09,0.13-0.16,0.2-0.24c0.08,0.08,0.18,0.14,0.22,0.23c0.87,1.78,2.32,2.85,4.18,3.4c1.29,0.39,2.62,0.53,3.97,0.44
		c1.34-0.09,2.62-0.42,3.88-0.86c1.28-0.44,2.51-0.98,3.71-1.59c0.14-0.07,0.21-0.05,0.32,0.05c0.37,0.37,0.72,0.76,1.13,1.08
		c0.99,0.79,2.13,1,3.37,0.76c0.13-0.02,0.25-0.06,0.38-0.08c0.12-0.02,0.25-0.04,0.38-0.06c0.02,0.22,0.05,0.42,0.07,0.63
		c0.02,0,0.04,0.01,0.06,0.01c0.05-0.15,0.12-0.3,0.14-0.45c0.04-0.27,0.2-0.41,0.43-0.52c0.89-0.43,1.64-1.02,2.14-1.88
		c0.5-0.86,0.61-1.8,0.36-2.76c-0.2-0.77-0.91-1.01-1.57-0.54c-0.16,0.11-0.31,0.26-0.43,0.41c-0.45,0.56-0.7,1.21-0.88,1.89
		c-0.1,0.39-0.17,0.8-0.24,1.2c-0.02,0.12-0.05,0.18-0.17,0.22c-0.27,0.07-0.53,0.18-0.8,0.23c-0.95,0.19-1.8-0.07-2.57-0.65
		c-0.08-0.06-0.16-0.13-0.25-0.2c0.31-0.08,0.6-0.15,0.88-0.24c0.52-0.17,1.01-0.4,1.37-0.83c0.39-0.47,0.39-0.66,0.01-1.13
		c-0.48-0.6-1.14-0.93-1.87-1.1c-1.48-0.35-2.96-0.31-4.4,0.21c-0.69,0.25-1.28,0.65-1.6,1.33c-0.11,0.23-0.16,0.49-0.25,0.76
		c0.31,0,0.58,0.01,0.84,0c0.43-0.01,0.86-0.03,1.28,0.08C147.91,75.49,148.15,75.7,148.32,76.05z M150.12,75.3
		c-0.4-0.22-0.82-0.45-1.26-0.69c0.94-0.46,1.91-0.46,2.41,0.21C150.89,74.98,150.52,75.13,150.12,75.3z M156.04,76.44
		c0.15-0.9,0.49-1.69,1.07-1.95C157.34,75.47,156.93,76.21,156.04,76.44z"/>
	<path id="_x38__1_" class="st1" d="M159.87,66.07c-0.1,0.17-0.19,0.35-0.3,0.51c-0.21,0.29-0.44,0.57-0.65,0.86
		c-0.04,0.05-0.07,0.13-0.07,0.19c0.11,1.33,0.25,2.66,0.34,3.99c0.07,1.06,0.1,2.13,0.14,3.19c0.03,0.92,0.06,1.83,0.09,2.75
		c0,0.05,0.01,0.11,0.03,0.14c0.5,0.74,1.05,1.42,1.8,1.92c0.23,0.15,0.48,0.28,0.73,0.39c0.13,0.06,0.18,0.13,0.2,0.26
		c0.06,0.29,0.13,0.57,0.19,0.86c0.07,0.29,0.07,0.29,0.4,0.24c-0.03-0.37-0.05-0.75-0.08-1.13c0.4,0,0.78,0.03,1.16-0.01
		c0.85-0.09,1.64-0.4,2.41-0.74c0.57-0.26,1.12-0.53,1.68-0.8c0.05-0.02,0.1-0.05,0.14-0.07c-0.04,0.15-0.1,0.3-0.12,0.45
		c-0.03,0.19,0.06,0.35,0.2,0.49c0.21,0.2,0.42,0.4,0.63,0.59c0.25,0.22,0.58,0.24,0.84,0.04c0.23-0.17,0.46-0.34,0.68-0.51
		c0.31-0.25,0.34-0.71,0.05-0.99c-0.2-0.19-0.4-0.38-0.61-0.56c-0.09-0.07-0.2-0.12-0.31-0.19c0.26-0.12,0.51-0.26,0.78-0.37
		c0.74-0.31,1.48-0.62,2.22-0.92c0.33-0.13,0.71-0.65,0.73-1c0.01-0.26-0.16-0.49-0.47-0.56c-0.75-0.18-1.49-0.37-2.25-0.52
		c-1.41-0.29-2.77-0.75-4.13-1.22c-0.82-0.29-1.67-0.5-2.54-0.48c-0.85,0.01-1.61,0.31-2.2,0.95c-0.5,0.55-0.64,1.22-0.55,1.94
		c0.09,0.7,0.3,1.37,0.53,2.03c0.02,0.05,0.03,0.1,0.02,0.19c-0.15-0.1-0.31-0.19-0.45-0.3c-0.31-0.25-0.52-0.58-0.7-0.93
		c-0.02-0.04-0.03-0.09-0.03-0.13c-0.03-0.97-0.04-1.95-0.08-2.92c-0.05-1.39-0.11-2.78-0.19-4.17c-0.06-1.05-0.14-2.09-0.22-3.14
		c-0.01-0.1-0.02-0.2-0.03-0.3C159.9,66.07,159.88,66.07,159.87,66.07z"/>
	<path id="_x37__1_" class="st1" d="M144.16,83.76c-0.39,0.73-0.77,1.46-1.16,2.21c0.47,0.05,0.51,0.4,0.59,0.75
		c0.08,0.31,0,0.5-0.27,0.68c-0.35,0.23-0.7,0.43-1.12,0.44c-0.52,0.02-0.94-0.21-1.31-0.56c-0.38-0.36-0.66-0.79-0.8-1.3
		c-0.04-0.12-0.07-0.25-0.14-0.36c-0.06-0.1-0.15-0.2-0.26-0.26c-0.16-0.1-0.3-0.05-0.4,0.1c-0.49,0.73-1.03,1.43-1.67,2.03
		c-0.63,0.59-1.33,1.08-2.19,1.28c-0.66,0.15-1.32,0.13-1.97-0.06c-0.69-0.2-1.11-0.68-1.41-1.31c-0.11-0.24-0.22-0.47-0.34-0.7
		c-0.34-0.61-0.82-0.83-1.51-0.72c-0.85,0.14-1.54,0.58-2.17,1.13c-1,0.88-1.75,1.95-2.38,3.12c-0.36,0.67-0.74,1.32-1.13,1.97
		c-0.13,0.21-0.31,0.41-0.49,0.58c-0.24,0.23-0.52,0.25-0.76,0.02c-0.21-0.19-0.4-0.41-0.54-0.65c-0.42-0.7-0.61-1.48-0.78-2.27
		c-0.2-0.94-0.29-1.89-0.35-2.86c-0.1-0.02-0.19-0.03-0.33-0.05c-0.07,0.3-0.16,0.59-0.2,0.89c-0.25,1.81-0.05,3.57,0.63,5.26
		c0.2,0.5,0.46,0.96,0.85,1.34c0.61,0.61,1.34,0.66,2.03,0.14c0.48-0.36,0.84-0.82,1.11-1.34c0.34-0.65,0.65-1.32,0.95-1.99
		c0.53-1.18,1.35-2.06,2.52-2.63c0.74-0.36,1.4-0.23,2.03,0.23c0.35,0.26,0.61,0.6,0.87,0.95c0.22,0.3,0.44,0.61,0.7,0.87
		c0.5,0.49,1.15,0.62,1.83,0.64c0.9,0.03,1.63-0.35,2.28-0.93c0.7-0.62,1.25-1.37,1.78-2.14c0.14-0.2,0.22-0.23,0.42-0.08
		c0.1,0.08,0.19,0.18,0.25,0.29c0.46,0.77,1.1,1.26,2.01,1.38c0.91,0.12,1.7-0.14,2.4-0.71c0.66-0.54,1.12-1.21,1.34-2.04
		c0.06-0.25,0.03-0.53,0-0.79c-0.1-0.92-0.47-1.74-0.88-2.55C144.2,83.78,144.19,83.78,144.16,83.76z"/>
	<path id="_x36__1_" class="st1" d="M151.15,79.83c-0.33,1.04-0.69,2.08-0.98,3.13c-0.17,0.6-0.1,1.2,0.24,1.75
		c0.06,0.1,0.05,0.25,0.06,0.38c0.05,0.86,0.1,1.73,0.15,2.59c0.06,1.1,0.13,2.19,0.19,3.29c0.04,0.71,0.08,1.42,0.11,2.14
		c0.06,1.22,0.11,2.43,0.16,3.65c0.03,0.81,0.06,1.62,0.08,2.43c0.04,1.51,0.07,3.01,0.1,4.52c0.01,0.24,0,0.47,0,0.73
		c0.82-0.36,1.56-0.76,1.71-1.72c0.05-0.33,0.02-0.68,0.02-1.02c-0.01-0.86-0.02-1.71-0.04-2.57c-0.03-1.56-0.06-3.11-0.1-4.67
		c-0.03-1.1-0.06-2.21-0.14-3.31c-0.12-1.71-0.25-3.41-0.41-5.11c-0.04-0.39-0.03-0.69,0.28-0.97c0.17-0.15,0.29-0.36,0.4-0.56
		c0.31-0.53,0.31-1.06-0.03-1.57c-0.18-0.27-0.38-0.52-0.59-0.77c-0.53-0.64-0.92-1.35-1.11-2.17c-0.01-0.06-0.04-0.12-0.06-0.18
		C151.18,79.83,151.17,79.83,151.15,79.83z"/>
	<path id="_x35__1_" class="st1" d="M126.19,84.07c0.31-0.26,0.63-0.51,0.93-0.76c0.37-0.31,0.37-0.77-0.01-1.08
		c-0.39-0.31-0.78-0.61-1.17-0.91c-0.3-0.22-0.63-0.21-0.9,0.04c-0.33,0.3-0.66,0.61-0.99,0.91c-0.38,0.36-0.36,0.79,0.05,1.11
		c0.35,0.27,0.7,0.54,1.06,0.8c0.08,0.06,0.16,0.1,0.26,0.16c-0.21,0.19-0.42,0.38-0.62,0.57c-0.11,0.1-0.22,0.2-0.32,0.3
		c-0.3,0.29-0.28,0.74,0.04,1c0.38,0.3,0.76,0.59,1.15,0.88c0.26,0.19,0.57,0.19,0.82-0.01c0.38-0.3,0.75-0.6,1.12-0.91
		c0.34-0.29,0.34-0.75,0-1.03c-0.4-0.33-0.81-0.64-1.22-0.96C126.33,84.15,126.26,84.12,126.19,84.07z"/>
	<path id="_x34__1_" class="st1" d="M131.49,92.44c-0.27-0.21-0.52-0.41-0.79-0.61c-0.31-0.24-0.65-0.22-0.94,0.05
		c-0.31,0.29-0.62,0.58-0.93,0.87c-0.41,0.38-0.39,0.8,0.05,1.15c0.34,0.26,0.68,0.52,1.02,0.79c0.29,0.22,0.6,0.22,0.89-0.01
		c0.3-0.24,0.61-0.48,0.89-0.73c0.13-0.12,0.22-0.12,0.36,0c0.18,0.16,0.38,0.3,0.58,0.44c0.26,0.19,0.57,0.19,0.82-0.01
		c0.39-0.31,0.77-0.61,1.15-0.93c0.31-0.26,0.31-0.73,0-0.99c-0.42-0.34-0.84-0.67-1.27-0.99c-0.27-0.2-0.6-0.16-0.87,0.09
		C132.13,91.85,131.81,92.14,131.49,92.44z"/>
	<path id="_x33__1_" class="st1" d="M133.08,72.66c0.13,0.09,0.23,0.18,0.34,0.25c0.28,0.2,0.58,0.19,0.85-0.02
		c0.24-0.18,0.47-0.37,0.7-0.56c0.35-0.29,0.35-0.76,0-1.06c-0.25-0.21-0.51-0.41-0.77-0.61c-0.29-0.22-0.63-0.2-0.89,0.06
		c-0.16,0.15-0.31,0.29-0.48,0.45c-0.13-0.1-0.26-0.2-0.39-0.3c-0.27-0.2-0.59-0.19-0.84,0.03c-0.24,0.21-0.47,0.42-0.7,0.64
		c-0.31,0.3-0.28,0.75,0.06,1.02c0.23,0.18,0.47,0.36,0.7,0.54c0.3,0.22,0.6,0.22,0.89-0.01C132.72,72.96,132.89,72.81,133.08,72.66
		z"/>
	<path id="_x32_" class="st1" d="M145.17,89.13c-0.14,0.06-0.28,0.1-0.39,0.17c-0.33,0.23-0.65,0.47-0.97,0.71
		c-0.32,0.24-0.36,0.7-0.08,0.99c0.29,0.29,0.59,0.58,0.89,0.86c0.22,0.2,0.51,0.23,0.77,0.07c0.36-0.22,0.72-0.45,1.07-0.69
		c0.32-0.22,0.38-0.68,0.11-0.97c-0.31-0.33-0.64-0.65-0.98-0.96C145.48,89.22,145.32,89.19,145.17,89.13z"/>
	<path id="_x31__1_" class="st2" d="M109.95,79.18c-0.13-0.05-0.26-0.11-0.4-0.15c-0.17-0.05-0.35-0.1-0.52-0.12
		c-0.52-0.07-0.88,0.12-1.15,0.61c-0.8,1.45-1.53,2.92-2.2,4.43c-0.1,0.23-0.21,0.45-0.31,0.68c-0.19,0.41-0.05,0.8,0.36,0.99
		c0.27,0.13,0.56,0.24,0.82,0.35c-0.47,1.47-0.94,2.91-1.41,4.37c-0.15-0.01-0.32-0.03-0.5-0.04c-0.16,0-0.32-0.01-0.47,0.01
		c-0.55,0.08-0.76,0.27-0.88,0.82c-0.31,1.35-0.52,2.71-0.67,4.08c-0.05,0.48-0.11,0.97-0.18,1.45c-0.07,0.54,0.19,0.9,0.74,0.97
		c0.27,0.03,0.54,0.07,0.83,0.1c0,1.52,0,3.03,0,4.57c-0.17,0.03-0.36,0.05-0.54,0.09c-0.14,0.03-0.29,0.07-0.42,0.13
		c-0.55,0.25-0.68,0.46-0.61,1.06c0.16,1.47,0.39,2.93,0.69,4.38c0.08,0.4,0.16,0.8,0.24,1.2c0.08,0.39,0.37,0.63,0.76,0.63
		c0.18,0,0.36-0.03,0.54-0.05c0.17-0.02,0.33-0.03,0.5-0.05c0.47,1.45,0.94,2.89,1.42,4.37c-0.1,0.04-0.22,0.11-0.35,0.16
		c-0.28,0.11-0.51,0.28-0.7,0.51c-0.2,0.24-0.26,0.49-0.11,0.78c0.59,1.2,1.16,2.4,1.76,3.59c0.28,0.57,0.61,1.11,0.91,1.67
		c0.23,0.42,0.64,0.58,1.09,0.41c0.28-0.11,0.56-0.23,0.84-0.34c0.91,1.27,1.8,2.53,2.73,3.83c-0.1,0.08-0.23,0.19-0.36,0.29
		c-0.22,0.17-0.38,0.39-0.48,0.64c-0.1,0.27-0.1,0.52,0.11,0.75c0.77,0.83,1.51,1.68,2.3,2.5c0.62,0.65,1.29,1.27,1.93,1.91
		c0.34,0.33,0.79,0.37,1.17,0.08c0.25-0.18,0.48-0.37,0.71-0.56c1.26,0.99,2.51,1.97,3.79,2.97c-0.08,0.12-0.19,0.25-0.27,0.4
		c-0.1,0.19-0.2,0.38-0.24,0.59c-0.09,0.36,0,0.66,0.35,0.87c1.21,0.71,2.4,1.45,3.61,2.16c0.57,0.34,1.17,0.64,1.76,0.95
		c0.48,0.26,0.9,0.16,1.22-0.27c0.16-0.23,0.33-0.46,0.49-0.68c1.52,0.63,3.02,1.24,4.54,1.87c-0.04,0.15-0.11,0.3-0.13,0.46
		c-0.03,0.24-0.06,0.49-0.04,0.73c0.03,0.31,0.2,0.54,0.53,0.63c1.33,0.37,2.65,0.76,3.98,1.11c0.72,0.19,1.45,0.34,2.18,0.51
		c0.56,0.13,0.94-0.07,1.12-0.63c0.08-0.25,0.16-0.49,0.25-0.75c1.61,0.2,3.2,0.4,4.83,0.61c0.01,0.19,0,0.41,0.03,0.61
		c0.03,0.22,0.09,0.44,0.18,0.65c0.15,0.34,0.4,0.51,0.8,0.51c1.13,0,2.26,0.05,3.39,0.04c1.03-0.01,2.06-0.07,3.08-0.12
		c0.43-0.02,0.72-0.35,0.73-0.78c0-0.29,0-0.59,0.01-0.88c0-0.02,0.02-0.04,0.02-0.04c1.63-0.22,3.25-0.43,4.9-0.65
		c0.05,0.15,0.12,0.32,0.17,0.49c0.09,0.31,0.29,0.54,0.53,0.73c0.21,0.16,0.42,0.21,0.7,0.15c1.89-0.4,3.74-0.96,5.58-1.54
		c0.17-0.05,0.34-0.11,0.52-0.16c0.61-0.18,0.78-0.52,0.58-1.13c-0.07-0.22-0.15-0.45-0.21-0.65c1.52-0.64,3.02-1.27,4.54-1.91
		c0.07,0.1,0.15,0.23,0.25,0.33c0.16,0.17,0.33,0.34,0.52,0.47c0.33,0.22,0.67,0.26,1.05,0.04c1.24-0.74,2.5-1.46,3.74-2.2
		c0.51-0.31,1.01-0.64,1.51-0.97c0.46-0.3,0.54-0.69,0.22-1.15c-0.14-0.2-0.28-0.4-0.42-0.59c1.27-1.01,2.51-2,3.78-3.01
		c0.08,0.06,0.18,0.13,0.28,0.21c0.24,0.2,0.52,0.31,0.83,0.37c0.31,0.06,0.57,0,0.81-0.23c1.05-1,2.04-2.05,2.99-3.15
		c0.38-0.43,0.76-0.87,1.14-1.3c0.31-0.36,0.28-0.77-0.08-1.07c-0.2-0.16-0.41-0.32-0.62-0.48c0.9-1.29,1.79-2.56,2.7-3.86
		c0.06,0.02,0.16,0.04,0.24,0.08c0.31,0.14,0.63,0.17,0.96,0.15c0.3-0.02,0.53-0.14,0.69-0.41c0.8-1.4,1.49-2.84,2.13-4.31
		c0.14-0.33,0.29-0.66,0.44-0.99c0.2-0.45,0.06-0.83-0.39-1.03c-0.23-0.11-0.47-0.2-0.7-0.29c0.47-1.49,0.92-2.95,1.37-4.37
		c0.34-0.02,0.68-0.01,1.01-0.07c0.41-0.07,0.66-0.29,0.75-0.75c0.25-1.27,0.45-2.54,0.59-3.82c0.06-0.55,0.12-1.1,0.19-1.65
		c0.01-0.09,0.02-0.18,0.02-0.27c0.01-0.37-0.23-0.69-0.59-0.76c-0.29-0.06-0.58-0.09-0.89-0.13c0-1.53,0-3.04,0-4.59
		c0.06-0.01,0.15-0.02,0.23-0.05c0.25-0.08,0.5-0.14,0.73-0.25c0.34-0.17,0.5-0.44,0.45-0.85c-0.16-1.48-0.41-2.95-0.73-4.41
		c-0.09-0.4-0.17-0.8-0.24-1.2c-0.1-0.52-0.48-0.79-1.01-0.71c-0.23,0.04-0.46,0.06-0.68,0.09c-0.49-1.47-0.97-2.91-1.47-4.4
		c0.07-0.03,0.19-0.07,0.28-0.14c0.21-0.15,0.43-0.29,0.61-0.47c0.22-0.22,0.28-0.49,0.13-0.81c-0.53-1.06-1.04-2.13-1.58-3.19
		c-0.36-0.7-0.77-1.38-1.16-2.07c-0.21-0.38-0.63-0.53-1.05-0.38c-0.25,0.09-0.5,0.21-0.73,0.3c-0.93-1.28-1.84-2.54-2.78-3.83
		c0.07-0.06,0.15-0.14,0.25-0.21c0.23-0.18,0.38-0.41,0.48-0.68c0.1-0.27,0.07-0.5-0.14-0.72c-0.59-0.63-1.15-1.28-1.75-1.9
		c-0.82-0.84-1.67-1.65-2.52-2.47c-0.35-0.34-0.81-0.36-1.2-0.06c-0.2,0.15-0.39,0.31-0.58,0.46c-1.29-0.99-2.57-1.97-3.85-2.96
		c0.07-0.11,0.17-0.21,0.22-0.33c0.09-0.22,0.19-0.44,0.23-0.67c0.06-0.31-0.07-0.55-0.35-0.74c-1.35-0.87-2.74-1.67-4.16-2.41
		c-0.41-0.22-0.83-0.42-1.23-0.66c-0.44-0.26-1.01-0.16-1.27,0.3c-0.11,0.2-0.26,0.37-0.39,0.55c-1.53-0.61-3.05-1.22-4.6-1.84
		c0.03-0.09,0.06-0.2,0.09-0.32c0.04-0.15,0.09-0.31,0.09-0.46c0.01-0.55-0.19-0.81-0.73-0.99c-1.71-0.55-3.46-0.97-5.21-1.35
		c-0.25-0.05-0.51-0.11-0.76-0.18c-0.62-0.15-0.98,0.05-1.17,0.65c-0.07,0.22-0.14,0.43-0.22,0.67c-1.35-0.17-2.7-0.34-4.09-0.51
		c0-0.16,0.02-0.33,0-0.49c-0.03-0.22-0.06-0.45-0.15-0.65c-0.15-0.37-0.43-0.54-0.84-0.56c-2.15-0.11-4.3-0.04-6.44,0.05
		c-0.46,0.02-0.74,0.33-0.74,0.79c0,0.27,0,0.54,0,0.85c-0.83,0.09-1.65,0.17-2.46,0.27c-0.82,0.1-1.63,0.23-2.48,0.35
		c-0.05-0.15-0.09-0.3-0.16-0.43c-0.11-0.21-0.21-0.43-0.36-0.61c-0.25-0.31-0.57-0.39-0.97-0.31c-1.95,0.41-3.85,0.98-5.75,1.56
		c-0.12,0.04-0.24,0.07-0.36,0.1c-0.46,0.14-0.67,0.51-0.53,0.97c0.08,0.26,0.16,0.51,0.24,0.76c-1.52,0.63-3.02,1.25-4.56,1.88
		c-0.07-0.1-0.15-0.23-0.26-0.34c-0.17-0.17-0.35-0.35-0.55-0.49c-0.31-0.21-0.64-0.23-0.99-0.03c-1.24,0.72-2.49,1.42-3.73,2.14
		c-0.54,0.31-1.05,0.66-1.58,0.99c-0.46,0.29-0.54,0.67-0.23,1.12c0.15,0.21,0.3,0.42,0.44,0.63c-1.27,1-2.52,1.98-3.79,2.98
		c-0.1-0.08-0.22-0.18-0.35-0.26c-0.13-0.09-0.26-0.18-0.41-0.24c-0.49-0.2-0.91-0.18-1.32,0.24c-1.11,1.1-2.2,2.22-3.22,3.4
		c-0.25,0.29-0.51,0.58-0.77,0.86c-0.37,0.41-0.34,0.81,0.1,1.16c0.2,0.16,0.4,0.32,0.6,0.47
		C111.76,76.62,110.87,77.88,109.95,79.18z M113.24,75.78c0.16,0.12,0.29,0.21,0.4,0.32c0.37,0.35,0.91,0.26,1.2-0.14
		c0.78-1.06,1.65-2.04,2.6-2.95c0.53-0.51,1.07-1.01,1.63-1.48c0.35-0.29,0.35-0.78-0.03-1.03c-0.14-0.09-0.26-0.21-0.42-0.33
		c1.17-1.02,2.37-1.96,3.64-2.85c0.13,0.18,0.24,0.34,0.35,0.49c0.25,0.31,0.6,0.37,0.94,0.17c0.08-0.05,0.15-0.1,0.22-0.16
		c1.25-0.9,2.55-1.72,3.92-2.42c0.49-0.25,1-0.48,1.49-0.73c0.44-0.22,0.53-0.56,0.25-0.97c-0.08-0.12-0.17-0.24-0.27-0.39
		c1.43-0.68,2.87-1.28,4.36-1.79c0.07,0.2,0.12,0.36,0.18,0.52c0.11,0.29,0.33,0.43,0.62,0.44c0.13,0,0.27-0.04,0.39-0.09
		c1.4-0.51,2.82-0.97,4.28-1.27c0.66-0.14,1.33-0.27,1.99-0.39c0.46-0.09,0.69-0.47,0.53-0.87c-0.05-0.12-0.07-0.25-0.12-0.41
		c1.57-0.27,3.12-0.48,4.71-0.58c0.01,0.14,0.02,0.25,0.02,0.36c0.01,0.53,0.3,0.77,0.82,0.73c0.88-0.07,1.76-0.14,2.64-0.17
		c1.31-0.04,2.62,0.04,3.93,0.17c0.46,0.05,0.76-0.21,0.78-0.67c0.01-0.12,0-0.24,0-0.4c1.32,0.11,2.59,0.25,3.87,0.49
		c-0.04,0.16-0.07,0.27-0.1,0.37c-0.16,0.53,0.04,0.82,0.57,0.92c1.06,0.21,2.13,0.4,3.18,0.67c1.06,0.27,2.09,0.64,3.14,0.97
		c0.49,0.15,0.82,0,0.98-0.49c0.05-0.15,0.1-0.3,0.15-0.46c1.51,0.52,2.96,1.09,4.4,1.76c-0.11,0.16-0.2,0.28-0.28,0.41
		c-0.31,0.47-0.22,0.79,0.28,1.03c0.5,0.24,1,0.47,1.5,0.72c1.38,0.69,2.69,1.49,3.93,2.4c0.46,0.33,0.97,0.29,1.26-0.23
		c0.07-0.13,0.18-0.25,0.27-0.38c1.29,0.89,2.5,1.81,3.68,2.83c-0.17,0.14-0.32,0.26-0.47,0.38c-0.42,0.35-0.44,0.7-0.02,1.04
		c1.58,1.32,3,2.78,4.27,4.4c0.35,0.45,0.72,0.49,1.17,0.14c0.17-0.13,0.33-0.26,0.5-0.4c0.97,1.19,1.85,2.39,2.68,3.68
		c-0.25,0.11-0.48,0.2-0.7,0.3c-0.44,0.21-0.54,0.56-0.27,0.97c1.1,1.66,2.03,3.42,2.72,5.3c0.16,0.44,0.58,0.7,1.08,0.45
		c0.21-0.1,0.43-0.18,0.67-0.27c0.55,1.39,1.03,2.77,1.4,4.22c-0.3,0.04-0.56,0.08-0.81,0.12c-0.45,0.07-0.67,0.39-0.54,0.83
		c0.56,1.93,0.89,3.9,0.99,5.9c0.02,0.39,0.3,0.64,0.69,0.63c0.07,0,0.13-0.02,0.2-0.03c0.23-0.03,0.46-0.05,0.71-0.08
		c0.09,1.49,0.14,2.94,0.03,4.41c-0.26-0.03-0.49-0.05-0.71-0.07c-0.6-0.07-0.85,0.15-0.87,0.73c-0.07,1.91-0.32,3.78-0.83,5.62
		c-0.19,0.7,0.12,0.98,0.71,1.03c0.08,0.01,0.16,0.01,0.24,0.02c0.12,0.02,0.24,0.05,0.38,0.07c-0.37,1.44-0.8,2.84-1.34,4.22
		c-0.25-0.1-0.47-0.19-0.69-0.28c-0.47-0.18-0.83-0.02-0.99,0.46c-0.67,1.88-1.55,3.66-2.62,5.35c-0.29,0.47-0.18,0.8,0.34,1.02
		c0.19,0.08,0.38,0.16,0.6,0.25c-0.81,1.3-1.66,2.52-2.6,3.7c-0.19-0.14-0.36-0.28-0.53-0.4c-0.4-0.28-0.78-0.24-1.07,0.15
		c-1.24,1.66-2.64,3.16-4.21,4.5c-0.43,0.37-0.35,0.82,0.03,1.07c0.14,0.1,0.3,0.19,0.4,0.36c-1.15,1.01-2.33,1.95-3.59,2.84
		c-0.13-0.18-0.25-0.34-0.38-0.5c-0.26-0.31-0.63-0.36-0.97-0.14c-0.08,0.05-0.15,0.11-0.22,0.16c-1.27,0.93-2.59,1.78-3.99,2.49
		c-0.45,0.23-0.91,0.45-1.37,0.68c-0.43,0.22-0.51,0.56-0.25,0.95c0.09,0.13,0.18,0.25,0.27,0.38c-0.49,0.35-3.74,1.71-4.33,1.81
		c-0.05-0.14-0.1-0.29-0.15-0.44c-0.15-0.38-0.48-0.54-0.88-0.42c-0.06,0.02-0.13,0.05-0.19,0.07c-1.11,0.36-2.2,0.76-3.32,1.07
		c-0.96,0.27-1.94,0.43-2.91,0.64c-0.48,0.1-0.65,0.4-0.51,0.88c0.03,0.11,0.06,0.21,0.11,0.35c-1.56,0.29-3.11,0.49-4.69,0.62
		c-0.01-0.12-0.02-0.19-0.02-0.27c-0.02-0.56-0.27-0.79-0.84-0.75c-0.06,0-0.11,0.01-0.17,0.01c-0.86,0.06-1.71,0.14-2.57,0.17
		c-1.14,0.04-2.28,0-3.42-0.11c-0.19-0.02-0.38-0.03-0.58-0.02c-0.35,0.02-0.59,0.26-0.61,0.6c-0.01,0.11-0.01,0.22-0.02,0.37
		c-1.55-0.1-3.07-0.31-4.6-0.58c0.03-0.12,0.06-0.22,0.09-0.31c0.15-0.52-0.02-0.81-0.55-0.9c-1.22-0.22-2.44-0.45-3.63-0.81
		c-0.87-0.26-1.74-0.55-2.6-0.86c-0.53-0.19-0.97,0.01-1.08,0.51c-0.02,0.1-0.08,0.2-0.12,0.31c-1.49-0.54-2.92-1.11-4.33-1.79
		c0.12-0.18,0.23-0.31,0.31-0.46c0.17-0.3,0.09-0.61-0.2-0.79c-0.1-0.07-0.22-0.11-0.33-0.17c-1.02-0.54-2.05-1.05-3.05-1.63
		c-0.77-0.45-1.49-0.98-2.23-1.48c-0.49-0.33-0.83-0.28-1.18,0.21c-0.07,0.1-0.14,0.2-0.23,0.31c-1.26-0.89-2.46-1.82-3.62-2.83
		c0.15-0.12,0.28-0.22,0.4-0.32c0.38-0.32,0.4-0.68,0.02-1c-1.59-1.34-3.01-2.84-4.28-4.49c-0.31-0.4-0.69-0.45-1.09-0.15
		c-0.14,0.11-0.28,0.22-0.45,0.34c-0.94-1.19-1.81-2.39-2.61-3.66c0.22-0.09,0.4-0.17,0.57-0.25c0.43-0.2,0.54-0.55,0.29-0.94
		c-1.11-1.69-2.01-3.48-2.71-5.38c-0.18-0.48-0.52-0.62-1-0.44c-0.19,0.07-0.37,0.15-0.56,0.22c-0.31-0.55-1.23-3.36-1.37-4.18
		c0.17-0.03,0.33-0.06,0.5-0.08c0.65-0.07,0.85-0.36,0.67-0.99c0-0.01-0.01-0.02-0.01-0.03c-0.39-1.44-0.68-2.9-0.79-4.4
		c-0.03-0.46-0.06-0.93-0.11-1.39c-0.03-0.36-0.27-0.57-0.62-0.59c-0.13,0-0.27,0.02-0.4,0.04c-0.13,0.01-0.26,0.02-0.39,0.03
		c-0.14-0.64-0.14-3.89,0.01-4.36c0.21,0.02,0.42,0.06,0.63,0.07c0.52,0.03,0.75-0.17,0.78-0.7c0.08-1.39,0.22-2.77,0.52-4.13
		c0.13-0.58,0.28-1.16,0.42-1.75c0.09-0.37-0.07-0.64-0.44-0.75c-0.11-0.03-0.22-0.04-0.33-0.06c-0.15-0.03-0.31-0.05-0.48-0.08
		c0.38-1.44,0.81-2.82,1.36-4.19c0.23,0.09,0.43,0.18,0.63,0.25c0.46,0.17,0.8,0.02,0.97-0.44c0.69-1.89,1.59-3.67,2.68-5.35
		c0.29-0.45,0.18-0.78-0.32-1c-0.17-0.08-0.34-0.15-0.55-0.24C111.43,78.17,112.29,76.97,113.24,75.78z M177.59,65.43
		c-0.07,0.17-0.11,0.35-0.2,0.49c-0.2,0.33-0.43,0.64-0.65,0.95c-0.22,0.3-0.47,0.36-0.79,0.18c-0.08-0.04-0.15-0.1-0.23-0.15
		c-1.14-0.78-2.32-1.49-3.55-2.11c-0.32-0.16-0.65-0.31-0.97-0.48c-0.36-0.19-0.42-0.44-0.2-0.77c0.25-0.37,0.51-0.75,0.77-1.11
		c0.19-0.27,0.39-0.34,0.7-0.26c0.09,0.02,0.17,0.05,0.25,0.1c0.61,0.32,1.22,0.64,1.82,0.98c0.9,0.52,1.79,1.06,2.68,1.58
		C177.45,64.97,177.57,65.15,177.59,65.43z M176.9,132.38c0.15,0.09,0.32,0.14,0.4,0.25c0.32,0.41,0.62,0.84,0.92,1.26
		c0.11,0.15,0.12,0.33,0.01,0.48c-0.09,0.12-0.2,0.24-0.33,0.33c-0.48,0.32-0.96,0.64-1.46,0.93c-0.98,0.58-1.97,1.15-2.96,1.73
		c-0.25,0.15-0.5,0.15-0.74,0.01c-0.16-0.09-0.32-0.22-0.43-0.37c-0.22-0.27-0.42-0.56-0.62-0.85c-0.25-0.36-0.2-0.61,0.2-0.82
		c0.22-0.12,0.44-0.22,0.67-0.33c1.33-0.68,2.6-1.46,3.82-2.32C176.54,132.56,176.71,132.49,176.9,132.38z M107.94,114.19
		c0.28,0.01,0.45,0.14,0.57,0.42c0.24,0.55,0.44,1.12,0.71,1.65c0.47,0.93,0.98,1.83,1.49,2.74c0.31,0.54,0.26,0.73-0.33,0.97
		c-0.39,0.16-0.77,0.32-1.16,0.48c-0.42,0.17-0.71,0.06-0.93-0.34c-0.2-0.37-0.41-0.73-0.6-1.1c-0.54-1.08-1.07-2.17-1.61-3.25
		c-0.15-0.3-0.08-0.55,0.14-0.77c0.1-0.1,0.23-0.19,0.36-0.25c0.38-0.17,0.77-0.33,1.16-0.48
		C107.81,114.22,107.9,114.2,107.94,114.19z M108.98,79.53c0.16,0.04,0.33,0.07,0.49,0.13c0.35,0.13,0.69,0.28,1.03,0.43
		c0.43,0.18,0.5,0.42,0.27,0.82c-0.22,0.38-0.45,0.75-0.67,1.14c-0.61,1.06-1.11,2.17-1.56,3.3c-0.18,0.46-0.42,0.56-0.88,0.37
		c-0.42-0.17-0.83-0.34-1.25-0.52c-0.42-0.18-0.53-0.45-0.34-0.87c0.11-0.24,0.22-0.47,0.33-0.7c0.61-1.21,1.22-2.42,1.82-3.63
		C108.37,79.67,108.62,79.54,108.98,79.53z M182.89,69.4c0.25,0.03,0.43,0.13,0.59,0.28c0.4,0.4,0.82,0.78,1.21,1.18
		c0.77,0.8,1.53,1.6,2.29,2.41c0.15,0.15,0.27,0.33,0.18,0.55c-0.07,0.18-0.16,0.39-0.29,0.52c-0.32,0.3-0.67,0.57-1.03,0.83
		c-0.24,0.18-0.48,0.16-0.71-0.04c-0.08-0.07-0.14-0.15-0.2-0.23c-0.71-0.86-1.45-1.7-2.27-2.47c-0.42-0.4-0.85-0.77-1.28-1.17
		c-0.3-0.28-0.3-0.54,0.01-0.8c0.37-0.3,0.73-0.6,1.11-0.89C182.62,69.51,182.76,69.46,182.89,69.4z M128.81,64.05
		c-0.07,0.11-0.13,0.23-0.22,0.32c-0.08,0.08-0.19,0.13-0.29,0.17c-1.54,0.74-3.01,1.6-4.41,2.58c-0.1,0.07-0.21,0.13-0.32,0.18
		c-0.23,0.1-0.43,0.03-0.57-0.16c-0.31-0.42-0.61-0.84-0.9-1.27c-0.12-0.18-0.11-0.37,0.02-0.54c0.08-0.11,0.19-0.2,0.3-0.27
		c0.53-0.34,1.06-0.68,1.61-1c0.94-0.55,1.89-1.07,2.82-1.61c0.28-0.16,0.54-0.13,0.8,0.02c0.13,0.08,0.26,0.19,0.35,0.31
		c0.23,0.3,0.45,0.62,0.67,0.94C128.72,63.81,128.75,63.92,128.81,64.05z M122.06,134.37c0.06-0.17,0.11-0.35,0.2-0.49
		c0.21-0.33,0.45-0.65,0.68-0.97c0.21-0.28,0.46-0.33,0.77-0.17c0.1,0.05,0.19,0.13,0.28,0.19c0.95,0.59,1.89,1.19,2.85,1.76
		c0.48,0.29,1,0.52,1.51,0.77c0.49,0.24,0.55,0.47,0.24,0.9c-0.22,0.31-0.44,0.63-0.67,0.94c-0.3,0.43-0.58,0.49-1.04,0.24
		c-0.38-0.2-0.76-0.4-1.13-0.62c-1.11-0.65-2.21-1.31-3.32-1.96C122.21,134.83,122.09,134.64,122.06,134.37z M196.99,96.01
		c-0.05,0.09-0.09,0.24-0.17,0.34c-0.16,0.19-0.39,0.31-0.64,0.34c-0.39,0.05-0.78,0.1-1.17,0.16c-0.47,0.07-0.7-0.11-0.74-0.59
		c-0.1-1.43-0.31-2.85-0.67-4.24c-0.06-0.22-0.12-0.44-0.16-0.66c-0.07-0.34,0.07-0.54,0.41-0.61c0.08-0.02,0.15-0.03,0.23-0.04
		c0.4-0.05,0.81-0.1,1.21-0.16c0.52-0.07,0.76,0.09,0.86,0.6c0.18,0.92,0.36,1.84,0.53,2.76C196.79,94.58,196.88,95.27,196.99,96.01
		z M195.31,108.76c0-0.01-0.01-0.03-0.01-0.04c-0.43-0.05-0.85-0.1-1.28-0.16c-0.32-0.04-0.48-0.25-0.45-0.56
		c0.01-0.07,0.03-0.13,0.04-0.2c0.38-1.57,0.63-3.16,0.7-4.78c0.02-0.44,0.21-0.62,0.64-0.58c0.49,0.04,0.99,0.1,1.48,0.17
		c0.46,0.07,0.62,0.32,0.56,0.79c-0.06,0.47-0.09,0.94-0.16,1.41c-0.17,1.12-0.36,2.23-0.53,3.34c-0.04,0.24-0.17,0.4-0.39,0.47
		C195.73,108.68,195.52,108.71,195.31,108.76z M193.85,84.18c-0.06,0.35-0.25,0.59-0.54,0.72c-0.41,0.19-0.83,0.36-1.25,0.53
		c-0.29,0.12-0.53,0.02-0.69-0.25c-0.04-0.08-0.07-0.16-0.11-0.25c-0.24-0.54-0.44-1.09-0.72-1.61c-0.47-0.89-0.96-1.76-1.46-2.63
		c-0.31-0.54-0.27-0.73,0.32-0.97c0.39-0.17,0.79-0.34,1.18-0.5c0.38-0.16,0.68-0.05,0.89,0.31c0.2,0.35,0.4,0.71,0.59,1.07
		c0.56,1.09,1.11,2.19,1.67,3.29C193.78,83.99,193.82,84.09,193.85,84.18z M165.53,138.07c0.34,0,0.48,0.09,0.57,0.35
		c0.13,0.37,0.25,0.75,0.38,1.12c0.2,0.59,0.09,0.81-0.53,0.99c-0.03,0.01-0.06,0.02-0.1,0.03c-1.61,0.5-3.21,0.99-4.85,1.35
		c-0.47,0.1-0.86-0.09-1.03-0.54c-0.14-0.38-0.26-0.77-0.39-1.16c-0.08-0.25,0.01-0.45,0.24-0.56c0.08-0.04,0.17-0.07,0.26-0.08
		c1.77-0.33,3.49-0.81,5.18-1.43C165.37,138.11,165.48,138.09,165.53,138.07z M116.8,130.33c-0.23-0.03-0.41-0.11-0.56-0.26
		c-0.55-0.54-1.1-1.07-1.63-1.63c-0.64-0.67-1.25-1.37-1.88-2.05c-0.13-0.14-0.22-0.31-0.15-0.49c0.07-0.19,0.14-0.4,0.28-0.52
		c0.33-0.31,0.7-0.58,1.06-0.85c0.23-0.17,0.5-0.14,0.71,0.06c0.09,0.08,0.16,0.19,0.24,0.28c0.73,0.9,1.49,1.76,2.33,2.56
		c0.38,0.36,0.77,0.7,1.14,1.06c0.28,0.27,0.27,0.53-0.03,0.77c-0.38,0.31-0.76,0.61-1.15,0.9
		C117.05,130.24,116.92,130.28,116.8,130.33z M191.2,120.12c-0.1-0.01-0.21,0-0.3-0.03c-0.46-0.18-0.93-0.36-1.38-0.56
		c-0.19-0.08-0.26-0.25-0.22-0.45c0.02-0.12,0.08-0.23,0.14-0.34c0.36-0.65,0.75-1.29,1.08-1.96c0.39-0.81,0.73-1.65,1.09-2.48
		c0.18-0.42,0.42-0.53,0.83-0.37c0.44,0.17,0.88,0.35,1.32,0.54c0.4,0.17,0.5,0.44,0.33,0.85c-0.1,0.24-0.21,0.48-0.32,0.71
		c-0.59,1.22-1.2,2.43-1.79,3.65C191.8,120,191.55,120.13,191.2,120.12z M103.02,104.07c-0.05-0.7,0.14-0.96,0.62-1.09
		c0.07-0.02,0.13-0.04,0.2-0.04c0.38-0.05,0.76-0.11,1.14-0.15c0.48-0.05,0.66,0.1,0.7,0.59c0.11,1.39,0.27,2.76,0.6,4.12
		c0.06,0.26,0.14,0.52,0.19,0.79c0.07,0.35-0.09,0.58-0.43,0.63c-0.51,0.07-1.03,0.15-1.54,0.2c-0.43,0.04-0.65-0.15-0.73-0.57
		c-0.06-0.31-0.12-0.62-0.18-0.93C103.33,106.36,103.13,105.12,103.02,104.07z M104.56,90.89c0.5,0.07,0.96,0.12,1.42,0.2
		c0.44,0.07,0.58,0.28,0.46,0.71c-0.41,1.59-0.66,3.21-0.77,4.84c-0.03,0.47-0.25,0.63-0.72,0.57c-0.47-0.06-0.94-0.13-1.41-0.19
		c-0.39-0.05-0.58-0.28-0.55-0.67c0.01-0.09,0.02-0.18,0.03-0.27c0.09-0.67,0.15-1.35,0.26-2.02c0.14-0.87,0.31-1.73,0.46-2.6
		c0.04-0.23,0.17-0.37,0.37-0.44C104.27,90.96,104.44,90.93,104.56,90.89z M140.8,59.83c0,0.19-0.1,0.36-0.29,0.44
		c-0.11,0.05-0.24,0.07-0.36,0.1c-1.12,0.21-2.23,0.46-3.32,0.79c-0.61,0.19-1.22,0.4-1.83,0.6c-0.41,0.13-0.65,0.01-0.79-0.39
		c-0.14-0.42-0.28-0.84-0.41-1.26c-0.08-0.27-0.02-0.46,0.21-0.62c0.08-0.06,0.18-0.1,0.27-0.13c0.95-0.28,1.9-0.57,2.86-0.83
		c0.76-0.21,1.53-0.37,2.3-0.56c0.28-0.07,0.52,0.01,0.7,0.22c0.11,0.12,0.21,0.27,0.26,0.42c0.13,0.33,0.22,0.66,0.33,1
		C140.77,59.69,140.79,59.77,140.8,59.83z M165.75,59.99c0,0.01,0.01,0.06-0.01,0.1c-0.13,0.44-0.27,0.89-0.41,1.32
		c-0.05,0.16-0.2,0.26-0.37,0.25c-0.19-0.01-0.38-0.03-0.56-0.09c-1.2-0.4-2.41-0.76-3.65-1.01c-0.49-0.1-0.97-0.18-1.46-0.29
		c-0.46-0.1-0.58-0.31-0.44-0.76c0.12-0.38,0.23-0.75,0.35-1.13c0.14-0.44,0.4-0.58,0.85-0.48c0.22,0.05,0.44,0.1,0.66,0.15
		c1.51,0.33,3.01,0.7,4.48,1.16C165.59,59.33,165.75,59.56,165.75,59.99z M134.77,138.2c0.03,0,0.09,0,0.14,0.01
		c0.1,0.02,0.2,0.05,0.29,0.09c1.34,0.48,2.7,0.87,4.1,1.15c0.34,0.07,0.69,0.13,1.03,0.2c0.41,0.09,0.55,0.33,0.43,0.72
		c-0.12,0.38-0.24,0.75-0.37,1.13c-0.16,0.48-0.4,0.62-0.9,0.52c-0.18-0.04-0.35-0.09-0.53-0.13c-1.53-0.35-3.05-0.73-4.54-1.21
		c-0.5-0.16-0.69-0.51-0.54-1.02c0.11-0.37,0.23-0.73,0.35-1.1C134.33,138.29,134.47,138.2,134.77,138.2z M118.53,71.03
		c-0.01,0.29-0.14,0.42-0.29,0.55c-0.86,0.77-1.69,1.56-2.45,2.44c-0.36,0.41-0.7,0.83-1.05,1.25c-0.3,0.36-0.57,0.4-0.93,0.12
		c-0.37-0.28-0.73-0.57-1.09-0.86c-0.29-0.24-0.32-0.54-0.08-0.83c0.11-0.14,0.24-0.27,0.36-0.4c0.99-1.12,2-2.22,3.08-3.25
		c0.38-0.36,0.79-0.41,1.22-0.1c0.36,0.26,0.7,0.53,1.04,0.82C118.44,70.85,118.49,70.98,118.53,71.03z M150.13,56.87
		c0,0.01,0,0.03,0,0.04c0.87,0,1.74-0.01,2.61,0c0.59,0.01,0.88,0.31,0.89,0.91c0.01,0.33,0,0.66,0,0.98c0,0.45-0.19,0.63-0.65,0.61
		c-0.45-0.02-0.9-0.08-1.35-0.08c-0.93-0.01-1.85-0.01-2.78,0c-0.47,0.01-0.95,0.07-1.42,0.08c-0.42,0.02-0.61-0.18-0.61-0.58
		c0-0.43,0-0.86,0-1.29c0-0.23,0.08-0.41,0.28-0.5c0.13-0.06,0.28-0.09,0.42-0.1C148.39,56.91,149.26,56.89,150.13,56.87z
		 M183.59,129.97c-0.26-0.01-0.51-0.08-0.72-0.25c-0.28-0.23-0.57-0.44-0.86-0.66c-0.38-0.3-0.39-0.55-0.03-0.89
		c0.22-0.21,0.45-0.41,0.67-0.62c1.02-0.96,1.95-2.01,2.82-3.11c0.28-0.36,0.57-0.39,0.93-0.12c0.34,0.26,0.68,0.52,1.02,0.79
		c0.4,0.31,0.42,0.59,0.09,0.97c-0.23,0.26-0.46,0.53-0.7,0.79c-0.9,0.96-1.8,1.91-2.69,2.86
		C183.98,129.88,183.81,129.98,183.59,129.97z M149.79,143.12c0,0.01,0,0.03,0,0.04c-0.79-0.02-1.58-0.03-2.37-0.06
		c-0.12,0-0.26-0.07-0.36-0.15c-0.21-0.17-0.31-0.41-0.31-0.69c0-0.35-0.01-0.7-0.01-1.05c0-0.41,0.16-0.57,0.58-0.57
		c0.34,0,0.68,0.03,1.02,0.04c1.04,0.01,2.08,0.01,3.11,0c0.48-0.01,0.97-0.06,1.45-0.09c0.48-0.02,0.64,0.13,0.65,0.6
		c0.01,0.38,0.01,0.77,0.02,1.15c0.01,0.46-0.19,0.69-0.66,0.71c-0.69,0.03-1.38,0.05-2.07,0.07
		C150.49,143.13,150.14,143.12,149.79,143.12z"/>
</g>
</svg>
