<?xml version="1.0" encoding="utf-8"?>
<!-- Generator: Adobe Illustrator 24.2.3, SVG Export Plug-In . SVG Version: 6.00 Build 0)  -->
<svg version="1.1" id="Countryflags.com" xmlns="http://www.w3.org/2000/svg" xmlns:xlink="http://www.w3.org/1999/xlink" x="0px"
	 y="0px" viewBox="0 0 300 200" style="enable-background:new 0 0 300 200;" xml:space="preserve">
<style type="text/css">
	.st0{fill-rule:evenodd;clip-rule:evenodd;fill:#4D8FC9;}
	.st1{fill-rule:evenodd;clip-rule:evenodd;fill:#F5D129;}
	.st2{fill-rule:evenodd;clip-rule:evenodd;fill:#FFFFFF;stroke:#FFFFFF;stroke-width:0.216;stroke-miterlimit:22.9256;}
	.st3{fill-rule:evenodd;clip-rule:evenodd;fill:#E54F4F;}
</style>
<g>
	<polygon id="_x35_" class="st0" points="0,0 300,0 300,200 0,200 0,0 	"/>
	<polygon id="_x34_" class="st1" points="0,132.88 300,132.88 300,144.65 0,144.65 0,132.88 	"/>
	<polygon id="_x33_" class="st1" points="0,156.43 300,156.43 300,168.2 0,168.2 0,156.43 	"/>
	<polygon id="_x32_" class="st2" points="43.52,6.99 52.33,35.22 80.99,43.89 52.33,52.57 43.52,80.8 34.71,52.57 6.05,43.89 
		34.71,35.22 43.52,6.99 	"/>
	<polygon id="_x31_" class="st3" points="43.52,10.35 51.52,36.01 77.59,43.89 51.52,51.78 43.52,77.44 35.51,51.78 9.45,43.89 
		35.51,36.01 43.52,10.35 	"/>
</g>
</svg>
