<?xml version="1.0" encoding="utf-8"?>
<!-- Generator: Adobe Illustrator 24.2.3, SVG Export Plug-In . SVG Version: 6.00 Build 0)  -->
<svg version="1.1" id="Countryflags.com" xmlns="http://www.w3.org/2000/svg" xmlns:xlink="http://www.w3.org/1999/xlink" x="0px"
	 y="0px" viewBox="0 0 300 200" style="enable-background:new 0 0 300 200;" xml:space="preserve">
<style type="text/css">
	.st0{fill:#F9F9F9;}
	.st1{fill:#F9D90F;}
	.st2{fill:#012A87;}
	.st3{fill:#DC171D;}
</style>
<g>
	<rect id="_x31_0_1_" class="st0" width="300" height="200"/>
	<polygon id="_x39__1_" class="st1" points="0,82.9 0,0 123.68,0 	"/>
	<polygon id="_x38__1_" class="st2" points="300,0 300,200 0,200 	"/>
	<path id="_x37__1_" d="M82.53,128.56c-11.26,0-21.84-4.39-29.8-12.35c-7.96-7.96-12.35-18.55-12.35-29.81s4.38-21.85,12.35-29.81
		c7.96-7.96,18.55-12.35,29.8-12.35s21.84,4.39,29.8,12.35c7.96,7.96,12.35,18.55,12.35,29.81s-4.38,21.85-12.35,29.81
		C104.38,124.17,93.79,128.56,82.53,128.56z M82.53,49.19c-20.51,0-37.2,16.69-37.2,37.21c0,20.52,16.69,37.21,37.2,37.21
		s37.2-16.69,37.2-37.21C119.73,65.88,103.05,49.19,82.53,49.19z"/>
	<polygon id="_x36__1_" points="40.89,92.25 30.82,86.52 40.73,80.96 	"/>
	<polygon id="_x35__1_" points="123.68,92.25 133.74,86.52 123.83,80.96 	"/>
	<polygon id="_x34__1_" points="87.93,128.01 82.19,138.08 76.64,128.17 	"/>
	<polygon id="_x33__1_" points="87.93,45.2 82.19,35.13 76.64,45.04 	"/>
	<polygon id="_x32_" class="st3" points="82.53,111.91 60.37,73.83 104.43,73.83 	"/>
	<polygon id="_x31__1_" class="st3" points="82.67,61.07 60.5,99.15 104.56,99.15 	"/>
</g>
</svg>
