<?xml version="1.0" encoding="utf-8"?>
<!-- Generator: Adobe Illustrator 24.2.3, SVG Export Plug-In . SVG Version: 6.00 Build 0)  -->
<svg version="1.1" id="Countryflags.com" xmlns="http://www.w3.org/2000/svg" xmlns:xlink="http://www.w3.org/1999/xlink" x="0px"
	 y="0px" viewBox="0 0 300 200" style="enable-background:new 0 0 300 200;" xml:space="preserve">
<style type="text/css">
	.st0{fill:#C8102E;}
	.st1{fill:#003087;}
	.st2{fill:#43B02A;}
	.st3{fill:#FEDD00;}
</style>
<g>
	<rect id="_x39_2" y="0" class="st0" width="300" height="200"/>
	<rect id="_x39_1" y="0" class="st1" width="300" height="66.67"/>
	<polygon id="_x39_0" class="st2" points="233.6,177.04 182.27,151.35 182.27,152.62 231.75,178.89 	"/>
	<path id="_x38_9" d="M231.75,178.92l-0.01-0.01l-49.49-26.28v-1.32l0.03,0.01l51.36,25.71L231.75,178.92z M182.29,152.61
		l49.46,26.26l1.82-1.82l-51.28-25.67V152.61z"/>
	<polygon id="_x38_8" class="st2" points="236.15,173.92 182.27,149.84 182.27,150.8 235.11,176 	"/>
	<path id="_x38_7" d="M235.12,176.03l-0.02-0.01l-52.85-25.21v-1l0.03,0.01l53.9,24.08L235.12,176.03z M182.29,150.78l52.81,25.19
		l1.02-2.05l-53.83-24.05V150.78z"/>
	<polygon id="_x38_6" class="st2" points="237.65,170.79 182.27,148.22 182.27,149.84 236.26,172.76 	"/>
	<path id="_x38_5" d="M236.27,172.78l-0.01-0.01l-54-22.92v-1.66l0.03,0.01l55.41,22.58l-0.01,0.02L236.27,172.78z M182.29,149.83
		l53.97,22.91l1.37-1.93l-55.33-22.55V149.83z"/>
	<polygon id="_x38_4" class="st2" points="239.27,167.44 182.27,146.14 182.27,147.3 238.23,169.52 	"/>
	<path id="_x38_3" d="M238.24,169.54l-0.02-0.01l-55.97-22.23v-1.2l0.03,0.01l57.02,21.3l-0.01,0.02L238.24,169.54z M182.29,147.28
		l55.93,22.21l1.02-2.05l-56.96-21.28V147.28z"/>
	<polygon id="_x38_2" class="st2" points="240.55,163.85 182.27,146.14 182.27,147.3 239.5,165.93 	"/>
	<path id="_x38_1" d="M239.51,165.95l-0.02-0.01l-57.25-18.64v-1.2l0.03,0.01l58.3,17.72L239.51,165.95z M182.29,147.28l57.2,18.62
		l1.02-2.05l-58.23-17.69V147.28z"/>
	<polygon id="_x38_0" class="st2" points="242.86,160.49 182.27,144.52 182.27,146.14 241.36,162.57 	"/>
	<path id="_x37_9" d="M241.36,162.6l-0.01,0l-59.1-16.44v-1.66l0.02,0.01l60.62,15.98l-0.02,0.02L241.36,162.6z M182.29,146.12
		l59.06,16.43l1.48-2.05l-60.54-15.96V146.12z"/>
	<polygon id="_x37_8" class="st2" points="244.93,157.43 182.27,141.86 182.27,143.77 243.75,159.74 	"/>
	<path id="_x37_7" d="M243.76,159.76l-0.02,0l-61.49-15.97v-1.95l0.02,0.01l62.68,15.58l-0.01,0.02L243.76,159.76z M182.29,143.75
		l61.45,15.96l1.16-2.27l-62.61-15.56V143.75z"/>
	<path id="_x37_6" class="st2" d="M96.16,131.27c-1.79,2.84-2.63,3.9-2.7,7.06c-0.07,3.16-0.22,3.53-0.22,3.53s-2.29-3.07-1.13-7.12
		c1.16-4.05,5-7.23,11.64-7.64c6.64-0.41,6.64,0.36,6.64,0.36v1.66c0,0-9.77-0.12-11.57,0.75
		C97.03,130.75,96.16,131.27,96.16,131.27z"/>
	<path id="_x37_5" d="M93.24,141.9l-0.02-0.03c-0.01-0.01-0.58-0.78-1-2.05c-0.39-1.16-0.73-2.99-0.13-5.09
		c0.6-2.09,1.9-3.89,3.77-5.2c2.05-1.44,4.71-2.26,7.89-2.46c5.34-0.33,6.4,0.1,6.61,0.3c0.05,0.04,0.05,0.08,0.05,0.08v1.68
		l-0.02,0c-0.1,0-9.79-0.11-11.56,0.75c-1.71,0.83-2.59,1.35-2.66,1.39c-0.13,0.21-0.26,0.41-0.38,0.61
		c-1.54,2.42-2.25,3.52-2.31,6.44c-0.07,3.13-0.22,3.52-0.22,3.54L93.24,141.9z M107.09,127c-0.86,0-1.95,0.03-3.33,0.12
		c-3.17,0.19-5.82,1.02-7.87,2.45c-1.86,1.3-3.16,3.09-3.76,5.18c-0.6,2.09-0.26,3.91,0.13,5.06c0.37,1.11,0.86,1.84,0.97,2
		c0.04-0.15,0.15-0.83,0.21-3.49c0.06-2.93,0.77-4.04,2.32-6.46c0.12-0.19,0.25-0.4,0.39-0.61l0.01-0.01
		c0.01-0.01,0.89-0.53,2.66-1.39c1.74-0.84,11.06-0.76,11.56-0.75v-1.64C110.37,127.46,110.29,127,107.09,127z"/>
	<path id="_x37_4" class="st2" d="M106.87,128.72c0,0-1.91,5.61-5.03,8.62c-3.13,3.01-10,5.44-10,5.44s7.8-3.13,9.19-7.23
		c1.39-4.11,3.65-6.83,3.65-6.83H106.87z"/>
	<path id="_x37_3" d="M91.84,142.8l-0.01-0.04c0.02-0.01,1.97-0.8,4.07-2.07c1.93-1.18,4.39-3.03,5.11-5.15
		c1.37-4.06,3.63-6.81,3.65-6.84l0.01-0.01h2.24l-0.01,0.03c-0.02,0.06-1.95,5.65-5.04,8.63C98.75,140.34,91.91,142.78,91.84,142.8z
		 M104.68,128.74c-0.13,0.16-2.3,2.86-3.64,6.82c-0.72,2.13-3.18,3.99-5.12,5.17c-1.32,0.81-2.59,1.42-3.35,1.76
		c1.86-0.72,6.77-2.77,9.25-5.16c2.98-2.87,4.87-8.17,5.02-8.59H104.68z"/>
	<path id="_x37_2" class="st2" d="M112.48,115.53c0,0-20.4,4.43-26.3,6.45c-5.9,2.03-9.54,4.24-11.18,8.5
		c-1.64,4.26,0.85,6.86,0.85,6.86s-1.22-2.55,0.61-6.08c1.82-3.53,4.31-5.42,9.23-7.11c4.92-1.69,26.79-5.13,26.79-5.13V115.53
		L112.48,115.53z"/>
	<path id="_x37_1" d="M75.92,137.45l-0.09-0.09c-0.01-0.01-0.63-0.67-1.04-1.84c-0.38-1.08-0.66-2.84,0.19-5.04
		c0.8-2.09,2.07-3.71,4-5.1c1.72-1.25,3.94-2.3,7.19-3.41c5.84-2,26.1-6.41,26.3-6.45l0.02-0.01v3.55l-0.02,0
		c-0.22,0.03-21.93,3.46-26.79,5.13c-2.52,0.87-4.36,1.78-5.77,2.86c-1.42,1.09-2.52,2.44-3.45,4.24c-0.52,1-1.11,2.57-0.99,4.35
		c0.07,1.06,0.37,1.7,0.38,1.71L75.92,137.45z M112.46,115.55c-0.81,0.18-20.53,4.48-26.28,6.45c-3.25,1.11-5.46,2.17-7.18,3.41
		c-1.92,1.39-3.18,3-3.98,5.08c-0.85,2.2-0.57,3.94-0.19,5.02c0.32,0.92,0.77,1.52,0.96,1.74c-0.09-0.23-0.28-0.8-0.33-1.61
		c-0.07-0.99,0.05-2.54,0.99-4.37c0.93-1.8,2.03-3.15,3.46-4.25c1.42-1.09,3.25-2,5.78-2.87c4.81-1.65,26.07-5.01,26.78-5.13V115.55
		z"/>
	<path id="_x37_0" class="st2" d="M110.14,114.36c0,0-35.76,1.16-36.55,3.48c-0.78,2.31-2.6,4.92-2.6,4.92s0.62-5.28,3.12-6.52
		c10.42-5.2,36.03-3.98,36.03-3.98V114.36z"/>
	<path id="_x36_9" d="M70.96,122.84l0.01-0.08c0-0.01,0.16-1.34,0.62-2.8c0.43-1.35,1.21-3.09,2.51-3.74
		c2.38-1.19,5.75-2.13,10.03-2.82c3.42-0.55,7.42-0.92,11.9-1.13c7.62-0.34,14.04-0.04,14.11-0.04l0.02,0v2.15l-0.02,0
		c-0.36,0.01-35.76,1.19-36.53,3.46c-0.77,2.29-2.59,4.9-2.61,4.92L70.96,122.84z M103.63,112.15c-2.21,0-4.83,0.04-7.61,0.16
		c-4.47,0.2-8.47,0.58-11.89,1.12c-4.27,0.68-7.64,1.63-10.02,2.81c-2.29,1.14-3.01,5.75-3.1,6.43c0.29-0.42,1.85-2.77,2.56-4.85
		c0.33-0.97,6.58-1.85,18.58-2.62c8.74-0.56,17.49-0.85,17.96-0.87v-2.07C109.87,112.26,107.32,112.15,103.63,112.15z"/>
	<path id="_x36_8" class="st2" d="M119.29,118.47c0,0-35.13,6.8-35.54,9.21c-0.41,2.41-1.79,5.27-1.79,5.27s-0.22-5.31,2.05-6.93
		c9.47-6.78,34.95-9.63,34.95-9.63L119.29,118.47z"/>
	<path id="_x36_7" d="M81.94,133.03l0-0.08c0-0.01-0.05-1.35,0.17-2.86c0.21-1.4,0.71-3.25,1.88-4.09c2.16-1.55,5.34-3.02,9.46-4.37
		c3.29-1.08,7.19-2.09,11.57-2.99c7.47-1.54,13.86-2.27,13.92-2.27l0.02,0l0,0.02l0.34,2.1l-0.02,0c-0.35,0.07-35.12,6.83-35.52,9.2
		c-0.4,2.38-1.78,5.24-1.8,5.27L81.94,133.03z M118.94,116.41c-0.39,0.04-6.64,0.77-13.9,2.27c-4.38,0.91-8.28,1.91-11.57,2.99
		c-4.11,1.35-7.29,2.82-9.45,4.36c-2.08,1.49-2.06,6.16-2.04,6.84c0.22-0.47,1.39-3.03,1.76-5.19c0.17-1.01,6.2-2.87,17.93-5.53
		c8.54-1.94,17.14-3.61,17.6-3.7L118.94,116.41z"/>
	<path id="_x36_6" class="st2" d="M55.82,111.26c0,0,7.16-4.1,17.74-5.09c10.58-1,19.52,3.02,19.52,3.02s-15.29-6.33-25.05-3.7
		C58.28,108.11,55.82,111.26,55.82,111.26z"/>
	<path id="_x36_5" d="M55.74,111.33l0.06-0.08c0.01-0.01,0.64-0.8,2.45-1.91c3.03-1.84,6.99-3.12,9.77-3.87
		c2.23-0.6,4.93-0.78,8.04-0.53c2.48,0.2,5.23,0.67,8.16,1.4c2.46,0.61,4.64,1.3,6.22,1.85c1.66,0.54,2.63,0.98,2.65,0.98
		l-0.02,0.04c-0.02-0.01-1.02-0.42-2.65-0.98c-0.87-0.29-1.93-0.6-3.15-0.9c-3.25-0.8-8.26-1.65-13.72-1.14
		c-5.46,0.51-9.99,1.87-12.83,2.92c-3.08,1.14-4.88,2.16-4.9,2.17L55.74,111.33z M73.46,104.87c-2.03,0-3.84,0.21-5.42,0.64
		c-2.78,0.75-6.73,2.03-9.76,3.87c-1.47,0.89-2.16,1.58-2.37,1.82c0.42-0.23,2.13-1.13,4.81-2.12c2.84-1.05,7.38-2.41,12.84-2.92
		c5.47-0.52,10.49,0.33,13.73,1.14c0.58,0.14,1.13,0.29,1.64,0.44c-1.35-0.44-2.96-0.91-4.72-1.35c-2.93-0.73-5.67-1.2-8.15-1.39
		C75.16,104.9,74.29,104.87,73.46,104.87z"/>
	<path id="_x36_4" class="st2" d="M50.5,107.31c0,0-1.46-3.7,5.3-7.03c6.75-3.33,19.2-2.43,19.2-2.43l1.67,1.8
		c0,0-11.99-0.93-18.79,1.75C51.08,104.09,50.5,107.31,50.5,107.31z"/>
	<path id="_x36_3" d="M50.51,107.38l-0.03-0.06c-0.13-0.32-0.27-1.21,0.12-2.28c0.8-2.22,3.26-3.82,5.19-4.78
		c3.49-1.72,8.53-2.29,12.14-2.47c3.91-0.19,7.04,0.03,7.07,0.03l0.01,0l0.01,0.01l1.7,1.84l-0.05,0c-0.03,0-3.04-0.23-6.84-0.13
		c-6.36,0.17-10,1.12-11.94,1.88c-1.94,0.76-4.59,2.07-6.23,3.95c-0.98,1.12-1.13,1.93-1.13,1.93L50.51,107.38z M71.17,97.76
		c-0.97,0-2.07,0.02-3.24,0.08c-3.61,0.17-8.64,0.74-12.13,2.46c-1.92,0.95-4.38,2.54-5.17,4.75c-0.36,0.99-0.26,1.83-0.14,2.19
		c0.06-0.22,0.3-0.94,1.13-1.89c0.91-1.04,2.73-2.58,6.25-3.96c1.94-0.77,5.59-1.72,11.95-1.89c3.54-0.1,6.39,0.1,6.8,0.13
		l-1.63-1.76C74.87,97.86,73.36,97.76,71.17,97.76z"/>
	<path id="_x36_2" class="st2" d="M76.45,97.85c0,0-13.54-5.47-18.58-6.08c-5.03-0.61-6.6,0-6.6,0s7.67,1.53,13.08,3.54
		c5.41,2.02,12.3,4.34,12.3,4.34L76.45,97.85z"/>
	<path id="_x36_1" d="M76.69,99.68l-0.03-0.01c-0.07-0.02-6.96-2.35-12.31-4.34c-5.35-1.99-13-3.52-13.08-3.54l-0.07-0.01l0.06-0.02
		c0.02-0.01,1.62-0.6,6.61,0c2.6,0.31,7.52,1.95,11.18,3.27c3.97,1.43,7.37,2.8,7.4,2.81l0.01,0L76.69,99.68z M51.36,91.77
		c0.8,0.16,7.94,1.64,13.01,3.53c5.17,1.93,11.78,4.16,12.27,4.33l-0.21-1.76c-0.22-0.09-3.53-1.42-7.39-2.81
		c-3.66-1.32-8.57-2.95-11.17-3.27c-2.6-0.31-4.25-0.3-5.18-0.23C51.93,91.62,51.51,91.72,51.36,91.77z"/>
	<path id="_x36_0" class="st2" d="M45.64,96.28c0,0,10.48-0.3,20.4,2.6s49.39,20.4,49.39,20.4l-0.87,1.56
		c0,0-27.26-13.28-41.75-18.06C58.31,98.01,45.64,96.28,45.64,96.28z"/>
	<path id="_x35_9" d="M114.57,120.88l-0.02-0.01c-0.27-0.13-27.42-13.33-41.75-18.05c-14.33-4.73-27.04-6.49-27.17-6.51l0-0.04
		c0.03,0,2.66-0.07,6.48,0.21c3.52,0.26,8.8,0.89,13.92,2.39c9.81,2.87,49,20.23,49.39,20.4l0.02,0.01l-0.01,0.02L114.57,120.88z
		 M45.88,96.3c1.82,0.27,13.69,2.11,26.93,6.48c14.19,4.68,40.93,17.65,41.74,18.05l0.85-1.53c-1.07-0.47-39.65-17.54-49.37-20.39
		c-2.83-0.83-7.54-1.92-13.92-2.39C48.97,96.28,46.62,96.29,45.88,96.3z"/>
	<path id="_x35_8" class="st2" d="M70.05,124.05c0,0,9.26-4.92,19.44-6.71s28.96-1.45,28.96-1.45l0.47,2.24c0,0-6.51-2.44-21.62-0.3
		C82.17,119.98,70.05,124.05,70.05,124.05z"/>
	<path id="_x35_7" d="M70.05,124.06l-0.02-0.04c0.02-0.01,2.36-1.25,5.9-2.68c3.27-1.33,8.28-3.1,13.54-4.03
		c5.26-0.93,12.86-1.27,18.3-1.4c5.9-0.14,10.61-0.05,10.66-0.05l0.02,0l0,0.02l0.47,2.28l-0.03-0.01
		c-0.02-0.01-1.67-0.61-5.14-0.95c-3.21-0.31-8.67-0.45-16.47,0.65C82.35,119.97,70.17,124.02,70.05,124.06z M114.65,115.88
		c-1.85,0-4.24,0.02-6.87,0.08c-5.44,0.13-13.04,0.47-18.29,1.4c-5.26,0.93-10.26,2.7-13.53,4.03c-2.93,1.19-5.03,2.23-5.68,2.57
		c1.75-0.57,13.2-4.18,27.01-6.14c4.31-0.61,10.67-1.22,16.48-0.65c3.21,0.31,4.87,0.86,5.12,0.94l-0.46-2.19
		C118.26,115.9,116.83,115.88,114.65,115.88z"/>
	<path id="_x35_6" class="st2" d="M50,85.87c0,0,5.46,2.95,8.25,5.47c4.6,4.17,10.51,5.78,16.58,7.73c5.92,1.9,7.24,2.34,7.24,2.34
		s-11.84-0.52-19.05-4.21c-7.2-3.69-6.42-5.68-9.11-8.2C52.29,87.48,50,85.87,50,85.87z"/>
	<path id="_x35_5" d="M82.21,101.43l-0.14-0.01c-0.03,0-3.01-0.14-6.82-0.72c-6.39-0.98-10.18-2.44-12.23-3.49
		c-4.95-2.54-6.13-4.26-7.26-5.93c-0.52-0.77-1.01-1.49-1.86-2.28c-1.6-1.49-3.88-3.11-3.9-3.12l0.02-0.03
		c0.05,0.03,5.5,2.98,8.25,5.47c4.2,3.8,9.44,5.46,14.99,7.22c0.53,0.17,1.05,0.33,1.58,0.5c5.85,1.88,7.23,2.34,7.24,2.34
		L82.21,101.43z M50.28,86.04c0.65,0.47,2.37,1.74,3.64,2.93c0.84,0.79,1.34,1.52,1.86,2.28c1.13,1.66,2.3,3.38,7.25,5.92
		c2.05,1.05,5.84,2.51,12.22,3.49c3.34,0.51,6.04,0.68,6.68,0.72c-0.47-0.15-2.24-0.74-7.1-2.3c-0.53-0.17-1.06-0.34-1.58-0.5
		c-5.56-1.76-10.8-3.42-15.01-7.23C55.85,89.19,51.45,86.69,50.28,86.04z"/>
	<path id="_x35_4" class="st2" d="M104.36,120.5c0,0-8.42-2.08-15.63-0.78c-7.2,1.3-11.72,4.95-11.72,4.95s4.42-2.1,12.76-3.09
		c10.18-1.2,15.19,1,15.19,1L104.36,120.5z"/>
	<path id="_x35_3" d="M76.88,124.76l0.13-0.1c0.01-0.01,1.15-0.93,3.16-1.99c1.85-0.98,4.84-2.29,8.57-2.97
		c3.72-0.67,7.78-0.42,10.52-0.1c2.97,0.35,5.09,0.87,5.11,0.88l0.01,0l0,0.01l0.62,2.12l-0.04-0.02c-0.01-0.01-1.28-0.55-3.78-0.95
		c-2.3-0.36-6.15-0.67-11.4-0.05c-2.38,0.28-5.95,0.84-9.5,1.91c-2.12,0.64-3.24,1.17-3.25,1.17L76.88,124.76z M93.96,119.31
		c-1.7,0-3.5,0.11-5.22,0.43c-3.72,0.67-6.71,1.98-8.56,2.96c-1.62,0.86-2.67,1.62-3.02,1.89c0.37-0.16,1.43-0.6,3.1-1.11
		c1.96-0.59,5.2-1.41,9.51-1.91c5.26-0.62,9.11-0.32,11.42,0.05c2.26,0.36,3.52,0.84,3.75,0.94l-0.59-2.03
		c-0.17-0.04-2.24-0.54-5.1-0.88C97.78,119.46,95.93,119.31,93.96,119.31z"/>
	<path id="_x35_2" class="st2" d="M101.02,113.99c0,0-16.6-6.44-29.86-15.19c-13.28-8.77-13.02-12.76-15.28-15.19
		c-2.26-2.43-3.99-3.21-3.99-3.21s2-0.17,6.42,2.95s16.32,13.94,19.44,16.3c3.12,2.36,23.26,13.47,23.26,13.47V113.99z"/>
	<path id="_x35_1" d="M101.04,114.02l-0.03-0.01c-0.04-0.02-4.22-1.64-9.96-4.31c-5.3-2.47-13.05-6.36-19.91-10.88
		C61.08,92.17,58.8,88.28,57.29,85.71c-0.47-0.8-0.88-1.5-1.42-2.08c-2.23-2.4-3.97-3.2-3.99-3.21l-0.07-0.03l0.08-0.01
		c0.02,0,2.05-0.14,6.44,2.95c2.61,1.84,7.75,6.3,12.28,10.23c3.16,2.74,5.88,5.1,7.17,6.07c3.09,2.33,23.06,13.36,23.26,13.47
		l0.01,0.01V114.02z M51.97,80.42c0.36,0.18,1.95,1.06,3.92,3.18c0.55,0.59,0.96,1.29,1.43,2.09c1.51,2.57,3.79,6.46,13.85,13.1
		c6.85,4.52,14.6,8.41,19.9,10.88c5.5,2.56,9.56,4.16,9.93,4.3v-0.83c-0.55-0.3-20.19-11.15-23.26-13.47
		c-1.28-0.97-4.01-3.34-7.17-6.07c-4.53-3.93-9.67-8.39-12.28-10.23C54.42,80.63,52.39,80.43,51.97,80.42z"/>
	<path id="_x35_0" class="st2" d="M56.55,105.73c0,0,14.61-3.36,24.63-0.87c10.01,2.48,26.18,10.09,26.18,10.09
		s-23.46-7.69-31.28-8.47C68.26,105.7,56.55,105.73,56.55,105.73z"/>
	<path id="_x34_9" d="M107.35,114.96c-0.23-0.08-23.54-7.7-31.27-8.46c-7.43-0.73-18.5-0.75-19.46-0.75c-0.04,0-0.06,0-0.07,0
		l-0.18,0l0.17-0.04c0.04-0.01,3.71-0.85,8.56-1.37c4.48-0.48,10.9-0.79,16.08,0.49c9.9,2.45,26.02,10.02,26.18,10.09L107.35,114.96
		z M56.73,105.71c1.51,0,12.14,0.04,19.35,0.75c7.25,0.72,28.17,7.46,30.97,8.37c-2.24-1.04-16.72-7.68-25.88-9.95
		c-5.17-1.28-11.59-0.97-16.06-0.49C60.87,104.84,57.52,105.53,56.73,105.71z"/>
	<path id="_x34_8" class="st2" d="M61.58,118.18c0,0,13.83-5.8,23.79-6.44c10.3-0.67,27.78,3.89,27.78,3.89s-24.59-2.17-32.38-1.14
		S61.58,118.18,61.58,118.18z"/>
	<path id="_x34_7" d="M61.59,118.2l-0.01-0.04c0.03-0.01,3.51-1.47,8.16-2.98c4.29-1.4,10.49-3.13,15.63-3.46
		c5.32-0.34,12.59,0.73,17.76,1.69c5.59,1.04,9.99,2.18,10.03,2.19l-0.01,0.04c-0.25-0.02-24.68-2.16-32.38-1.14
		C73.07,115.51,61.7,118.17,61.59,118.2z M87.55,111.69c-0.75,0-1.48,0.02-2.18,0.07c-5.14,0.33-11.33,2.07-15.62,3.46
		c-3.97,1.29-7.09,2.54-7.93,2.89c1.68-0.39,11.86-2.72,18.95-3.65c7.29-0.96,29.58,0.9,32.15,1.12c-0.98-0.25-4.93-1.23-9.8-2.13
		C98.63,112.62,92.55,111.69,87.55,111.69z"/>
	<path id="_x34_6" class="st2" d="M60.57,113.67c0,0,10.68-4.18,23.48-3.76c9.32,0.3,26.08,8.95,26.08,8.95s-18.58-7.03-27.68-6.97
		C75.06,111.93,60.57,113.67,60.57,113.67z"/>
	<path id="_x34_5" d="M110.13,118.87c-0.05-0.02-4.71-1.78-10.43-3.51c-5.23-1.58-12.43-3.46-17.13-3.46c-0.04,0-0.08,0-0.12,0
		c-7.31,0.05-21.74,1.77-21.88,1.79l-0.15,0.02l0.14-0.06c0.03-0.01,2.72-1.06,6.94-2.04c3.9-0.91,9.93-1.94,16.55-1.73
		c2.13,0.07,4.82,0.58,8.01,1.53c2.55,0.76,5.42,1.79,8.53,3.06c5.29,2.17,9.5,4.34,9.55,4.36L110.13,118.87z M82.57,111.86
		c4.71,0,11.91,1.88,17.15,3.46c4.85,1.47,8.94,2.96,10.1,3.39c-1.07-0.54-4.76-2.37-9.23-4.2c-8.85-3.63-13.87-4.5-16.53-4.59
		c-6.61-0.22-12.65,0.82-16.54,1.72c-3.66,0.85-6.17,1.75-6.79,1.98c1.61-0.19,14.83-1.72,21.73-1.77
		C82.49,111.86,82.53,111.86,82.57,111.86z"/>
	<path id="_x34_4" class="st2" d="M57.88,111.24c0,0,18.67-5.06,29.5-1.45c10.83,3.61,24.77,11.06,24.77,11.06l-0.21-1.7
		c0,0-19.63-13.27-33.11-12.64C65.35,107.13,57.88,111.24,57.88,111.24z"/>
	<path id="_x34_3" d="M112.17,120.89l-0.03-0.02c-0.14-0.07-14.07-7.49-24.77-11.06c-2.47-0.82-5.55-1.26-9.17-1.3
		c-0.17,0-0.34,0-0.51,0c-2.76,0-5.83,0.22-9.12,0.67c-5.95,0.8-10.64,2.06-10.69,2.08l-0.16,0.04l0.14-0.08
		c0.02-0.01,1.91-1.04,5.42-2.13c3.24-1.01,8.57-2.28,15.54-2.6c3.08-0.14,6.73,0.43,10.87,1.71c3.31,1.02,6.92,2.5,10.75,4.38
		c6.52,3.2,11.45,6.52,11.5,6.56l0.01,0.01l0,0.01L112.17,120.89z M77.69,108.47c0.17,0,0.34,0,0.51,0c3.62,0.04,6.71,0.47,9.18,1.3
		c10.45,3.48,23.97,10.63,24.74,11.04l-0.21-1.65c-0.22-0.15-5.09-3.41-11.49-6.55c-3.83-1.88-7.44-3.35-10.75-4.37
		c-4.13-1.28-7.78-1.85-10.85-1.71c-6.96,0.32-12.29,1.59-15.53,2.6c-2.94,0.91-4.74,1.78-5.26,2.05c0.89-0.23,5.2-1.31,10.52-2.03
		C71.86,108.7,74.92,108.47,77.69,108.47z"/>
	<path id="_x34_2" class="st2" d="M57.88,76.67c0,0,6.25,13.63,14.32,20.05c8.07,6.42,23.96,14.59,23.96,14.59
		s-20.4-13.9-25.78-19.63C65,85.95,57.88,76.67,57.88,76.67z"/>
	<path id="_x34_1" d="M96.15,111.33c-0.16-0.08-15.98-8.24-23.96-14.6c-1.84-1.47-3.74-3.43-5.65-5.85
		c-1.52-1.93-3.05-4.15-4.55-6.59c-2.54-4.16-4.12-7.58-4.14-7.62l-0.07-0.16l0.11,0.14c0.07,0.09,7.18,9.35,12.5,15.02
		c2.78,2.96,9.64,8.14,14.91,11.96c5.71,4.14,10.82,7.63,10.87,7.67L96.15,111.33z M57.97,76.82c0.34,0.73,1.83,3.81,4.06,7.45
		c4.25,6.96,7.88,10.6,10.18,12.43c4.17,3.32,10.46,7.11,15,9.7c4.17,2.38,7.66,4.22,8.66,4.74c-1.13-0.77-5.64-3.88-10.6-7.48
		c-5.27-3.82-12.13-9-14.91-11.97C65.41,86.42,58.89,78.02,57.97,76.82z"/>
	<path id="_x34_0" class="st2" d="M66.04,80.4c0,0,3.12,7.64,10.85,14.93c7.73,7.29,14.94,12.59,14.94,12.59
		s-13.64-7.38-19.72-15.45C66.04,84.39,66.04,80.4,66.04,80.4z"/>
	<path id="_x33_9" d="M91.82,107.93c-0.03-0.02-3.46-1.88-7.58-4.7c-3.81-2.6-9-6.58-12.14-10.76c-1.73-2.3-4.06-5.74-5.32-9.07
		c-0.75-1.99-0.76-3-0.76-3.01v-0.1l0.04,0.09c0.01,0.02,0.8,1.94,2.53,4.73c1.59,2.57,4.33,6.43,8.32,10.19
		c7.64,7.21,14.87,12.53,14.94,12.59L91.82,107.93z M66.06,80.51c0.02,0.31,0.14,1.28,0.75,2.89c1.26,3.31,3.58,6.75,5.31,9.05
		c3.14,4.17,8.33,8.15,12.13,10.75c3.47,2.38,6.45,4.07,7.32,4.56c-1.3-0.97-7.84-5.93-14.71-12.41c-3.99-3.77-6.73-7.63-8.33-10.2
		C67.05,82.71,66.25,80.94,66.06,80.51z"/>
	<path id="_x33_8" class="st2" d="M116.12,110.78c0,0-9.59-9.42-12.5-13.54c-2.74-3.87-2.86-8.94-2.17-8.94c0.69,0-0.52-0.69-1.22,0
		c-0.69,0.69-2.79,6.42,4.69,14.24c6.58,6.87,7.38,9.29,7.38,9.29L116.12,110.78z"/>
	<path id="_x33_7" d="M112.29,111.85l-0.01-0.02c-0.01-0.02-0.88-2.49-7.37-9.28c-1.72-1.8-3.06-3.63-3.99-5.43
		c-0.76-1.49-1.24-2.96-1.43-4.37c-0.32-2.48,0.36-4.1,0.73-4.47c0.46-0.46,1.11-0.32,1.34-0.19c0.08,0.05,0.12,0.1,0.11,0.14
		c-0.01,0.05-0.09,0.08-0.23,0.08c-0.06,0-0.12,0.05-0.17,0.14c-0.22,0.42-0.26,1.72,0.09,3.41c0.4,1.96,1.21,3.86,2.27,5.36
		c2.88,4.08,12.4,13.44,12.5,13.54l0.02,0.02l-0.03,0.01L112.29,111.85z M101.01,88.01c-0.25,0-0.53,0.07-0.76,0.3
		c-0.36,0.36-1.04,1.97-0.72,4.43c0.51,3.95,3.22,7.5,5.4,9.78c3.4,3.55,5.23,5.89,6.16,7.22c0.92,1.31,1.18,1.94,1.22,2.05
		l3.77-1.03c-0.54-0.53-9.67-9.54-12.48-13.52c-1.06-1.5-1.87-3.41-2.27-5.38c-0.26-1.28-0.38-2.87-0.09-3.43
		c0.06-0.11,0.13-0.16,0.2-0.16c0.13,0,0.18-0.02,0.19-0.05c0-0.02-0.02-0.05-0.09-0.1C101.44,88.07,101.24,88.01,101.01,88.01z"/>
	<path id="_x33_6" class="st2" d="M113.52,104.44c0,0-8.42-2.08-15.62-0.78c-7.2,1.3-11.72,4.95-11.72,4.95s4.42-2.1,12.76-3.09
		c10.18-1.2,15.19,1,15.19,1L113.52,104.44z"/>
	<path id="_x33_5" d="M86.04,108.71l0.13-0.1c0.01-0.01,1.15-0.93,3.16-1.99c1.85-0.98,4.84-2.29,8.57-2.97
		c3.72-0.67,7.78-0.42,10.52-0.1c2.97,0.35,5.09,0.87,5.11,0.88l0.01,0l0,0.01l0.62,2.12l-0.04-0.02c-0.01-0.01-1.28-0.55-3.78-0.95
		c-2.3-0.37-6.15-0.67-11.4-0.05c-2.38,0.28-5.95,0.84-9.5,1.91c-2.12,0.64-3.24,1.17-3.25,1.17L86.04,108.71z M103.12,103.26
		c-1.7,0-3.5,0.11-5.22,0.43c-3.72,0.67-6.71,1.98-8.56,2.96c-1.62,0.86-2.67,1.62-3.02,1.89c0.37-0.16,1.43-0.6,3.1-1.11
		c1.96-0.59,5.2-1.41,9.51-1.91c5.26-0.62,9.11-0.32,11.42,0.05c2.26,0.36,3.52,0.84,3.75,0.94l-0.59-2.03
		c-0.17-0.04-2.24-0.54-5.1-0.88C106.94,103.41,105.09,103.26,103.12,103.26z"/>
	<path id="_x33_4" class="st2" d="M117.12,126.69c0,0-8.42-2.08-15.63-0.78c-7.2,1.3-11.72,4.95-11.72,4.95s4.42-2.1,12.76-3.09
		c10.18-1.2,15.19,1,15.19,1L117.12,126.69z"/>
	<path id="_x33_3" d="M89.64,130.95l0.13-0.1c0.01-0.01,1.15-0.93,3.16-1.99c1.85-0.98,4.84-2.29,8.57-2.97
		c3.72-0.67,7.78-0.42,10.52-0.1c2.97,0.35,5.09,0.87,5.11,0.88l0.01,0l0,0.01l0.62,2.12l-0.04-0.02c-0.01-0.01-1.28-0.55-3.78-0.95
		c-2.3-0.36-6.15-0.67-11.4-0.05c-2.38,0.28-5.95,0.84-9.5,1.91c-2.12,0.64-3.24,1.17-3.25,1.17L89.64,130.95z M106.72,125.5
		c-1.7,0-3.5,0.11-5.22,0.43c-3.72,0.67-6.7,1.98-8.55,2.96c-1.62,0.86-2.67,1.62-3.02,1.89c0.37-0.16,1.42-0.6,3.1-1.11
		c1.96-0.59,5.2-1.41,9.51-1.91c5.26-0.62,9.11-0.32,11.42,0.05c2.26,0.36,3.52,0.84,3.75,0.94l-0.59-2.03
		c-0.17-0.04-2.24-0.54-5.1-0.88C110.54,125.65,108.69,125.5,106.72,125.5z"/>
	<path id="_x33_2" class="st2" d="M112.15,117.84c0,0-12.11,0.12-18.4,3.88c-6.29,3.75-9.23,8.76-9.23,8.76s3.4-3.53,10.86-7.38
		c9.1-4.71,16.23-3.46,16.23-3.46L112.15,117.84z"/>
	<path id="_x33_1" d="M84.42,130.61l0.08-0.14c0.01-0.01,0.75-1.27,2.26-2.98c1.39-1.57,3.73-3.85,6.97-5.79
		c3.25-1.94,8.08-2.89,11.56-3.35c3.77-0.49,6.81-0.53,6.84-0.53l0.03,0l-0.01,0.03l-0.54,1.81l-0.02,0c-0.02,0-1.81-0.31-4.7-0.03
		c-2.66,0.25-6.82,1.06-11.52,3.49c-2.13,1.1-5.28,2.88-8.22,5.13c-1.76,1.35-2.62,2.23-2.63,2.24L84.42,130.61z M112.12,117.86
		c-0.31,0-3.23,0.06-6.81,0.53c-3.48,0.46-8.3,1.41-11.55,3.34c-3.24,1.94-5.58,4.21-6.96,5.78c-1.21,1.37-1.93,2.45-2.17,2.83
		c0.29-0.28,1.12-1.06,2.52-2.13c1.63-1.24,4.37-3.15,8.23-5.14c4.71-2.43,8.87-3.25,11.53-3.5c2.74-0.26,4.5,0,4.69,0.03
		L112.12,117.86z"/>
	<path id="_x33_0" class="st2" d="M72.81,81.27c0,0,7.38,17.88,16.84,24.26s23.87,12.89,23.87,12.89l-1.48,0.87
		c0,0-22.48-7.47-30.21-18.53S72.81,81.27,72.81,81.27z"/>
	<path id="_x32_9" d="M112.05,119.31L112.05,119.31c-0.06-0.02-5.71-1.91-12.22-5.12c-3.82-1.89-7.2-3.86-10.02-5.85
		c-3.53-2.5-6.22-5.04-7.98-7.57c-3.99-5.72-6.23-10.71-7.41-13.9c-1.28-3.45-1.61-5.58-1.62-5.6l-0.03-0.16l0.06,0.15
		c0.02,0.04,1.88,4.53,4.87,9.74c1.76,3.06,3.56,5.76,5.34,8.04c2.24,2.84,4.46,5.02,6.62,6.48c4.89,3.3,11.12,6.62,15.48,8.84
		c4.73,2.4,8.35,4.04,8.39,4.05l0.03,0.02L112.05,119.31z M72.86,81.44c0.11,0.57,0.52,2.53,1.59,5.42
		c1.18,3.18,3.42,8.17,7.41,13.89c1.76,2.52,4.44,5.07,7.97,7.56c2.83,2,6.2,3.96,10.02,5.85c6.39,3.15,11.94,5.03,12.2,5.11
		l1.44-0.84c-0.38-0.17-3.87-1.77-8.35-4.04c-4.37-2.21-10.6-5.54-15.49-8.84c-2.16-1.46-4.39-3.64-6.63-6.49
		c-1.79-2.28-3.59-4.98-5.35-8.04C74.99,86.36,73.22,82.29,72.86,81.44z"/>
	<path id="_x32_8" class="st2" d="M106.49,112.52c0,0-8.85-3.99-15.19-10.5c-6.34-6.51-7.99-9.38-7.99-9.38s3.13,8.16,10.5,14.06
		c7.38,5.9,20.83,11.72,20.83,11.72l0.78-2.43L106.49,112.52z"/>
	<path id="_x32_7" d="M114.66,118.45l-0.02-0.01c-0.13-0.06-13.54-5.88-20.84-11.72c-3.81-3.05-6.47-6.71-8.02-9.25
		c-1.68-2.75-2.48-4.8-2.49-4.82l0.04-0.02c0.57,0.99,2.97,4.22,7.98,9.37c3.27,3.36,7.23,6.04,9.97,7.69
		c2.96,1.78,5.17,2.79,5.22,2.81l8.96,3.48l-0.01,0.02L114.66,118.45z M83.42,92.86c0.25,0.61,1.03,2.37,2.39,4.59
		c1.55,2.53,4.2,6.19,8.01,9.24c7.16,5.73,20.22,11.45,20.81,11.71l0.77-2.39l-8.92-3.47c-0.02-0.01-2.25-1.02-5.22-2.81
		c-2.74-1.65-6.7-4.33-9.98-7.7C86.58,97.2,84.18,94.05,83.42,92.86z"/>
	<path id="_x32_6" class="st2" d="M86.18,88.99c0,0,7.12,9.72,10.68,13.11c3.56,3.39,11.86,9.21,11.86,9.21l-1.71,1.2
		c0,0-10.66-6.77-15.18-13.54C87.31,92.2,86.18,88.99,86.18,88.99z"/>
	<path id="_x32_5" d="M107.01,112.54l-0.01-0.01c-0.03-0.02-2.7-1.72-5.9-4.23c-5.34-4.2-8-7.38-9.29-9.31
		c-3.58-5.36-5.26-8.88-5.66-9.99l-0.04-0.13l0.08,0.11c0.07,0.1,7.16,9.76,10.67,13.1c3.52,3.35,11.78,9.15,11.86,9.21l0.02,0.02
		L107.01,112.54z M86.24,89.12c0.47,1.24,2.16,4.69,5.6,9.85c1.29,1.93,3.95,5.11,9.28,9.31c3.09,2.43,5.69,4.1,5.88,4.22l1.67-1.18
		c-0.49-0.34-8.42-5.94-11.84-9.2C93.53,98.96,87.05,90.21,86.24,89.12z"/>
	<path id="_x32_4" class="st2" d="M110.92,110.18c0,0-7.66-6.5-12.67-12.07c-3.9-4.33-4.95-7.64-4.95-7.64
		c-0.43,0.26,1.56,9.2,8.81,15.02s7.25,5.82,7.25,5.82L110.92,110.18z"/>
	<path id="_x32_3" d="M109.35,111.34l-0.01-0.01l-7.25-5.82c-6.82-5.47-8.96-13.62-8.87-14.87c0.01-0.1,0.03-0.16,0.06-0.18
		l0.02-0.01l0.01,0.02c0,0.01,0.27,0.84,1.01,2.19c0.68,1.25,1.92,3.2,3.93,5.44c4.95,5.51,12.6,12,12.67,12.06l0.02,0.02
		l-0.02,0.02L109.35,111.34z M93.29,90.52c-0.01,0.02-0.02,0.06-0.03,0.13c-0.04,0.61,0.46,2.95,1.86,5.86
		c1.2,2.49,3.39,6.08,6.99,8.97l7.24,5.81l1.53-1.11c-0.43-0.37-7.82-6.68-12.66-12.05c-2.01-2.24-3.25-4.2-3.94-5.45
		C93.63,91.48,93.34,90.69,93.29,90.52z"/>
	<path id="_x32_2" class="st3" d="M208.17,139.45c0,0-0.61-4.19-7.12-6.18c-3.71-1.14-7.51-0.48-9.18-0.07
		c1.18-1.75,3.67-4.91,7.05-5.93c4.92-1.48,9.24-0.04,9.24-0.04s-1.46-3.97-8.25-4.57c-3.87-0.34-7.44,1.09-8.99,1.83
		c0.79-1.96,2.57-5.57,5.66-7.27c4.51-2.47,9.03-1.96,9.03-1.96s-2.26-3.58-9.02-2.75c-3.85,0.47-7.05,2.62-8.41,3.66
		c0.36-2.08,1.36-5.98,4.03-8.29c3.89-3.36,8.43-3.8,8.43-3.8s-2.95-3.03-9.39-0.82c-3.67,1.26-6.35,4.03-7.47,5.33
		c-0.08-2.11,0.08-6.14,2.22-8.94c3.11-4.09,7.45-5.47,7.45-5.47s-3.52-2.35-9.36,1.15c-3.33,2-5.38,5.26-6.2,6.77
		c-0.52-2.05-1.19-6.02,0.31-9.21c2.19-4.65,6.15-6.9,6.15-6.9s-3.93-1.57-8.91,3.07c-2.84,2.65-4.17,6.26-4.65,7.91
		c-0.93-1.89-2.42-5.64-1.61-9.07c1.18-5,4.59-8.03,4.59-8.03s-4.17-0.72-8.08,4.86c-2.23,3.18-2.77,6.99-2.91,8.7
		c-1.3-1.66-3.54-5.01-3.46-8.54c0.11-5.14,2.82-8.8,2.82-8.8s-4.23,0.17-6.89,6.43c-1.52,3.57-1.26,7.42-1.03,9.12
		c-1.62-1.35-4.5-4.17-5.16-7.63c-0.96-5.05,0.92-9.2,0.92-9.2s-4.1,1.04-5.4,7.73c-0.74,3.81,0.31,7.52,0.88,9.13
		c-1.87-0.99-5.27-3.14-6.64-6.39c-1.99-4.74-1.01-9.19-1.01-9.19s-3.79,1.87-3.68,8.68c0.07,3.88,1.87,7.29,2.76,8.75
		c-2.03-0.58-5.81-1.98-7.82-4.87c-2.93-4.22-2.9-8.78-2.9-8.78s-3.32,2.62-1.79,9.26c0.87,3.78,3.34,6.74,4.52,7.98
		c-2.11-0.14-6.09-0.73-8.66-3.14c-3.74-3.52-4.66-7.99-4.66-7.99s-2.71,3.25,0.17,9.43c1.64,3.52,4.67,5.9,6.08,6.87
		c-2.09,0.3-6.11,0.56-9.12-1.27c-4.39-2.67-6.22-6.84-6.22-6.84s-1.97,3.74,2.13,9.18c2.33,3.1,5.79,4.8,7.38,5.45
		c-1.98,0.73-5.86,1.82-9.19,0.65c-4.85-1.69-7.5-5.4-7.5-5.4s-1.15,4.07,3.99,8.54c2.93,2.55,6.66,3.49,8.35,3.8
		c-1.79,1.12-5.36,2.99-8.85,2.55c-5.1-0.65-8.46-3.72-8.46-3.72s-0.28,4.22,5.68,7.53c3.39,1.88,7.24,2.03,8.96,1.98
		c-1.51,1.47-4.62,4.04-8.13,4.34c-5.12,0.43-9.05-1.88-9.05-1.88s0.61,4.19,7.12,6.18c3.71,1.14,7.51,0.48,9.18,0.07
		c-1.18,1.75-3.67,4.91-7.05,5.93c-4.92,1.48-9.24,0.04-9.24,0.04s1.46,3.97,8.25,4.57c3.87,0.34,7.44-1.09,8.99-1.83
		c-0.79,1.96-2.57,5.57-5.66,7.27c-4.51,2.47-9.03,1.96-9.03,1.96s2.26,3.58,9.02,2.75c3.85-0.47,7.05-2.62,8.41-3.66
		c-0.36,2.08-1.36,5.98-4.03,8.29c-3.89,3.36-8.43,3.8-8.43,3.8s2.95,3.03,9.39,0.82c3.67-1.26,6.35-4.03,7.47-5.33
		c0.08,2.11-0.08,6.14-2.22,8.94c-3.11,4.09-7.45,5.47-7.45,5.47s3.52,2.35,9.36-1.15c3.33-2,5.38-5.26,6.2-6.77
		c0.52,2.05,1.19,6.02-0.31,9.21c-2.19,4.65-6.15,6.9-6.15,6.9s3.93,1.57,8.91-3.07c2.84-2.65,4.17-6.26,4.65-7.91
		c0.93,1.89,2.42,5.64,1.61,9.07c-1.18,5-4.59,8.03-4.59,8.03s4.17,0.72,8.08-4.86c2.23-3.18,2.77-6.99,2.91-8.7
		c1.3,1.66,3.54,5.01,3.46,8.54c-0.11,5.14-2.82,8.8-2.82,8.8s4.23-0.17,6.89-6.43c1.52-3.57,1.26-7.42,1.03-9.12
		c1.62,1.35,4.5,4.17,5.16,7.63c0.96,5.05-0.92,9.2-0.92,9.2s4.1-1.04,5.4-7.73c0.74-3.81-0.31-7.52-0.88-9.13
		c1.87,0.99,5.27,3.14,6.64,6.39c1.99,4.74,1.01,9.19,1.01,9.19s3.79-1.87,3.68-8.68c-0.07-3.88-1.87-7.29-2.76-8.75
		c2.03,0.58,5.81,1.98,7.82,4.87c2.93,4.22,2.9,8.78,2.9,8.78s3.32-2.62,1.79-9.26c-0.87-3.78-3.34-6.74-4.52-7.98
		c2.11,0.14,6.09,0.73,8.66,3.14c3.74,3.52,4.66,7.99,4.66,7.99s2.71-3.25-0.17-9.43c-1.64-3.52-4.67-5.9-6.08-6.87
		c2.09-0.3,6.11-0.56,9.12,1.27c4.39,2.67,6.22,6.84,6.22,6.84s1.97-3.74-2.13-9.18c-2.33-3.1-5.79-4.8-7.38-5.45
		c1.98-0.73,5.86-1.82,9.19-0.65c4.85,1.69,7.5,5.4,7.5,5.4s1.15-4.07-3.99-8.54c-2.93-2.55-6.66-3.49-8.35-3.8
		c1.79-1.12,5.36-2.99,8.85-2.55c5.1,0.65,8.46,3.72,8.46,3.72s0.28-4.22-5.68-7.53c-3.39-1.88-7.24-2.03-8.96-1.98
		c1.51-1.47,4.62-4.04,8.13-4.34C204.24,137.14,208.17,139.45,208.17,139.45z"/>
	<rect id="_x32_1" x="65.43" y="42.2" class="st3" width="17.88" height="3.3"/>
	<path id="_x32_0" class="st3" d="M72.2,41.22c0,0-0.61-10.47-3.39-17.59s-0.61-12.24,1.69-15.19c2.3-2.95,3.95-4.51,3.95-4.51
		s1.65,1.56,3.95,4.51c2.3,2.95,4.47,8.07,1.69,15.19c-2.78,7.12-3.39,17.59-3.39,17.59H72.2z"/>
	<path id="_x31_9" class="st3" d="M80.38,46.85c0,0-0.26,2.23,0.81,3.99c1.48,2.45,3.86,2.43,3.86,2.86c0,0.35-5.1,1.64-6.78-2.39
		c-0.76-1.82-0.25-4.47-0.25-4.47H80.38z"/>
	<path id="_x31_8" class="st3" d="M68.53,46.85c0,0,0.26,2.23-0.81,3.99c-1.48,2.45-3.86,2.43-3.86,2.86c0,0.35,5.1,1.64,6.78-2.39
		c0.76-1.82,0.25-4.47,0.25-4.47H68.53z"/>
	<path id="_x31_7" class="st3" d="M77.84,41.22c0,0,1.17-14.12,7.2-16.46c3.12-1.22,6.77-0.86,9.2,1.22
		c2.24,1.91,4.17,5.82,1.39,10.33c-2.78,4.51-6.34,4.17-6.34,4.17c0.26-1.91,0.87-6.08-2.26-6.51c-3.55-0.49-5.64,7.26-5.64,7.26
		H77.84z"/>
	<path id="_x31_6" class="st3" d="M71.07,41.22c0,0-1.17-14.12-7.2-16.46c-3.13-1.22-6.77-0.86-9.2,1.22
		c-2.24,1.91-4.17,5.82-1.39,10.33c2.78,4.51,6.34,4.17,6.34,4.17c-0.26-1.91-0.87-6.08,2.26-6.51c3.55-0.49,5.64,7.26,5.64,7.26
		H71.07z"/>
	<path id="_x31_5" class="st3" d="M74.46,62.65c0,0-2-2-2.94-6.86c-0.94-4.86,0.87-8.94,0.87-8.94h4.15c0,0,1.81,4.08,0.87,8.94
		S74.46,62.65,74.46,62.65z"/>
	<rect id="_x31_4" x="140.97" y="42.2" class="st3" width="17.88" height="3.3"/>
	<path id="_x31_3" class="st3" d="M147.74,41.22c0,0-0.61-10.47-3.39-17.59c-2.78-7.12-0.61-12.24,1.69-15.19
		c2.3-2.95,3.95-4.51,3.95-4.51s1.65,1.56,3.95,4.51c2.3,2.95,4.47,8.07,1.69,15.19c-2.78,7.12-3.39,17.59-3.39,17.59H147.74z"/>
	<path id="_x31_2" class="st3" d="M155.93,46.85c0,0-0.26,2.23,0.81,3.99c1.48,2.45,3.86,2.43,3.86,2.86c0,0.35-5.1,1.64-6.78-2.39
		c-0.76-1.82-0.25-4.47-0.25-4.47H155.93z"/>
	<path id="_x31_1" class="st3" d="M144.07,46.85c0,0,0.26,2.23-0.81,3.99c-1.48,2.45-3.86,2.43-3.86,2.86c0,0.35,5.1,1.64,6.78-2.39
		c0.76-1.82,0.25-4.47,0.25-4.47H144.07z"/>
	<path id="_x31_0" class="st3" d="M153.39,41.22c0,0,1.17-14.12,7.2-16.46c3.12-1.22,6.77-0.86,9.2,1.22
		c2.24,1.91,4.17,5.82,1.39,10.33c-2.78,4.51-6.34,4.17-6.34,4.17c0.26-1.91,0.87-6.08-2.26-6.51c-3.55-0.49-5.64,7.26-5.64,7.26
		H153.39z"/>
	<path id="_x39_" class="st3" d="M146.61,41.22c0,0-1.17-14.12-7.2-16.46c-3.12-1.22-6.77-0.86-9.2,1.22
		c-2.24,1.91-4.17,5.82-1.39,10.33c2.78,4.51,6.34,4.17,6.34,4.17c-0.26-1.91-0.87-6.08,2.26-6.51c3.55-0.49,5.64,7.26,5.64,7.26
		H146.61z"/>
	<path id="_x38_" class="st3" d="M150,62.65c0,0-2-2-2.94-6.86c-0.94-4.86,0.87-8.94,0.87-8.94h4.15c0,0,1.81,4.08,0.87,8.94
		C152,60.65,150,62.65,150,62.65z"/>
	<rect id="_x37_" x="216.49" y="42.2" class="st3" width="17.88" height="3.3"/>
	<path id="_x36_" class="st3" d="M223.26,41.22c0,0-0.61-10.47-3.39-17.59c-2.78-7.12-0.61-12.24,1.69-15.19
		c2.3-2.95,3.95-4.51,3.95-4.51s1.65,1.56,3.95,4.51c2.3,2.95,4.47,8.07,1.69,15.19c-2.78,7.12-3.39,17.59-3.39,17.59H223.26z"/>
	<path id="_x35_" class="st3" d="M231.45,46.85c0,0-0.26,2.23,0.81,3.99c1.48,2.45,3.86,2.43,3.86,2.86c0,0.35-5.1,1.64-6.78-2.39
		c-0.76-1.82-0.25-4.47-0.25-4.47H231.45z"/>
	<path id="_x34_" class="st3" d="M219.59,46.85c0,0,0.26,2.23-0.81,3.99c-1.48,2.45-3.86,2.43-3.86,2.86c0,0.35,5.1,1.64,6.78-2.39
		c0.76-1.82,0.25-4.47,0.25-4.47H219.59z"/>
	<path id="_x33_" class="st3" d="M228.91,41.22c0,0,1.17-14.12,7.2-16.46c3.13-1.22,6.77-0.86,9.2,1.22
		c2.24,1.91,4.17,5.82,1.39,10.33c-2.78,4.51-6.34,4.17-6.34,4.17c0.26-1.91,0.87-6.08-2.26-6.51c-3.55-0.49-5.64,7.26-5.64,7.26
		H228.91z"/>
	<path id="_x32_" class="st3" d="M222.14,41.22c0,0-1.17-14.12-7.2-16.46c-3.13-1.22-6.77-0.86-9.2,1.22
		c-2.24,1.91-4.17,5.82-1.39,10.33c2.78,4.51,6.34,4.17,6.34,4.17c-0.26-1.91-0.87-6.08,2.26-6.51c3.55-0.49,5.64,7.26,5.64,7.26
		H222.14z"/>
	<path id="_x31_" class="st3" d="M225.52,62.65c0,0-2-2-2.94-6.86c-0.94-4.86,0.87-8.94,0.87-8.94h4.15c0,0,1.81,4.08,0.87,8.94
		C227.52,60.65,225.52,62.65,225.52,62.65z"/>
</g>
</svg>
