<?xml version="1.0" encoding="utf-8"?>
<!-- Generator: Adobe Illustrator 24.2.3, SVG Export Plug-In . SVG Version: 6.00 Build 0)  -->
<svg version="1.1" id="Countryflags.com" xmlns="http://www.w3.org/2000/svg" xmlns:xlink="http://www.w3.org/1999/xlink" x="0px"
	 y="0px" viewBox="0 0 300 200" style="enable-background:new 0 0 300 200;" xml:space="preserve">
<style type="text/css">
	.st0{fill:#DF2507;}
	.st1{fill:#FFFFFF;}
</style>
<g>
	<rect id="_x36_" y="0" class="st0" width="300" height="200"/>
	<path id="_x35_" class="st1" d="M200.14,92.01c4.8-1.43,9.63,3.3,9.63,3.3s-3.97-23.25-30.8-24.16
		c-26.26,0.75-28.53,25.68-28.53,25.68c0.09-0.38,2.42-7.75,12.56-12.21c6.75-3.07,14.7-1,14.7-1l-0.21,0.84
		c0,0-6.14-2.12-14.22,0.98c-9.71,3.81-12.28,12.5-12.28,12.5s4.04-6.71,12.29-5.94c2.2,0.21,4.18,1.22,6.58,2.76
		c3.84,3.59,6.33,6.23,13.44,6.04C193.98,101.13,192.95,93.28,200.14,92.01z M180.85,87.96l-3.56-0.92l3.21-1.79l-0.23-3.67l2.7,2.5
		l3.42-1.35l-1.54,3.33l2.34,2.83l-3.65-0.43l-1.98,3.1L180.85,87.96z"/>
	<path id="_x34_" class="st1" d="M173.13,145.2c2.85,4.12-0.16,10.18-0.16,10.18s20.89-10.96,13.46-36.76
		c-8.82-24.75-33.24-19.19-33.24-19.19c0.39-0.03,8.12-0.1,15.49,8.17c5.01,5.47,5.49,13.67,5.49,13.67l-0.87,0.06
		c0,0,0.11-6.49-5.33-13.22c-6.62-8.06-15.69-7.82-15.69-7.82s7.63,1.76,9.44,9.85c0.48,2.15,0.14,4.35-0.59,7.11
		c-2.23,4.76-3.97,7.95-1.6,14.65C162.55,142.16,169.69,138.76,173.13,145.2z M171.02,125.61l-0.22-3.67l2.7,2.5l3.42-1.35
		l-1.54,3.34l2.34,2.83l-3.65-0.44l-1.97,3.1l-0.72-3.6l-3.55-0.92L171.02,125.61z"/>
	<path id="_x33_" class="st1" d="M114.19,135.95c-3.04,3.98-9.73,2.99-9.73,2.99s16.88,16.48,39.12,1.44
		c20.81-16.04,7.98-37.55,7.98-37.55c0.15,0.36,2.6,7.69-2.98,17.26c-3.65,6.45-11.31,9.45-11.31,9.45l-0.32-0.81
		c0,0,6.21-1.9,10.93-9.15c5.62-8.79,2.59-17.34,2.59-17.34s0.68,7.8-6.45,12.02c-1.9,1.12-4.1,1.47-6.95,1.63
		c-5.22-0.65-8.78-1.32-14.42,3.01C113.81,124.95,119.26,130.69,114.19,135.95z M132.17,127.89l3.42-1.35l-1.54,3.34l2.34,2.84
		l-3.65-0.43l-1.97,3.1l-0.71-3.6l-3.56-0.92l3.2-1.8l-0.22-3.67L132.17,127.89z"/>
	<path id="_x32_" class="st1" d="M104.78,77.04c-4.73-1.66-5.85-8.33-5.85-8.33s-10.45,21.15,10.72,37.65
		c21.68,14.83,38.17-4.01,38.17-4.01c-0.3,0.25-6.51,4.85-17.34,2.5c-7.26-1.48-12.48-7.83-12.48-7.83l0.67-0.56
		c0,0,3.72,5.32,12.08,7.56c10.1,2.62,17.29-2.89,17.29-2.89s-7.21,3.06-13.43-2.42c-1.66-1.46-2.67-3.44-3.7-6.1
		c-1-5.16-1.46-8.76-7.32-12.79C115.12,73.28,111.34,80.23,104.78,77.04z M118,91.65l2.34,2.83l-3.65-0.43l-1.97,3.1L114,93.54
		l-3.56-0.92l3.21-1.79l-0.23-3.67l2.7,2.49l3.42-1.34L118,91.65z"/>
	<path id="_x31_" class="st1" d="M157.9,49.88c0.12-5.01,6.11-8.14,6.11-8.14s-23.34-3.41-32.49,21.83
		c-7.41,25.21,15.61,35.07,15.61,35.07c-0.33-0.21-6.63-4.69-7.73-15.72c-0.84-7.37,3.59-14.29,3.59-14.29l0.74,0.46
		c0,0-3.91,5.19-3.46,13.82c0.62,10.41,8.09,15.55,8.09,15.55s-5.14-5.91-1.85-13.52c0.88-2.03,2.45-3.6,4.66-5.41
		c4.6-2.54,7.88-4.1,9.9-10.91C164.67,58.56,156.89,57.11,157.9,49.88z M148.09,66.97l-1.97,3.1l-0.71-3.6l-3.56-0.92l3.21-1.8
		l-0.22-3.67l2.7,2.5l3.42-1.35l-1.54,3.34l2.33,2.84L148.09,66.97z"/>
</g>
</svg>
