<?xml version="1.0" encoding="utf-8"?>
<!-- Generator: Adobe Illustrator 24.2.3, SVG Export Plug-In . SVG Version: 6.00 Build 0)  -->
<svg version="1.1" id="Countryflags.com" xmlns="http://www.w3.org/2000/svg" xmlns:xlink="http://www.w3.org/1999/xlink" x="0px"
	 y="0px" viewBox="0 0 300 200" style="enable-background:new 0 0 300 200;" xml:space="preserve">
<style type="text/css">
	.st0{fill:#00785E;}
	.st1{fill:#FFFFFF;}
	.st2{fill:#FBD116;}
</style>
<g>
	<rect id="_x31_2" y="0" class="st0" width="300" height="200"/>
	<path id="_x31_1" class="st1" d="M111.8,98.6c-4.9,0.31-9.18,1.55-12.7,3.05c4.84,12.09,15.3,20.54,27.2,21.7
		c3.38,0.33,6.5,0.04,9.26-0.57c-9.19,2.54-19.99,1.35-31.41-8.18c-1.5,0.6-2.5,0.85-4.2,0.9c20.1,21.19,44.5,7.33,49.7,1.3l0.1-0.1
		l0.1,0.1c5.2,6.03,29.6,19.89,49.7-1.3c-1.7-0.05-2.7-0.3-4.2-0.9c-11.42,9.53-22.21,10.71-31.41,8.18
		c2.76,0.61,5.88,0.91,9.26,0.57c11.9-1.16,22.36-9.61,27.2-21.7c-3.52-1.5-7.8-2.74-12.7-3.05c-10.7-0.67-19.79,3.43-26.4,7.92
		c8.16-7.37,19.37-11.28,26.5-10.57c1.17-1.55,1.71-2.58,3.1-3.9c-11.54-1.03-21,3.96-27.87,9.68c5.84-10.55,5.76-23.5-0.24-33.98
		c-0.97,1.7-2.1,3.33-3.38,4.88c4.22,9.34,4.42,19.29,0.07,29.59c-0.01,0.03-0.03,0.06-0.04,0.09c4.59-12.4,1.9-26.88-8.06-36.85
		l-1.62-1.62l-1.62,1.62c-9.96,9.96-12.65,24.45-8.06,36.85c-0.01-0.03-0.03-0.06-0.04-0.09c-4.35-10.3-4.15-20.25,0.07-29.59
		c-1.28-1.55-2.41-3.18-3.38-4.88c-6,10.48-6.08,23.43-0.24,33.98c-6.87-5.72-16.33-10.71-27.87-9.68c1.39,1.32,1.93,2.35,3.1,3.9
		c7.13-0.71,18.34,3.2,26.5,10.57C131.59,102.03,122.5,97.93,111.8,98.6z M157.03,107.48c-0.01,0.02-0.02,0.04-0.03,0.06
		c0,0,0,0-0.01,0.01C157,107.52,157.02,107.5,157.03,107.48z M142.51,107.54C142.51,107.54,142.5,107.54,142.51,107.54
		c-0.02-0.03-0.03-0.04-0.04-0.06C142.48,107.5,142.5,107.52,142.51,107.54z"/>
	<path id="_x31_0" class="st1" d="M123.46,149.5h52.58c2.05-0.98,4.04-2.06,5.95-3.25h-64.48
		C119.42,147.44,121.41,148.52,123.46,149.5z"/>
	<path id="_x39_" class="st1" d="M113.81,143.75h71.88c1.15-0.84,2.27-1.73,3.36-2.65h-78.6
		C111.53,142.02,112.66,142.91,113.81,143.75z"/>
	<path id="_x38_" class="st1" d="M149.75,155.38c7.91,0,15.46-1.48,22.36-4.18h-44.71C134.29,153.89,141.84,155.38,149.75,155.38z"
		/>
	<path id="_x37_" class="st1" d="M106.98,137.9h85.54c0.63-0.63,1.24-1.27,1.84-1.92h-89.22
		C105.74,136.63,106.35,137.27,106.98,137.9z"/>
	<path id="_x36_" class="st1" d="M160.52,126.78c-5.08-2.07-8.55-4.98-10.52-6.9c-1,0.98-2.34,2.17-4.03,3.36
		c-1.72,1.22-3.84,2.46-6.35,3.49c-5.05,2.09-9.52,2.46-12.23,2.47c-9.19,0-18.38,0-27.57,0c0.82,1.22,1.69,2.42,2.6,3.57h24.97
		c2.81,0.12,7.5-0.05,12.83-2.05c4.53-1.7,7.78-4.08,9.77-5.8c1.9,1.7,5.08,4.13,9.57,5.85c5.23,2,9.84,2.13,12.53,2
		c8.32,0,16.65,0,24.97,0c0.91-1.16,1.78-2.35,2.6-3.57h-27.57C169.43,129.13,165.24,128.7,160.52,126.78z"/>
	<polygon id="_x35_" class="st2" points="152.28,45.14 149.77,37.56 147.26,45.14 139.35,45.21 145.71,49.97 143.33,57.6 
		149.77,52.96 156.21,57.6 153.83,49.97 160.19,45.21 	"/>
	<polygon id="_x34_" class="st2" points="109.2,73.71 108.03,68.31 105.65,73.29 100.05,72.69 104.17,76.47 101.88,81.49 
		106.8,78.84 110.99,82.55 109.92,77.14 114.8,74.41 	"/>
	<polygon id="_x33_" class="st2" points="127.49,50.99 122.87,54.21 118.39,50.99 119.95,56.28 115.39,59.58 120.98,59.63 
		122.64,64.9 124.53,59.63 130.12,59.58 125.7,56.28 	"/>
	<polygon id="_x32_" class="st2" points="199.67,72.69 194.07,73.29 191.69,68.31 190.51,73.71 184.92,74.41 189.8,77.14 
		188.73,82.55 192.91,78.84 197.84,81.49 195.55,76.47 	"/>
	<polygon id="_x31_" class="st2" points="181.33,50.99 176.85,54.21 172.22,50.99 174.02,56.28 169.6,59.58 175.19,59.63 
		177.08,64.9 178.74,59.63 184.33,59.58 179.76,56.28 	"/>
</g>
</svg>
