<?xml version="1.0" encoding="utf-8"?>
<!-- Generator: Adobe Illustrator 24.3.0, SVG Export Plug-In . SVG Version: 6.00 Build 0)  -->
<svg version="1.1" id="Countryflags.com" xmlns="http://www.w3.org/2000/svg" xmlns:xlink="http://www.w3.org/1999/xlink" x="0px"
	 y="0px" viewBox="0 0 300 200" style="enable-background:new 0 0 300 200;" xml:space="preserve">
<style type="text/css">
	.st0{fill:#006233;}
	.st1{fill:#CD2A3E;}
	.st2{fill:#FFC400;}
</style>
<g>
	<rect id="_x35_" y="30" class="st0" width="300" height="140"/>
	<rect id="_x34_" class="st1" width="300" height="30"/>
	<rect id="_x33_" y="170" class="st1" width="300" height="30"/>
	<path id="_x32_" class="st2" d="M212.71,72.79c-0.98,33.79-28.68,60.89-62.71,60.89s-61.73-27.09-62.71-60.89
		c-1.23,4.98-1.89,10.19-1.89,15.55c0,35.68,28.92,64.6,64.6,64.6s64.6-28.92,64.6-64.6C214.6,82.98,213.94,77.77,212.71,72.79z"/>
	<polygon id="_x31_" class="st2" points="126.22,64.34 144.39,64.34 150,47.06 155.61,64.34 173.78,64.34 159.08,75.01 
		164.69,92.29 150,81.61 135.31,92.29 140.92,75.01 	"/>
</g>
</svg>
