<?xml version="1.0" encoding="utf-8"?>
<!-- Generator: Adobe Illustrator 24.3.0, SVG Export Plug-In . SVG Version: 6.00 Build 0)  -->
<svg version="1.1" id="Countryflags.com" xmlns="http://www.w3.org/2000/svg" xmlns:xlink="http://www.w3.org/1999/xlink" x="0px"
	 y="0px" viewBox="0 0 300 150" style="enable-background:new 0 0 300 150;" xml:space="preserve">
<style type="text/css">
	.st0{fill:#FFFFFF;}
	.st1{fill:#CC0000;}
	.st2{fill:#EBEAE3;stroke:#000000;stroke-width:0.326;}
	.st3{fill:#FFFFFF;stroke:#161111;stroke-width:1.1578;}
	.st4{fill:#B02320;stroke:#000000;stroke-width:0.8149;}
	.st5{fill:none;stroke:#000000;stroke-width:0.7171;}
	.st6{fill:#FFCC00;fill-opacity:0.9412;stroke:#000000;stroke-width:0.7497;}
	.st7{fill:#121116;stroke:#121116;stroke-width:0.7312;stroke-linejoin:round;}
	.st8{fill:#F6CA1F;stroke:#000000;stroke-width:0.6193;}
	.st9{fill:#EEEEEE;stroke:#1E1E1E;stroke-width:2.243;stroke-linejoin:round;}
	.st10{fill:#A3AFB8;}
	.st11{fill:#EEEEEE;stroke:#1E1E1E;stroke-width:2.6822;stroke-linejoin:round;}
	.st12{fill:#EEEEEE;stroke:#1E1E1E;stroke-width:2.4802;stroke-linejoin:round;}
	.st13{fill:#EEEEEE;stroke:#1E1E1E;stroke-width:2.3883;stroke-linejoin:round;}
	.st14{fill:#EEEEEE;stroke:#1E1E1E;stroke-width:2.8322;stroke-linejoin:round;}
	.st15{fill:#B3A192;stroke:#000000;stroke-width:0.7312;}
	.st16{fill:#F0DDCB;stroke:#121116;stroke-width:0.3726;stroke-linejoin:round;}
	.st17{fill:#916C68;stroke:#4D3126;stroke-width:0.3726;stroke-linejoin:round;}
	.st18{fill:#EEEEEE;stroke:#1E1E1E;stroke-width:3.0307;stroke-linejoin:round;}
	.st19{fill:#FFCC00;stroke:#000000;stroke-width:0.326;}
	.st20{fill:#FFCC00;stroke:#000000;stroke-width:0.7312;}
	.st21{fill:#FFCC00;stroke:#121116;stroke-width:0.7312;}
	.st22{fill:#FFCC00;stroke:#000000;stroke-width:0.7497;}
	.st23{fill:#FFCC00;stroke:#121116;stroke-width:0.7312;stroke-linejoin:round;}
	.st24{fill:#FFCC00;stroke:#000000;stroke-width:0.6193;}
	.st25{fill:#F6CA1F;stroke:#000000;stroke-width:0.5867;}
	.st26{fill:#FFCC00;stroke:#000000;stroke-width:2.2;}
	.st27{fill:#FFCC00;stroke:#000000;stroke-width:2.2;stroke-linejoin:round;}
	.st28{fill:#CCA715;stroke:#000000;stroke-width:0.326;}
	.st29{fill:#0F6545;stroke:#000000;stroke-width:0.4353;stroke-linejoin:round;}
	.st30{fill:#CECFC1;}
	.st31{fill:#1F2D86;stroke:#000000;stroke-width:0.6193;stroke-linejoin:round;}
	.st32{fill:#707C8B;}
	.st33{fill:#9F1209;stroke:#000000;stroke-width:0.326;}
	.st34{fill:#8F322F;}
	.st35{fill:#E2A494;}
	.st36{fill:#AA675D;}
	.st37{fill:#F5D8BC;}
	.st38{fill:none;stroke:#000000;stroke-width:0.7497;}
	.st39{fill:none;stroke:#000000;stroke-width:0.6845;}
	.st40{fill:none;stroke:#000000;stroke-width:0.6519;}
	.st41{fill:#CC0000;stroke:#161111;}
	.st42{fill:none;stroke:#161111;}
</style>
<g>
	<polygon id="_x31_44" class="st0" points="0,0 300,0 300,0 300,150 300,150 0,150 0,150 0,0 	"/>
	<polygon id="_x31_43" class="st1" points="0,60 300,60 300,60 300,90 300,90 0,90 0,90 0,60 	"/>
	<polygon id="_x31_42" class="st1" points="165,0 165,150 165,150 135,150 135,150 135,0 135,0 165,0 	"/>
	<path id="_x31_41" class="st2" d="M161,45.82c0.96-1.51,0.39-2.48-1.07-2.78c0,0-4.65,1.49-9.66,1.65
		c-5.02,0.16-10.98-1.26-10.98-1.26c-1.07,0.67-0.81,2.26-0.28,3.26c0,0,5.25,1.75,11.23,1.57c3.8-0.11,7.4-1.08,9.42-1.72
		C160.82,46.17,161,45.83,161,45.82z"/>
	<path id="_x31_40" class="st3" d="M150,111.73l-9.64-20.03l-22.17,1.67L130.71,75l-12.53-18.37l22.17,1.67L150,38.27l9.64,20.03
		l22.17-1.67L169.29,75l12.53,18.37l-22.17-1.67L150,111.73z"/>
	<path id="_x31_39" class="st4" d="M149.86,38.2c12.11,2,11.68,2.56,11.68,2.56l3.16-9.45c0,0,0.33-1.86-0.53-3
		c-0.87-1.13-3.29-0.5-3.29-0.5s-0.33-1.53-1.4-1.9c-1.06-0.37-5.03,1.43-6.26,1.83c-1.23,0.4-1.86,0.8-3.59,0.77
		c-1.73-0.03-4.83-1.56-5.39-1.86c-0.57-0.3-1.4-0.6-2.16-0.57c-0.77,0.03-1.56,0.23-1.96,0.77c-0.4,0.53-0.4,1.2-0.4,1.2
		s-0.63-0.4-1.63-0.4c-1,0-1.56,0.13-2.03,0.67c-0.47,0.53-1.06,2.03-1.06,2.03l1.13,2.56l0.07,3.53l2.36,3.73L149.86,38.2z"/>
	<path id="_x31_38" class="st2" d="M161.15,43.54c0,0,0.61,0.73,0.59,0.99c-0.02,0.26-0.28,0.49-0.28,0.49s0.19,0.19,0.14,0.47
		c-0.05,0.28-0.42,0.31-0.42,0.31s0.07,0.26-0.16,0.38c-0.23,0.12-1.2,0.33-1.2,0.33s-4.69-1.34-9.71-1.34
		c-5.02,0-10.93,1.62-10.93,1.62s-0.61-0.21-0.63-0.61c-0.02-0.4,0.07-0.68,0.07-0.68s-0.33,0.03-0.42-0.26
		c-0.12-0.41,0.05-0.73,0.05-0.73s-0.23,0.07,0.02-0.47c0.19-0.4,0.47-0.54,0.47-0.54s5.25-1.88,11.24-1.9
		C155.94,41.57,161.15,43.49,161.15,43.54z"/>
	<path id="_x31_37" class="st5" d="M136.32,31.72c0,0-0.2-0.68,0.24-1.28c0.44-0.6,1.24-0.56,1.48-0.44c0.24,0.12,0.2,0.4,0.52,0.48
		c0.32,0.08,0.56-0.16,0.56-0.16"/>
	<path id="_x31_36" class="st6" d="M165.57,33.31l-1.82,3.76l-0.72,0.13c0,0-0.44-0.26-1.68-0.18c-0.89,0.06-1.15,0.29-1.15,0.29
		l1.62-3.75c0,0,0.13,0.81,0.31,1.28c0.24,0.6,1.14,1.17,1.14,1.17s0.13-0.72-0.11-1.59c-0.26-0.97-0.88-2.27-0.88-2.27
		L165.57,33.31z"/>
	<rect id="_x31_35" x="148.9" y="21.61" class="st7" width="2.04" height="8.65"/>
	<path id="_x31_34" class="st8" d="M136.42,37.57l1.31,2.8c0,0,5.57-2.17,12.14-2.13c9.85,0.06,12.65,2.04,12.65,2.04l1.46-3.47
		l-1.09,0.64l-1.13,0.7l-1.28,0.49l-1.55-0.12l-1.37-1l-0.7-1.46l-1.16,1.06l-2.04,0.46l-2.01-0.52l-1.76-2.22
		c0,0-1.31,2.47-2.98,2.62c-2.4,0.21-3.8-1.16-3.8-1.16s-0.89,2.01-2.37,2.37C138.4,39.25,136.46,37.57,136.42,37.57z"/>
	<path id="_x31_33" class="st9" d="M158.89,20.51c0,0.59-0.47,1.06-1.05,1.07c-0.58,0-1.05-0.47-1.05-1.06
		c0-0.59,0.47-1.07,1.05-1.07C158.41,19.45,158.89,19.92,158.89,20.51"/>
	<path id="_x31_32" class="st10" d="M157.35,21.06c0,0,0.85-0.01,0.94-0.36c0.09-0.35-0.06-0.79-0.06-0.79s0.4,0.45,0.29,0.79
		c-0.12,0.35-0.23,0.44-0.52,0.5C157.8,21.25,157.51,21.18,157.35,21.06z"/>
	<path id="_x31_31" class="st9" d="M156.33,21.71c0,0.59-0.47,1.06-1.05,1.07c-0.58,0-1.05-0.47-1.05-1.06s0.47-1.07,1.05-1.07
		C155.86,20.64,156.33,21.11,156.33,21.71"/>
	<path id="_x31_30" class="st10" d="M154.79,22.26c0,0,0.85-0.01,0.94-0.36c0.09-0.35-0.06-0.79-0.06-0.79s0.4,0.45,0.29,0.79
		c-0.12,0.35-0.23,0.44-0.52,0.5C155.24,22.45,154.95,22.37,154.79,22.26z"/>
	<path id="_x31_29" class="st9" d="M161.86,19.81c0,0.59-0.47,1.06-1.05,1.07c-0.58,0-1.05-0.47-1.05-1.06
		c0-0.59,0.47-1.07,1.05-1.07C161.38,18.74,161.85,19.22,161.86,19.81"/>
	<path id="_x31_28" class="st10" d="M160.31,20.36c0,0,0.85-0.01,0.94-0.36c0.09-0.35-0.06-0.79-0.06-0.79s0.4,0.45,0.29,0.79
		c-0.12,0.35-0.23,0.44-0.52,0.5C160.77,20.55,160.47,20.48,160.31,20.36z"/>
	<path id="_x31_27" class="st9" d="M165.2,20.49c0,0.59-0.47,1.06-1.05,1.07s-1.05-0.47-1.05-1.06c0-0.59,0.47-1.07,1.05-1.07
		C164.72,19.42,165.19,19.89,165.2,20.49"/>
	<path id="_x31_26" class="st10" d="M163.66,21.03c0,0,0.85-0.01,0.94-0.36c0.09-0.35-0.06-0.79-0.06-0.79s0.4,0.45,0.29,0.79
		s-0.23,0.44-0.52,0.5C164.11,21.22,163.81,21.15,163.66,21.03z"/>
	<path id="_x31_25" class="st9" d="M167.74,22.58c0,0.59-0.47,1.06-1.05,1.07s-1.05-0.47-1.05-1.06s0.47-1.07,1.05-1.07
		C167.27,21.52,167.74,21.99,167.74,22.58"/>
	<path id="_x31_24" class="st10" d="M166.2,23.13c0,0,0.85-0.01,0.94-0.36c0.09-0.35-0.06-0.79-0.06-0.79s0.4,0.45,0.29,0.79
		c-0.12,0.35-0.23,0.44-0.52,0.5C166.65,23.32,166.36,23.25,166.2,23.13z"/>
	<path id="_x31_23" class="st9" d="M168.84,26.03c0,0.59-0.47,1.06-1.05,1.07c-0.58,0-1.05-0.47-1.05-1.06
		c0-0.59,0.47-1.07,1.05-1.07C168.37,24.96,168.84,25.43,168.84,26.03"/>
	<path id="_x31_22" class="st10" d="M167.3,26.58c0,0,0.85-0.01,0.94-0.36c0.09-0.35-0.06-0.79-0.06-0.79s0.4,0.45,0.29,0.79
		s-0.23,0.44-0.52,0.5C167.75,26.77,167.46,26.69,167.3,26.58z"/>
	<path id="_x31_21" class="st9" d="M168.44,29.51c0,0.59-0.47,1.06-1.05,1.07c-0.58,0-1.05-0.47-1.05-1.06s0.47-1.07,1.05-1.07
		C167.96,28.44,168.43,28.92,168.44,29.51"/>
	<path id="_x31_20" class="st10" d="M166.9,30.06c0,0,0.85-0.01,0.94-0.36c0.09-0.35-0.06-0.79-0.06-0.79s0.4,0.45,0.29,0.79
		c-0.12,0.35-0.23,0.44-0.52,0.5C167.35,30.25,167.05,30.17,166.9,30.06z"/>
	<path id="_x31_19" class="st9" d="M166.89,32.57c0,0.59-0.47,1.06-1.05,1.07c-0.58,0-1.05-0.47-1.05-1.06
		c0-0.59,0.47-1.07,1.05-1.07C166.41,31.5,166.88,31.97,166.89,32.57"/>
	<path id="_x31_18" class="st10" d="M165.35,33.12c0,0,0.85-0.01,0.94-0.36c0.09-0.35-0.06-0.79-0.06-0.79s0.4,0.45,0.29,0.79
		s-0.23,0.44-0.52,0.5C165.8,33.31,165.51,33.23,165.35,33.12z"/>
	<path id="_x31_17" class="st9" d="M153.85,22.63c0,0.59-0.47,1.06-1.05,1.07c-0.58,0-1.05-0.47-1.05-1.06
		c0-0.59,0.47-1.07,1.05-1.07C153.37,21.56,153.84,22.03,153.85,22.63"/>
	<path id="_x31_16" class="st10" d="M152.31,23.17c0,0,0.85-0.01,0.94-0.36c0.09-0.35-0.06-0.79-0.06-0.79s0.4,0.45,0.29,0.79
		c-0.12,0.35-0.23,0.44-0.52,0.5C152.76,23.36,152.47,23.29,152.31,23.17z"/>
	<path id="_x31_15" class="st11" d="M150.67,22.35c0,0.49-0.39,0.89-0.88,0.89c-0.49,0-0.88-0.4-0.88-0.89
		c0-0.49,0.39-0.89,0.87-0.9C150.27,21.46,150.67,21.85,150.67,22.35"/>
	<path id="_x31_14" class="st10" d="M149.38,22.81c0,0,0.71-0.01,0.78-0.3c0.07-0.29-0.05-0.66-0.05-0.66s0.34,0.37,0.24,0.66
		c-0.1,0.29-0.19,0.36-0.43,0.42C149.76,22.97,149.52,22.91,149.38,22.81z"/>
	<path id="_x31_13" class="st11" d="M150.68,23.46c0,0.49-0.39,0.89-0.88,0.89c-0.49,0-0.88-0.4-0.88-0.89
		c0-0.49,0.39-0.89,0.87-0.9C150.28,22.57,150.68,22.96,150.68,23.46"/>
	<path id="_x31_12" class="st10" d="M149.39,23.92c0,0,0.71-0.01,0.78-0.3c0.07-0.29-0.05-0.66-0.05-0.66s0.34,0.37,0.24,0.66
		c-0.1,0.29-0.19,0.36-0.43,0.42C149.77,24.08,149.53,24.02,149.39,23.92z"/>
	<path id="_x31_11" class="st11" d="M150.74,25.09c0,0.49-0.39,0.89-0.88,0.89c-0.49,0-0.88-0.4-0.88-0.89
		c0-0.49,0.39-0.89,0.87-0.9C150.34,24.2,150.74,24.59,150.74,25.09"/>
	<path id="_x31_10" class="st10" d="M149.45,25.55c0,0,0.71-0.01,0.78-0.3c0.07-0.29-0.05-0.66-0.05-0.66s0.34,0.37,0.24,0.66
		c-0.1,0.29-0.19,0.36-0.43,0.42C149.83,25.71,149.59,25.65,149.45,25.55z"/>
	<path id="_x31_09" class="st12" d="M150.83,26.82c0,0.53-0.42,0.96-0.95,0.96c-0.52,0-0.95-0.43-0.95-0.96
		c0-0.53,0.42-0.96,0.95-0.97C150.4,25.86,150.83,26.28,150.83,26.82"/>
	<path id="_x31_08" class="st10" d="M149.44,27.32c0,0,0.77-0.01,0.85-0.33c0.08-0.31-0.05-0.72-0.05-0.72s0.36,0.4,0.26,0.72
		c-0.1,0.31-0.21,0.39-0.47,0.46C149.85,27.49,149.58,27.42,149.44,27.32z"/>
	<path id="_x31_07" class="st9" d="M150.94,29.15c0,0.59-0.47,1.06-1.05,1.07c-0.58,0-1.05-0.47-1.05-1.06s0.47-1.07,1.05-1.07
		C150.46,28.08,150.93,28.55,150.94,29.15"/>
	<path id="_x31_06" class="st10" d="M149.39,29.69c0,0,0.85-0.01,0.94-0.36c0.09-0.35-0.06-0.79-0.06-0.79s0.4,0.45,0.29,0.79
		c-0.12,0.35-0.23,0.44-0.52,0.5C149.85,29.88,149.55,29.81,149.39,29.69z"/>
	<path id="_x31_05" class="st13" d="M150.83,33.91c0,0.55-0.44,1-0.99,1c-0.54,0-0.99-0.45-0.99-1s0.44-1,0.98-1.01
		C150.38,32.91,150.83,33.35,150.83,33.91"/>
	<path id="_x31_04" class="st10" d="M149.38,34.43c0,0,0.8-0.01,0.88-0.34c0.08-0.32-0.05-0.74-0.05-0.74s0.38,0.42,0.27,0.74
		c-0.11,0.32-0.21,0.41-0.49,0.47C149.81,34.6,149.53,34.53,149.38,34.43z"/>
	<path id="_x31_03" class="st9" d="M147.99,22.6c0,0.59-0.47,1.06-1.05,1.07c-0.58,0-1.05-0.47-1.05-1.06
		c0-0.59,0.47-1.07,1.05-1.07C147.51,21.53,147.98,22,147.99,22.6"/>
	<path id="_x31_02" class="st10" d="M146.44,23.14c0,0,0.85-0.01,0.94-0.36c0.09-0.35-0.06-0.79-0.06-0.79s0.4,0.45,0.29,0.79
		c-0.12,0.35-0.23,0.44-0.52,0.5C146.9,23.34,146.6,23.26,146.44,23.14z"/>
	<path id="_x31_01" class="st9" d="M145.38,21.57c0,0.59-0.47,1.06-1.05,1.07c-0.58,0-1.05-0.47-1.05-1.06
		c0-0.59,0.47-1.07,1.05-1.07C144.9,20.5,145.37,20.97,145.38,21.57"/>
	<path id="_x31_00" class="st10" d="M143.84,22.12c0,0,0.85-0.01,0.94-0.36c0.09-0.35-0.06-0.79-0.06-0.79s0.4,0.45,0.29,0.79
		c-0.12,0.35-0.23,0.44-0.52,0.5C144.29,22.31,143.99,22.23,143.84,22.12z"/>
	<path id="_x39_9" class="st9" d="M142.88,20.39c0,0.59-0.47,1.06-1.05,1.07c-0.58,0-1.05-0.47-1.05-1.06s0.47-1.07,1.05-1.07
		C142.4,19.32,142.88,19.8,142.88,20.39"/>
	<path id="_x39_8" class="st10" d="M141.34,20.94c0,0,0.85-0.01,0.94-0.36c0.09-0.35-0.06-0.79-0.06-0.79s0.4,0.45,0.29,0.79
		c-0.12,0.35-0.23,0.44-0.52,0.5C141.79,21.13,141.5,21.06,141.34,20.94z"/>
	<path id="_x39_7" class="st9" d="M140.02,19.77c0,0.59-0.47,1.06-1.05,1.07c-0.58,0-1.05-0.47-1.05-1.06
		c0-0.59,0.47-1.07,1.05-1.07C139.54,18.7,140.01,19.17,140.02,19.77"/>
	<path id="_x39_6" class="st10" d="M138.47,20.32c0,0,0.85-0.01,0.94-0.36c0.09-0.35-0.06-0.79-0.06-0.79s0.4,0.45,0.29,0.79
		c-0.12,0.35-0.23,0.44-0.52,0.5C138.93,20.51,138.63,20.43,138.47,20.32z"/>
	<path id="_x39_5" class="st9" d="M136.64,20.58c0,0.59-0.47,1.06-1.05,1.07s-1.05-0.47-1.05-1.06c0-0.59,0.47-1.07,1.05-1.07
		C136.16,19.51,136.63,19.98,136.64,20.58"/>
	<path id="_x39_4" class="st10" d="M135.1,21.13c0,0,0.85-0.01,0.94-0.36c0.09-0.35-0.06-0.79-0.06-0.79s0.4,0.45,0.29,0.79
		c-0.12,0.35-0.23,0.44-0.52,0.5C135.55,21.32,135.25,21.24,135.1,21.13z"/>
	<path id="_x39_3" class="st9" d="M134.25,22.96c0,0.59-0.47,1.06-1.05,1.07c-0.58,0-1.05-0.47-1.05-1.06
		c0-0.59,0.47-1.07,1.05-1.07C133.77,21.9,134.25,22.37,134.25,22.96"/>
	<path id="_x39_2" class="st10" d="M132.71,23.51c0,0,0.85-0.01,0.94-0.36c0.09-0.35-0.06-0.79-0.06-0.79s0.4,0.45,0.29,0.79
		c-0.12,0.35-0.23,0.44-0.52,0.5C133.16,23.7,132.87,23.63,132.71,23.51z"/>
	<path id="_x39_1" class="st9" d="M133.26,26.31c0,0.59-0.47,1.06-1.05,1.07c-0.58,0-1.05-0.47-1.05-1.06
		c0-0.59,0.47-1.07,1.05-1.07C132.78,25.24,133.25,25.71,133.26,26.31"/>
	<path id="_x39_0" class="st10" d="M131.72,26.85c0,0,0.85-0.01,0.94-0.36c0.09-0.35-0.06-0.79-0.06-0.79s0.4,0.45,0.29,0.79
		c-0.12,0.35-0.23,0.44-0.52,0.5C132.17,27.04,131.88,26.97,131.72,26.85z"/>
	<path id="_x38_9" class="st9" d="M133.7,29.8c0,0.59-0.47,1.06-1.05,1.07c-0.58,0-1.05-0.47-1.05-1.06c0-0.59,0.47-1.07,1.05-1.07
		C133.22,28.73,133.7,29.2,133.7,29.8"/>
	<path id="_x38_8" class="st10" d="M132.16,30.34c0,0,0.85-0.01,0.94-0.36c0.09-0.35-0.06-0.79-0.06-0.79s0.4,0.45,0.29,0.79
		c-0.12,0.35-0.23,0.44-0.52,0.5C132.61,30.53,132.32,30.46,132.16,30.34z"/>
	<path id="_x38_7" class="st9" d="M135.32,32.95c0,0.59-0.47,1.06-1.05,1.07c-0.58,0-1.05-0.47-1.05-1.06
		c0-0.59,0.47-1.07,1.05-1.07C134.84,31.88,135.31,32.36,135.32,32.95"/>
	<path id="_x38_6" class="st10" d="M133.77,33.5c0,0,0.85-0.01,0.94-0.36c0.09-0.35-0.06-0.79-0.06-0.79s0.4,0.45,0.29,0.79
		c-0.12,0.35-0.23,0.44-0.52,0.5C134.23,33.69,133.93,33.62,133.77,33.5z"/>
	<path id="_x38_5" class="st14" d="M137.14,36.93c0.15,0.57-0.01,1.1-0.36,1.2c-0.35,0.1-0.76-0.29-0.91-0.85
		c-0.15-0.57,0.01-1.11,0.36-1.2C136.57,35.98,136.98,36.36,137.14,36.93"/>
	<path id="_x38_4" class="st10" d="M136.35,37.71c0,0,0.51-0.15,0.47-0.5s-0.24-0.76-0.24-0.76s0.36,0.37,0.38,0.72
		c0.02,0.35-0.03,0.46-0.18,0.57C136.67,37.82,136.47,37.8,136.35,37.71z"/>
	<path id="_x38_3" class="st14" d="M164.3,37.14c-0.14,0.57-0.54,0.96-0.89,0.88c-0.35-0.09-0.53-0.62-0.39-1.19
		c0.14-0.57,0.54-0.97,0.89-0.88C164.27,36.03,164.44,36.56,164.3,37.14"/>
	<path id="_x38_2" class="st10" d="M163.23,37.43c0,0,0.52,0.11,0.66-0.21c0.14-0.32,0.15-0.78,0.15-0.78s0.14,0.49-0.01,0.81
		c-0.15,0.32-0.24,0.39-0.44,0.41C163.46,37.69,163.3,37.57,163.23,37.43z"/>
	<path id="_x38_1" class="st15" d="M148.98,16.82l0.08,1.78c0,0-2.11,0.19-2.2,0.38c-0.41,0.92,0.49,2.16,0.49,2.16
		s0.71-0.53,2.5-0.53c1.71,0,2.58,0.42,2.58,0.42s0.45-0.72,0.45-1.25s-0.19-1.06-0.19-1.06s-0.87-0.11-1.14-0.11
		c-0.27,0-0.76,0-0.76,0l-0.08-1.82L148.98,16.82z"/>
	<path id="_x38_0" class="st16" d="M151.99,19.58c0,0.2-0.17,0.36-0.38,0.36c-0.21,0-0.38-0.16-0.38-0.36c0-0.2,0.17-0.36,0.38-0.36
		C151.82,19.22,151.99,19.38,151.99,19.58"/>
	<path id="_x37_9" class="st16" d="M152.86,19.77c0,0.21-0.18,0.38-0.39,0.38c-0.22,0-0.39-0.17-0.4-0.38
		c0-0.21,0.17-0.38,0.39-0.38C152.68,19.39,152.86,19.56,152.86,19.77"/>
	<path id="_x37_8" class="st16" d="M151.12,19.57c0,0.2-0.17,0.36-0.38,0.36c-0.21,0-0.38-0.16-0.38-0.36c0-0.2,0.17-0.36,0.38-0.36
		C150.94,19.2,151.11,19.36,151.12,19.57"/>
	<path id="_x37_7" class="st16" d="M149.37,19.58c0,0.21-0.18,0.38-0.39,0.38s-0.39-0.17-0.39-0.38c0-0.21,0.17-0.38,0.39-0.38
		C149.19,19.21,149.37,19.37,149.37,19.58"/>
	<path id="_x37_6" class="st16" d="M148.4,19.65c0,0.21-0.18,0.38-0.39,0.38c-0.22,0-0.39-0.17-0.39-0.38
		c0-0.21,0.17-0.38,0.39-0.38C148.22,19.27,148.4,19.44,148.4,19.65"/>
	<path id="_x37_5" class="st16" d="M150.18,18.56c0,0.18-0.15,0.32-0.33,0.32c-0.18,0-0.33-0.14-0.33-0.32
		c0-0.18,0.15-0.32,0.33-0.32C150.03,18.24,150.18,18.38,150.18,18.56"/>
	<path id="_x37_4" class="st16" d="M150.18,17.08c0,0.18-0.15,0.32-0.33,0.32c-0.18,0-0.33-0.14-0.33-0.32
		c0-0.18,0.15-0.32,0.33-0.32C150.03,16.76,150.18,16.9,150.18,17.08"/>
	<path id="_x37_3" class="st16" d="M150.18,17.88c0,0.18-0.15,0.32-0.33,0.32c-0.18,0-0.33-0.14-0.33-0.32
		c0-0.18,0.15-0.32,0.33-0.32C150.03,17.56,150.18,17.7,150.18,17.88"/>
	<path id="_x37_2" class="st16" d="M147.42,19.91c0,0.2-0.17,0.36-0.38,0.36c-0.21,0-0.38-0.16-0.38-0.36c0-0.2,0.17-0.36,0.38-0.37
		C147.24,19.55,147.42,19.71,147.42,19.91"/>
	<path id="_x37_1" class="st17" d="M150.26,19.49c0,0.22-0.19,0.4-0.42,0.4c-0.23,0-0.42-0.18-0.42-0.4c0-0.22,0.18-0.4,0.41-0.4
		C150.07,19.09,150.26,19.26,150.26,19.49"/>
	<path id="_x37_0" class="st18" d="M150.64,14.2c0,0.44-0.35,0.79-0.78,0.79c-0.43,0-0.78-0.35-0.78-0.79
		c0-0.44,0.34-0.79,0.77-0.79C150.29,13.41,150.64,13.76,150.64,14.2"/>
	<path id="_x36_9" class="st10" d="M149.5,14.61c0,0,0.63-0.01,0.69-0.27c0.06-0.26-0.04-0.59-0.04-0.59s0.3,0.33,0.21,0.59
		c-0.09,0.26-0.17,0.32-0.38,0.37C149.84,14.75,149.62,14.69,149.5,14.61z"/>
	<path id="_x36_8" class="st19" d="M137.49,40.67c0,0,0.69,0.65,0.88,1.23c0.19,0.58,0.46,2.13,0.46,2.13s7.27-2.01,10.83-1.85
		c3.56,0.16,11.78,1.97,11.78,1.97s0.14-0.88,0.3-1.81c0.16-0.93,0.83-1.94,0.83-1.94s-7.85-2.45-12.8-2.22
		c-4.95,0.23-7.43,0.76-8.54,1.11C140.13,39.63,137.42,40.69,137.49,40.67z"/>
	<path id="_x36_7" class="st20" d="M148.33,11.26h3.13c0,0-0.77,0.53-0.93,1.04c-0.14,0.44-0.09,1.16-0.09,1.16s0.85,0,1.23-0.32
		c0.38-0.32,1.17-0.89,1.17-0.89v3.98c0,0-0.77-0.74-1.23-0.99c-0.56-0.29-1.12-0.4-1.12-0.4s0,0.64,0.27,1.02
		c0.27,0.38,1.33,1.82,1.33,1.82l-4.47,0.17c0,0,1.06-1.12,1.5-1.93c0.28-0.53,0.17-1.08,0.17-1.08s-0.76,0-1.14,0.27
		c-0.38,0.27-1.04,1.06-1.04,1.06v-3.83c0,0,0.28,0.74,0.91,1.02c0.63,0.28,1.21,0.13,1.21,0.13s0.12-0.76-0.13-1.23
		C148.83,11.78,148.27,11.25,148.33,11.26z"/>
	<path id="_x36_6" class="st21" d="M148.09,23.89c0,0-2.22-0.03-4.13-1.15c-1.9-1.13-3.82-2.3-6.64-1.63
		c-0.58,0.14-2.71,1.07-3.64,4.1c-0.66,2.12,0.11,4.69,0.78,5.84c0.67,1.15,1.75,2.32,1.75,2.32l1.15-0.78c0,0-2.93-2.48-2.58-5.69
		c0.35-3.22,1.96-3.97,1.96-3.97s1.98-1.55,4.64-0.08c2.65,1.47,5.25,2.14,5.25,2.14s2.44,0.59,2.65,0.56
		C149.48,25.52,148.03,23.86,148.09,23.89z"/>
	<path id="_x36_5" class="st22" d="M135.79,35.95l-1.18-2.32l3.54-1.39c0,0-0.86,1.14-1.06,1.96c-0.25,1-0.16,1.83-0.16,1.83
		s0.33-0.24,0.73-0.9c0.31-0.49,0.81-2.28,0.81-2.28l1.59,5.09c0.01,0.01-0.82-0.82-1.4-0.92c-0.66-0.11-1.45,0.1-1.45,0.1
		l-0.94,0.29L135.79,35.95z"/>
	<path id="_x36_4" class="st21" d="M152.09,23.85c0,0,2.22-0.03,4.13-1.15c1.9-1.13,3.82-2.3,6.64-1.63
		c0.58,0.14,2.71,1.07,3.64,4.1c0.66,2.12-0.11,4.69-0.78,5.84c-0.67,1.15-1.13,1.83-1.13,1.83l-1.38-0.5c0,0,2.53-2.27,2.18-5.49
		c-0.35-3.22-1.96-3.97-1.96-3.97s-1.98-1.55-4.64-0.08c-2.65,1.47-5.25,2.14-5.25,2.14s-2.44,0.59-2.65,0.56
		C150.7,25.48,152.15,23.82,152.09,23.85z"/>
	<rect id="_x36_3" x="150.95" y="21.65" class="st23" width="0.93" height="8.66"/>
	<rect id="_x36_2" x="147.82" y="21.61" class="st23" width="1.1" height="8.66"/>
	<path id="_x36_1" class="st23" d="M152.88,19.6c0,1.54-1.35,2.78-3.03,2.79c-1.67,0-3.03-1.24-3.04-2.77
		c-0.01-1.54,1.34-2.79,3.01-2.8c1.67-0.01,3.04,1.23,3.05,2.76"/>
	<path id="_x36_0" class="st24" d="M147.16,30.23l5.21-0.04c0,0-0.61,0.36-1.14,1.3c-0.53,0.93-0.45,1.52-0.45,1.52
		s0.79-0.01,1.35-0.42s1.18-1.17,1.18-1.17l-0.02,4.81c0,0-0.38-0.61-1-0.98c-0.62-0.36-1.5-0.36-1.5-0.36h-1.78
		c0,0-0.81,0.05-1.18,0.29c-0.52,0.34-1.16,1-1.16,1l-0.09-4.54c0,0,0.26,0.79,1.09,1.12c0.84,0.32,1.31,0.28,1.31,0.28
		s0-1.02-0.43-1.54C148.13,30.96,147.16,30.25,147.16,30.23z"/>
	<path id="_x35_9" class="st25" d="M150.06,34.01c0,0,0.76,1.78,1.65,2.57c0.52,0.46,2.07,0.8,2.77,0.62
		c1.58-0.4,2.66-1.66,2.66-1.66s-0.06,1.38,0.93,2.14c0.99,0.76,1.78,0.96,2.6,0.73c0.82-0.23,3.13-1.95,3.13-1.95l0.48,0.42
		c0,0-1.33,1.29-2.72,1.97c-0.72,0.35-2.9,0.16-3.6-0.41c-0.71-0.56-1.12-1.93-1.12-1.93s-0.43,0.88-1.37,1.19
		c-0.93,0.31-2.21,0.3-3.4-0.05c-0.8-0.23-1.84-1.34-2.04-1.7c-0.2-0.37-0.14-0.56-0.14-0.56s-0.59,1.68-1.81,2.14
		c-1.15,0.43-2.46,0.44-3.58,0.12c-1.13-0.32-1.22-0.95-1.22-0.95s-0.08,1.78-2.54,2.28c-2.45,0.51-4.4-1.3-4.4-1.3l0.34-0.51
		c0,0,1.38,1.55,3.5,1.41c2.12-0.14,2.82-2.85,2.82-2.85s0.93,1.41,3.41,1.44c2.48,0.03,3.19-3.22,3.19-3.22L150.06,34.01z"/>
	<path id="_x35_8" class="st26" d="M143.95,35.04c0,0,0.02-0.86,0.2-1.12c0.26-0.37,0.62-0.38,0.8-0.33
		c0.23,0.06,0.46,0.27,0.42,0.87c-0.04,0.6-0.2,0.89-0.03,1.12c0.18,0.23,0.2,0.38,0.55,0.33c0.34-0.05,0.5-0.17,0.42-0.49
		c-0.08-0.32-0.18,0.03-0.24-0.24c-0.06-0.27,0.33-1.43,0.27-2.15c-0.06-0.7-0.33-1.26-0.87-1.4c-0.5-0.13-0.93-0.13-1.4,0.22
		c-0.45,0.33-1.03,1.42-1.03,1.42l-0.01,2.32l0.94-0.05L143.95,35.04z"/>
	<path id="_x35_7" class="st26" d="M142.19,35.67c0,0-0.36-0.78-0.64-0.95c-0.39-0.23-0.72-0.1-0.87,0.02
		c-0.18,0.15-0.31,0.43-0.04,0.96c0.27,0.54,0.54,0.74,0.47,1.02c-0.07,0.28-0.03,0.43-0.37,0.52c-0.34,0.09-0.52,0.05-0.58-0.28
		c-0.06-0.32,0.17-0.05,0.13-0.32c-0.05-0.27-0.87-1.18-1.1-1.86c-0.22-0.67-0.2-1.29,0.24-1.63c0.41-0.32,0.8-0.49,1.37-0.36
		c0.55,0.12,1.51,0.89,1.51,0.89l0.94,2.13l-0.89,0.33L142.19,35.67z"/>
	<path id="_x35_6" class="st26" d="M142.01,28.79c0,0-0.92,1.54-0.71,2.73c0.2,1.19,1.43,3.74,1.43,3.74l0.01,0.34l0.66-0.07
		l-0.15-0.35c0,0,0.33-3.06,0.13-4.02C143.22,30.44,142.02,28.8,142.01,28.79z"/>
	<path id="_x35_5" class="st26" d="M143.47,35.86c0,0,0.46,0.55,1.01,0.82c0.6,0.29,0.85,0.29,1.09,0.11
		c0.17-0.13,0.11-0.69-0.09-0.84c-0.2-0.15-0.44-0.08-0.47,0.08c-0.06,0.26-0.15,0.24-0.33,0.14c-0.27-0.14-0.91-0.54-0.91-0.54
		L143.47,35.86z"/>
	<path id="_x35_4" class="st26" d="M142.76,35.98c0,0-0.19,0.69-0.58,1.16c-0.43,0.51-0.65,0.62-0.94,0.55
		c-0.21-0.05-0.39-0.58-0.26-0.81c0.12-0.22,0.37-0.25,0.46-0.12c0.16,0.21,0.23,0.16,0.36-0.01c0.19-0.24,0.61-0.86,0.61-0.86
		L142.76,35.98z"/>
	<path id="_x35_3" class="st27" d="M144.51,35.43c0.03,0.2-0.57,0.47-1.36,0.6c-0.78,0.13-1.45,0.08-1.49-0.12
		c-0.04-0.2,0.57-0.47,1.35-0.6C143.81,35.17,144.47,35.23,144.51,35.43"/>
	<path id="_x35_2" class="st26" d="M158.01,35.39c0,0,0.32-0.8,0.59-0.98c0.38-0.25,0.72-0.14,0.87-0.03
		c0.19,0.14,0.34,0.41,0.09,0.96c-0.25,0.55-0.5,0.77-0.42,1.04c0.09,0.28,0.06,0.43,0.4,0.5c0.34,0.07,0.52,0.02,0.56-0.31
		c0.04-0.33-0.18-0.04-0.14-0.31c0.03-0.27,0.81-1.22,1-1.91c0.19-0.68,0.13-1.3-0.32-1.62c-0.43-0.3-0.83-0.45-1.39-0.29
		c-0.54,0.15-1.47,0.96-1.47,0.96l-0.83,2.17l0.9,0.28L158.01,35.39z"/>
	<path id="_x35_1" class="st26" d="M156.14,35.36c0,0-0.06-0.86-0.26-1.11c-0.28-0.35-0.64-0.35-0.82-0.29
		c-0.22,0.07-0.45,0.29-0.38,0.89c0.07,0.6,0.25,0.88,0.08,1.12c-0.17,0.24-0.18,0.39-0.53,0.36c-0.35-0.03-0.51-0.14-0.45-0.46
		c0.06-0.32,0.18,0.02,0.23-0.25c0.05-0.27-0.41-1.41-0.38-2.13c0.03-0.7,0.27-1.28,0.79-1.45c0.5-0.16,0.92-0.18,1.41,0.14
		c0.47,0.31,1.11,1.36,1.11,1.36l0.13,2.32l-0.95,0L156.14,35.36z"/>
	<path id="_x35_0" class="st26" d="M158.39,28.85c0,0-1.4,1.12-1.63,2.31c-0.23,1.18,0.03,4,0.03,4l-0.11,0.33l0.64,0.16l-0.02-0.38
		c0,0,1.38-2.75,1.53-3.72C158.94,30.83,158.4,28.87,158.39,28.85z"/>
	<path id="_x34_9" class="st26" d="M157.28,35.99c0,0,0.24,0.68,0.66,1.12c0.46,0.48,0.69,0.57,0.98,0.49
		c0.21-0.06,0.35-0.61,0.21-0.82c-0.14-0.22-0.38-0.22-0.47-0.09c-0.15,0.22-0.22,0.17-0.36,0.02c-0.2-0.23-0.66-0.82-0.66-0.82
		L157.28,35.99z"/>
	<path id="_x34_8" class="st26" d="M156.57,35.85c0,0-0.42,0.58-0.95,0.88c-0.58,0.33-0.83,0.35-1.08,0.18
		c-0.18-0.12-0.16-0.68,0.03-0.85c0.19-0.17,0.43-0.1,0.48,0.05c0.08,0.25,0.16,0.23,0.34,0.12c0.26-0.16,0.87-0.59,0.87-0.59
		L156.57,35.85z"/>
	<path id="_x34_7" class="st27" d="M158.41,35.95c-0.04,0.2-0.7,0.24-1.48,0.09c-0.78-0.15-1.38-0.44-1.35-0.64
		c0.04-0.2,0.7-0.24,1.48-0.09C157.83,35.46,158.44,35.74,158.41,35.95"/>
	<path id="_x34_6" class="st28" d="M137.22,40.58c0,0,0.15,0.64,0.52,0.3c0.36-0.33,5.38-2.31,12.47-2.31
		c7.09,0,11.74,1.95,12.01,2.07c0.27,0.12,0.4,0.27,0.64,0c0.24-0.27-0.24-0.7-0.24-0.7s-4.93-2.1-12.62-2.07
		c-7.7,0.03-12.68,2.22-12.68,2.22S136.97,40.34,137.22,40.58z"/>
	<path id="_x34_5" d="M146.2,43.53c0,0,0.23-0.63,0.62-0.75c0.31-0.1,0.81,0.21,0.81,0.21s-0.6-0.06-0.79,0.05
		c-0.17,0.1-0.22,0.38-0.22,0.38s0.13-0.23,0.59-0.21c0.46,0.02,0.51,0.02,0.51,0.02s-0.78,0.06-0.96,0.28
		c-0.18,0.22,0.73,0.33,0.73,0.33s-1.4,0.01-1.58-0.08c-0.18-0.08-0.3-0.37-0.61-0.28c-0.31,0.09-0.63,0.37-0.63,0.37
		s0.36-0.6,0.58-0.6c0.22,0,0.36-0.01,0.56,0.08C146.01,43.43,146.2,43.53,146.2,43.53z"/>
	<path id="_x34_4" d="M140.97,44.67c0,0,0.11-0.66,0.47-0.85c0.29-0.15,0.84,0.06,0.84,0.06s-0.6,0.06-0.76,0.2
		c-0.15,0.13-0.15,0.42-0.15,0.42s0.08-0.25,0.54-0.31c0.46-0.06,0.51-0.07,0.51-0.07s-0.75,0.2-0.89,0.46
		c-0.14,0.25,0.78,0.19,0.78,0.19s-1.37,0.27-1.57,0.22c-0.2-0.05-0.36-0.31-0.66-0.16c-0.29,0.14-0.55,0.48-0.55,0.48
		s0.24-0.65,0.46-0.7c0.22-0.05,0.35-0.08,0.56-0.03C140.76,44.6,140.97,44.67,140.97,44.67z"/>
	<path id="_x34_3" d="M150.62,43.3c0,0,0.26-0.61,0.66-0.71c0.32-0.08,0.8,0.26,0.8,0.26s-0.59-0.09-0.79,0.01
		c-0.17,0.09-0.24,0.37-0.24,0.37s0.14-0.22,0.6-0.17c0.46,0.05,0.51,0.05,0.51,0.05s-0.78,0.01-0.97,0.23
		c-0.19,0.21,0.71,0.37,0.71,0.37s-1.4-0.07-1.58-0.17c-0.18-0.1-0.28-0.39-0.6-0.32c-0.32,0.07-0.65,0.33-0.65,0.33
		s0.39-0.58,0.61-0.57c0.22,0.01,0.36,0.01,0.55,0.11C150.44,43.19,150.62,43.3,150.62,43.3z"/>
	<path id="_x34_2" d="M155.04,43.8c0,0,0.33-0.58,0.74-0.63c0.33-0.04,0.76,0.35,0.76,0.35s-0.58-0.16-0.78-0.09
		c-0.18,0.07-0.28,0.34-0.28,0.34s0.17-0.2,0.61-0.1c0.45,0.1,0.5,0.11,0.5,0.11s-0.78-0.08-0.99,0.11
		c-0.22,0.19,0.67,0.45,0.67,0.45s-1.38-0.24-1.55-0.35c-0.17-0.12-0.23-0.42-0.55-0.39c-0.32,0.03-0.69,0.25-0.69,0.25
		s0.46-0.53,0.68-0.49c0.22,0.04,0.35,0.05,0.54,0.17C154.87,43.67,155.04,43.8,155.04,43.8z"/>
	<path id="_x34_1" d="M159.43,44.58c0,0,0.31-0.44,0.64-0.45c0.27-0.01,0.59,0.34,0.59,0.34s-0.45-0.17-0.62-0.13
		c-0.15,0.04-0.25,0.25-0.25,0.25s0.15-0.15,0.5-0.04c0.35,0.11,0.39,0.13,0.39,0.13s-0.62-0.12-0.81,0.02
		c-0.19,0.14,0.5,0.41,0.5,0.41s-1.09-0.29-1.22-0.4c-0.13-0.1-0.16-0.35-0.42-0.35c-0.26,0-0.57,0.15-0.57,0.15s0.4-0.39,0.58-0.35
		c0.18,0.04,0.28,0.06,0.42,0.18C159.3,44.46,159.43,44.58,159.43,44.58z"/>
	<path id="_x34_0" class="st29" d="M145.32,40.54c0.11,0.52-0.51,1.09-1.38,1.26c-0.86,0.17-1.65-0.11-1.76-0.63
		c-0.11-0.52,0.51-1.09,1.38-1.26C144.43,39.73,145.21,40.01,145.32,40.54z"/>
	<path id="_x33_9" class="st30" d="M143.36,40.45c0.03,0.13-0.11,0.26-0.3,0.3c-0.19,0.04-0.37-0.03-0.39-0.16
		c-0.03-0.13,0.11-0.26,0.3-0.3C143.16,40.25,143.33,40.33,143.36,40.45z"/>
	<path id="_x33_8" class="st29" d="M157.54,41.17c-0.16,0.51-0.97,0.71-1.81,0.44c-0.84-0.26-1.39-0.89-1.23-1.4
		c0.16-0.51,0.97-0.71,1.81-0.44C157.15,40.03,157.7,40.66,157.54,41.17z"/>
	<path id="_x33_7" class="st30" d="M155.87,40.15c-0.04,0.12-0.22,0.18-0.41,0.12c-0.19-0.06-0.3-0.21-0.27-0.33
		c0.04-0.12,0.22-0.18,0.41-0.12C155.79,39.88,155.91,40.03,155.87,40.15z"/>
	<rect id="_x33_6" x="148.31" y="39.36" class="st31" width="3.17" height="1.6"/>
	<path id="_x33_5" class="st32" d="M149.65,39.7c0,0.07-0.13,0.13-0.3,0.13c-0.17,0-0.3-0.06-0.3-0.13c0-0.07,0.13-0.13,0.3-0.13
		C149.51,39.57,149.65,39.63,149.65,39.7z"/>
	<path id="_x33_4" class="st33" d="M139.36,40.95l0.52,1.54l-0.97,0.52c0,0-0.45,0.31-0.89,0.08c-0.45-0.24-0.71-0.94-0.47-1.23
		C138.02,41.3,139.36,40.93,139.36,40.95z"/>
	<path id="_x33_3" class="st34" d="M138.55,42.05c0,0.26-0.2,0.47-0.45,0.47s-0.45-0.21-0.45-0.47c0-0.26,0.2-0.47,0.45-0.47
		S138.55,41.79,138.55,42.05z"/>
	<path id="_x33_2" class="st35" d="M138.12,41.87c0.01,0.08-0.01,0.17-0.05,0.22c-0.05,0.05-0.11,0.06-0.17,0.03
		c-0.06-0.03-0.1-0.1-0.12-0.19c-0.01-0.08,0.01-0.17,0.05-0.22c0.05-0.05,0.11-0.06,0.17-0.03
		C138.07,41.72,138.11,41.79,138.12,41.87z"/>
	<path id="_x33_1" class="st33" d="M160.59,41.16l-0.52,1.38l1.23,0.65c0,0,0.55,0.24,0.89-0.06c0.29-0.26,0.36-0.86,0.13-1.16
		C162.09,41.68,160.57,41.15,160.59,41.16z"/>
	<path id="_x33_0" class="st36" d="M162.06,42.26c0,0.17-0.18,0.31-0.39,0.31s-0.39-0.14-0.39-0.31s0.18-0.31,0.39-0.31
		S162.06,42.09,162.06,42.26L162.06,42.26z"/>
	<path id="_x32_9" class="st35" d="M161.69,42.21c0,0.08-0.04,0.16-0.09,0.2c-0.06,0.04-0.13,0.04-0.18,0
		c-0.06-0.04-0.09-0.12-0.09-0.2c0-0.08,0.04-0.16,0.09-0.2c0.06-0.04,0.13-0.04,0.18,0C161.65,42.06,161.69,42.13,161.69,42.21z"/>
	<path id="_x32_8" class="st37" d="M152.67,39.49c0,0.12-0.1,0.21-0.22,0.21s-0.22-0.1-0.22-0.21c0-0.12,0.1-0.21,0.22-0.21
		S152.67,39.38,152.67,39.49z"/>
	<path id="_x32_7" class="st37" d="M154.02,39.57c0,0.12-0.1,0.21-0.22,0.21c-0.12,0-0.22-0.1-0.22-0.21c0-0.12,0.1-0.21,0.22-0.21
		C153.92,39.36,154.02,39.45,154.02,39.57z"/>
	<path id="_x32_6" class="st37" d="M153.34,40.1c0,0.15-0.13,0.27-0.28,0.27c-0.15,0-0.28-0.12-0.28-0.27
		c0-0.15,0.13-0.27,0.28-0.27C153.21,39.83,153.34,39.95,153.34,40.1z"/>
	<path id="_x32_5" class="st37" d="M153.99,40.98c0,0.12-0.1,0.21-0.22,0.21s-0.22-0.1-0.22-0.21c0-0.12,0.1-0.21,0.22-0.21
		S153.99,40.86,153.99,40.98z"/>
	<path id="_x32_4" class="st37" d="M152.69,40.81c0,0.12-0.1,0.21-0.22,0.21c-0.12,0-0.22-0.1-0.22-0.21c0-0.12,0.1-0.21,0.22-0.21
		C152.59,40.59,152.69,40.69,152.69,40.81z"/>
	<path id="_x32_3" class="st37" d="M146.17,39.72c0.03,0.11-0.05,0.23-0.17,0.26c-0.12,0.03-0.24-0.04-0.27-0.16
		c-0.03-0.11,0.05-0.23,0.17-0.26C146.02,39.54,146.14,39.61,146.17,39.72z"/>
	<path id="_x32_2" class="st37" d="M147.5,39.5c0.03,0.11-0.05,0.23-0.17,0.26c-0.12,0.03-0.24-0.04-0.27-0.16
		c-0.03-0.11,0.05-0.23,0.17-0.26C147.35,39.31,147.47,39.38,147.5,39.5z"/>
	<path id="_x32_1" class="st37" d="M146.95,40.16c0.03,0.14-0.06,0.29-0.21,0.32c-0.15,0.03-0.3-0.05-0.33-0.2
		c-0.03-0.14,0.06-0.29,0.21-0.32C146.77,39.93,146.92,40.02,146.95,40.16z"/>
	<path id="_x32_0" class="st37" d="M147.78,40.87c0.03,0.11-0.05,0.23-0.17,0.26c-0.12,0.03-0.24-0.04-0.27-0.16
		c-0.03-0.11,0.05-0.23,0.17-0.26C147.64,40.68,147.75,40.76,147.78,40.87z"/>
	<path id="_x31_9" class="st37" d="M146.48,41c0.03,0.11-0.05,0.23-0.17,0.26c-0.12,0.03-0.24-0.04-0.27-0.16
		c-0.03-0.11,0.05-0.23,0.17-0.26C146.33,40.81,146.45,40.89,146.48,41z"/>
	<path id="_x31_8" class="st37" d="M140.48,40.95c0.04,0.11-0.02,0.23-0.13,0.28s-0.24-0.01-0.28-0.12
		c-0.04-0.11,0.02-0.23,0.13-0.28C140.31,40.79,140.44,40.84,140.48,40.95z"/>
	<path id="_x31_7" class="st37" d="M141.77,40.53c0.04,0.11-0.02,0.23-0.13,0.28c-0.11,0.04-0.24-0.01-0.28-0.12
		c-0.04-0.11,0.02-0.23,0.13-0.28C141.6,40.37,141.72,40.43,141.77,40.53z"/>
	<path id="_x31_6" class="st37" d="M141.32,41.27c0.05,0.14-0.02,0.29-0.16,0.35s-0.3-0.01-0.36-0.15
		c-0.05-0.14,0.02-0.29,0.16-0.35C141.11,41.07,141.27,41.13,141.32,41.27z"/>
	<path id="_x31_5" class="st37" d="M142.24,41.86c0.04,0.11-0.02,0.23-0.13,0.28c-0.11,0.04-0.24-0.01-0.28-0.12
		c-0.04-0.11,0.02-0.23,0.13-0.28C142.07,41.69,142.2,41.75,142.24,41.86z"/>
	<path id="_x31_4" class="st37" d="M140.97,42.17c0.04,0.11-0.02,0.23-0.13,0.28c-0.11,0.04-0.24-0.01-0.28-0.12
		c-0.04-0.11,0.02-0.23,0.13-0.28C140.8,42.01,140.93,42.06,140.97,42.17z"/>
	<path id="_x31_3" class="st37" d="M158.53,40.33c-0.03,0.12-0.16,0.2-0.29,0.17c-0.13-0.03-0.21-0.16-0.18-0.28
		c0.03-0.12,0.16-0.2,0.29-0.17C158.48,40.08,158.56,40.21,158.53,40.33z"/>
	<path id="_x31_2" class="st37" d="M159.92,40.76c-0.03,0.12-0.16,0.2-0.29,0.17c-0.13-0.03-0.21-0.16-0.18-0.28
		c0.03-0.12,0.16-0.2,0.29-0.17C159.87,40.51,159.95,40.64,159.92,40.76z"/>
	<path id="_x31_1" class="st37" d="M159.07,41.13c-0.04,0.15-0.2,0.25-0.36,0.21c-0.16-0.04-0.26-0.2-0.22-0.35
		c0.04-0.15,0.2-0.25,0.36-0.21C159.01,40.82,159.11,40.98,159.07,41.13z"/>
	<path id="_x31_0" class="st37" d="M159.52,42.22c-0.03,0.12-0.16,0.2-0.29,0.17c-0.13-0.03-0.21-0.16-0.18-0.28
		c0.03-0.12,0.16-0.2,0.29-0.17C159.47,41.97,159.55,42.1,159.52,42.22z"/>
	<path id="_x39_" class="st37" d="M158.2,41.71c-0.03,0.12-0.16,0.2-0.29,0.17c-0.13-0.03-0.21-0.16-0.18-0.28
		c0.03-0.12,0.16-0.2,0.29-0.17C158.15,41.46,158.23,41.59,158.2,41.71z"/>
	<path id="_x38_" class="st38" d="M161.24,27.79c0,0-0.64,0.6-1.4,0.6s-1.2-0.32-1.44-0.48c-0.24-0.16,0.08-0.64,0.08-0.64"/>
	<path id="_x37_" class="st39" d="M147.78,28.99c0,0-1.16-0.2-1.64-0.36c-0.48-0.16-0.36-0.48-0.92-0.44c-0.56,0.04-1.12,0.44-1,1
		c0.12,0.56,0.52,0.64,0.92,0.52c0.4-0.12,0.28-0.8-0.24-0.76c-0.52,0.04-0.08,0.48-0.08,0.48"/>
	<path id="_x36_" class="st40" d="M139.77,28.11c0,0,0.32,0.48,1.16,0.4c0.84-0.08,1.16-0.52,1.2-0.72c0.04-0.2,0-0.56-0.16-0.72
		c-0.16-0.16-0.72-0.24-0.72-0.24"/>
	<path id="_x35_" class="st41" d="M156,84.5c0.78-0.76,2.03-1.61,2.72-3.45c0.65-1.72,0.96-4.89,1.56-6.49
		c0.77-2.75,2.34-5.43,0.48-5.24c-1.77,0.17-2.34,1.88-3.01,3.13c-0.31,0.47-1.03,1.46-1.16,2.03c-0.03-0.95-0.51-3.73-0.61-6.52
		c-0.09-2.61-0.02-5.32-0.09-6.33c-0.09-1.34-0.08-2.59-0.39-3.58c-0.15-0.46-0.82-0.9-1.17-0.88c-0.71,0.01-1.14,0.63-1.24,1.21
		c-0.07,0.46-0.05,0.29-0.1,0.89c-0.06,0.75,0.01,1.72-0.04,2.57c-0.06,0.92,0.06,1.94,0.01,2.79c-0.1,1.72-0.23,3.3-0.28,3.63
		c0-0.64-0.29-3.66-0.39-6.52c-0.04-1.09-0.06-2.16-0.08-3.16c-0.02-0.81,0.02-1.67-0.07-2.29c-0.15-1.07-0.49-1.56-1.27-1.56
		c-0.52,0-1.27,0.38-1.51,1.57c-0.13,0.64-0.13,1.43-0.11,2.28c0.02,0.8,0.06,1.66,0.05,2.52c-0.05,3.26-0.11,6.72-0.24,7.74
		c-0.02-0.34-0.35-2.04-0.44-4.33c-0.03-0.9-0.08-1.99-0.13-3.03c-0.06-1.24-0.05-2.17-0.08-3c-0.01-0.5-0.21-1.94-1.17-1.85
		c-0.51-0.06-1.04,0.29-1.26,1.65c-0.12,0.76-0.12,2.07-0.14,3.07c-0.04,1.91-0.12,3.59-0.03,5.29c0.06,1.06,0.05,1.88,0.06,2.4
		c0.01,0.14-0.27-0.89-0.41-2.29c-0.14-1.37-0.26-3.12-0.25-2.71c0-0.71-0.03-1.76-0.1-2.63c-0.05-0.68-0.02-1.43-0.76-1.37
		c-0.75,0.06-1.21,0.31-1.36,1.59c-0.1,0.83-0.13,2.62-0.15,3.27c0.08,1.65-0.36,5.51-0.56,6.61c-0.05,0.78-0.36,1.79-0.49,2.87
		c-0.28,2.33-0.01,5.06,0.29,6.46c0.61,2.21,2.21,3.19,2.13,4.69c-0.08,1.5,0,4.13,0,5.32c0,1.18,1.03,1.24,3.15,0.79
		c3.47-0.75,5.37,0.75,8.24-0.35c-0.36-3.27,0.35-5.23,0.33-6.41L156,84.5z"/>
	<path id="_x34_" class="st41" d="M153.97,76.78c0.72-1.98,1.63-2.76,2.5-3.19"/>
	<path id="_x33_" class="st42" d="M146.07,74.73c1.08-0.43,2.2-0.74,3.3-1.11c1.35-0.38,2.65-0.92,4.04-1.14
		c0.67-0.14,1.34-0.27,2.02-0.31"/>
	<path id="_x32_" class="st42" d="M144.14,85.31c0.15-0.1,0.3,0.06,0.44,0.09c0.2,0.06,0.42,0.13,0.63,0.09
		c0.42-0.01,0.84-0.01,1.27,0c0.5-0.02,0.92-0.04,1.32-0.32"/>
	<path id="_x31_" class="st42" d="M150.94,85.37c0.14,0.12,0.31,0.21,0.48,0.28c0.27,0.12,0.56,0.13,2.3-0.01
		c1.08,0.07,2.04-0.86,2.3-1.11"/>
</g>
</svg>
