<?xml version="1.0" encoding="utf-8"?>
<!-- Generator: Adobe Illustrator 24.3.0, SVG Export Plug-In . SVG Version: 6.00 Build 0)  -->
<svg version="1.1" id="Countryflags.com" xmlns="http://www.w3.org/2000/svg" xmlns:xlink="http://www.w3.org/1999/xlink" x="0px"
	 y="0px" viewBox="0 0 300 200" style="enable-background:new 0 0 300 200;" xml:space="preserve">
<style type="text/css">
	.st0{fill:#DC171D;}
	.st1{fill:#FFFFFF;}
	.st2{fill:#012A87;}
	.st3{fill:#F9D90F;}
	.st4{fill:#008830;}
</style>
<g>
	<rect id="_x38_" class="st0" width="300" height="200"/>
	<polygon id="_x37_" class="st1" points="150,56.26 71.9,100 150,143.74 228.1,100 	"/>
	<polygon id="_x36_" class="st2" points="62.67,96 6.67,96 6.67,6.67 146,6.67 146,49.33 	"/>
	<polygon id="_x35_" class="st2" points="237.33,96 293.33,96 293.33,6.67 154,6.67 154,49.33 	"/>
	<polygon id="_x34_" class="st2" points="62.67,104 6.67,104 6.67,193.33 146,193.33 146,150.67 	"/>
	<polygon id="_x33_" class="st2" points="237.33,104 293.33,104 293.33,193.33 154,193.33 154,150.67 	"/>
	<polygon id="_x32_" class="st3" points="150,66.5 152.69,74.78 161.39,74.78 154.35,79.89 157.04,88.17 150,83.05 142.96,88.17 
		145.65,79.89 138.61,74.78 147.31,74.78 	"/>
	<path id="_x31_" class="st4" d="M93.83,112.28c0.9-2.95,2.87-4.26,5.53-3.66c1.65-6.25,9.25-7.36,12.26-4.29l7.42,7.46
		c1.61,0.75,4.07,1.03,5.78,1.03c2.11,0.03,1.87,1,3.64,1.04c4.7,0.09,17.05,0.15,19.28,0c0.92-0.06,21.38-22.62,21.38-22.62
		c1.71-2.1,6.15-2.78,8.57-1.07c2.26,2.14,4.64,2.38,6.31,0.95c1.47-2.18,4.8-2.44,6.9-1.19l23.15,17.94l-31.22,17.47h-65.69
		L93.83,112.28z"/>
</g>
</svg>
