<?xml version="1.0" encoding="utf-8"?>
<!-- Generator: Adobe Illustrator 24.3.0, SVG Export Plug-In . SVG Version: 6.00 Build 0)  -->
<svg version="1.1" id="Countryflags.com" xmlns="http://www.w3.org/2000/svg" xmlns:xlink="http://www.w3.org/1999/xlink" x="0px"
	 y="0px" viewBox="0 0 300 200" style="enable-background:new 0 0 300 200;" xml:space="preserve">
<style type="text/css">
	.st0{fill:#FFFFFF;}
	.st1{fill:#012A87;}
	.st2{fill:#DC171D;}
	.st3{fill:#FFFF00;}
	.st4{fill:#F9D90F;}
	.st5{fill:#62AFE1;}
	.st6{fill:#7E7E7E;}
	.st7{fill:#F9B60F;}
	.st8{fill:#BC715F;}
	.st9{fill:#008830;}
</style>
<g>
	<rect id="_x34_6" class="st0" width="300" height="200"/>
	<rect id="_x34_5" class="st1" width="300" height="200"/>
	<rect id="_x34_4" class="st2" width="300" height="100"/>
	<path id="_x34_3" class="st0" d="M0,0v200l133.33-100L0,0z"/>
	<path id="_x34_2" class="st3" d="M67.34,75.47l0.04-1.55c0,0-0.83-1.32,0.13-2.75c0,0-2.05-1.08-1.57-2.78c0,0-1.85-0.47-1.72-2.51
		c0,0-2-0.14-2.21-1.84c0,0-2,0.33-2.88-1.33c0,0-1.95,0.38-2.5-0.99c0,0-1.9,0.66-3.02-0.95c0,0-2,0.81-2.84-0.71
		c-0.83,1.51-2.83,0.71-2.83,0.71c-1.11,1.6-3.02,0.94-3.02,0.94c-0.53,1.37-2.48,0.98-2.48,0.98c-0.88,1.66-2.88,1.33-2.88,1.33
		c-0.2,1.7-2.19,1.84-2.19,1.84c0.16,2.04-1.69,2.51-1.69,2.51c0.49,1.7-1.56,2.78-1.56,2.78c0.99,1.43,0.17,2.74,0.17,2.74
		l-0.05,1.43L67.34,75.47"/>
	<path id="_x34_1" class="st4" d="M67.34,75.47l0.04-1.55c0,0-0.83-1.32,0.13-2.75c0,0-2.05-1.08-1.57-2.78c0,0-1.85-0.47-1.72-2.51
		c0,0-2-0.14-2.21-1.84c0,0-2,0.33-2.88-1.33c0,0-1.95,0.38-2.5-0.99c0,0-1.9,0.66-3.02-0.95c0,0-2,0.81-2.84-0.71
		c-0.83,1.51-2.83,0.71-2.83,0.71c-1.11,1.6-3.02,0.94-3.02,0.94c-0.53,1.37-2.48,0.98-2.48,0.98c-0.88,1.66-2.88,1.33-2.88,1.33
		c-0.2,1.7-2.19,1.84-2.19,1.84c0.16,2.04-1.69,2.51-1.69,2.51c0.49,1.7-1.56,2.78-1.56,2.78c0.99,1.43,0.17,2.74,0.17,2.74
		l-0.05,1.43L67.34,75.47L67.34,75.47L67.34,75.47z"/>
	<path id="_x34_0" d="M67.35,75.53l-0.04,0l-33.14-0.15l0.05-1.51l0.01-0.01c0.01-0.01,0.79-1.3-0.16-2.68l-0.04-0.06l0.06-0.03
		c0.02-0.01,2-1.08,1.53-2.71l-0.02-0.06l0.06-0.02c0,0,0.46-0.12,0.89-0.48c0.57-0.48,0.83-1.14,0.76-1.97l0-0.06l0.06,0
		c0.02,0,1.95-0.16,2.14-1.78l0.01-0.06l0.06,0.01c0.02,0,1.97,0.3,2.81-1.3l0.02-0.04l0.04,0.01c0.02,0,1.9,0.36,2.41-0.95
		l0.02-0.05l0.05,0.02c0.02,0.01,1.88,0.63,2.95-0.91l0.03-0.04l0.04,0.02c0.02,0.01,1.96,0.77,2.76-0.68l0.05-0.1l0.05,0.1
		c0.8,1.45,2.75,0.69,2.77,0.68l0.04-0.02l0.03,0.04c1.09,1.55,2.94,0.94,2.95,0.93l0.05-0.02l0.02,0.05
		c0.53,1.31,2.42,0.95,2.43,0.95l0.04-0.01l0.02,0.04c0.85,1.6,2.8,1.3,2.82,1.3l0.06-0.01l0.01,0.06c0.08,0.68,0.47,1.19,1.14,1.51
		c0.51,0.24,1,0.28,1.01,0.28l0.06,0l0,0.06c-0.05,0.82,0.21,1.49,0.78,1.97c0.43,0.36,0.88,0.48,0.89,0.48l0.06,0.02L66,68.41
		c-0.46,1.63,1.52,2.7,1.54,2.71l0.06,0.03l-0.04,0.06c-0.93,1.37-0.14,2.67-0.13,2.68l0.01,0.02l-0.04,1.57l-0.05,0L67.35,75.53z
		 M34.29,75.26l32.99,0.15l0.04-1.47c-0.09-0.16-0.76-1.41,0.11-2.74c-0.33-0.19-1.94-1.23-1.56-2.76c-0.66-0.19-1.78-0.94-1.71-2.5
		c-0.33-0.04-1.97-0.32-2.2-1.83c-0.34,0.04-2.05,0.14-2.86-1.33c-0.29,0.05-1.96,0.25-2.5-0.98c-0.32,0.09-1.98,0.48-3.01-0.95
		c-0.3,0.11-2.01,0.64-2.82-0.66c-0.8,1.3-2.51,0.77-2.81,0.66c-1.02,1.42-2.69,1.03-3.01,0.94c-0.52,1.23-2.19,1.02-2.48,0.98
		c-0.81,1.47-2.51,1.37-2.86,1.33c-0.22,1.51-1.85,1.78-2.18,1.82c0.09,1.57-1.02,2.31-1.68,2.5c0.39,1.53-1.22,2.56-1.55,2.76
		c0.89,1.34,0.23,2.59,0.14,2.74L34.29,75.26z"/>
	<path id="_x33_9" class="st2" d="M66.57,73.54c-5.2-0.52-11.19-1.76-15.81,0.85c-3.1-1.83-7.41-1.71-11.09-1.36
		c-2,0.36-4.34,0.36-6.43,0.7l-0.33,0.05c-3.78,0.25-7.22-0.87-10.5-2.34c1.04,5.93,2.2,12,2.77,18.2
		c1.24,9.19-4.35,16.9-2.06,25.98c1.37,4.35,6.16,6.89,10.54,7.39c4.24,0.25,8.64,0.95,12.56,1.8c0.75,0.16,1.63,0.5,2.15,0.72
		c1.08,0.45,1.88,1.12,2.57,1.83c2.37-2.47,5.85-3.16,9.28-3.52c6.18-0.72,13.8-0.33,17.58-5.93v-0.32
		c2.06-3.1,1.78-7.82,0.89-11.33c-0.06-1.22-0.39-2.3-0.56-3.47c-3.78-9.97-0.54-21.18,1.08-31.23c-1.98,1.08-4.2,1.6-6.41,2.14
		c-1.76,0.23-3.72,0.13-5.51,0.03L66.57,73.54 M74.33,102.15L74.33,102.15"/>
	<path id="_x33_8" class="st5" d="M74.33,102.15c-0.02,0.66,0.33,1.17,0.46,1.78c0.72,4.36,1.42,10.13-3.07,12.83
		c-4.96,3.16-11.47,1.8-17.22,3.47c-1.15,0.32-2.73,1.37-3.54,2.12c-0.52-0.34-1.04-0.86-1.71-1.17
		c-4.73-2.51-10.87-1.67-16.21-3.03c-2.68-0.85-5.47-2.93-6.15-5.68c-1.74-7.19,2.43-13.33,1.94-20.46
		c-0.32-5.45-1.24-10.68-2.49-15.79c4.17,1.94,9,2.27,13.69,1.34c3.47-0.49,7.52-0.5,10.77,0.97c1.79-0.77,3.89-1.12,5.83-1.33
		c3.67,0.36,7.62,1.02,11.41,0.99c2.53-0.13,4.82-0.86,7.02-1.83C73.76,84.81,71.26,93.66,74.33,102.15"/>
	<path id="_x33_7" class="st0" d="M66.83,103.84l-0.04-7.94h0.98l-12.14-7.84l-0.02-4.07h1.17l-6.07-4.35l-6.04,4.34h1.17l0.02,4.07
		l-12.08,7.83l0.97,0.01l0.04,7.94L66.83,103.84"/>
	<path id="_x33_6" d="M66.99,104.1l-32.46-0.02l-0.04-7.94l-1.57-0.01l12.68-8.22l-0.02-3.67h-1.71l6.84-4.92l6.88,4.92h-1.72
		l0.02,3.67l12.76,8.24h-1.6l0.04,7.74L66.99,104.1z M35.05,103.56l31.53,0.02l-0.04-7.95h0.36l-11.52-7.44l-0.02-4.47h0.63
		l-5.26-3.77l-5.24,3.77h0.62l0.02,4.47l-11.47,7.44l0.36,0L35.05,103.56z"/>
	<path id="_x33_5" class="st0" d="M70.56,114.27l0,2.49l-39.11-0.04l-0.02-2.47L70.56,114.27"/>
	<path id="_x33_4" d="M70.83,117.01l-39.63-0.04l-0.02-2.99l0.26,0l38.87,0.03l0-0.04l0.3,0.04l-0.02,0.26l0.24,0L70.83,117.01z
		 M31.71,116.45l38.6,0.04l0-1.97L31.7,114.5L31.71,116.45z"/>
	<path id="_x33_3" class="st0" d="M34.05,114.12l-0.03-8.41l1.58,0l-0.09,8.51l0.1-8.44l-2.28-0.07v-1.8l34.96,0.04l0.02,1.79h-2.16
		l0.04,8.52l-0.08-8.52h1.61l0.04,8.42"/>
	<path id="_x33_2" d="M65.93,114.25L65.93,114.25l-0.08-8.78h2.19l-0.01-1.27l-34.44-0.04v1.29l0.17,0v-0.01l2.1,0l0,0.08l0.01,0
		l-0.1,8.69l-0.52-0.01l0.08-8.18l-1.06-0.03l0.03,8.12l-0.52,0l-0.03-8.14l-0.69-0.02v-2.31l35.47,0.04l0.02,2.3h-0.59l0.03,8.16
		l-0.52,0l-0.03-8.16h-1.05l0.04,8.26L65.93,114.25z M64.77,112.32h-5.2l-0.02-6.38l5.2,0.01L64.77,112.32z M60.09,111.81h4.17
		l-0.02-5.34l-4.16,0L60.09,111.81z M41.83,112.31l-5.21-0.01l-0.03-6.38h5.21L41.83,112.31z M37.13,111.78l4.17,0l-0.02-5.35h-4.18
		L37.13,111.78z M63.5,111.08h-2.66l-0.03-3.91h2.67L63.5,111.08z M61.36,110.57h1.63l-0.02-2.88h-1.63L61.36,110.57z M40.55,111.07
		h-2.67l-0.02-3.92h2.67L40.55,111.07z M38.4,110.55h1.63l-0.01-2.89h-1.63L38.4,110.55z M64.48,102.77h-4.95l-0.02-6.38h5.2
		l0.03,6.12l-0.26,0V102.77z M60.04,102.26h4.18l-0.02-5.35h-4.17L60.04,102.26z M56.57,102.77l-4.95-0.01l-0.02-6.38l5.2,0.01
		l0.03,6.12l-0.26,0L56.57,102.77z M52.13,102.24l4.18,0.01l-0.03-5.35l-4.17,0L52.13,102.24z M50.02,102.76h-4.95l-0.02-6.38
		l5.21,0.01l0.02,6.11l-0.26,0V102.76z M45.59,102.24h4.17l-0.02-5.34l-4.17,0L45.59,102.24z M41.53,102.75h-4.95l-0.02-6.37
		l5.2,0.01l0.03,6.11l-0.26,0V102.75z M37.09,102.23h4.18l-0.03-5.33l-4.17-0.01L37.09,102.23z M63.46,101.54h-2.66l-0.02-3.92h2.67
		L63.46,101.54z M61.31,101.03h1.63l0-2.88H61.3L61.31,101.03z M55.55,101.54h-2.66l-0.02-3.66l0.26,0v-0.26h2.41L55.55,101.54z
		 M53.4,101.02h1.63l-0.01-2.89h-1.64L53.4,101.02z M49,101.53l-2.67-0.01l-0.01-3.91h2.66L49,101.53z M46.85,101.01l1.63,0.01
		l-0.01-2.89h-1.63L46.85,101.01z M40.51,101.52l-2.67-0.01l-0.01-3.91h2.66L40.51,101.52z M38.36,101l1.63,0l-0.01-2.88h-1.63
		L38.36,101z"/>
	<path id="_x33_1" class="st0" d="M57.73,100.72l0.05,13.52l-13.58-0.02l-0.05-13.51L57.73,100.72"/>
	<path id="_x33_0" d="M58.04,114.5l-14.1-0.02l-0.05-14.03l14.1,0.01l0,0.26L58.04,114.5z M56.39,113.98l1.14,0l-0.03-9.13l-1.14,0
		L56.39,113.98z M46.03,113.96l9.84,0.02l-0.04-9.13l-9.84-0.01L46.03,113.96z M44.46,113.96l1.06,0l-0.04-9.12l-1.05,0
		L44.46,113.96z M44.42,104.32l13.06,0.01l-0.01-3.35l-13.06-0.01L44.42,104.32z M62.69,95.22l-24.62-0.02l8.29-6.09l8.76,0.01
		l7.72,5.63l-0.15,0.21L62.69,95.22z M39.65,94.68L61.9,94.7l-6.94-5.07l-8.43-0.01L39.65,94.68z M54.61,88.41l-7.75-0.01
		l-0.02-3.92l7.75,0.01L54.61,88.41z M47.38,87.89l6.71,0L54.08,85l-6.71,0L47.38,87.89z"/>
	<path id="_x32_9" d="M54.61,88.41l-7.75-0.01l-0.02-3.92l7.75,0.01L54.61,88.41z M47.38,87.89l6.71,0L54.08,85l-6.71,0L47.38,87.89
		z"/>
	<path id="_x32_8" d="M52.66,87.54h-3.84l-0.01-2.22h3.84L52.66,87.54z M49.34,87.02h2.8l-0.01-1.18h-2.8L49.34,87.02z M55.55,83.96
		l-9.64-0.01l4.65-3.3l0.15,0.21l0.15-0.21L55.55,83.96z M47.53,83.43l6.39,0.01l-3.21-2.27L47.53,83.43z"/>
	<path id="_x32_7" class="st0" d="M66.97,78.93c1.14-0.03,1.44,4.7,1.44,7.05c0.98,0.28,3.16,1.64,4.12,2.88l-11.03-0.02
		c0.95-1.22,3.11-2.59,4.08-2.87C65.57,83.63,65.81,78.9,66.97,78.93"/>
	<path id="_x32_6" d="M50.39,103.7l-1.81-0.02l0.39-0.72c-0.12-0.26-0.33-0.86,0-1.36l-0.42-0.76h1.86L50,101.62
		c0.16,0.3,0.29,0.81,0,1.34L50.39,103.7z M49.45,103.18l0.08,0l-0.04-0.08L49.45,103.18z M49.49,101.79l-0.02,0.02
		c-0.32,0.34-0.06,0.89,0,1.01l0.01-0.01C49.85,102.27,49.51,101.81,49.49,101.79z M49.44,101.35l0.06,0.11l0.06-0.11H49.44z
		 M57.26,103.7h-1.81l0.4-0.73c-0.12-0.27-0.32-0.87,0.01-1.36l-0.42-0.76l1.86-0.01l-0.43,0.78c0.16,0.3,0.29,0.8,0.01,1.33
		L57.26,103.7z M56.33,103.18h0.1l-0.05-0.09L56.33,103.18z M56.38,101.8l-0.02,0.02c-0.33,0.34-0.06,0.91,0,1.01l0.02-0.03
		C56.73,102.28,56.42,101.85,56.38,101.8z M56.32,101.36l0.06,0.1l0.06-0.11L56.32,101.36z M55.08,103.7h-1.81l0.39-0.73
		c-0.12-0.26-0.32-0.87,0.02-1.37l-0.43-0.77h1.86l-0.43,0.78c0.16,0.29,0.29,0.8,0,1.33L55.08,103.7z M54.14,103.18h0.09
		l-0.05-0.09L54.14,103.18z M54.19,101.8l-0.01,0.02c-0.33,0.33-0.08,0.88-0.01,1l0.02-0.02C54.52,102.29,54.24,101.88,54.19,101.8z
		 M54.13,101.36l0.06,0.1l0.06-0.1H54.13z M52.89,103.7h-1.83l0.4-0.73c-0.12-0.27-0.32-0.87,0.01-1.36l-0.21-0.38l0.22-0.12v-0.26
		h1.43l-0.43,0.78c0.16,0.29,0.28,0.8,0,1.33L52.89,103.7z M51.94,103.18h0.09l-0.04-0.08l0,0L51.94,103.18z M51.99,101.8
		l-0.02,0.02c-0.32,0.33-0.08,0.87-0.01,1l0.01-0.02C52.32,102.29,52.03,101.86,51.99,101.8z M51.93,101.36l0.06,0.11l0.06-0.11
		H51.93z M48.19,103.69h-1.82l0.4-0.73c-0.12-0.27-0.32-0.86,0.01-1.36l-0.21-0.38l0.23-0.12v-0.26h1.42l-0.42,0.78
		c0.16,0.29,0.28,0.8,0,1.34L48.19,103.69z M47.25,103.17h0.08l-0.04-0.08L47.25,103.17z M47.3,101.78l-0.02,0.02
		c-0.32,0.34-0.06,0.9,0,1.01l0.01-0.02C47.65,102.25,47.32,101.8,47.3,101.78L47.3,101.78z M47.24,101.35l0.06,0.11l0.06-0.11
		H47.24z M46.18,103.69h-1.82l0.41-0.73c-0.12-0.27-0.33-0.87,0-1.36l-0.42-0.76h1.86l-0.42,0.78c0.16,0.3,0.29,0.81,0,1.33
		L46.18,103.69z M45.24,103.17h0.08l-0.04-0.08L45.24,103.17z M45.28,101.79l-0.02,0.02c-0.33,0.34-0.06,0.9,0,1.01l0.01-0.02
		C45.62,102.29,45.32,101.84,45.28,101.79z M45.23,101.35l0.06,0.11l0.06-0.11H45.23z M73.05,89.12L60.96,89.1l0.32-0.42
		c0.94-1.22,2.98-2.52,4.03-2.9c0.01-1.32,0.11-5.9,1.12-6.89c0.2-0.2,0.41-0.23,0.54-0.23v0c0,0,0,0,0,0
		c0.19,0,0.36,0.08,0.52,0.23c1.05,1.03,1.16,5.75,1.17,6.89c1.07,0.38,3.1,1.67,4.07,2.91L73.05,89.12z M62.06,88.59l9.89,0.01
		c-1.05-1.09-2.81-2.14-3.62-2.37l-0.19-0.05l0-0.2c0-2.85-0.35-6.06-1.01-6.71c-0.09-0.08-0.15-0.08-0.16-0.08l-0.01-0.26
		l-0.01,0.26c-0.03,0-0.09,0.01-0.16,0.08c-0.66,0.65-0.97,3.93-0.97,6.71v0.2l-0.19,0.05C64.84,86.45,63.09,87.53,62.06,88.59z"/>
	<path id="_x32_5" class="st4" d="M51.01,131.57c5.09,0.02,11.34-1.02,14.27-2.54l6.44-0.57l0.13,7.85
		c-5.45,3.01-18.04,3.65-20.81,3.63c-2.77,0.02-15.52-0.63-20.99-3.65l0.07-7.86l6.45,0.58c2.93,1.51,9.38,2.55,14.46,2.55
		L51.01,131.57"/>
	<path id="_x32_4" d="M50.92,140c-2.61,0-15.34-0.59-20.91-3.66l-0.03-0.02l0-0.04l0.07-7.92l0.07,0.01l6.47,0.59
		c2.77,1.43,9.11,2.55,14.42,2.55v0c0.04,0,0.08,0,0.12,0c5.27,0,11.32-1.08,14.12-2.53l0.02-0.01l6.5-0.58l0.13,7.95l-0.03,0.02
		c-5.53,3.05-18.14,3.64-20.73,3.64C51.06,140,51,140,50.92,140z M30.1,136.25c5.56,3.04,18.21,3.63,20.82,3.63
		c0.08,0,0.15,0,0.23,0c2.57,0,15.12-0.59,20.64-3.61l-0.13-7.75l-6.36,0.56c-2.82,1.45-8.89,2.54-14.17,2.54c-0.04,0-0.07,0-0.11,0
		v0v0v0c-5.33,0-11.68-1.12-14.48-2.56l-6.37-0.57L30.1,136.25z M51.01,131.51L51.01,131.51L51.01,131.51z"/>
	<path id="_x32_3" class="st4" d="M13.47,98.07l5.67,1.8l-1.71,9.18l-5.37,0.83C12.06,109.89,11.16,105.07,13.47,98.07"/>
	<path id="_x32_2" d="M12.01,109.96L12,109.9c-0.01-0.05-0.88-4.92,1.41-11.85l0.06,0.01l0.01-0.04l5.72,1.82l-1.73,9.27
		L12.01,109.96z M13.51,98.15c-2.13,6.46-1.49,11.11-1.4,11.67l5.27-0.82l1.7-9.09L13.51,98.15z"/>
	<path id="_x32_1" class="st6" d="M17.43,108.96l-5.36,0.93l3.39-4.83L17.43,108.96"/>
	<path id="_x32_0" class="st7" d="M17.43,108.96l-5.36,0.93l3.39-4.83L17.43,108.96"/>
	<path id="_x31_9" d="M11.93,109.98l3.54-5.03l2.05,4.05L11.93,109.98z M15.45,105.18l-3.25,4.63l5.14-0.9L15.45,105.18z"/>
	<path id="_x31_8" class="st4" d="M10.08,104.69l5.47,0.39c0.12,4.63,0.68,22.3,21.79,23.26l-0.66,6.43
		C10.99,135.04,9.04,113.1,10.08,104.69"/>
	<path id="_x31_7" d="M30.16,136.15l-0.03-0.12l5.49-1.2c-8.43-0.12-14.96-2.7-19.41-7.69c-5.82-6.52-6.97-16.17-6.19-22.47
		l0.01-0.06l0.06,0l5.52,0.4l0,0.05c0.06,2.14,0.21,7.83,3.02,12.98c3.48,6.38,9.78,9.82,18.71,10.22l0.06,0l-0.67,6.55l-0.05,0
		c-0.17,0-0.34,0-0.51,0L30.16,136.15z M10.14,104.75c-0.76,6.27,0.39,15.85,6.16,22.31c4.52,5.06,11.2,7.64,19.85,7.65l0.42-0.09
		l0.02,0.09c0.01,0,0.02,0,0.03,0l0.64-6.31c-8.95-0.42-15.25-3.88-18.75-10.28c-2.8-5.13-2.97-10.79-3.03-12.98L10.14,104.75z"/>
	<path id="_x31_6" class="st3" d="M88.09,98.14l-5.65,1.79l1.79,9.17l5.38,0.86C89.61,109.96,90.48,105.13,88.09,98.14"/>
	<path id="_x31_5" class="st4" d="M88.09,98.14l-5.65,1.79l1.79,9.17l5.38,0.86C89.61,109.96,90.48,105.13,88.09,98.14L88.09,98.14
		L88.09,98.14z"/>
	<path id="_x31_4" d="M89.66,110.03l-0.06-0.01l-5.42-0.87l-0.01-0.04l-1.8-9.22l5.7-1.8l0.01,0.05l0,0v-0.05l0.01,0.05l0.05-0.01
		c2.36,6.93,1.53,11.8,1.52,11.85L89.66,110.03z M84.29,109.04l5.28,0.85c0.09-0.57,0.68-5.21-1.51-11.67l-5.54,1.75L84.29,109.04z"
		/>
	<path id="_x31_3" class="st6" d="M84.24,109l5.38,0.96l-3.44-4.83L84.24,109"/>
	<path id="_x31_2" class="st7" d="M84.24,109l5.38,0.96l-3.44-4.83L84.24,109"/>
	<path id="_x31_1" d="M89.75,110.05l-5.6-1.01l2.02-4.03L89.75,110.05z M84.33,108.95l5.15,0.92l-3.3-4.63L84.33,108.95z"/>
	<path id="_x31_0" class="st4" d="M91.55,104.76l-5.47,0.37c-0.08,4.62-0.48,22.3-21.59,23.24l0.72,6.42
		C90.89,135.1,92.65,113.17,91.55,104.76"/>
	<path id="_x39_" d="M71.74,136.18l-6.03-1.32c-0.17,0-0.34,0-0.52,0l-0.05,0l-0.73-6.54l0.06,0c8.93-0.4,15.2-3.83,18.63-10.21
		c2.77-5.15,2.87-10.84,2.9-12.98l0-0.06l0.06,0l5.47-0.37l0,0.05l0.06,0c0.83,6.3-0.25,15.96-6.02,22.46
		c-4.41,4.97-10.91,7.54-19.32,7.64l5.5,1.21L71.74,136.18z M65.31,134.65l0.42,0.09c8.64,0,15.29-2.56,19.77-7.61
		c5.72-6.45,6.81-16.03,6-22.31l-5.36,0.37c-0.04,2.19-0.16,7.84-2.92,12.98c-3.44,6.4-9.72,9.85-18.66,10.27l0.7,6.31
		c0.01,0,0.02,0,0.03,0L65.31,134.65z"/>
	<path id="_x38_" class="st1" d="M47.59,135.44c-0.14,0.09-0.34,0.12-0.57,0.11L46,135.49l0.09-1.27l1.01,0.05
		c0.2,0.01,0.36,0.05,0.46,0.11c0.2,0.11,0.29,0.3,0.28,0.57C47.82,135.19,47.74,135.35,47.59,135.44 M45.88,137.44l0.1-1.55
		l1.19,0.08c0.38,0.03,0.67-0.07,0.86-0.27c0.2-0.19,0.31-0.44,0.32-0.72c0.02-0.33-0.06-0.6-0.26-0.8
		c-0.19-0.19-0.46-0.29-0.79-0.32l-1.7-0.11l-0.23,3.65L45.88,137.44 M49.57,134.38l1.24,0.01 M49.57,134.38l1.24,0.01
		 M49.57,134.38l1.24,0.01 M49.57,134.38l1.24,0.01 M49.57,134.38l1.24,0.01c0.18,0.02,0.32,0.04,0.43,0.09
		c0.19,0.09,0.28,0.27,0.28,0.53c0,0.25-0.07,0.41-0.21,0.51c-0.13,0.09-0.33,0.13-0.56,0.13l-1.19-0.01L49.57,134.38 M49.55,137.62
		l0.01-1.56l1.17,0.02c0.21,0,0.36,0.02,0.47,0.07c0.17,0.08,0.26,0.25,0.26,0.47l0.03,0.61c0.01,0.15,0.01,0.24,0.02,0.3
		c0.02,0.04,0.02,0.09,0.05,0.12h0.63l-0.01-0.08c-0.07-0.04-0.13-0.11-0.15-0.22c-0.02-0.07-0.03-0.18-0.04-0.31l-0.01-0.49
		c-0.01-0.22-0.05-0.37-0.13-0.46c-0.07-0.1-0.17-0.18-0.33-0.23c0.17-0.09,0.31-0.2,0.4-0.33c0.09-0.14,0.14-0.33,0.14-0.55
		c0-0.42-0.17-0.71-0.52-0.86c-0.19-0.08-0.43-0.13-0.71-0.13l-1.75-0.02l-0.01,3.66h0.5 M53.44,136.85
		c-0.22-0.27-0.34-0.61-0.37-1.02c-0.02-0.51,0.07-0.89,0.31-1.16c0.23-0.28,0.54-0.42,0.93-0.44c0.4-0.02,0.72,0.11,0.97,0.36
		c0.25,0.25,0.39,0.59,0.41,1.01c0.01,0.41-0.06,0.77-0.25,1.09c-0.19,0.32-0.49,0.51-0.95,0.52
		C54.02,137.24,53.67,137.13,53.44,136.85 M52.84,134.55c-0.23,0.36-0.33,0.78-0.31,1.29c0.04,0.55,0.2,1,0.52,1.34
		c0.35,0.34,0.82,0.51,1.4,0.48c0.62-0.03,1.08-0.26,1.4-0.69c0.26-0.39,0.38-0.84,0.35-1.4c-0.04-0.5-0.18-0.9-0.45-1.21
		c-0.34-0.41-0.84-0.59-1.52-0.56C53.61,133.84,53.14,134.07,52.84,134.55 M70.06,129.28c0.35-0.06,0.66-0.04,0.93,0.05
		c0.41,0.13,0.68,0.43,0.86,0.89l-0.5,0.07c-0.11-0.25-0.26-0.42-0.47-0.52c-0.2-0.09-0.46-0.11-0.75-0.07
		c-0.34,0.05-0.62,0.22-0.81,0.5c-0.19,0.29-0.25,0.69-0.16,1.19c0.07,0.41,0.22,0.77,0.47,1c0.23,0.24,0.57,0.32,1.02,0.26
		c0.33-0.05,0.6-0.19,0.79-0.42c0.2-0.22,0.25-0.55,0.19-0.97l-1.18,0.18l-0.06-0.4l1.64-0.25l0.32,1.94L72,132.78l-0.2-0.45
		c-0.14,0.2-0.27,0.36-0.39,0.45c-0.2,0.16-0.47,0.26-0.81,0.31c-0.44,0.07-0.84-0.01-1.21-0.25c-0.4-0.3-0.66-0.74-0.76-1.35
		c-0.11-0.6-0.01-1.12,0.27-1.52C69.15,129.58,69.54,129.35,70.06,129.28 M73.75,129l1.17-0.43c0.16-0.06,0.3-0.08,0.42-0.06
		c0.22,0.02,0.37,0.14,0.46,0.4c0.08,0.22,0.08,0.41-0.01,0.54c-0.1,0.14-0.26,0.24-0.49,0.32l-1.1,0.4L73.75,129 M74.93,132.02
		l-0.57-1.47l1.09-0.39c0.2-0.07,0.35-0.1,0.45-0.09c0.19,0.02,0.34,0.14,0.44,0.36l0.25,0.56c0.05,0.14,0.1,0.22,0.13,0.26
		c0.02,0.05,0.05,0.08,0.08,0.11l0.59-0.22l-0.03-0.08c-0.09,0-0.17-0.05-0.23-0.14c-0.05-0.07-0.09-0.17-0.15-0.28l-0.19-0.46
		c-0.09-0.2-0.18-0.32-0.28-0.4c-0.1-0.06-0.23-0.1-0.39-0.11c0.12-0.14,0.21-0.28,0.24-0.44c0.04-0.17,0.02-0.35-0.06-0.56
		c-0.15-0.39-0.43-0.6-0.81-0.63c-0.2-0.02-0.44,0.03-0.71,0.12l-1.65,0.59l1.33,3.44l0.48-0.18 M79.21,130.21l-2.09-3.05l2.3-1.46
		l0.25,0.37l-1.88,1.2l0.64,0.93l1.74-1.12l0.24,0.36l-1.74,1.12l0.71,1.03l1.91-1.22l0.25,0.36L79.21,130.21 M81.04,124.82
		l0.6-0.66c0.28-0.29,0.57-0.43,0.89-0.39c0.32,0.03,0.65,0.2,1,0.5c0.1,0.07,0.18,0.17,0.27,0.28c0.15,0.2,0.24,0.37,0.3,0.55
		c0.05,0.22,0.04,0.42-0.04,0.61c-0.05,0.09-0.13,0.21-0.25,0.34l-0.6,0.65L81.04,124.82 M84.21,126.25
		c0.43-0.47,0.52-0.97,0.27-1.54c-0.14-0.31-0.37-0.61-0.67-0.87c-0.38-0.34-0.78-0.52-1.21-0.55c-0.47-0.04-0.87,0.13-1.21,0.51
		l-1.02,1.1l2.82,2.46L84.21,126.25 M86.39,123.41l-3.24-1.91l0.26-0.42l3.25,1.89L86.39,123.41 M87.67,121.19l-3.5-1.4l1.03-2.46
		l0.43,0.16l-0.84,2.03l1.05,0.41l0.79-1.87l0.4,0.17l-0.78,1.87l1.18,0.48l0.86-2.05l0.43,0.16L87.67,121.19 M89.28,116.89
		l-3.69-0.81l0.12-0.57l3.4-1.15l-2.99-0.66l0.11-0.45l3.69,0.79l-0.12,0.55l-3.41,1.17l2.99,0.65L89.28,116.89 M88.98,112.21
		l0.05-0.46c0.21,0.01,0.39-0.03,0.53-0.1c0.27-0.14,0.42-0.42,0.46-0.83c0.02-0.19,0.01-0.36-0.04-0.52
		c-0.08-0.3-0.25-0.47-0.53-0.5c-0.2-0.02-0.35,0.03-0.46,0.14c-0.1,0.13-0.2,0.31-0.27,0.57L88.56,111
		c-0.11,0.32-0.21,0.53-0.32,0.66c-0.17,0.23-0.42,0.31-0.73,0.29c-0.34-0.04-0.61-0.17-0.8-0.43c-0.2-0.23-0.28-0.57-0.23-0.98
		c0.03-0.38,0.16-0.7,0.38-0.95c0.21-0.23,0.53-0.35,0.94-0.3l-0.04,0.46c-0.2,0-0.36,0.04-0.48,0.12
		c-0.21,0.12-0.33,0.37-0.37,0.73c-0.03,0.3,0.01,0.5,0.13,0.65c0.11,0.13,0.26,0.21,0.43,0.22c0.18,0.02,0.32-0.04,0.42-0.18
		c0.07-0.1,0.16-0.3,0.27-0.64l0.17-0.51c0.08-0.23,0.18-0.41,0.29-0.54c0.2-0.21,0.47-0.3,0.81-0.28c0.41,0.04,0.7,0.21,0.85,0.52
		c0.15,0.31,0.2,0.66,0.17,1.05c-0.05,0.44-0.19,0.79-0.46,1.03C89.72,112.17,89.39,112.25,88.98,112.21 M12.59,111.99l0.08,0.46
		c-0.2,0.04-0.37,0.12-0.49,0.23c-0.22,0.2-0.29,0.5-0.22,0.92c0.03,0.17,0.1,0.35,0.17,0.48c0.16,0.28,0.38,0.39,0.65,0.35
		c0.2-0.04,0.33-0.11,0.39-0.25c0.06-0.14,0.1-0.35,0.12-0.62l0.02-0.52c0.02-0.32,0.05-0.57,0.12-0.71
		c0.11-0.25,0.32-0.41,0.63-0.46c0.34-0.06,0.63,0.02,0.88,0.21c0.26,0.18,0.43,0.49,0.49,0.89c0.08,0.37,0.04,0.71-0.1,1.01
		c-0.14,0.29-0.41,0.47-0.83,0.55l-0.08-0.46c0.19-0.07,0.34-0.14,0.43-0.23c0.16-0.18,0.21-0.45,0.15-0.81
		c-0.05-0.29-0.15-0.49-0.3-0.58c-0.15-0.11-0.3-0.16-0.46-0.13c-0.18,0.03-0.3,0.13-0.36,0.29c-0.04,0.11-0.06,0.33-0.09,0.68
		l-0.02,0.53c-0.01,0.25-0.05,0.46-0.14,0.6c-0.13,0.26-0.36,0.42-0.69,0.47c-0.42,0.07-0.74-0.02-0.97-0.29
		c-0.23-0.26-0.38-0.57-0.45-0.96c-0.08-0.46-0.02-0.82,0.16-1.11C11.89,112.22,12.18,112.05,12.59,111.99 M12.35,116.82l3.6-1.08
		l0.84,2.54l-0.44,0.14l-0.69-2.08l-1.1,0.33l0.63,1.93l-0.42,0.13l-0.63-1.93l-1.22,0.36l0.7,2.13l-0.43,0.12L12.35,116.82
		 M13.95,121.22l3.31-1.76l0.35,0.62l-2.28,2.41l3.33-0.57l0.34,0.61l-3.31,1.75l-0.23-0.41l1.95-1.03c0.07-0.04,0.18-0.1,0.34-0.19
		c0.16-0.07,0.33-0.17,0.5-0.26l-3.31,0.56l-0.24-0.43l2.26-2.4l-0.11,0.05c-0.07,0.04-0.19,0.1-0.36,0.2
		c-0.16,0.1-0.29,0.16-0.37,0.2l-1.95,1.04L13.95,121.22 M20.13,126.1c-0.17-0.04-0.33-0.13-0.49-0.3l-0.7-0.72l0.94-0.86l0.71,0.72
		c0.14,0.13,0.22,0.26,0.27,0.38c0.07,0.21,0,0.41-0.2,0.6C20.48,126.08,20.3,126.14,20.13,126.1 M17.47,126.44l1.16-1.06l0.82,0.83
		c0.26,0.27,0.53,0.39,0.82,0.39c0.29-0.02,0.54-0.12,0.75-0.33c0.25-0.22,0.36-0.47,0.36-0.75c0-0.27-0.13-0.52-0.35-0.75
		l-1.18-1.2l-2.74,2.52L17.47,126.44 M20.77,129.38l1.99-3.12l2.35,1.43l-0.25,0.37l-1.93-1.16l-0.6,0.94l1.77,1.08l-0.23,0.36
		l-1.78-1.07l-0.68,1.05l1.95,1.17l-0.23,0.37L20.77,129.38 M26.65,128.78l1.19,0.38c0.17,0.05,0.29,0.12,0.37,0.19
		c0.15,0.14,0.19,0.35,0.1,0.6c-0.07,0.22-0.19,0.36-0.36,0.42c-0.16,0.03-0.35,0.03-0.58-0.04l-1.13-0.36L26.65,128.78
		 M25.62,131.84l0.5-1.49l1.11,0.36c0.2,0.05,0.34,0.12,0.41,0.2c0.14,0.12,0.18,0.31,0.11,0.53l-0.17,0.59
		c-0.04,0.14-0.06,0.24-0.07,0.28c0,0.05,0,0.1,0.01,0.13l0.59,0.19l0.04-0.08c-0.06-0.05-0.1-0.14-0.1-0.25
		c0.01-0.07,0.03-0.18,0.07-0.3l0.14-0.47c0.06-0.21,0.08-0.36,0.03-0.47c-0.04-0.12-0.12-0.22-0.24-0.32
		c0.19-0.03,0.35-0.09,0.48-0.19c0.13-0.11,0.24-0.27,0.3-0.48c0.13-0.4,0.06-0.73-0.23-0.98c-0.15-0.13-0.36-0.24-0.63-0.35
		l-1.67-0.51l-1.17,3.47L25.62,131.84 M30.69,68.6L30.69,68.6"/>
	<path id="_x37_" class="st8" d="M30.69,68.6c0.43-1.04,4.42-3.87,17.52-2.63c0,0,2.21,1.35,3.51,1.18c0.74-0.1-0.44,0.05-1.4-0.76
		c-0.99-0.8-1.2-2.45,1.06-2.41c2.24,0.06,10.64,0.53,10.8,1.29c0.15,0.76-4.44,1.08-6.15,1.04c-1.71-0.05-1.52,0.82,0.19,0.76
		c5.33-0.19,11.15-2.07,17.3,2.28c0.73,0.53-1.85,0.61-3.85-0.24c0,0-5.42,0.28-7.77-0.1c0,0-1.8,1.47-4.15,1.32
		c0.31,0.76-0.87,3.6-8.25,1.46c-1.22,0.37-5.66,1.12-5.17-0.2c-1.17,0-3.22,0.38-3.52-0.29c-0.29-0.65,3.61-1.64,4.29-2.35
		c0,0-8.26,0.08-9.82-0.49C35.27,68.45,30.4,69.54,30.69,68.6"/>
	<path id="_x36_" class="st9" d="M33.33,80.16c0.18-0.24,0.25-0.67,0.62-0.66c0.82,0.22,1.37,1.71,2.38,0.74
		c0.36-0.08,0.49,0.41,0.79,0.46c0.19,0.83,0.86-0.17,1.35-0.11c1.07-0.47,2.38-0.59,3.65-0.35c0.04,0.81-0.6,1.71-1.4,2.18
		c0.02,0.82,0.76,1.35,0.75,2.17c-0.13,0.31-0.02,0.79-0.49,0.89c-0.59-0.11-1.18-0.17-1.67-0.5c-0.06-0.06-0.11-0.18-0.23-0.14
		c-0.06,0.28,0.37,0.55,0.54,0.83c-0.3,0.51-0.79,0.04-1.21,0.05c-0.12,0.29-0.01,0.66-0.31,0.85c-0.52-0.02-0.63-0.59-0.95-0.87
		c-0.33,0.36,0.23,0.57,0.31,0.85c-0.2,1.07-0.17,2.12-1.25,2.83l-0.72,0.36c-0.2-0.54-0.07-1.36-0.2-1.92
		c-0.43,0.69-0.76,1.3-1.38,1.88c-0.73-0.24-1.16-1.1-1.32-1.82c-0.31-0.83-0.13-1.83,0.53-2.43c-0.22-0.44-0.99-0.34-1.1-0.96
		c-1.15-0.75-1.78,1.31-2.52,0.24c-0.24-1,0.05-2.24,0.77-2.98c-0.16-0.41-0.69-0.3-1.01-0.54c-0.72-0.61-1.76-1.26-1.71-2.37
		C29.53,78.11,31.89,78.66,33.33,80.16"/>
	<path id="_x35_" class="st4" d="M34.36,80.05c-0.05,0.9,0.61,0.24,1.1,0.79c-0.38-0.15-0.66,0.66-1.03,0.2l-0.23,0.22
		c0.14,0.31,0.4,0.35,0.13,0.69c-0.41,0.16-0.49-0.36-0.68-0.56c-0.03-0.09,0.06-0.26-0.09-0.32c-0.23,0.2-0.47,0.27-0.79,0.23
		c-0.09-0.17-0.26-0.4-0.08-0.54c0.31-0.42,0.8,0.15,1.04-0.14c0.04-0.26-0.19-0.58,0.11-0.76C34.01,79.91,34.27,79.8,34.36,80.05
		 M36.8,80.79L36.8,80.79L36.8,80.79L36.8,80.79L36.8,80.79c0.02,0.17-0.09,0.42,0.14,0.54c0.3-0.16,0.61-0.04,0.78,0.26
		c0,0.16,0.05,0.36-0.16,0.44l-0.46-0.09c0.03-0.09-0.11-0.15-0.17-0.23c-0.2-0.06-0.32,0.1-0.48,0.2c0.11,0.17,0.38,0.27,0.32,0.49
		c-0.27,0.27-0.41-0.23-0.71-0.11c-0.2-0.08,0.07-0.5-0.25-0.63c-0.38,0-0.13,0.63-0.62,0.38c-0.17-0.2-0.35-0.46-0.16-0.68
		c0.2-0.14,0.55-0.1,0.72,0.08C36.06,81.12,36.09,79.84,36.8,80.79 M33.76,82.11c0.2,0.29-0.04,0.68,0.21,0.99
		c0.4-0.74,0.78,0.16,1.26,0.09c0.14,0.18,0.05,0.42,0.08,0.62c-0.59,0.16-1.29,0.34-1.81-0.13l-0.14,0.17
		c0.31,0.29,0.6,0.61,0.35,1.09c-0.44,0.1-1.12,0.11-1.34-0.35c-0.11-0.37,0.27-0.64-0.14-0.94c-0.29,0.36-0.28,0.85-0.89,0.52
		c-0.38-0.21-0.49-0.63-0.3-0.99c0.39-0.62,1.08,0.02,1.5-0.28c0.06-0.53-0.14-0.99,0.35-1.29C33.31,81.53,33.51,81.85,33.76,82.11"
		/>
	<path id="_x34_" class="st0" d="M35.42,82.43c-0.2,0.9-0.88-0.05-1.2-0.08C34.65,81.59,34.92,82.59,35.42,82.43 M37.54,83.41
		L37.54,83.41L37.54,83.41L37.54,83.41L37.54,83.41c-0.47,0.13-0.4-0.46-0.63-0.69l0.18-0.17C37.26,82.77,37.39,83.14,37.54,83.41"
		/>
	<path id="_x33_" class="st4" d="M36.9,83.23c0.14,0.31-0.31,0.56,0.07,0.79c0.12-0.1,0.27-0.24,0.33-0.3
		c0.32,0.1,0.7,0.15,0.93,0.47c0.24,0.67-0.43,0.65-0.81,0.83l-0.38-0.02c0.09-0.19-0.16-0.26-0.23-0.39
		c-0.17-0.04-0.32,0.01-0.42,0.16c0.08,0.42,0.6,0.75,0.07,1.13c-0.45-0.03-1.15,0.14-1.11-0.48c-0.17-0.35,0.46-0.89-0.21-0.92
		c-0.22,0.47-0.46,0.93-1.04,0.48l0.07-0.68c0.55,0.02,1.2,0.11,1.45-0.5c0.16-0.45-0.28-0.86,0.11-1.21
		C36.3,82.49,36.61,82.86,36.9,83.23"/>
	<path id="_x32_" d="M36.5,84.25c0.14,0.34-0.24,0.36-0.42,0.52c-0.24,0.02-0.41-0.08-0.56-0.24c-0.11-0.41,0.19-0.45,0.43-0.61
		C36.21,83.82,36.33,84.13,36.5,84.25"/>
	<path id="_x31_" class="st0" d="M36.17,84.47c-0.06,0.08-0.14,0.05-0.23,0.08l-0.08-0.41C36.03,84.16,36.26,84.21,36.17,84.47"/>
</g>
</svg>
