<?xml version="1.0" encoding="utf-8"?>
<!-- Generator: Adobe Illustrator 24.3.0, SVG Export Plug-In . SVG Version: 6.00 Build 0)  -->
<svg version="1.1" id="Countryflags.com" xmlns="http://www.w3.org/2000/svg" xmlns:xlink="http://www.w3.org/1999/xlink" x="0px"
	 y="0px" viewBox="0 0 300 180" style="enable-background:new 0 0 300 180;" xml:space="preserve">
<style type="text/css">
	.st0{fill:#FFFFFF;}
	.st1{fill:#BF0000;}
</style>
<g>
	<polygon id="_x37_" class="st0" points="0,17.79 0,162.21 120.77,90 	"/>
	<polygon id="_x36_" class="st0" points="300,162.21 300,17.79 179.23,90 	"/>
	<polygon id="_x35_" class="st0" points="28.7,180 271.3,180 150,107.48 	"/>
	<polygon id="_x34_" class="st0" points="271.3,0 28.7,0 150,72.52 	"/>
	<polygon id="_x33_" class="st1" points="150,72.52 28.7,0 0,0 0,17.79 120.77,90 	"/>
	<polygon id="_x32_" class="st1" points="179.23,90 150,107.48 271.3,180 300,180 300,162.21 	"/>
	<polygon id="_x31_" class="st1" points="179.23,90 300,17.79 300,0 271.3,0 150,72.52 120.77,90 0,162.21 0,180 28.7,180 
		150,107.48 	"/>
</g>
</svg>
