<?xml version="1.0" encoding="utf-8"?>
<!-- Generator: Adobe Illustrator 24.2.3, SVG Export Plug-In . SVG Version: 6.00 Build 0)  -->
<svg version="1.1" id="Countryflags.com" xmlns="http://www.w3.org/2000/svg" xmlns:xlink="http://www.w3.org/1999/xlink" x="0px"
	 y="0px" viewBox="0 0 300 175.05" style="enable-background:new 0 0 300 175.05;" xml:space="preserve">
<style type="text/css">
	.st0{fill:#D21034;}
	.st1{fill:#009543;}
	.st2{fill:#FDCE12;}
</style>
<g>
	<rect id="_x35_1" y="0" width="300" height="175.05"/>
	<polygon id="_x35_0" class="st0" points="0,0 300,0 300,71.86 143.33,71.86 	"/>
	<polygon id="_x34_9" class="st1" points="300,103.19 300,175.05 0,175.05 143.33,103.19 	"/>
	<polygon id="_x34_8" class="st2" points="300,82.92 300,92.13 140.58,92.13 0,162.62 0,152.25 129.09,87.53 0,22.8 0,12.44 
		141.95,83.61 	"/>
	<path id="_x34_7" class="st2" d="M38.46,104.1c0,0,17.4-0.16,17.32-21.35c0,0-2.63-15.66-19.46-13.94c0,0-18.38,5.52-9.4,22.33
		c0,0,2.91,5.18,12.12,5.58c0,0,11.28,0.26,13.42-11.6c0,0,2.52,13.11-13.04,15.94c0,0-21.27,0.8-21.65-19.02
		c0,0-1.03-16.77,18.12-20.82c0,0,20.84-3.7,28.09,17.19c0,0,4.54,17.49-7.23,28.16c0,0-7.31,7.28-18.29,7.5V104.1z"/>
	<path id="_x34_6" class="st2" d="M31.4,89.51c0,0-1.46-3.23,0.2-3.93c0,0,0.71-0.22,0.3,3.49L31.4,89.51z"/>
	<path id="_x34_5" class="st2" d="M32.52,88.15c0,0-1.15-3.23,0.16-3.93c0,0,0.56-0.22,0.24,3.49L32.52,88.15z"/>
	<path id="_x34_4" class="st2" d="M33.61,86.87c0,0-0.99-3.29,0.36-3.92c0,0,0.57-0.19,0.06,3.49L33.61,86.87z"/>
	<path id="_x34_3" class="st2" d="M34.65,85.43c0,0-0.73-3.4,0.8-3.85c0,0,0.64-0.12-0.3,3.48L34.65,85.43z"/>
	<path id="_x34_2" class="st2" d="M36.09,83.43c0,0-0.61-2.91,0.76-3.27c0,0,0.57-0.08-0.31,2.96L36.09,83.43z"/>
	<path id="_x34_1" class="st2" d="M37.53,82.15c0,0-0.57-2.69,0.7-3.02c0,0,0.53-0.08-0.28,2.74L37.53,82.15z"/>
	<path id="_x34_0" class="st2" d="M39.13,80.81c0,0-0.58-2.65,0.69-2.96c0,0,0.53-0.08-0.27,2.69L39.13,80.81z"/>
	<path id="_x33_9" class="st2" d="M40.44,79.39c0,0-0.18-2.7,1.12-2.83c0,0,0.53,0-0.67,2.62L40.44,79.39z"/>
	<path id="_x33_8" class="st2" d="M41.73,78.3c0,0,0.37-2.49,1.48-2.48c0,0,0.44,0.06-1.06,2.33L41.73,78.3z"/>
	<path id="_x33_7" class="st2" d="M43.27,77.23c0,0,0.37-2.49,1.48-2.48c0,0,0.44,0.06-1.06,2.33L43.27,77.23z"/>
	<path id="_x33_6" class="st2" d="M44.66,76.38c0,0,0.59-2.23,1.65-2.03c0,0,0.42,0.13-1.23,1.96L44.66,76.38z"/>
	<path id="_x33_5" class="st2" d="M45.6,75.82c0,0,1.05-1.82,1.9-1.5c0,0,0.32,0.17-1.53,1.5L45.6,75.82z"/>
	<path id="_x33_4" class="st2" d="M31.83,89.54c0,0,2.45-1.61,3.02-0.97c0,0,0.28,0.57-2.23,1.31l-1.33,0.36L31.83,89.54z"/>
	<path id="_x33_3" class="st2" d="M32.77,88.15c0,0,2.45-1.61,3.02-0.97c0,0,0.28,0.57-2.23,1.31l-1.33,0.36L32.77,88.15z"/>
	<path id="_x33_2" class="st2" d="M33.64,86.77c0,0,2.22-1.91,2.87-1.35c0,0,0.35,0.53-2.04,1.59l-1.27,0.53L33.64,86.77z"/>
	<path id="_x33_1" class="st2" d="M35.28,84.94c0,0,2.38-1.71,2.98-1.09c0,0,0.3,0.56-2.18,1.4l-1.31,0.41L35.28,84.94z"/>
	<path id="_x33_0" class="st2" d="M36.78,83.07c0,0,2.5-1.54,3.05-0.88c0,0,0.26,0.58-2.27,1.24l-1.34,0.32L36.78,83.07z"/>
	<path id="_x32_9" class="st2" d="M38.58,81.29c0,0,2.56-1.43,3.08-0.75c0,0,0.23,0.59-2.32,1.15L38,81.95L38.58,81.29z"/>
	<path id="_x32_8" class="st2" d="M40.52,79.52c0,0,2.53-0.97,2.93-0.29c0,0,0.14,0.57-2.27,0.75l-1.28,0.07L40.52,79.52z"/>
	<path id="_x32_7" class="st2" d="M41.92,78.31c0,0,2.5-0.81,2.91-0.19c0,0,0.15,0.51-2.25,0.62l-1.27,0.03L41.92,78.31z"/>
	<path id="_x32_6" class="st2" d="M43.39,77.24c0,0,2.46-0.63,2.88-0.08c0,0,0.17,0.45-2.21,0.47l-1.26-0.01L43.39,77.24z"/>
	<path id="_x32_5" class="st2" d="M45.19,76.05c0,0,2.37-0.9,2.86-0.4c0,0,0.22,0.42-2.15,0.71l-1.25,0.13L45.19,76.05z"/>
	<path id="_x32_4" class="st2" d="M30.33,91.16c0,0,5.34-10.07,15.71-15.56c0,0-11.25,7.13-15.23,16.06L30.33,91.16z"/>
	<path id="_x32_3" class="st2" d="M46.98,89.51c0,0,1.46-3.23-0.2-3.93c0,0-0.71-0.22-0.3,3.49L46.98,89.51z"/>
	<path id="_x32_2" class="st2" d="M45.86,88.15c0,0,1.15-3.23-0.16-3.93c0,0-0.56-0.22-0.24,3.49L45.86,88.15z"/>
	<path id="_x32_1" class="st2" d="M44.77,86.87c0,0,0.99-3.29-0.36-3.92c0,0-0.57-0.19-0.06,3.49L44.77,86.87z"/>
	<path id="_x32_0" class="st2" d="M43.73,85.43c0,0,0.73-3.4-0.8-3.85c0,0-0.64-0.12,0.3,3.48L43.73,85.43z"/>
	<path id="_x31_9" class="st2" d="M42.29,83.43c0,0,0.61-2.91-0.76-3.27c0,0-0.57-0.08,0.31,2.96L42.29,83.43z"/>
	<path id="_x31_8" class="st2" d="M40.84,82.15c0,0,0.57-2.69-0.7-3.02c0,0-0.53-0.08,0.28,2.74L40.84,82.15z"/>
	<path id="_x31_7" class="st2" d="M39.24,80.81c0,0,0.58-2.65-0.69-2.96c0,0-0.53-0.08,0.27,2.69L39.24,80.81z"/>
	<path id="_x31_6" class="st2" d="M37.94,79.39c0,0,0.18-2.7-1.12-2.83c0,0-0.53,0,0.67,2.62L37.94,79.39z"/>
	<path id="_x31_5" class="st2" d="M36.65,78.3c0,0-0.37-2.49-1.48-2.48c0,0-0.44,0.06,1.06,2.33L36.65,78.3z"/>
	<path id="_x31_4" class="st2" d="M35.11,77.23c0,0-0.37-2.49-1.48-2.48c0,0-0.44,0.06,1.06,2.33L35.11,77.23z"/>
	<path id="_x31_3_1_" class="st2" d="M33.72,76.38c0,0-0.59-2.23-1.65-2.03c0,0-0.42,0.13,1.23,1.96L33.72,76.38z"/>
	<path id="_x31_2_1_" class="st2" d="M32.78,75.82c0,0-1.05-1.82-1.9-1.5c0,0-0.32,0.17,1.53,1.5L32.78,75.82z"/>
	<path id="_x31_1_1_" class="st2" d="M46.55,89.54c0,0-2.45-1.61-3.02-0.97c0,0-0.28,0.57,2.23,1.31l1.33,0.36L46.55,89.54z"/>
	<path id="_x31_0_1_" class="st2" d="M45.6,88.15c0,0-2.45-1.61-3.02-0.97c0,0-0.28,0.57,2.23,1.31l1.33,0.36L45.6,88.15z"/>
	<path id="_x39__1_" class="st2" d="M44.74,86.77c0,0-2.22-1.91-2.87-1.35c0,0-0.35,0.53,2.04,1.59l1.27,0.53L44.74,86.77z"/>
	<path id="_x38__1_" class="st2" d="M43.1,84.94c0,0-2.38-1.71-2.98-1.09c0,0-0.3,0.56,2.18,1.4l1.31,0.41L43.1,84.94z"/>
	<path id="_x37__1_" class="st2" d="M41.6,83.07c0,0-2.5-1.54-3.05-0.88c0,0-0.26,0.58,2.27,1.24l1.34,0.32L41.6,83.07z"/>
	<path id="_x36__1_" class="st2" d="M39.8,81.29c0,0-2.56-1.43-3.08-0.75c0,0-0.23,0.59,2.32,1.15l1.35,0.27L39.8,81.29z"/>
	<path id="_x35__1_" class="st2" d="M37.85,79.52c0,0-2.53-0.97-2.93-0.29c0,0-0.14,0.57,2.27,0.75l1.28,0.07L37.85,79.52z"/>
	<path id="_x34__1_" class="st2" d="M36.46,78.31c0,0-2.5-0.81-2.91-0.19c0,0-0.15,0.51,2.25,0.62l1.27,0.03L36.46,78.31z"/>
	<path id="_x33__1_" class="st2" d="M34.99,77.24c0,0-2.46-0.63-2.88-0.08c0,0-0.17,0.45,2.21,0.47l1.26-0.01L34.99,77.24z"/>
	<path id="_x32_" class="st2" d="M33.19,76.05c0,0-2.37-0.9-2.86-0.4c0,0-0.22,0.42,2.15,0.71l1.25,0.13L33.19,76.05z"/>
	<path id="_x31__1_" class="st2" d="M48.05,91.16c0,0-5.34-10.07-15.71-15.56c0,0,11.25,7.13,15.23,16.06L48.05,91.16z"/>
</g>
</svg>
