<?xml version="1.0" encoding="utf-8"?>
<!-- Generator: Adobe Illustrator 24.3.0, SVG Export Plug-In . SVG Version: 6.00 Build 0)  -->
<svg version="1.1" id="Countryflags.com" xmlns="http://www.w3.org/2000/svg" xmlns:xlink="http://www.w3.org/1999/xlink" x="0px"
	 y="0px" viewBox="0 0 300 178.06" style="enable-background:new 0 0 300 178.06;" xml:space="preserve">
<style type="text/css">
	.st0{fill:#00AB39;}
	.st1{fill:#FFFFFF;}
	.st2{fill:#D21034;}
</style>
<g>
	<rect id="_x38_1" class="st0" width="300" height="178.06"/>
	<rect id="_x38_0" class="st1" width="300" height="87.95"/>
	<path id="_x37_9" class="st2" d="M92.91,37.05l1.85,5.88c0,0-9.95,5.97-21.48,2.19c0,0-17.26-0.33-21.3-0.6h-1.57l-2.6-6.16
		l1.96,0.9C49.78,39.25,73.05,41.23,92.91,37.05z"/>
	<path id="_x37_8" d="M81.18,46.68c-2.72,0-5.39-0.42-7.93-1.25c-0.94-0.02-17.36-0.3-21.27-0.56l-1.56,0
		c-0.11,0-0.21-0.07-0.25-0.17l-2.6-6.21c-0.04-0.1-0.02-0.22,0.06-0.3c0.08-0.08,0.2-0.1,0.3-0.05l1.91,0.82
		c0.54,0.04,5.85,0.42,13.23,0.42c0,0,0,0,0,0c7.78,0,19.27-0.43,29.78-2.64c0.14-0.03,0.27,0.07,0.31,0.2l1.85,5.89
		c0.04,0.12-0.01,0.25-0.12,0.32C94.84,43.19,88.99,46.68,81.18,46.68z M50.6,44.24h1.39c4.01,0.27,21.13,0.6,21.3,0.6
		c0.03,0,0.05,0.03,0.08,0.04c2.5,0.82,5.12,1.25,7.8,1.25c6.89,0,12.23-2.76,13.27-3.33l-1.72-5.47
		c-10.49,2.18-21.9,2.61-29.65,2.61c0,0,0,0,0,0c-7.78,0-13.26-0.42-13.32-0.42c-0.03,0-0.06,0.01-0.09,0l-1.33-0.63L50.6,44.24z"/>
	<path id="_x37_7" class="st2" d="M253.82,69.9c-2.23-6.95-9.51-9.78-9.51-9.78c-8.84-3.3-14.5-1.55-14.5-1.55
		c-9.64,2.7-10.06,9.99-10.06,9.99c-0.54,8.5,7.27,10.67,7.27,10.67c9.09,2.9,15.78-1.43,15.78-1.43s0.6-1.32,0.14-3.51
		c-0.31-1.49-0.58-2.09-1.52-3.58c0.85,1.19,1.42,2.56,1.57,3.97c0.67,6.2-4.32,8.23-4.32,8.23c-2.26,1.26-4.84,1.75-7.37,2.06
		c-2.32,0.29-4.66,0.32-6.99,0.28c-2.19-0.04-4.41-0.05-6.55-0.56c-1.77-0.42-3.45-1.15-5.23-1.55c-2.45-0.55-4.97-0.78-7.47-0.97
		c-1.07-0.08-2.13-0.14-3.2-0.19c-2.68-0.12-5.37-0.12-8.06-0.11c-0.15,0-1.45-0.11-1.53,0.03c7.28-11.74,19.83-7.55,19.83-7.55
		c-7.28-6.88-3.64-15.65-3.64-15.65c4.99-12.68,20.37-16.73,20.37-16.73c-2.51-0.66-6.21-2.14-7.36-4.69
		c-2.41-5.35,2.83-10.19,6.21-13.54c3.23-3.2,6.85-6.06,10.6-8.62c-2,0.81-4,1.6-6.01,2.38c-2.02,0.79-4.05,1.58-6.08,2.36
		c-7.08,2.73-14.22,5.36-21.22,8.28c-4.04,1.69-9.93,2.23-11.75-2.9c-2.29-6.47,3.51-14.91,3.51-14.91
		c-4.77,2.41-9.43,5.02-13.99,7.8c-7.41,4.51-14.61,9.35-21.62,14.46c-4.78,3.48-9.34,7.24-13.98,10.88
		c-4.04,3.17-8.34,6.37-9.19,11.8c-0.15,0.95-0.13,1.94-0.14,2.89c-0.06,4.52,0.73,9.13-0.98,13.46c-0.5,1.28-1.37,2.55-2.66,3.1
		c-1.67,0.7-3.66,0.81-5.42,1.16c-3.91,0.77-7.81,1.64-11.7,2.52c-0.22-1.57-1.48-2.86-1.56-4.45c-0.05-0.94,0.38-1.94,1.15-2.49
		c0.42-0.3,1.09-0.51,1.59-0.6c1.24-0.23,2.97,0.28,4.01,1.01c0.07-0.91-0.08-1.87-0.32-2.75c-0.54-1.96-2.8-2.24-4.37-2.97
		c-0.62-0.28-1.25-0.72-1.75-1.18c-0.86-0.77-1.05-1.99-1.06-3.08c-0.01-0.82-0.03-1.93,0.7-2.5c1.75-1.37,4.93,0.43,6.44,1.46
		c0.61,0.42,1.18,0.88,1.77,1.33c0.02,0.02,0.69,0.48,0.7,0.45c-0.01-0.28-0.61-3.51-0.61-3.51c-0.48-2.15-2.01-4.05-4.12-4.75
		c-0.79-0.26-1.7-0.64-2.24-1.29c-0.6-0.72-0.81-1.91-0.78-2.82c0.03-1.17,0.66-2.24,1.8-2.62c1.47-0.49,3.12,0.2,4.47,0.74
		c0.91,0.36,1.82,0.74,2.7,1.16c0.03-0.72-0.04-1.5-0.2-2.2c-0.43-1.98-1.93-4.13-3.83-4.94c-1.03-0.45-2.38-0.36-3.06-1.41
		c-0.49-0.76-0.16-1.86,0.62-2.32c0.98-0.58,2.58-0.5,3.69-0.49c0.76,0.01,1.52,0.09,2.27,0.21c-1.62-3.78-7.15-5.53-7.15-5.53
		c-0.84-1.48-1.67-2.95-2.51-4.43c-0.76-1.33-0.81-2.51,0.18-3.72c0.43-0.52,0.91-0.99,1.44-1.42c1.86-1.52,4.09-2.68,6.26-3.68
		c0.22-0.1,0.85-0.55,1.1-0.51l-2.97-0.4c0.02-0.26,0.04-0.52,0.06-0.79c0.16-2.14,0.38-4.29,0.46-6.43
		c-0.41,0.49-0.82,0.91-1.37,1.26c-1.79,1.14-4.09,1.67-6.16,2.04c-1.07,0.27-2.14,0.53-3.19,0.84c-1.36,0.39-2.73,0.83-3.98,1.51
		c-0.61,0.33-1.21,0.71-1.73,1.17c-0.1,0.09-0.89,1.07-0.95,1.06c-0.74-0.06-1.49-0.11-2.23-0.16c-2.03-0.13-4.06-0.25-6.09-0.36
		c-2.23-0.12-4.46-0.24-6.69-0.36c-1.63-0.09-3.37,0-4.97,0.28c-2.07,0.37-4.06,1.3-5.28,3.06c-0.04,0.06-1.07,2.12-0.77,2.12
		c-21.18-0.13-25.63,8.9-25.63,8.9c2.83-1.08,11.33-1.08,11.33-1.08c8.23,0.4,8.23,4.86,8.23,4.86c4.28,0.61,9.61-4.05,9.61-4.05
		c2.02-0.05,4.09,0.49,5.94,1.27c0.62,0.26,1.24,0.63,1.77,1.05c1.94,1.54,3.02,4.12,3.8,6.4c0.01,0.04,0.24,0.86,0.27,0.86
		c-0.49-0.01-0.98,0.01-1.46,0c-0.69,0-1.38-0.13-2.07-0.01c-0.63,0.11-1.21,0.38-1.78,0.68c-1.17,0.62-2.41,1.07-3.64,1.54
		c-1.13,0.43-2.29,0.79-3.49,0.88c-0.69,0.05-6.16,0.03-8.14-0.04c0.34,4.59,2.27,6.46,2.27,6.46c-0.94,5.46,1.62,5.8,1.62,5.8
		l2.9-8.43l1.96,4.52c2.77-9.04,9.11-8.36,9.11-8.36c0.13,1.28,1.35,3.64,1.35,3.64c-5.46,2.23-3.84,7.63-3.84,7.63
		c-4.65,2.43-3.51,7.68-3.51,7.68c-5.26,3.1-4.05,8.7-4.05,8.7c-4.11,1.21-3.17,10.59-3.17,10.59c-6.61,7.96,0.81,13.49,0.81,13.49
		c-2.5,1.21-2.63,3.78-2.63,3.78c-2.43-1.01-3.24,1.01-3.24,1.01c-2.63-3.71-6.07-2.02-6.07-2.02c-1.96-4.45-6.14-4.05-6.14-4.05
		c-0.34-5.06-4.25-5.73-4.25-5.73c-0.07-8.16-3.91-14.3-3.91-14.3c-0.74-2.56,0.94-3.37,0.94-3.37c1.62-0.67,3.57-2.43,3.57-2.43
		c1.69-1.69,1.08-4.05,1.08-4.05c-0.47-1.48-3.44-2.43-3.44-2.43c-1.55-0.81-3.37,2.77-3.37,2.76c-0.3-1.05-0.05-1.72,0.39-2.67
		c0.4-0.86,0.82-1.9,0.89-2.86c0.27-3.51-1.01-3.98-1.01-3.98c-2.56-0.67-4.59,1.49-4.59,1.49c-2.83,4.93-0.91,13.03-0.91,13.03
		l-1.39-4.05c-1.8-4.63-2.92-6.38-2.92-6.38c-1.1-1.28-2.42,0.24-3.47,0.78c-0.21,0.11-0.44,0.26-0.66,0.35
		c-0.33,0.14-0.79,0.06-1.09,0.26c-0.24,0.15-0.41,0.38-0.54,0.63c-0.79,1.51,0.1,3.05,1.26,4.05c-0.18,5.53,4.99,6.92,4.99,6.92
		c-0.1,1.05-0.21,2.11-0.31,3.16c-0.09,0.96-0.19,1.91-0.28,2.87c-0.17,1.68-0.33,3.36-0.5,5.04c-0.02,0.24-0.21,3.48-0.35,3.5
		c-1.3,0.18-1.89,1.98-1.89,1.98c-0.26,1.02-0.95,1.95-1.65,2.73c-0.71,0.79-1.51,1.33-2.32,2.01c-0.41,0.35-0.52,0.62-0.44,1.11
		c0.09,0.59,0.77,0.74,1.16,1.08c0.53,0.47,0.79,1.19,1.26,1.72c0.73,0.82,1.77,1.37,2.76,0.61c0.89-0.69,1.35-1.97,1.54-3.04
		c0.09-0.5,0.11-1.02,0.26-1.51c0.17-0.54,0.46-0.82,0.86-1.19c0.99-0.91,1.52-2.37,1.97-3.6c0.28-0.75,0.55-1.5,0.76-2.27
		c0.22,5.31,4.23,11.74,4.23,11.74c1.63,2.78,3.85,5.16,6.26,7.27c0.84,0.73,1.65,1.5,2.43,2.29c0.75,0.76,1.47,1.54,2.18,2.34
		c1.24,1.41,2.41,2.87,3.56,4.36c1.1,1.43,2.28,2.82,3.25,4.35c1.74,2.74,2.73,5.82,3.05,9.05c0.11,1.1,0.16,2.21,0.11,3.31
		c-0.01,0.22,0.04,1.17-0.15,1.33c4.36-3.73,6.3-11.29,6.3-11.29c2.11-0.31,9.35-1.71,9.35-1.71c0.81,0.36,5.08,0.27,5.08,0.27
		c-1.75,1.17-1.17,4.54-1.17,4.54c-5.17,2.52-2.56,6.39-2.56,6.39c-4.77,2.29-3.91,8.23-3.91,8.23c-3.64,6.83-11.24,7.24-11.24,7.24
		c-4.09,0.18-7.51-1.98-7.51-1.98c-1.79-1.24-4.36-2.5-6.49-1.26c-0.81,0.47-1.25,1.16-1.83,1.84c-1.44,1.71,0.36,2.97,0.36,2.97
		c-2.11,1.12-2.02,3.64-2.02,3.64c0.05,2.29,1.89,2.11,1.89,2.11c-0.63,2.92,0.81,4.9,0.81,4.9c1.44,2.07,4.32,1.93,4.32,1.93
		c0.51,0.02,1.05-0.03,1.55-0.12c1.84-0.32,3.57-1.24,5.09-2.29c0.75-0.52,1.42-1.17,2.22-1.61c0.81-0.44,1.84-0.55,2.74-0.39
		c0.93,0.16,1.84,0.41,2.77,0.54c0.53,0.07,1.07,0.16,1.61,0.13c0.9-0.04,1.65-0.5,2.38-0.97c0.69-0.45,1.33-1.03,2.13-1.29
		c0.88-0.29,2.04-0.17,2.91,0.13c1.77,0.61,3.14,1.89,4.71,2.85c0.85,0.52,1.73,0.86,2.71,1.03c1.13,0.2,2.66,0.53,3.74-0.04
		c0.43-0.23,0.87-0.83,0.91-1.34c0.01-0.19,0.03-0.38,0.04-0.58c0.05-0.73,0.08-1.47,0.14-2.2c0.05-0.56,0.13-1.22-0.22-1.71
		c-0.57-0.78-2-0.61-2.83-0.61c-0.74,0-1.47,0.06-2.21-0.01c-0.73-0.07-1.43-0.27-2.12-0.49c-0.74-0.25-1.5-0.48-2.21-0.82
		c0.49-2.47,1.53-4.95,1.53-4.95c1.53-3.73,5.49-8.23,5.49-8.23c5.35-5.04,12.72-13.85,12.72-13.85c-0.52,1.97,0.06,4.11,0.87,5.92
		c0.53,1.19,1.18,2.32,1.77,3.48c0.31,0.61,0.61,1.23,0.9,1.86c0.15,0.32,0.29,0.64,0.43,0.96c0.05,0.1,0.45,0.85,0.4,0.92
		c2.88-3.78,3.82-9.76,3.82-9.76c1.48,0.49,5.94-3.82,5.94-3.82c1.53,1.44,5.53,0.04,5.53,0.04c1.93-0.76,8.05-5.4,8.05-5.4
		c0.63,2.07,6.07,0.88,6.07,0.88c-2.38,8.21,7.33,9.8,7.33,9.8c-0.18,5.98,10.48,4.77,10.48,4.77c-0.63,2.16,2.79,3.01,2.79,3.01
		c-3.15,0.81-2.52,4.14-2.52,4.14c-4.27-0.58-4.72,3.28-4.72,3.28c-3.19,0.04-5.98,0.4-5.98,0.4c-1.93,0.27-3.6,1.53-3.6,1.53
		c-0.45-0.27-1.06-0.36-1.57-0.47c-0.67-0.15-1.36-0.23-2-0.48c-1.74-0.67-3.36-1.92-4.66-3.24c-1.11-1.13-2.36-2.09-3.62-3.04
		c-0.5-0.38-0.97-0.86-1.64-0.87c-0.58-0.01-1.16,0.32-1.58,0.7c-0.59,0.54-0.97,1.25-1.4,1.91c-0.2,0.3-0.33,0.75-0.37,1.11
		c-0.11,0.83,0.3,1.78,0.98,2.26c0.76,0.54,1.69,0.69,2.57,0.91c0.5,0.12,1,0.25,1.49,0.4c1.77,0.53,3.31,1.39,4.39,2.92
		c0.07,0.1,0.87,1.27,0.79,1.31c-0.66,0.37-1.46,0.44-2.2,0.47c-0.83,0.04-1.71,0.08-2.52-0.18c-1.09-0.35-2.18-0.77-3.06-1.52
		c-1.25-1.05-2.67-1.6-4.32-1.34c-0.52,0.08-1.07,0.27-1.52,0.53c-0.38,0.22-0.76,0.55-1.04,0.89c-0.49,0.58-0.78,1.38-0.99,2.11
		c-0.2,0.7-0.19,1.68,0.36,2.25c0.74,0.77,2.02,1.28,3.03,1.56c0.27,0.08,0.39,0.09,0.44,0.38c0.07,0.41,0.22,0.84,0.47,1.17
		c0.57,0.75,1.55,1.35,2.4,1.74c0.27,0.62,0.75,1.66,1.52,1.75c0.84,0.09,1.47-0.81,2.02-1.3c0.73-0.65,1.63-1.11,2.51-1.53
		c1.69-0.81,3.58-1.07,5.42-1.27c0.71-0.08,1.42-0.15,2.13-0.18c0.27-0.01,0.56,0.04,0.83,0.02c0.96-0.07,1.93-0.16,2.89-0.09
		c0.74,0.06,1.98,0.07,2.47,0.76c0.12,0.17,0.21,0.38,0.44,0.43c0.33,0.07,0.67-0.19,0.94-0.35c0.34-0.2,0.7-0.35,1.05-0.49
		c1.63-0.68,3.34-0.7,4.98-0.03c0.44,0.18,0.87,0.4,1.3,0.62c0.83,0.44,1.64,0.91,2.43,1.41c1.54,0.96,3.1,2.32,5.06,1.99
		c0.62-0.1,1.28-0.41,1.17-1.13c-0.04-0.3-0.17-0.59-0.31-0.86c-0.04-0.07-0.45-0.7-0.43-0.73c0.73-1.11,0.63-2.41-0.44-3.26
		c-0.52-0.41-1.45-0.59-2.09-0.61c-1.31-0.04-2.53,0.29-3.83-0.06c-0.38-0.1-0.76-0.23-1.13-0.39c-0.04-0.02-0.31-0.19-0.34-0.18
		c10.25-3.01,15.65-7.64,15.65-7.64c5.98-4.45,10.93-12.1,10.93-12.1c1.57,0,10.03,3.73,10.03,3.73c0.23-0.85,0-2.65,0-2.65
		c-0.18-0.8-0.47-1.62-0.84-2.35c-0.52-1.01-1.24-1.81-2.15-2.49c-0.68-0.5-1.45-0.88-2.27-1.06c-0.91-0.2-1.86-0.23-2.78-0.38
		c-0.58-0.1-1.15-0.2-1.72-0.33c-0.54-0.12-1.07-0.27-1.6-0.45c-1.82-0.61-3.6-1.41-5.39-2.09c-0.44-0.17-0.88-0.37-1.3-0.6
		c-1.56-0.86-2.3-2.35-2.77-4.01c-0.15-0.52-0.22-1.12-0.23-1.66c-0.03-1.65,0.66-3.28,1.76-4.49c0.6-0.66,1.32-1.19,1.98-1.77
		c0.73-0.64,1.39-1.35,2.02-2.09c0.04-0.05,0.93-1.18,0.94-1.18c1.3,0.81,5.98,2.25,5.98,2.25c2.11,4.95,9.44,4.32,9.44,4.32
		c4.05,3.51,10.66,1.21,10.66,1.21c3.24,4.41,9.4,1.53,9.4,1.53c1.48,2.34,5.76,1.44,5.76,1.44c0.49,2.16,3.55,3.64,3.55,3.64
		c-1.48,3.6,0.78,7.78,0.78,7.78c-1.56,3.24-0.42,6.12-0.42,6.12c-4.77,2.11-1.82,6.18-1.82,6.18c-4.41,7.19-10.61,4.41-10.61,4.41
		c-0.99-0.31-1.97-0.7-2.88-1.19c-1.33-0.71-2.59-1.58-3.69-2.62c-0.94-0.89-1.66-1.87-2.49-2.86c-0.49-0.59-1.09-1.23-1.83-1.5
		c-0.63-0.23-1.41,0.05-1.76,0.64c-0.49,0.82-0.75,1.92-0.84,2.86c-0.08,0.86-0.58,1.83-0.24,2.68c0.19,0.49,0.69,0.56,1.16,0.63
		c1.04,0.16,2.1,0.53,3.1,0.87c1.82,0.61,3.54,1.44,5.23,2.33c0.73,0.39,1.47,0.77,2.18,1.2c-0.96-0.47-1.93-0.92-2.92-1.31
		c-1.32-0.52-2.67-1.01-4.05-1.33c-1.64-0.38-3.34-0.64-5.03-0.57c-1.39,0.06-1.83,1.25-2.14,2.41c-0.12,0.46-0.11,1.05-0.08,1.53
		c0.05,0.76,0.33,1.54,0.99,1.97c0.5,0.32,1.38,0.43,1.93,0.2c0.51-0.2,0.93-0.59,1.38-0.88c0.49-0.32,1.06-0.31,1.62-0.26
		c2.17,0.19,4.37,0.37,6.48,0.97c0.33,0.1,0.66,0.19,0.99,0.3c0.09,0.03,0.28,0.14,0.38,0.13c-1.19,0.09-2.4,0.18-3.58,0.38
		c-1.03,0.18-2.12,0.41-3.09,0.82c-0.73,0.31-1.37,0.9-1.47,1.74c-0.15,1.2,0.54,2.31,1.43,3.02c1,0.8,2.15,0.99,3.27,0.27
		c1.12-0.72,2.22-1.44,3.3-2.24c0.81-0.6,1.63-1.24,2.58-1.6c0.92-0.36,2.14-0.5,3.13-0.32c0.59,0.11,1.15,0.34,1.67,0.65
		c0.52,0.3,0.95,0.76,1.46,1.06c0.58,0.34,1.33,0.6,2,0.68c2.24,0.27,4.25-1.7,6.29-2.33c0.84-0.26,1.69-0.52,2.58-0.48
		c1.59,0.07,3.3,0.87,4.73,1.53c0.82,0.38,1.61,0.85,2.36,1.35c0.59,0.41,1.36,1.29,2.12,1.3c1.13,0.01,1.85-2.31,2.01-3.12
		c0.12-0.65,0.3-1.24,0.01-1.87c-0.22-0.5-0.71-0.87-1.19-1.11c-1.47-0.72-3.02-1.07-4.52-1.69c-1.08-0.44-1.46-1.39-1.87-2.4
		c-0.19-0.47-0.39-0.95-0.55-1.44c-0.02-0.07-0.23-0.53-0.19-0.6c0.58-0.88,1.18-1.79,1.45-2.81c0.58-2.23,0.87-4.52,1.39-6.76
		c2.7-11.87-1.35-22.26-1.35-22.26c1.62,0.54,5.67,4.18,5.67,4.18c3.24,2.29,6.47,1.21,6.47,1.21c-1.62-3.78-6.07-6.34-6.07-6.34
		c-8.09-5.94-22.26-13.35-22.26-13.35c23.88-1.35,33.49-16.12,33.49-16.12C256.86,79.61,253.82,69.9,253.82,69.9z M230.87,73.61
		c-2.16-1.02-3.25-3.71-1.25-5.48c1.46-1.29,4.2-1.68,6.08-1.3c2.25,0.46,4.35,1.94,5.72,3.87
		C239.67,74.17,234.05,75.11,230.87,73.61z"/>
	<path id="_x37_6" d="M61.48,162.12c-0.07,0-0.14,0-0.21,0c-0.02,0-0.06,0-0.11,0c-0.51,0-3.11-0.1-4.48-2.08
		c-0.06-0.08-1.39-1.96-0.94-4.78c-0.62-0.09-1.79-0.52-1.82-2.42c0-0.1-0.06-2.41,1.8-3.7c-0.27-0.28-0.6-0.74-0.68-1.33
		c-0.08-0.61,0.13-1.22,0.62-1.8c0.11-0.13,0.22-0.27,0.33-0.4c0.44-0.55,0.89-1.11,1.59-1.52c1.78-1.04,4.14-0.61,6.85,1.27
		c0.02,0.01,3.37,2.09,7.3,1.92c0.07,0,7.38-0.48,10.91-6.97c-0.09-0.84-0.43-6.01,3.79-8.3c-0.29-0.56-0.76-1.78-0.39-3.15
		c0.35-1.32,1.38-2.42,3.06-3.29c-0.09-0.71-0.23-2.73,0.7-4c-0.09,0-0.19,0-0.3,0c-2.09,0-3.43-0.09-3.97-0.27
		c-0.82,0.16-6.87,1.32-9.05,1.66c-0.36,1.29-2.31,7.79-6.34,11.24c0,0,0,0,0,0c-0.14,0.12-0.35,0.1-0.48-0.04
		c-0.11-0.13-0.11-0.32,0.01-0.45c0.04-0.1,0.06-0.41,0.06-0.91c0-0.09,0-0.17,0-0.21c0.05-1.01,0.01-2.08-0.11-3.26
		c-0.33-3.28-1.34-6.27-3-8.9c-0.71-1.12-1.55-2.19-2.37-3.22c-0.29-0.37-0.58-0.73-0.86-1.1c-1.31-1.71-2.44-3.09-3.54-4.34
		c-0.72-0.82-1.45-1.6-2.16-2.33c-0.8-0.81-1.61-1.58-2.41-2.28c-2.79-2.45-4.87-4.85-6.33-7.36c-0.14-0.23-3.31-5.37-4.1-10.28
		c-0.09,0.24-0.18,0.5-0.28,0.76l-0.01,0.04c-0.45,1.22-1,2.73-2.04,3.69c-0.38,0.35-0.63,0.58-0.77,1.04
		c-0.09,0.29-0.13,0.6-0.17,0.93c-0.02,0.18-0.05,0.36-0.08,0.54c-0.15,0.85-0.57,2.41-1.67,3.25c-0.37,0.29-0.77,0.43-1.2,0.43
		c-0.68,0-1.4-0.39-2.02-1.09c-0.22-0.25-0.39-0.53-0.56-0.81c-0.21-0.34-0.4-0.66-0.67-0.89c-0.1-0.09-0.23-0.17-0.38-0.25
		c-0.36-0.21-0.81-0.47-0.89-1.04c-0.1-0.61,0.06-1,0.56-1.42c0.24-0.2,0.48-0.39,0.72-0.58c0.56-0.44,1.08-0.86,1.56-1.39
		c0.87-0.97,1.37-1.79,1.57-2.58c0.03-0.1,0.61-1.84,1.95-2.19c0.09-0.54,0.2-2.21,0.24-2.81c0.02-0.23,0.03-0.39,0.03-0.44
		l1.07-10.8c-1.09-0.39-5.04-2.16-4.97-7.01c-1.48-1.35-1.94-2.97-1.21-4.36c0.18-0.34,0.39-0.58,0.65-0.75
		c0.24-0.15,0.51-0.18,0.75-0.21c0.15-0.02,0.29-0.03,0.4-0.08c0.12-0.05,0.24-0.12,0.37-0.2c0.09-0.05,0.18-0.1,0.27-0.15
		c0.22-0.11,0.46-0.28,0.72-0.46c0.58-0.4,1.24-0.86,1.93-0.86c0.46,0,0.88,0.21,1.23,0.62c0.01,0.01,0.02,0.02,0.03,0.04
		c0.05,0.07,1.16,1.84,2.95,6.44l0.2,0.58c-0.24-2.82-0.16-6.71,1.5-9.61c0.01-0.02,0.03-0.04,0.05-0.06
		c0.07-0.07,1.64-1.73,3.83-1.73c0.37,0,0.73,0.05,1.09,0.14c0.01,0,0.02,0.01,0.03,0.01c0.16,0.06,1.51,0.67,1.23,4.32
		c-0.08,1.07-0.57,2.21-0.92,2.98c-0.26,0.56-0.45,1-0.48,1.49c0.6-0.93,1.61-2.19,2.68-2.19c0.21,0,0.42,0.05,0.61,0.14
		c0.33,0.11,3.13,1.07,3.63,2.64c0.03,0.12,0.64,2.59-1.16,4.39c-0.09,0.09-2.03,1.81-3.68,2.5c-0.04,0.02-1.38,0.72-0.76,2.92
		c0.34,0.56,3.79,6.49,3.93,14.17c0.91,0.27,3.81,1.45,4.22,5.65c1.03,0.01,4.25,0.33,6,3.96c0.35-0.12,0.96-0.29,1.71-0.29
		c1.13,0,2.73,0.38,4.15,2.14c0.32-0.44,0.95-1.03,2-1.03c0.31,0,0.65,0.05,0.99,0.16c0.15-0.77,0.64-2.36,2.31-3.38
		c-0.87-0.77-2.87-2.86-3.24-5.91c-0.3-2.52,0.6-5.09,2.67-7.63c-0.1-1.21-0.65-9.21,3.14-10.71c-0.16-1.21-0.44-5.86,4.05-8.64
		c-0.15-1.07-0.51-5.43,3.49-7.69c-0.24-1.13-0.83-5.53,3.77-7.62c-0.31-0.64-0.98-2.1-1.18-3.15c0,0-0.01,0-0.01,0
		c-1.41,0-6.17,0.59-8.48,8.14c-0.04,0.14-0.16,0.23-0.3,0.24c-0.14,0.01-0.27-0.07-0.33-0.2l-1.61-3.72l-2.62,7.61
		c-0.05,0.15-0.21,0.25-0.36,0.22c-0.03,0-0.75-0.11-1.34-0.91c-0.78-1.06-0.98-2.78-0.6-5.12c-0.45-0.51-1.95-2.51-2.25-6.55
		c-0.01-0.1,0.03-0.19,0.09-0.26c0.07-0.07,0.15-0.1,0.25-0.1c1.3,0.04,4,0.07,5.89,0.07c1.19,0,2-0.01,2.22-0.03
		c1.24-0.09,2.41-0.48,3.4-0.86l0.3-0.11c1.11-0.42,2.25-0.85,3.3-1.41c0.54-0.28,1.17-0.59,1.88-0.72
		c0.42-0.07,0.96-0.05,1.45-0.02c0.23,0.02,0.45,0.03,0.68,0.03l0.09,0c0.16,0,0.33,0,0.49,0c0.14,0,0.28,0,0.41,0
		c-0.03-0.09-0.05-0.19-0.09-0.3c-0.02-0.06-0.03-0.1-0.03-0.11c-0.77-2.25-1.81-4.75-3.68-6.24c-0.51-0.4-1.11-0.76-1.69-1
		c-1.97-0.83-3.94-1.27-5.68-1.25c-0.71,0.6-5.02,4.1-8.94,4.1c-0.29,0-0.57-0.02-0.84-0.06c-0.17-0.02-0.29-0.17-0.29-0.33
		c0-0.17-0.14-4.14-7.91-4.52c-0.07,0-8.45,0.01-11.19,1.06c-0.13,0.05-0.28,0.01-0.37-0.09c-0.09-0.1-0.11-0.25-0.05-0.38
		c0.05-0.09,1.18-2.34,4.92-4.59c3.41-2.05,9.74-4.5,20.55-4.5c0.04,0,0.08,0,0.12,0c0.16-0.75,0.83-1.96,0.84-1.98
		c1.46-2.1,3.8-2.9,5.5-3.2c1.2-0.21,2.48-0.32,3.8-0.32c0.42,0,0.84,0.01,1.25,0.03l2.29,0.12c1.47,0.08,2.93,0.16,4.4,0.24
		c2.27,0.13,4.17,0.24,6.09,0.36c0.68,0.04,1.39,0.09,2.09,0.15c0.12-0.13,0.34-0.39,0.47-0.55c0.23-0.28,0.32-0.38,0.37-0.42
		c0.47-0.41,1.04-0.8,1.79-1.21c1.3-0.72,2.77-1.17,4.04-1.54c1.04-0.3,2.11-0.57,3.15-0.83l0.06-0.01c2.03-0.37,4.32-0.89,6.06-2
		c0.56-0.36,0.95-0.78,1.3-1.2c0.09-0.11,0.25-0.15,0.38-0.1c0.13,0.05,0.22,0.18,0.22,0.33c-0.06,1.53-0.19,3.09-0.31,4.59
		c-0.05,0.62-0.1,1.23-0.15,1.85l-0.02,0.23c-0.01,0.08-0.01,0.16-0.02,0.24l2.65,0.36c0.18,0.03,0.31,0.2,0.29,0.38
		c-0.03,0.18-0.19,0.31-0.38,0.29c-0.1,0.01-0.46,0.23-0.62,0.32c-0.12,0.07-0.23,0.14-0.3,0.17c-1.85,0.85-4.23,2.04-6.19,3.64
		c-0.53,0.43-1,0.89-1.39,1.37c-0.85,1.04-0.9,2.03-0.15,3.34c0.48,0.84,0.95,1.67,1.42,2.51c0.34,0.6,0.68,1.21,1.02,1.81
		c0.87,0.3,5.69,2.08,7.23,5.68c0.05,0.11,0.03,0.24-0.04,0.34c-0.08,0.1-0.2,0.15-0.32,0.13c-0.83-0.13-1.56-0.2-2.22-0.21l-0.32,0
		c-0.18,0-0.38-0.01-0.58-0.01c-0.86,0-1.94,0.05-2.61,0.45c-0.32,0.19-0.56,0.53-0.65,0.9c-0.08,0.34-0.03,0.68,0.14,0.95
		c0.39,0.6,1.08,0.77,1.8,0.95c0.37,0.09,0.75,0.18,1.1,0.34c1.89,0.81,3.54,2.94,4.02,5.18c0.16,0.74,0.23,1.55,0.2,2.29
		c0,0.11-0.07,0.22-0.16,0.28c-0.1,0.06-0.22,0.06-0.32,0.01c-0.89-0.43-1.81-0.81-2.68-1.15l-0.13-0.05
		c-0.98-0.39-2.09-0.83-3.14-0.83c-0.35,0-0.67,0.05-0.97,0.15c-0.94,0.31-1.54,1.2-1.57,2.31c-0.02,0.83,0.15,1.94,0.71,2.6
		c0.52,0.61,1.44,0.97,2.09,1.18c2.15,0.71,3.82,2.63,4.35,5c0.1,0.56,0.6,3.28,0.61,3.57c0,0.03,0,0.05-0.01,0.08
		c-0.03,0.16-0.17,0.27-0.33,0.27c-0.23,0-0.9-0.51-0.9-0.52l-0.39-0.3c-0.44-0.34-0.89-0.7-1.36-1.02
		c-0.83-0.57-2.96-1.89-4.67-1.89c-0.55,0-1.01,0.14-1.37,0.42c-0.6,0.47-0.58,1.45-0.57,2.23c0.02,1.37,0.32,2.27,0.95,2.84
		c0.51,0.46,1.12,0.87,1.67,1.12c0.35,0.16,0.74,0.3,1.15,0.45c1.38,0.5,2.95,1.07,3.41,2.74c0.29,1.04,0.4,2,0.34,2.86
		c-0.01,0.12-0.08,0.23-0.19,0.28c-0.11,0.05-0.24,0.04-0.34-0.03c-1.02-0.71-2.71-1.14-3.75-0.95c-0.46,0.08-1.08,0.27-1.45,0.54
		c-0.65,0.47-1.05,1.36-1.01,2.21c0.04,0.78,0.39,1.49,0.76,2.24c0.28,0.58,0.58,1.17,0.73,1.82c3.41-0.77,7.39-1.66,11.36-2.44
		c0.53-0.11,1.09-0.19,1.63-0.27c1.27-0.19,2.59-0.39,3.72-0.87c1.39-0.58,2.15-2.07,2.48-2.91c1.25-3.17,1.14-6.59,1.02-9.89
		c-0.04-1.13-0.08-2.3-0.06-3.45l0-0.42c0.01-0.83,0.01-1.69,0.14-2.52c0.84-5.38,4.94-8.59,8.9-11.69l0.42-0.33
		c1.33-1.04,2.66-2.1,3.98-3.15c3.25-2.58,6.6-5.25,10.01-7.74c7.19-5.24,14.47-10.11,21.64-14.48c4.7-2.86,9.41-5.49,14.01-7.82
		c0.14-0.07,0.3-0.04,0.41,0.08c0.1,0.12,0.11,0.29,0.02,0.41c-0.06,0.08-5.68,8.37-3.47,14.6c1.13,3.19,3.87,3.86,5.97,3.86
		c1.65,0,3.54-0.41,5.33-1.16c5.23-2.18,10.61-4.24,15.82-6.22c1.81-0.69,3.61-1.38,5.41-2.07c2.03-0.78,4.05-1.57,6.08-2.36
		c1.81-0.71,3.92-1.54,6.01-2.38c0.16-0.06,0.34,0,0.42,0.15c0.08,0.15,0.03,0.34-0.11,0.44c-4.03,2.75-7.58,5.64-10.55,8.58
		l-0.42,0.41c-3.35,3.3-7.93,7.83-5.72,12.74c1.21,2.69,5.39,4.05,7.14,4.5c0.15,0.04,0.25,0.17,0.25,0.33
		c0,0.15-0.1,0.29-0.25,0.33c-0.15,0.04-15.27,4.15-20.14,16.52c-0.04,0.09-3.46,8.65,3.56,15.28c0.11,0.11,0.14,0.28,0.06,0.42
		c-0.08,0.14-0.25,0.2-0.4,0.15c-0.02-0.01-2.16-0.71-5.13-0.71c-4.1,0-9.79,1.33-13.93,7.53c0.25,0,0.5,0.02,0.68,0.03
		c0.09,0.01,0.16,0.01,0.19,0.01c0.58,0,1.16,0,1.73,0c2.54,0,4.5,0.04,6.34,0.12c1.08,0.05,2.16,0.11,3.21,0.19
		c2.29,0.17,4.94,0.4,7.52,0.98c0.94,0.21,1.87,0.51,2.76,0.81c0.81,0.27,1.64,0.54,2.48,0.74c1.99,0.47,4.1,0.51,6.14,0.55
		l0.33,0.01c0.5,0.01,1,0.01,1.5,0.01c2.09,0,3.82-0.09,5.44-0.29c2.3-0.28,4.97-0.75,7.25-2.02c0.01-0.01,0.02-0.01,0.04-0.02
		c0.03-0.01,2.67-1.13,3.73-4.11c-1.35,0.7-4.57,2.09-8.94,2.09c-2.15,0-4.31-0.34-6.42-1.02c-0.07-0.02-8.06-2.35-7.51-11.02
		c0-0.07,0.54-7.56,10.3-10.29c0.05-0.02,1.58-0.48,4.27-0.48c3.32,0,6.84,0.68,10.45,2.04c0.31,0.12,7.47,2.97,9.71,9.99
		c0.03,0.1,3.02,9.95-2.48,16.16c-0.23,0.34-2.64,3.88-7.86,7.62c-4.79,3.43-12.92,7.65-24.69,8.55
		c3.43,1.84,14.49,7.87,21.24,12.81c0.35,0.2,4.59,2.73,6.2,6.49c0.04,0.09,0.04,0.18,0,0.27c-0.04,0.09-0.11,0.15-0.2,0.18
		c-0.03,0.01-0.83,0.27-2.02,0.27c-1.18,0-2.97-0.27-4.76-1.53c-0.01-0.01-0.02-0.02-0.03-0.02c-0.04-0.03-3.07-2.75-4.86-3.78
		c0.86,2.64,3.37,11.69,1.1,21.68c-0.22,0.95-0.4,1.94-0.57,2.88c-0.24,1.28-0.48,2.6-0.82,3.89c-0.28,1.07-0.9,2.03-1.42,2.81
		c0.03,0.1,0.09,0.24,0.11,0.3c0.02,0.05,0.04,0.09,0.04,0.11c0.16,0.47,0.35,0.94,0.53,1.4c0.41,1,0.75,1.84,1.7,2.23
		c0.61,0.25,1.25,0.47,1.87,0.67c0.88,0.29,1.8,0.6,2.67,1.03c0.45,0.22,1.06,0.62,1.35,1.27c0.29,0.66,0.17,1.26,0.06,1.85
		l-0.04,0.23c-0.01,0.03-0.69,3.39-2.33,3.39c-0.68-0.01-1.28-0.51-1.81-0.96c-0.18-0.15-0.35-0.3-0.5-0.4
		c-0.84-0.56-1.59-0.99-2.31-1.32l-0.09-0.04c-1.42-0.65-3.02-1.39-4.52-1.46c-0.85-0.04-1.67,0.22-2.47,0.47
		c-0.71,0.22-1.42,0.61-2.16,1.02c-1.21,0.66-2.45,1.35-3.81,1.35c-0.15,0-0.31-0.01-0.46-0.03c-0.69-0.08-1.49-0.35-2.13-0.72
		c-0.28-0.16-0.54-0.37-0.78-0.56c-0.23-0.18-0.45-0.36-0.68-0.5c-0.52-0.3-1.04-0.51-1.56-0.61c-0.87-0.16-2.06-0.04-2.94,0.3
		c-0.84,0.32-1.59,0.89-2.32,1.43l-0.17,0.13c-1.02,0.76-2.07,1.45-3.32,2.25c-1.18,0.76-2.49,0.65-3.66-0.29
		c-1.12-0.9-1.7-2.14-1.55-3.33c0.11-0.87,0.72-1.61,1.67-2.01c1.06-0.45,2.25-0.69,3.16-0.84c0.61-0.11,1.23-0.18,1.85-0.24
		c-1.9-0.5-3.91-0.68-5.85-0.85l-0.25-0.02c-0.13-0.01-0.3-0.02-0.47-0.02c-0.4,0-0.68,0.07-0.93,0.23
		c-0.14,0.09-0.27,0.19-0.4,0.28c-0.32,0.23-0.65,0.47-1.04,0.63c-0.23,0.09-0.52,0.14-0.82,0.14c-0.52,0-1.05-0.14-1.42-0.37
		c-0.68-0.43-1.08-1.22-1.15-2.23c-0.05-0.71-0.01-1.23,0.09-1.64c0.24-0.9,0.69-2.58,2.45-2.66c0.2-0.01,0.4-0.01,0.6-0.01
		c1.35,0,2.83,0.19,4.52,0.59c0.07,0.02,0.15,0.03,0.22,0.05c-0.28-0.1-0.56-0.2-0.84-0.3l-0.29-0.1c-0.9-0.3-1.84-0.62-2.75-0.75
		c-0.49-0.07-1.16-0.18-1.42-0.84c-0.27-0.67-0.09-1.38,0.06-2.01c0.07-0.29,0.14-0.57,0.16-0.83c0.1-1.13,0.42-2.23,0.88-3
		c0.32-0.54,0.94-0.89,1.58-0.89c0.2,0,0.4,0.03,0.58,0.1c0.81,0.3,1.45,0.98,1.98,1.6c0.21,0.25,0.42,0.51,0.62,0.76
		c0.6,0.73,1.16,1.43,1.84,2.07c1.02,0.97,2.24,1.83,3.62,2.57c0.84,0.45,1.79,0.84,2.83,1.16c0.01,0,0.03,0.01,0.04,0.01
		c0.01,0,1.15,0.5,2.74,0.5c2.03,0,4.93-0.8,7.33-4.6c-0.33-0.53-1.15-2.06-0.71-3.66c0.3-1.12,1.15-2.03,2.52-2.7
		c-0.25-0.83-0.78-3.24,0.46-5.93c-0.39-0.79-2-4.35-0.82-7.63c-0.75-0.41-2.78-1.66-3.37-3.42c-0.34,0.05-0.92,0.12-1.6,0.12
		c-1.32,0-3.06-0.27-4.03-1.53c-0.62,0.25-2.27,0.84-4.16,0.84c-2.23,0-3.99-0.81-5.24-2.4c-0.63,0.19-2.44,0.68-4.57,0.68
		c-2.49,0-4.53-0.65-6.07-1.94c-0.14,0.01-0.38,0.02-0.69,0.02c-2.08,0-7.08-0.43-8.89-4.4c-0.77-0.24-4.22-1.34-5.65-2.09
		c-0.12,0.16-0.29,0.37-0.42,0.53c-0.18,0.22-0.33,0.42-0.35,0.44c-0.71,0.85-1.38,1.54-2.05,2.13c-0.2,0.17-0.4,0.34-0.6,0.51
		c-0.47,0.39-0.95,0.79-1.35,1.24c-1.09,1.2-1.7,2.75-1.68,4.26c0.01,0.56,0.09,1.12,0.21,1.57c0.55,1.94,1.36,3.11,2.61,3.8
		c0.4,0.22,0.83,0.42,1.25,0.58c0.66,0.25,1.32,0.52,1.97,0.78c1.11,0.45,2.26,0.92,3.41,1.3c0.56,0.19,1.07,0.33,1.57,0.44
		c0.49,0.11,1.02,0.21,1.7,0.32c0.38,0.06,0.77,0.11,1.14,0.15c0.54,0.06,1.1,0.12,1.65,0.24c0.84,0.19,1.65,0.56,2.4,1.12
		c0.99,0.73,1.72,1.59,2.25,2.6c0.38,0.73,0.68,1.57,0.87,2.43c0,0.01,0,0.02,0.01,0.03c0.01,0.08,0.23,1.87-0.01,2.78
		c-0.03,0.1-0.09,0.17-0.18,0.22c-0.09,0.04-0.19,0.04-0.28,0c-2.24-0.99-8.16-3.49-9.72-3.69c-0.77,1.15-5.43,7.94-10.9,12.02
		c-0.04,0.03-5.24,4.44-14.89,7.44c0.19,0.07,0.39,0.13,0.59,0.18c0.38,0.1,0.79,0.15,1.27,0.15c0.36,0,0.71-0.03,1.09-0.05
		c0.45-0.03,0.91-0.06,1.39-0.05c0.68,0.02,1.7,0.21,2.29,0.68c1.11,0.88,1.35,2.29,0.61,3.54c0.06,0.1,0.15,0.24,0.2,0.32
		c0.07,0.12,0.13,0.21,0.15,0.24c0.14,0.28,0.29,0.61,0.34,0.96c0.11,0.77-0.43,1.34-1.45,1.51c-0.22,0.04-0.43,0.05-0.65,0.05
		c-1.47,0-2.69-0.81-3.87-1.59c-0.26-0.17-0.51-0.34-0.77-0.5c-0.93-0.58-1.7-1.02-2.41-1.4c-0.49-0.26-0.9-0.45-1.27-0.6
		c-1.53-0.63-3.17-0.62-4.72,0.03l-0.05,0.02c-0.34,0.14-0.66,0.28-0.96,0.45c-0.04,0.02-0.08,0.05-0.12,0.07
		c-0.24,0.15-0.54,0.34-0.88,0.34c-0.06,0-0.13-0.01-0.19-0.02c-0.32-0.07-0.47-0.3-0.58-0.47c-0.02-0.03-0.04-0.06-0.06-0.09
		c-0.35-0.49-1.35-0.56-2.01-0.6l-0.21-0.01c-0.23-0.02-0.47-0.03-0.74-0.03c-0.61,0-1.24,0.05-1.84,0.09l-0.26,0.02
		c-0.16,0.01-0.32,0-0.48-0.01c-0.12-0.01-0.24-0.01-0.36-0.01c-0.72,0.03-1.44,0.1-2.11,0.18c-1.77,0.19-3.65,0.45-5.32,1.24
		c-0.8,0.38-1.71,0.84-2.43,1.48c-0.11,0.1-0.23,0.22-0.35,0.34c-0.49,0.5-1.11,1.13-1.93,1.04c-0.93-0.1-1.45-1.17-1.74-1.83
		c-0.66-0.31-1.75-0.92-2.41-1.78c-0.32-0.42-0.47-0.95-0.53-1.32c0-0.03-0.01-0.04-0.01-0.05c-0.03-0.01-0.08-0.03-0.13-0.04
		l-0.06-0.02c-0.81-0.23-2.31-0.75-3.18-1.65c-0.67-0.69-0.66-1.82-0.45-2.57c0.18-0.63,0.48-1.55,1.05-2.23
		c0.32-0.39,0.74-0.74,1.13-0.97c0.48-0.28,1.06-0.48,1.64-0.57c1.63-0.25,3.17,0.22,4.59,1.42c0.87,0.73,1.98,1.15,2.94,1.45
		c0.41,0.13,0.88,0.19,1.49,0.19c0.3,0,0.61-0.01,0.9-0.03c0.61-0.03,1.23-0.08,1.77-0.3c-0.18-0.3-0.5-0.78-0.62-0.95
		c-0.93-1.32-2.26-2.2-4.21-2.79c-0.48-0.14-0.98-0.27-1.46-0.39c-0.16-0.04-0.3-0.07-0.45-0.11c-0.77-0.18-1.57-0.37-2.26-0.86
		c-0.78-0.56-1.24-1.62-1.11-2.58c0.05-0.36,0.18-0.87,0.43-1.24c0.08-0.13,0.17-0.26,0.25-0.39c0.34-0.55,0.7-1.11,1.2-1.58
		c0.54-0.5,1.19-0.79,1.78-0.79c0,0,0.03,0,0.03,0c0.68,0.01,1.17,0.4,1.61,0.75c0.08,0.06,0.16,0.12,0.23,0.18l0.05,0.04
		c1.23,0.94,2.49,1.91,3.6,3.04c1.02,1.04,2.63,2.43,4.54,3.16c0.42,0.16,0.87,0.25,1.35,0.34c0.2,0.04,0.41,0.08,0.61,0.12
		c0.09,0.02,0.19,0.04,0.28,0.06c0.38,0.08,0.81,0.17,1.19,0.34c0.49-0.34,1.93-1.24,3.58-1.47c0.03,0,2.69-0.34,5.75-0.4
		c0.2-0.87,1.05-3.35,4.16-3.35c0.15,0,0.31,0.01,0.47,0.02c-0.05-0.87,0.08-2.81,1.91-3.75c-0.66-0.28-1.52-0.77-1.94-1.51
		c-0.21-0.36-0.29-0.74-0.27-1.14c-0.39,0.03-1,0.06-1.74,0.06c-2.48,0-5.8-0.37-7.53-2.16c-0.73-0.75-1.11-1.68-1.13-2.77
		c-1.08-0.23-4.88-1.21-6.72-4.13c-0.99-1.56-1.23-3.42-0.73-5.52c-0.6,0.1-1.62,0.25-2.64,0.25c-1.59,0-2.63-0.35-3.09-1.04
		c-1.31,0.98-6.08,4.51-7.8,5.19c-0.09,0.03-1.83,0.63-3.49,0.63c-0.91,0-1.63-0.18-2.15-0.54c-0.92,0.86-4.08,3.74-5.68,3.75
		c-0.24,1.31-1.29,6.24-3.83,9.58c0,0,0,0,0,0c-0.11,0.15-0.32,0.18-0.47,0.06c-0.09-0.07-0.13-0.17-0.13-0.27
		c-0.05-0.13-0.23-0.49-0.29-0.62c-0.04-0.07-0.07-0.13-0.08-0.16c-0.14-0.32-0.29-0.64-0.43-0.95c-0.28-0.6-0.58-1.22-0.89-1.85
		c-0.2-0.4-0.41-0.79-0.62-1.18c-0.4-0.75-0.81-1.52-1.16-2.31c-0.81-1.82-1.17-3.47-1.08-4.92c-2.04,2.39-7.67,8.91-11.96,12.95
		c-0.22,0.25-3.96,4.58-5.42,8.12c-0.01,0.03-0.96,2.3-1.46,4.62c0.55,0.24,1.13,0.44,1.7,0.62l0.22,0.07
		c0.56,0.18,1.29,0.4,2.04,0.48c0.24,0.02,0.49,0.03,0.8,0.03c0.23,0,0.45-0.01,0.68-0.01c0.35-0.01,0.68-0.01,1.07-0.02
		c0.16,0,0.32-0.01,0.49-0.01c0.79,0,1.75,0.09,2.24,0.77c0.41,0.56,0.34,1.26,0.29,1.83l-0.01,0.11c-0.04,0.42-0.06,0.84-0.08,1.27
		c-0.02,0.31-0.04,0.62-0.06,0.93l-0.02,0.23c-0.01,0.12-0.02,0.23-0.02,0.35c-0.05,0.59-0.53,1.31-1.09,1.61
		c-0.46,0.24-1,0.36-1.68,0.36c-0.7,0-1.41-0.13-2.03-0.24l-0.25-0.04c-1.01-0.18-1.94-0.53-2.83-1.08
		c-0.51-0.32-1.01-0.67-1.49-1.01c-1.03-0.73-2-1.42-3.15-1.81c-0.9-0.31-1.98-0.36-2.7-0.13c-0.52,0.17-0.97,0.49-1.45,0.84
		c-0.2,0.14-0.4,0.28-0.6,0.41c-0.83,0.53-1.59,0.98-2.55,1.03c-0.52,0.02-1.04-0.05-1.54-0.12l-0.13-0.02
		c-0.56-0.08-1.12-0.2-1.65-0.31c-0.37-0.08-0.75-0.16-1.13-0.23c-0.86-0.15-1.83-0.02-2.52,0.36c-0.48,0.26-0.9,0.6-1.35,0.95
		c-0.27,0.21-0.55,0.43-0.84,0.63c-1.86,1.29-3.56,2.06-5.22,2.35C62.39,162.07,61.92,162.12,61.48,162.12z M61.28,161.44
		c0,0,0.01,0,0.01,0c0.46,0.02,0.95-0.02,1.48-0.12c1.56-0.27,3.18-1.01,4.95-2.24c0.27-0.19,0.54-0.4,0.8-0.61
		c0.45-0.36,0.92-0.73,1.45-1.02c0.61-0.33,1.34-0.5,2.12-0.5c0.29,0,0.57,0.02,0.85,0.07c0.39,0.07,0.78,0.15,1.16,0.23
		c0.52,0.11,1.07,0.23,1.6,0.3l0.14,0.02c0.47,0.07,0.95,0.13,1.41,0.11c0.79-0.04,1.47-0.44,2.22-0.92
		c0.19-0.12,0.38-0.26,0.57-0.4c0.5-0.36,1.02-0.73,1.63-0.93c0.37-0.12,0.79-0.18,1.26-0.18c0.62,0,1.28,0.11,1.87,0.31
		c1.25,0.43,2.3,1.18,3.33,1.9c0.47,0.33,0.96,0.68,1.45,0.98c0.82,0.5,1.66,0.83,2.59,0.99l0.25,0.04c0.6,0.11,1.27,0.23,1.91,0.23
		c0.56,0,1.01-0.09,1.36-0.28c0.36-0.19,0.71-0.7,0.73-1.07c0.01-0.11,0.02-0.23,0.02-0.34l0.02-0.23c0.02-0.31,0.04-0.61,0.06-0.92
		c0.02-0.43,0.05-0.86,0.09-1.28l0.01-0.11c0.04-0.5,0.09-1.02-0.17-1.37c-0.31-0.43-1.07-0.49-1.7-0.49c-0.16,0-0.32,0-0.47,0.01
		c-0.41,0.01-0.73,0.01-1.07,0.02c-0.23,0.01-0.46,0.01-0.69,0.01c-0.33,0-0.6-0.01-0.86-0.04c-0.82-0.08-1.6-0.31-2.19-0.51
		l-0.22-0.07c-0.67-0.22-1.37-0.45-2.02-0.77c-0.14-0.07-0.21-0.22-0.18-0.37c0.5-2.48,1.51-4.91,1.55-5.01
		c1.53-3.74,5.38-8.14,5.54-8.32c0.01-0.01,0.01-0.02,0.02-0.02c5.27-4.96,12.62-13.73,12.7-13.82c0.1-0.12,0.27-0.16,0.41-0.08
		c0.14,0.07,0.21,0.23,0.17,0.39c-0.42,1.58-0.13,3.49,0.85,5.7c0.34,0.77,0.75,1.53,1.14,2.27c0.21,0.4,0.42,0.79,0.62,1.19
		c0.32,0.63,0.62,1.26,0.9,1.87c0.15,0.32,0.3,0.64,0.44,0.96c0.01,0.02,0.03,0.06,0.06,0.12c0.04,0.08,0.08,0.16,0.12,0.23
		c2.52-3.68,3.39-9.05,3.4-9.11c0.02-0.1,0.07-0.18,0.16-0.24c0.08-0.05,0.19-0.06,0.28-0.03c0.04,0.01,0.1,0.02,0.16,0.02
		c1.27,0,4.35-2.72,5.43-3.77c0.13-0.13,0.33-0.13,0.47,0c0.39,0.37,1.05,0.56,1.93,0.56c1.55,0,3.24-0.58,3.25-0.59
		c1.86-0.73,7.89-5.3,7.96-5.35c0.09-0.07,0.2-0.09,0.31-0.05c0.1,0.03,0.19,0.12,0.22,0.22c0.25,0.81,1.57,0.98,2.64,0.98
		c1.49,0,3.02-0.33,3.03-0.33c0.12-0.02,0.24,0.01,0.32,0.1c0.08,0.09,0.11,0.21,0.08,0.32c-0.62,2.12-0.44,3.97,0.52,5.5
		c1.94,3.09,6.5,3.87,6.54,3.88c0.17,0.03,0.29,0.17,0.28,0.34c-0.03,1.03,0.29,1.89,0.94,2.57c1.65,1.7,5.12,1.95,7.05,1.95
		c1.22,0,2.1-0.1,2.11-0.1c0.12-0.01,0.22,0.03,0.3,0.12c0.07,0.09,0.1,0.2,0.07,0.31c-0.11,0.39-0.08,0.75,0.12,1.08
		c0.6,1.04,2.41,1.5,2.43,1.51c0.15,0.04,0.26,0.17,0.26,0.33c0,0.15-0.1,0.29-0.25,0.33c-2.8,0.72-2.29,3.62-2.27,3.75
		c0.02,0.11-0.01,0.22-0.09,0.29c-0.07,0.08-0.18,0.12-0.29,0.1c-0.28-0.04-0.55-0.06-0.8-0.06c-3.15,0-3.53,2.92-3.54,3.04
		c-0.02,0.17-0.16,0.3-0.33,0.3c-3.14,0.04-5.91,0.4-5.94,0.4c-1.82,0.25-3.42,1.45-3.44,1.46c-0.11,0.08-0.26,0.09-0.38,0.02
		c-0.32-0.19-0.75-0.28-1.17-0.37c-0.1-0.02-0.2-0.04-0.3-0.06c-0.19-0.04-0.39-0.08-0.59-0.12c-0.48-0.09-0.98-0.19-1.46-0.37
		c-2.02-0.78-3.71-2.23-4.78-3.32c-1.07-1.1-2.32-2.05-3.53-2.97l-0.05-0.04c-0.08-0.06-0.16-0.13-0.25-0.19
		c-0.38-0.31-0.74-0.6-1.19-0.6h0c-0.44,0-0.92,0.22-1.34,0.61c-0.44,0.4-0.75,0.91-1.09,1.44c-0.08,0.13-0.17,0.27-0.26,0.4
		c-0.15,0.23-0.28,0.61-0.32,0.97c-0.09,0.7,0.27,1.54,0.84,1.94c0.58,0.41,1.28,0.58,2.02,0.75c0.15,0.03,0.29,0.07,0.44,0.1
		c0.51,0.13,1.01,0.25,1.51,0.4c2.1,0.63,3.55,1.6,4.57,3.05c0.91,1.29,0.87,1.46,0.85,1.57c-0.02,0.09-0.08,0.18-0.17,0.23
		c-0.72,0.41-1.59,0.48-2.35,0.52c-0.31,0.01-0.62,0.03-0.94,0.03c-0.68,0-1.22-0.07-1.7-0.22c-1.03-0.33-2.21-0.77-3.17-1.58
		c-1.28-1.08-2.61-1.49-4.05-1.27c-0.49,0.08-1,0.25-1.41,0.48c-0.33,0.19-0.68,0.49-0.95,0.81c-0.48,0.58-0.76,1.41-0.92,1.98
		c-0.18,0.63-0.16,1.46,0.28,1.92c0.76,0.79,2.13,1.26,2.88,1.47l0.05,0.01c0.25,0.07,0.54,0.15,0.63,0.63
		c0.05,0.29,0.16,0.71,0.41,1.02c0.61,0.8,1.68,1.37,2.27,1.63c0.08,0.03,0.14,0.09,0.17,0.17c0.21,0.48,0.66,1.48,1.25,1.55
		c0.5,0.05,0.96-0.42,1.37-0.84c0.13-0.14,0.26-0.26,0.38-0.38c0.79-0.7,1.75-1.19,2.59-1.59c1.76-0.84,3.7-1.1,5.53-1.3
		c0.68-0.07,1.41-0.15,2.15-0.18c0.14-0.01,0.28,0,0.42,0.01c0.13,0.01,0.27,0.02,0.39,0.01l0.26-0.02
		c0.62-0.05,1.26-0.09,1.89-0.09c0.28,0,0.54,0.01,0.79,0.03l0.21,0.01c0.79,0.05,1.97,0.13,2.51,0.88
		c0.03,0.04,0.05,0.08,0.08,0.11c0.08,0.12,0.11,0.17,0.16,0.18c0.14,0.03,0.38-0.11,0.56-0.23c0.05-0.03,0.09-0.06,0.13-0.08
		c0.34-0.2,0.7-0.35,1.04-0.49l0.05-0.02c1.72-0.72,3.54-0.73,5.24-0.03c0.39,0.16,0.82,0.36,1.33,0.63
		c0.73,0.38,1.51,0.83,2.45,1.42c0.26,0.16,0.52,0.34,0.79,0.51c1.1,0.73,2.23,1.48,3.5,1.48c0.18,0,0.36-0.01,0.54-0.05
		c0.45-0.07,0.96-0.27,0.89-0.75c-0.04-0.26-0.16-0.53-0.27-0.76c-0.01-0.02-0.06-0.1-0.12-0.18c-0.37-0.57-0.43-0.68-0.3-0.88
		c0.66-1.01,0.52-2.11-0.37-2.81c-0.43-0.34-1.29-0.52-1.89-0.53c-0.45-0.01-0.89,0.02-1.32,0.05c-0.37,0.03-0.75,0.05-1.14,0.05
		c-0.54,0-1-0.05-1.45-0.17c-0.41-0.11-0.81-0.25-1.18-0.41c-0.02-0.01-0.06-0.03-0.12-0.07c-0.05-0.03-0.12-0.07-0.16-0.09
		c-0.11-0.03-0.21-0.11-0.24-0.23c-0.05-0.18,0.05-0.37,0.23-0.42c0,0,0,0,0,0l0,0c10.05-2.95,15.47-7.53,15.52-7.58
		c5.88-4.38,10.81-11.95,10.86-12.02c0.06-0.1,0.17-0.15,0.28-0.15c1.45,0,7.94,2.79,9.77,3.59c0.07-0.7-0.02-1.7-0.07-2.11
		c-0.18-0.8-0.46-1.58-0.81-2.25c-0.48-0.93-1.15-1.7-2.05-2.37c-0.66-0.49-1.41-0.84-2.14-1c-0.51-0.11-1.05-0.17-1.58-0.23
		c-0.39-0.04-0.79-0.09-1.18-0.15c-0.7-0.12-1.23-0.22-1.74-0.33c-0.52-0.11-1.05-0.26-1.63-0.46c-1.17-0.39-2.33-0.86-3.45-1.32
		c-0.64-0.26-1.3-0.53-1.95-0.78c-0.46-0.17-0.91-0.38-1.34-0.62c-1.82-1-2.52-2.78-2.93-4.21c-0.19-0.65-0.23-1.31-0.24-1.75
		c-0.03-1.67,0.65-3.39,1.85-4.72c0.44-0.48,0.94-0.9,1.42-1.3c0.2-0.17,0.4-0.33,0.59-0.5c0.65-0.56,1.29-1.24,1.98-2.06
		c0.02-0.03,0.16-0.21,0.33-0.42c0.7-0.88,0.7-0.88,0.86-0.88c0.06,0,0.12,0.02,0.18,0.05c1.25,0.78,5.86,2.2,5.9,2.21
		c0.09,0.03,0.17,0.1,0.21,0.19c1.6,3.73,6.36,4.14,8.33,4.14c0.48,0,0.77-0.02,0.77-0.02c0.09-0.01,0.18,0.02,0.25,0.08
		c1.43,1.24,3.36,1.87,5.74,1.87c2.48,0,4.57-0.71,4.59-0.72c0.14-0.05,0.29,0,0.38,0.12c1.13,1.54,2.76,2.31,4.85,2.31
		c2.2,0,4.12-0.88,4.14-0.89c0.15-0.07,0.34-0.02,0.43,0.12c0.76,1.2,2.39,1.45,3.63,1.45c0.98,0,1.77-0.16,1.77-0.16
		c0.18-0.04,0.36,0.08,0.4,0.25c0.45,1.97,3.34,3.4,3.37,3.41c0.16,0.08,0.23,0.27,0.16,0.43c-1.4,3.4,0.74,7.45,0.76,7.49
		c0.05,0.1,0.05,0.21,0.01,0.31c-1.48,3.07-0.42,5.82-0.41,5.84c0.07,0.17-0.01,0.36-0.18,0.43c-1.34,0.59-2.15,1.4-2.42,2.39
		c-0.44,1.63,0.72,3.27,0.74,3.29c0.08,0.11,0.09,0.26,0.01,0.37c-2.58,4.21-5.78,5.1-8.02,5.1c-1.65,0-2.83-0.48-3-0.55
		c-1.07-0.34-2.06-0.74-2.92-1.21c-1.43-0.76-2.7-1.66-3.76-2.67c-0.71-0.68-1.32-1.42-1.9-2.14c-0.2-0.25-0.41-0.5-0.62-0.75
		c-0.46-0.55-1.03-1.15-1.69-1.4c-0.11-0.04-0.23-0.06-0.35-0.06c-0.41,0-0.8,0.22-1,0.56c-0.41,0.68-0.7,1.7-0.79,2.72
		c-0.03,0.31-0.1,0.62-0.18,0.93c-0.14,0.58-0.27,1.13-0.09,1.6c0.11,0.29,0.41,0.35,0.9,0.43c0.97,0.15,1.93,0.47,2.86,0.78
		l0.29,0.1c1.99,0.66,3.87,1.61,5.28,2.36l0.28,0.15c0.64,0.34,1.29,0.68,1.92,1.07c0.15,0.09,0.21,0.29,0.12,0.45
		c-0.09,0.16-0.28,0.22-0.44,0.14c-1.1-0.54-2.02-0.95-2.9-1.3c-1.08-0.43-2.51-0.97-4-1.32c-1.64-0.38-3.07-0.57-4.37-0.57
		c-0.19,0-0.38,0-0.57,0.01c-1.06,0.05-1.48,0.86-1.83,2.16c-0.09,0.33-0.11,0.79-0.07,1.42c0.03,0.46,0.18,1.28,0.84,1.7
		c0.26,0.16,0.66,0.27,1.06,0.27c0.22,0,0.42-0.03,0.57-0.09c0.31-0.13,0.59-0.33,0.89-0.55c0.14-0.1,0.29-0.21,0.43-0.3
		c0.36-0.23,0.77-0.34,1.3-0.34c0.2,0,0.39,0.01,0.53,0.03l0.25,0.02c2.08,0.18,4.24,0.37,6.29,0.96c0.33,0.1,0.67,0.19,1,0.3
		c0.04,0.01,0.09,0.03,0.15,0.06c0.04,0.02,0.1,0.05,0.14,0.06c0.17,0,0.32,0.14,0.33,0.31c0.01,0.19-0.12,0.35-0.31,0.36
		l-0.15,0.01c-1.12,0.09-2.28,0.18-3.39,0.37c-0.88,0.15-2.01,0.38-3.01,0.8c-0.34,0.14-1.15,0.58-1.27,1.47
		c-0.12,0.95,0.37,1.96,1.31,2.72c0.95,0.76,1.94,0.85,2.88,0.25c1.24-0.79,2.27-1.48,3.28-2.23l0.17-0.13
		c0.77-0.57,1.56-1.16,2.48-1.52c1-0.39,2.32-0.52,3.31-0.33c0.59,0.11,1.19,0.34,1.78,0.69c0.28,0.16,0.52,0.36,0.76,0.55
		c0.24,0.19,0.46,0.37,0.7,0.5c0.57,0.33,1.27,0.57,1.87,0.64c0.12,0.01,0.25,0.02,0.38,0.02c1.18,0,2.35-0.64,3.48-1.27
		c0.74-0.41,1.51-0.83,2.29-1.07c0.81-0.25,1.74-0.54,2.7-0.5c1.63,0.08,3.37,0.88,4.77,1.52l0.09,0.04
		c0.75,0.34,1.54,0.79,2.41,1.37c0.18,0.12,0.37,0.28,0.56,0.44c0.44,0.37,0.94,0.8,1.37,0.8c0.79,0,1.49-1.88,1.67-2.85
		c0.02-0.08,0.03-0.16,0.05-0.23c0.11-0.52,0.2-0.98-0.01-1.44c-0.22-0.49-0.74-0.8-1.03-0.94c-0.84-0.41-1.73-0.71-2.59-0.99
		c-0.63-0.21-1.28-0.43-1.91-0.69c-1.21-0.5-1.64-1.55-2.06-2.58c-0.2-0.49-0.4-0.97-0.56-1.46c0-0.01-0.01-0.04-0.03-0.07
		c-0.17-0.41-0.25-0.63-0.12-0.83c0.64-0.97,1.16-1.78,1.4-2.71c0.33-1.26,0.57-2.57,0.81-3.84c0.18-0.96,0.36-1.94,0.58-2.91
		c2.64-11.63-1.29-21.96-1.33-22.06c-0.05-0.12-0.02-0.26,0.07-0.35c0.09-0.09,0.23-0.13,0.35-0.09c1.63,0.54,5.46,3.96,5.77,4.24
		c1.63,1.15,3.27,1.39,4.35,1.39c0.62,0,1.12-0.08,1.44-0.14c-1.68-3.44-5.72-5.8-5.76-5.82c-0.01-0.01-0.02-0.01-0.03-0.02
		c-7.98-5.85-22.07-13.25-22.21-13.33c-0.13-0.07-0.21-0.22-0.17-0.37c0.03-0.15,0.16-0.26,0.31-0.27
		c12.24-0.69,20.62-4.99,25.49-8.48c5.28-3.78,7.71-7.45,7.73-7.48c0.01-0.01,0.02-0.03,0.03-0.04c5.27-5.92,2.39-15.43,2.36-15.52
		c-2.15-6.71-9.24-9.54-9.31-9.56c-3.53-1.32-6.97-1.99-10.21-1.99c-2.58,0-4.06,0.45-4.08,0.45c-9.29,2.6-9.8,9.4-9.82,9.69
		c-0.52,8.12,6.72,10.24,7.03,10.33c2.06,0.66,4.15,0.99,6.23,0.99c5.06,0,8.59-1.97,9.19-2.32c0.01-0.03,0.02-0.06,0.04-0.11
		c0.17-0.85,0.2-1.78,0.1-2.75c-0.01-0.12-0.03-0.25-0.05-0.37c-0.27-1.26-0.48-1.84-1.18-2.99c-1.56,2.41-4.76,3.28-7.15,3.28
		c-1.33,0-2.56-0.25-3.56-0.72c-1.34-0.63-2.28-1.83-2.46-3.13c-0.15-1.09,0.25-2.12,1.14-2.91c1.27-1.12,3.32-1.52,4.81-1.52
		c0.55,0,1.08,0.05,1.56,0.15c2.26,0.46,4.48,1.96,5.93,4.01c0,0,0,0.01,0.01,0.01c0.82,1.16,1.36,2.44,1.57,3.72
		c0.34,1.64,0.11,2.83-0.06,3.4c-0.81,3.98-4.07,5.44-4.39,5.58c-2.38,1.32-5.11,1.8-7.47,2.09c-1.65,0.2-3.4,0.3-5.52,0.3
		c-0.51,0-1.01-0.01-1.52-0.01l-0.33-0.01c-2.08-0.04-4.22-0.07-6.29-0.56c-0.86-0.21-1.71-0.49-2.53-0.76
		c-0.88-0.29-1.79-0.59-2.7-0.79c-2.54-0.56-5.16-0.79-7.42-0.96c-1.05-0.08-2.12-0.14-3.19-0.19c-1.83-0.08-3.78-0.12-6.31-0.12
		c-0.58,0-1.15,0-1.73,0c-0.04,0-0.12,0-0.23-0.01c-0.21-0.01-0.53-0.03-0.8-0.03c-0.19,0-0.28,0.01-0.32,0.02
		c-0.11,0.07-0.25,0.07-0.36,0c-0.16-0.1-0.21-0.31-0.11-0.46c0,0,0,0,0,0l0,0c4.33-6.97,10.48-8.44,14.88-8.44
		c1.74,0,3.19,0.23,4.14,0.43c-6.21-6.81-2.9-15.06-2.86-15.15c4.22-10.72,15.89-15.37,19.51-16.59c-2.11-0.68-5.38-2.09-6.5-4.56
		c-2.41-5.35,2.37-10.06,5.86-13.5l0.42-0.41c2.41-2.39,5.19-4.73,8.3-7c-1.17,0.46-2.31,0.91-3.35,1.32
		c-2.02,0.79-4.05,1.58-6.08,2.36c-1.8,0.69-3.61,1.38-5.42,2.07c-5.2,1.98-10.58,4.03-15.8,6.21c-1.87,0.78-3.86,1.21-5.59,1.21
		c-2.32,0-5.34-0.75-6.6-4.31c-1.87-5.28,1.41-11.67,2.89-14.16c-4.24,2.18-8.56,4.61-12.88,7.23c-7.15,4.36-14.42,9.22-21.59,14.45
		c-3.4,2.48-6.75,5.14-9.99,7.72c-1.33,1.05-2.65,2.11-3.98,3.15l-0.42,0.33c-3.86,3.02-7.85,6.15-8.65,11.26
		c-0.12,0.79-0.13,1.62-0.14,2.42l0,0.42c-0.01,1.13,0.03,2.29,0.06,3.42c0.12,3.37,0.24,6.86-1.07,10.17
		c-0.64,1.62-1.65,2.78-2.85,3.29c-1.21,0.51-2.57,0.71-3.88,0.91c-0.56,0.08-1.09,0.17-1.61,0.27c-4.1,0.81-8.21,1.73-11.69,2.52
		c-0.09,0.02-0.19,0-0.27-0.05c-0.08-0.05-0.13-0.14-0.14-0.23c-0.1-0.68-0.41-1.31-0.73-1.98c-0.38-0.78-0.78-1.59-0.82-2.51
		c-0.05-1.08,0.45-2.18,1.29-2.78c0.58-0.42,1.47-0.61,1.73-0.66c1.06-0.19,2.59,0.13,3.74,0.75c-0.01-0.64-0.12-1.33-0.33-2.07
		c-0.37-1.34-1.7-1.82-2.99-2.28c-0.4-0.15-0.82-0.3-1.2-0.47c-0.6-0.28-1.27-0.73-1.83-1.23c-0.77-0.69-1.15-1.77-1.18-3.33
		c-0.01-0.89-0.03-2.1,0.83-2.78c0.48-0.37,1.08-0.56,1.79-0.56c1.83,0,3.94,1.26,5.05,2.01c0.48,0.33,0.95,0.69,1.4,1.04l0.39,0.3
		c0.01,0.01,0.03,0.02,0.05,0.04c-0.13-0.75-0.34-1.94-0.5-2.77c-0.47-2.13-1.97-3.85-3.9-4.49c-0.73-0.24-1.77-0.65-2.4-1.39
		c-0.67-0.8-0.89-2.1-0.86-3.05c0.04-1.41,0.82-2.53,2.03-2.93c0.37-0.12,0.76-0.18,1.18-0.18c1.18,0,2.35,0.47,3.39,0.88l0.13,0.05
		c0.72,0.29,1.49,0.6,2.24,0.94c-0.01-0.53-0.08-1.09-0.19-1.6c-0.43-2.01-1.96-3.98-3.63-4.7c-0.3-0.13-0.64-0.21-1-0.3
		c-0.79-0.19-1.68-0.41-2.21-1.24c-0.27-0.42-0.35-0.94-0.23-1.47c0.13-0.56,0.48-1.05,0.96-1.33c0.97-0.58,2.43-0.56,3.54-0.54
		l0.32,0c0.52,0,1.07,0.04,1.68,0.12c-1.82-3.21-6.61-4.77-6.66-4.78c-0.08-0.03-0.15-0.08-0.19-0.15
		c-0.36-0.64-0.73-1.28-1.09-1.92c-0.47-0.84-0.95-1.67-1.42-2.51c-0.88-1.54-0.81-2.85,0.22-4.1c0.42-0.51,0.92-1,1.48-1.46
		c2.02-1.65,4.44-2.86,6.33-3.73c0.02-0.01,0.03-0.02,0.05-0.03l-1.82-0.25c-0.18-0.02-0.3-0.18-0.29-0.36
		c0.01-0.19,0.03-0.37,0.04-0.56l0.02-0.23c0.05-0.62,0.1-1.24,0.15-1.86c0.1-1.19,0.2-2.42,0.27-3.64
		c-0.23,0.22-0.5,0.44-0.81,0.64c-1.83,1.17-4.2,1.71-6.28,2.09l-0.04,0.01c-1.03,0.26-2.09,0.52-3.12,0.82
		c-1.24,0.36-2.67,0.8-3.91,1.49c-0.71,0.39-1.24,0.75-1.67,1.13c-0.03,0.03-0.18,0.21-0.3,0.35c-0.61,0.72-0.67,0.79-0.87,0.79
		c-0.01,0-0.02,0-0.03,0c-0.75-0.06-1.5-0.11-2.23-0.16c-1.92-0.12-3.82-0.23-6.08-0.36c-1.46-0.08-2.93-0.16-4.39-0.24l-2.29-0.12
		c-1.64-0.09-3.38,0.01-4.9,0.28c-1.58,0.28-3.74,1.01-5.07,2.92c-0.12,0.21-0.67,1.38-0.75,1.76c0.03,0.05,0.05,0.11,0.04,0.17
		c0,0.19-0.15,0.33-0.34,0.33c0,0,0,0,0,0l0,0l0,0c0,0,0,0,0,0c-0.16,0-0.31,0-0.47,0c-16.73,0-22.74,5.87-24.36,7.98
		c3.39-0.82,10.21-0.83,10.53-0.83c7.31,0.36,8.38,3.82,8.54,4.89c0.16,0.01,0.32,0.02,0.49,0.02c3.95,0,8.55-3.98,8.59-4.02
		c0.06-0.05,0.14-0.08,0.21-0.08c0.08,0,0.17,0,0.25,0c1.8,0,3.81,0.45,5.83,1.3c0.65,0.27,1.29,0.65,1.85,1.1
		c2.01,1.59,3.1,4.21,3.91,6.55c0,0.01,0.02,0.06,0.04,0.14c0.04,0.14,0.15,0.54,0.2,0.65c0.03,0.05,0.05,0.12,0.05,0.18
		c-0.01,0.18-0.15,0.33-0.34,0.33c-0.01,0-0.01,0-0.02,0c-0.29-0.01-0.57,0-0.86,0c-0.17,0-0.33,0-0.5,0l-0.09,0
		c-0.24,0-0.49-0.02-0.72-0.03c-0.47-0.03-0.93-0.05-1.29,0.01c-0.61,0.11-1.19,0.39-1.68,0.65c-1.09,0.58-2.25,1.02-3.38,1.44
		l-0.3,0.11c-1.03,0.39-2.27,0.81-3.59,0.9c-0.33,0.02-1.56,0.03-2.27,0.03c-1.72,0-4.13-0.02-5.53-0.06
		c0.39,4.11,2.12,5.86,2.14,5.87c0.08,0.08,0.12,0.19,0.1,0.3c-0.48,2.76-0.03,4.1,0.43,4.74c0.23,0.32,0.47,0.48,0.65,0.57
		l2.79-8.11c0.05-0.13,0.17-0.22,0.31-0.23c0.14,0,0.27,0.08,0.32,0.2l1.6,3.7c2.54-7.19,7.38-7.76,8.85-7.76
		c0.21,0,0.33,0.01,0.33,0.01c0.16,0.02,0.28,0.14,0.3,0.3c0.13,1.2,1.3,3.5,1.31,3.52c0.04,0.08,0.05,0.18,0.02,0.27
		c-0.03,0.09-0.1,0.16-0.19,0.2c-5.11,2.08-3.71,7.01-3.65,7.22c0.05,0.15-0.02,0.32-0.17,0.4c-4.38,2.29-3.34,7.26-3.33,7.31
		c0.03,0.14-0.03,0.29-0.16,0.36c-4.99,2.94-3.9,8.29-3.89,8.34c0.04,0.17-0.06,0.34-0.23,0.39c-3.8,1.12-2.94,10.14-2.93,10.23
		c0.01,0.09-0.02,0.18-0.08,0.25c-2.02,2.43-2.89,4.86-2.61,7.23c0.42,3.55,3.33,5.76,3.36,5.78c0.09,0.07,0.15,0.18,0.13,0.3
		c-0.01,0.12-0.08,0.22-0.19,0.27c-2.28,1.11-2.44,3.4-2.44,3.49c-0.01,0.11-0.07,0.21-0.16,0.27c-0.09,0.06-0.21,0.07-0.31,0.03
		c-0.41-0.17-0.79-0.26-1.14-0.26c-1.2,0-1.64,1.04-1.66,1.08c-0.05,0.11-0.15,0.19-0.27,0.21c-0.12,0.01-0.24-0.04-0.31-0.14
		c-1.07-1.5-2.38-2.26-3.91-2.26c-1,0-1.73,0.34-1.73,0.35c-0.08,0.04-0.18,0.04-0.26,0.01c-0.09-0.03-0.16-0.1-0.19-0.18
		c-1.57-3.58-4.65-3.85-5.56-3.85c-0.15,0-0.23,0.01-0.24,0.01c-0.09,0.01-0.18-0.02-0.25-0.08c-0.07-0.06-0.11-0.14-0.12-0.23
		c-0.31-4.72-3.82-5.4-3.97-5.42c-0.16-0.03-0.28-0.17-0.28-0.33c-0.07-7.96-3.82-14.06-3.86-14.12c-0.02-0.03-0.03-0.06-0.04-0.09
		c-0.81-2.8,1.1-3.76,1.12-3.77c1.56-0.65,3.48-2.36,3.5-2.38c1.52-1.52,0.98-3.69,0.98-3.71c-0.34-1.06-2.44-1.94-3.22-2.19
		c-0.02-0.01-0.04-0.01-0.05-0.02c-0.1-0.05-0.21-0.08-0.32-0.08c-0.88,0-2.03,1.61-2.59,2.7c-0.06,0.11-0.17,0.18-0.3,0.18
		c-0.15,0-0.28-0.1-0.32-0.24c-0.33-1.17-0.04-1.94,0.41-2.9c0.33-0.72,0.79-1.78,0.86-2.74c0.23-2.95-0.68-3.57-0.79-3.63
		c-0.29-0.07-0.59-0.11-0.89-0.11c-1.75,0-3.11,1.29-3.31,1.49c-2.7,4.76-0.87,12.67-0.85,12.75c0.04,0.17-0.06,0.35-0.23,0.4
		c-0.17,0.05-0.35-0.04-0.41-0.21l-1.39-4.05c-1.66-4.27-2.75-6.09-2.88-6.29c-0.22-0.25-0.44-0.36-0.7-0.36
		c-0.47,0-1.02,0.38-1.55,0.74c-0.27,0.19-0.53,0.37-0.79,0.5c-0.08,0.04-0.16,0.09-0.24,0.13c-0.14,0.08-0.29,0.17-0.45,0.23
		c-0.19,0.08-0.4,0.1-0.58,0.12c-0.18,0.02-0.36,0.04-0.46,0.11c-0.16,0.1-0.3,0.27-0.42,0.5c-0.87,1.68,0.68,3.21,1.18,3.64
		c0.08,0.07,0.12,0.16,0.12,0.27c-0.17,5.19,4.54,6.53,4.74,6.59c0.16,0.04,0.26,0.19,0.25,0.36l-1.09,11.07
		c0,0.05-0.01,0.2-0.03,0.42c-0.23,3.33-0.27,3.34-0.61,3.39c-1.08,0.15-1.61,1.73-1.61,1.75c-0.29,1.16-1.12,2.18-1.71,2.85
		c-0.52,0.58-1.09,1.03-1.65,1.47c-0.23,0.18-0.47,0.37-0.7,0.57c-0.32,0.27-0.38,0.42-0.33,0.8c0.04,0.24,0.24,0.37,0.57,0.56
		c0.16,0.1,0.33,0.19,0.48,0.32c0.34,0.3,0.57,0.68,0.79,1.04c0.16,0.26,0.31,0.51,0.49,0.71c0.28,0.32,0.85,0.86,1.51,0.86
		c0.27,0,0.54-0.1,0.79-0.29c0.91-0.7,1.28-2.08,1.41-2.83c0.03-0.17,0.05-0.34,0.07-0.51c0.04-0.34,0.09-0.69,0.2-1.04
		c0.19-0.63,0.55-0.96,0.96-1.33c0.92-0.85,1.42-2.22,1.87-3.43l0.01-0.04c0.3-0.83,0.55-1.52,0.75-2.24
		c0.04-0.16,0.2-0.26,0.36-0.25c0.16,0.02,0.29,0.15,0.3,0.32c0.22,5.15,4.14,11.51,4.18,11.57c1.43,2.45,3.46,4.8,6.2,7.2
		c0.81,0.71,1.64,1.49,2.45,2.31c0.73,0.74,1.46,1.53,2.19,2.35c1.11,1.27,2.25,2.66,3.57,4.38c0.28,0.37,0.57,0.73,0.86,1.09
		c0.83,1.05,1.68,2.13,2.41,3.28c1.72,2.72,2.76,5.81,3.1,9.19c0.12,1.22,0.16,2.32,0.11,3.36c0,0.04,0,0.1,0,0.18
		c0,0.08,0,0.15,0,0.22c3.74-3.79,5.46-10.38,5.48-10.45c0.03-0.13,0.14-0.23,0.28-0.25c2.08-0.31,9.27-1.69,9.34-1.71
		c0.07-0.01,0.14,0,0.2,0.02c0.13,0.06,0.8,0.25,3.81,0.25c0.66,0,1.13-0.01,1.13-0.01c0.14,0,0.28,0.09,0.33,0.24
		c0.05,0.14-0.01,0.3-0.13,0.38c-1.55,1.03-1.03,4.17-1.02,4.2c0.03,0.15-0.05,0.29-0.18,0.36c-1.62,0.79-2.6,1.79-2.92,2.96
		c-0.42,1.56,0.48,2.91,0.49,2.93c0.05,0.08,0.07,0.18,0.05,0.28c-0.03,0.09-0.09,0.17-0.18,0.22c-4.48,2.16-3.73,7.82-3.72,7.88
		c0.01,0.07,0,0.14-0.04,0.21c-3.69,6.92-11.44,7.41-11.52,7.42c-0.17,0.01-0.34,0.01-0.51,0.01c-3.93,0-7.07-1.96-7.2-2.04
		c-2.5-1.73-4.58-2.16-6.14-1.25c-0.59,0.35-0.99,0.84-1.41,1.36c-0.11,0.14-0.22,0.27-0.34,0.41c-0.37,0.43-0.52,0.87-0.47,1.28
		c0.09,0.7,0.76,1.19,0.76,1.19c0.1,0.07,0.15,0.18,0.14,0.3c-0.01,0.12-0.07,0.22-0.18,0.28c-1.9,1.01-1.85,3.31-1.84,3.33
		c0.03,1.62,1.03,1.79,1.46,1.79c0.03,0,0.06,0,0.06,0c0.11-0.01,0.21,0.03,0.28,0.11c0.07,0.08,0.1,0.19,0.08,0.29
		c-0.59,2.73,0.74,4.61,0.75,4.63c1.19,1.71,3.49,1.8,3.93,1.8C61.3,161.44,61.27,161.44,61.28,161.44z M234.21,67.03
		c-1.75,0-3.42,0.52-4.37,1.35c-0.91,0.81-1,1.7-0.92,2.31c0.15,1.06,0.97,2.09,2.08,2.62c0.91,0.43,2.04,0.66,3.28,0.66
		c2.48,0,5.48-1,6.74-3.23c-1.36-1.83-3.36-3.15-5.39-3.57C235.2,67.08,234.72,67.03,234.21,67.03z"/>
	<path id="_x37_5" class="st2" d="M246.92,61.33c0,0,2.97-5.46,3.57-7.82c0,0-7.49,1.35-13.29,0.4c0,0,22.16-20.46,27.1-29.18
		c0,0-3.15,24.55,3.42,38.04c0,0-8.54-3.24-10.61-9.08c0,0-3.87,13.04-4.41,13.49C252.71,67.17,250.46,63.49,246.92,61.33z"/>
	<path id="_x37_4" d="M252.71,67.51c-0.02,0-0.04,0-0.06,0c-0.1-0.02-0.18-0.07-0.23-0.16c-0.02-0.04-2.25-3.64-5.68-5.73
		c-0.15-0.09-0.21-0.29-0.12-0.45c0.03-0.05,2.57-4.75,3.39-7.24c-1.26,0.2-4.59,0.66-8.12,0.66c-1.76,0-3.36-0.11-4.75-0.34
		c-0.13-0.02-0.23-0.11-0.27-0.24c-0.04-0.12,0-0.26,0.09-0.34c0.22-0.2,22.17-20.52,27.04-29.1c0.08-0.14,0.25-0.2,0.4-0.15
		c0.15,0.05,0.25,0.2,0.23,0.36c-0.03,0.24-3.06,24.61,3.39,37.85c0.06,0.12,0.04,0.27-0.05,0.37c-0.09,0.1-0.24,0.14-0.37,0.09
		c-0.34-0.13-7.88-3.04-10.44-8.39c-1.28,4.3-3.73,12.31-4.24,12.74C252.87,67.48,252.79,67.51,252.71,67.51z M247.37,61.21
		c2.69,1.73,4.59,4.25,5.31,5.3c0.74-1.81,2.83-8.58,4.12-12.92c0.04-0.14,0.17-0.24,0.31-0.24c0.15,0,0.28,0.09,0.33,0.22
		c1.63,4.6,7.47,7.58,9.62,8.54c-5.16-11.6-3.77-30.53-3.24-35.94c-5.6,8.48-22.59,24.46-25.86,27.5c1.18,0.15,2.51,0.23,3.95,0.23
		c4.41,0,8.49-0.73,8.54-0.73c0.11-0.02,0.23,0.02,0.31,0.1c0.08,0.08,0.11,0.2,0.08,0.31C250.28,55.68,247.99,60.05,247.37,61.21z"
		/>
	<path id="_x37_3" class="st2" d="M56.49,56.83c0,0,1.41,3.95-1.85,6.52c0,0,1.12,2.89,3.06,1.78c0.57-0.33,0.91-1.97,1.07-2.52
		C59.39,60.43,58.94,57.65,56.49,56.83z"/>
	<path id="_x37_2" d="M56.82,65.72C56.82,65.72,56.82,65.72,56.82,65.72c-1.61,0-2.47-2.16-2.51-2.25c-0.05-0.14-0.01-0.3,0.11-0.39
		c3.04-2.39,1.76-6.1,1.75-6.14c-0.04-0.12-0.01-0.26,0.08-0.35c0.09-0.09,0.23-0.12,0.35-0.08c2.56,0.85,3.19,3.76,2.5,6.19
		c-0.02,0.08-0.05,0.18-0.08,0.3c-0.27,1.05-0.58,2.09-1.15,2.42C57.52,65.62,57.17,65.72,56.82,65.72z M55.05,63.45
		c0.23,0.48,0.87,1.6,1.78,1.6l0,0c0.22,0,0.46-0.07,0.7-0.21c0.36-0.21,0.7-1.51,0.83-2c0.03-0.13,0.06-0.23,0.08-0.32
		c0.53-1.86,0.26-4.13-1.46-5.1C57.23,58.69,57.41,61.44,55.05,63.45z"/>
	<path id="_x37_1" class="st2" d="M47.21,57.62c0,0-0.27-6.54-4.11-6.68c0,0,5.06-1.01,7.89,5.13
		C50.99,56.07,49.03,58.56,47.21,57.62z"/>
	<path id="_x37_0" d="M48.08,58.17c-0.36,0-0.7-0.08-1.03-0.25c-0.11-0.06-0.18-0.16-0.18-0.29c0-0.06-0.3-6.23-3.79-6.35
		c-0.17-0.01-0.31-0.14-0.32-0.31c-0.01-0.17,0.1-0.32,0.27-0.36c0.01,0,0.35-0.07,0.89-0.07c1.47,0,5.13,0.52,7.38,5.38
		c0.05,0.11,0.04,0.25-0.04,0.35C51.2,56.35,49.75,58.17,48.08,58.17z M47.54,57.39c0.17,0.07,0.36,0.1,0.55,0.1
		c1.09,0,2.15-1.07,2.51-1.48c-1.59-3.3-3.82-4.38-5.49-4.69C47.09,52.88,47.47,56.47,47.54,57.39z"/>
	<path id="_x36_9" class="st2" d="M36.69,62.2c0,0-0.81-4.59-4.25-4.65c0,0,4.05-1.48,7.96,2.56C40.4,60.11,39.93,63.28,36.69,62.2z
		"/>
	<path id="_x36_8" d="M37.94,62.77c-0.42,0-0.87-0.08-1.35-0.24c-0.12-0.04-0.2-0.14-0.23-0.26c-0.01-0.04-0.8-4.31-3.92-4.38
		c-0.16,0-0.3-0.12-0.33-0.28c-0.03-0.16,0.06-0.32,0.22-0.37c0.03-0.01,0.79-0.29,1.97-0.29c1.6,0,4,0.51,6.34,2.93
		c0.07,0.08,0.11,0.18,0.09,0.28C40.6,61.06,39.84,62.77,37.94,62.77z M36.98,61.94c0.34,0.1,0.66,0.15,0.95,0.15
		c1.52,0,1.98-1.39,2.1-1.87c-2.22-2.23-4.46-2.64-5.9-2.6C36.11,58.63,36.81,61.19,36.98,61.94z"/>
	<path id="_x36_7" class="st2" d="M35.68,97.01c0,0-0.94,5.6-6.14,4.65c0,0,5.46,2.97,8.77-1.69
		C38.31,99.97,39.05,97.14,35.68,97.01z"/>
	<path id="_x36_6" d="M33.35,102.93C33.35,102.93,33.35,102.93,33.35,102.93c-2.15,0-3.9-0.93-3.97-0.97
		c-0.15-0.08-0.21-0.25-0.16-0.41c0.06-0.16,0.22-0.25,0.38-0.22c0.37,0.07,0.73,0.11,1.08,0.11c0,0,0,0,0,0
		c3.86,0,4.64-4.3,4.67-4.48c0.03-0.17,0.17-0.29,0.35-0.28c1.18,0.05,2.04,0.41,2.54,1.09c0.73,0.99,0.41,2.24,0.4,2.29
		c-0.01,0.04-0.03,0.08-0.05,0.11C37.29,102,35.52,102.93,33.35,102.93z M31.56,102.03c0.53,0.13,1.14,0.22,1.79,0.22
		c1.92,0,3.48-0.81,4.65-2.42c0.04-0.22,0.16-1.05-0.3-1.67c-0.34-0.45-0.93-0.72-1.75-0.8C35.7,98.36,34.66,101.52,31.56,102.03z"
		/>
	<path id="_x36_5" class="st2" d="M58.49,144.35c-0.5-0.9-1.7-1.26-2.64-1.39c-1.28-0.17-2.53-0.14-3.62,0.66
		c-1,0.75-1.46,2.14-1.78,3.29c0.21-0.74,1.24-1.32,1.88-1.6c1.34-0.6,2.29,0.05,3.32,0.85c0.93,0.71,2.37,0.83,2.93-0.41
		c0.19-0.42,0.16-0.91-0.04-1.32C58.52,144.41,58.51,144.38,58.49,144.35z"/>
	<path id="_x36_4" d="M50.45,147.27c-0.03,0-0.06-0.01-0.09-0.02c-0.18-0.05-0.28-0.24-0.23-0.42c0.35-1.28,0.86-2.69,1.91-3.47
		c0.74-0.55,1.61-0.82,2.68-0.82c0.36,0,0.74,0.03,1.19,0.09c0.82,0.11,2.28,0.46,2.89,1.56c0.02,0.03,0.04,0.07,0.05,0.1
		c0.25,0.52,0.27,1.1,0.05,1.6c-0.32,0.73-0.96,1.14-1.76,1.14l0,0c-0.57,0-1.19-0.22-1.68-0.6c-0.75-0.57-1.38-1.01-2.1-1.01
		c-0.28,0-0.6,0.07-0.91,0.2c-0.93,0.41-1.45,0.94-1.72,1.39v0.01h0.01C50.69,147.03,50.6,147.27,50.45,147.27z M53.35,144.75
		c0.94,0,1.69,0.52,2.51,1.15c0.38,0.29,0.85,0.46,1.27,0.46l0,0c0.37,0,0.86-0.13,1.14-0.74c0.14-0.31,0.12-0.7-0.04-1.03
		c-0.01-0.02-0.02-0.05-0.04-0.07c-0.47-0.84-1.7-1.13-2.39-1.22c-0.41-0.06-0.77-0.08-1.1-0.08c-0.93,0-1.65,0.22-2.27,0.68
		c-0.5,0.38-0.87,0.95-1.15,1.6c0.32-0.21,0.65-0.37,0.9-0.48C52.59,144.83,52.96,144.75,53.35,144.75z"/>
	<path id="_x36_3" class="st2" d="M54.79,150.78c-0.97-0.42-2.23-0.27-3.25-0.14c-2.58,0.34-4.91,2.08-5.48,4.71
		c0.04-0.17,0.29-0.29,0.4-0.39c0.38-0.32,0.73-0.69,1.18-0.93c1.33-0.72,3.06-0.99,4.47-0.43c0.52,0.21,1.03,0.48,1.58,0.58
		c0.32,0.06,1.02,0.12,1.3-0.11C56.04,153.21,56.17,151.38,54.79,150.78z"/>
	<path id="_x36_2" d="M46.07,155.68c-0.02,0-0.05,0-0.07-0.01c-0.18-0.04-0.3-0.22-0.26-0.4c0.56-2.6,2.88-4.6,5.76-4.98
		c0.57-0.07,1.13-0.14,1.7-0.14c0.69,0,1.26,0.1,1.73,0.31c0.67,0.29,1.09,0.85,1.19,1.57c0.12,0.84-0.24,1.75-0.91,2.3
		c-0.2,0.16-0.49,0.24-0.91,0.24l0,0c-0.22,0-0.47-0.02-0.67-0.06c-0.43-0.08-0.83-0.26-1.22-0.42c-0.14-0.06-0.28-0.12-0.42-0.18
		c-1.21-0.48-2.86-0.31-4.19,0.41c-0.29,0.16-0.55,0.38-0.82,0.62c-0.1,0.09-0.2,0.18-0.31,0.27c-0.04,0.03-0.08,0.06-0.13,0.1
		c-0.05,0.03-0.14,0.09-0.16,0.13C46.35,155.59,46.22,155.68,46.07,155.68z M53.2,150.83c-0.53,0-1.07,0.06-1.61,0.14
		c-2.12,0.28-3.9,1.52-4.76,3.23c0.2-0.17,0.41-0.33,0.66-0.46c0.92-0.5,1.97-0.77,2.98-0.77c0.64,0,1.24,0.11,1.78,0.32
		c0.15,0.06,0.3,0.12,0.44,0.19c0.37,0.16,0.71,0.31,1.08,0.38c0.13,0.02,0.33,0.05,0.54,0.05l0,0c0.3,0,0.44-0.05,0.48-0.09
		c0.49-0.4,0.75-1.08,0.67-1.69c-0.05-0.34-0.22-0.8-0.79-1.04C54.27,150.92,53.8,150.83,53.2,150.83z"/>
	<path id="_x36_1" class="st2" d="M56.25,157.17c-2.01-0.25-3.61,1.33-4.41,3.02c-0.59,1.25-0.97,2.61-1.39,3.93
		c0.17-0.54,0.74-1.14,1.1-1.55c1.37-1.55,3.06-2.89,5.24-2.34c0.48,0.12,1.07,0.1,1.31-0.39C58.77,158.5,57.47,157.32,56.25,157.17
		z"/>
	<path id="_x36_0" d="M50.45,164.45c-0.03,0-0.07-0.01-0.1-0.02c-0.18-0.06-0.28-0.25-0.22-0.42l0,0l0,0
		c0.06-0.2,0.13-0.4,0.19-0.61c0.35-1.12,0.7-2.29,1.22-3.37c0.74-1.56,2.26-3.24,4.3-3.24c0.15,0,0.31,0.01,0.46,0.03
		c0.87,0.11,1.71,0.66,2.1,1.38c0.31,0.57,0.31,1.19,0.02,1.78c-0.21,0.41-0.61,0.64-1.14,0.64l0,0c-0.18,0-0.36-0.02-0.56-0.07
		c-0.3-0.08-0.61-0.12-0.91-0.12c-1.73,0-3.11,1.34-4,2.35l-0.11,0.12c-0.33,0.37-0.79,0.88-0.92,1.3c0,0,0,0,0,0
		C50.73,164.36,50.59,164.45,50.45,164.45z M55.83,157.48c-1.72,0-3.03,1.47-3.69,2.85c-0.29,0.61-0.53,1.25-0.75,1.9
		c0.98-1.09,2.47-2.46,4.4-2.46c0.35,0,0.71,0.05,1.07,0.14c0.14,0.03,0.27,0.05,0.39,0.05c0.4,0,0.5-0.2,0.54-0.27
		c0.2-0.4,0.2-0.79-0.01-1.16c-0.28-0.52-0.93-0.94-1.58-1.02C56.08,157.49,55.96,157.48,55.83,157.48z"/>
	<path id="_x35_9" class="st2" d="M97.16,154.81c0.68-0.15,1.39,0.04,2.05,0.17c0.55,0.11,1.09,0.28,1.56,0.59
		c1.58,1.01,1.96,3.08,2.31,4.77c-1.03-1.21-2.21-2.6-3.98-2.21c-0.84,0.18-1.52,0.64-2.32,0.91c-0.23-0.32-0.39-0.73-0.51-1.11
		c-0.1-0.31-0.15-0.63-0.14-0.95C96.2,155.43,97.16,154.81,97.16,154.81z"/>
	<path id="_x35_8" d="M103.09,160.67c-0.1,0-0.19-0.04-0.26-0.12l-0.02-0.02c-0.9-1.05-1.83-2.14-3.11-2.14
		c-0.17,0-0.34,0.02-0.52,0.06c-0.46,0.1-0.87,0.29-1.3,0.49c-0.31,0.14-0.64,0.29-0.98,0.41c-0.14,0.05-0.3,0-0.38-0.12
		c-0.21-0.3-0.39-0.69-0.55-1.2c-0.11-0.37-0.17-0.72-0.15-1.06c0.06-1.7,1.12-2.41,1.16-2.44c0.03-0.02,0.07-0.04,0.11-0.05
		c0.19-0.04,0.4-0.06,0.62-0.06c0.46,0,0.9,0.09,1.33,0.18l0.25,0.05c0.67,0.13,1.22,0.34,1.68,0.63c1.65,1.05,2.08,3.15,2.43,4.84
		l0.03,0.15c0.03,0.15-0.04,0.3-0.18,0.37C103.19,160.65,103.14,160.67,103.09,160.67z M99.7,157.71c1.15,0,2.03,0.65,2.78,1.44
		c-0.32-1.31-0.79-2.6-1.89-3.3c-0.39-0.25-0.86-0.42-1.45-0.54l-0.26-0.05c-0.54-0.11-1.13-0.22-1.59-0.13
		c-0.17,0.14-0.77,0.7-0.81,1.86c-0.01,0.26,0.03,0.54,0.12,0.83c0.1,0.32,0.21,0.58,0.32,0.8c0.22-0.09,0.44-0.19,0.67-0.29
		c0.45-0.21,0.91-0.42,1.44-0.54C99.26,157.74,99.49,157.71,99.7,157.71z"/>
	<path id="_x35_7" class="st2" d="M129.09,140.12c-0.01-0.01-0.03-0.02-0.04-0.03c-1.03-0.78-2.53-0.89-3.73-0.49
		c-0.6,0.2-1.37,0.55-1.82,1c-0.69,0.69-1.16,1.43-1.5,2.35c-0.07,0.19-0.13,0.38-0.18,0.57c-0.04,0.14-0.05,0.43-0.14,0.55
		c0.35-0.48,0.76-0.9,1.22-1.28c0.75-0.63,1.75-1.4,2.79-1.25c0.83,0.12,1.49,0.62,2.08,1.18c0.53,0.51,1.32,0.99,1.86,0.15
		c0.23-0.36,0.27-1.11,0.22-1.52C129.76,140.85,129.48,140.43,129.09,140.12z"/>
	<path id="_x35_6" d="M121.66,144.4c-0.07,0-0.14-0.02-0.2-0.06c-0.15-0.11-0.18-0.31-0.08-0.46c0.02-0.04,0.04-0.16,0.05-0.23
		c0.01-0.08,0.03-0.16,0.05-0.22c0.06-0.2,0.12-0.4,0.19-0.59c0.36-0.97,0.86-1.75,1.58-2.47c0.61-0.61,1.65-0.99,1.96-1.08
		c0.47-0.16,1-0.24,1.51-0.24c0.96,0,1.85,0.28,2.52,0.78l0.05,0.04c0.49,0.39,0.79,0.89,0.87,1.46c0.06,0.46,0.01,1.3-0.27,1.74
		c-0.32,0.51-0.72,0.61-1,0.61c0,0,0,0,0,0c-0.42,0-0.88-0.24-1.37-0.7c-0.5-0.48-1.11-0.98-1.9-1.09
		c-0.07-0.01-0.15-0.02-0.22-0.02c-0.81,0-1.61,0.61-2.3,1.19c-0.48,0.4-0.86,0.8-1.16,1.22c0,0,0,0,0,0
		C121.87,144.35,121.77,144.4,121.66,144.4z M125.4,141.18c0.11,0,0.22,0.01,0.32,0.02c0.98,0.14,1.72,0.76,2.26,1.27
		c0.35,0.33,0.67,0.51,0.9,0.51h0c0.1,0,0.26-0.03,0.43-0.3c0.16-0.25,0.22-0.9,0.17-1.29c-0.06-0.49-0.37-0.82-0.62-1.01
		l-0.03-0.03c-0.56-0.42-1.31-0.65-2.12-0.65c-0.44,0-0.9,0.07-1.3,0.2c-0.55,0.18-1.29,0.52-1.69,0.92
		c-0.56,0.56-0.98,1.16-1.29,1.88c0.07-0.06,0.14-0.13,0.22-0.19C123.44,141.87,124.36,141.18,125.4,141.18z"/>
	<path id="_x35_5" class="st2" d="M124.18,148.78c-0.46-0.33-1.36-0.19-1.86-0.14c-1.64,0.15-3.34,1.04-4.19,2.48
		c-0.28,0.47-0.53,1.01-0.7,1.54c-0.08,0.25-0.15,0.51-0.21,0.77c-0.05,0.25-0.04,0.61-0.14,0.84c0.62-1.37,1.73-2.47,3.27-2.64
		c0.48-0.05,0.95,0.01,1.4,0.16c0.45,0.14,0.88,0.38,1.37,0.39c0.56,0.01,0.98-0.43,1.2-0.92
		C124.32,151.26,125.13,149.46,124.18,148.78z"/>
	<path id="_x35_4" d="M117.08,154.61c-0.05,0-0.09-0.01-0.14-0.03c-0.17-0.08-0.24-0.28-0.17-0.45c0.04-0.09,0.06-0.26,0.07-0.42
		c0.01-0.12,0.02-0.24,0.05-0.36c0.06-0.26,0.13-0.53,0.22-0.8c0.17-0.53,0.42-1.09,0.73-1.61c0.85-1.44,2.6-2.48,4.45-2.65
		l0.18-0.02c0.23-0.02,0.51-0.05,0.79-0.05c0.5,0,0.86,0.09,1.12,0.27c1.16,0.83,0.28,2.8,0.25,2.89c-0.32,0.7-0.88,1.11-1.49,1.11
		c0,0,0,0,0,0c-0.42,0-0.77-0.14-1.11-0.27c-0.12-0.05-0.25-0.1-0.37-0.14c-0.45-0.14-0.86-0.19-1.26-0.14
		c-1.73,0.19-2.62,1.62-3,2.45C117.33,154.53,117.2,154.61,117.08,154.61z M123.26,148.91c-0.25,0-0.5,0.03-0.73,0.05l-0.18,0.02
		c-1.65,0.15-3.19,1.06-3.93,2.32c-0.23,0.4-0.44,0.83-0.59,1.25c0.69-0.71,1.53-1.14,2.48-1.25c0.5-0.06,1,0,1.54,0.17
		c0.14,0.04,0.28,0.1,0.41,0.15c0.3,0.11,0.58,0.22,0.86,0.23c0.52,0,0.81-0.55,0.89-0.72c0.01-0.01,0.67-1.56-0.02-2.06
		C123.85,148.96,123.6,148.91,123.26,148.91z"/>
	<path id="_x35_3" class="st2" d="M126.56,156.07c0,0,2.52-0.31,3.55,1.39c0,0,0.94,1.93-0.81,1.84c-0.47-0.02-0.95-0.22-1.43-0.26
		c-0.45-0.04-0.91-0.01-1.34,0.12c-1.07,0.31-2.16,1.18-2.67,2.17c-0.13,0.25-0.42,0.84-0.35,1.12
		C123.51,162.45,122.07,156.47,126.56,156.07z"/>
	<path id="_x35_2" d="M123.5,162.78c-0.12,0-0.24-0.06-0.29-0.18c0,0-0.01-0.03-0.02-0.07l-0.01,0c-0.01-0.03-0.01-0.07-0.02-0.1
		c-0.15-0.67-0.57-3.12,0.42-4.9c0.6-1.07,1.59-1.68,2.95-1.8l0,0c0,0,0.2-0.02,0.5-0.02c0.9,0,2.54,0.21,3.37,1.58
		c0.01,0.01,0.01,0.02,0.01,0.03c0.06,0.12,0.54,1.15,0.12,1.82c-0.15,0.23-0.46,0.51-1.11,0.51c0,0,0,0,0,0c-0.04,0-0.09,0-0.13,0
		c-0.28-0.01-0.54-0.08-0.8-0.14c-0.22-0.05-0.43-0.1-0.64-0.12c-0.43-0.04-0.86,0-1.22,0.1c-1,0.29-2.01,1.11-2.47,2
		c-0.35,0.68-0.33,0.86-0.32,0.88c0.03,0.17-0.07,0.34-0.22,0.39C123.57,162.77,123.54,162.78,123.5,162.78z M127.03,156.38
		c-0.26,0-0.43,0.02-0.43,0.02c-1,0.09-1.76,0.48-2.25,1.17c-0.71,0.99-0.78,2.41-0.71,3.45c0.57-0.99,1.67-1.86,2.79-2.18
		c0.45-0.13,0.96-0.17,1.47-0.13c0.25,0.02,0.5,0.08,0.74,0.13c0.24,0.06,0.47,0.11,0.68,0.12c0.33,0.02,0.55-0.05,0.64-0.19
		c0.17-0.28-0.02-0.89-0.14-1.15C129.16,156.54,127.79,156.38,127.03,156.38z"/>
	<path id="_x35_1" class="st2" d="M165.75,159.89c0,0-1.71-2.97,0.72-4.23c0.1-0.05,0.35,0,0.45,0c0.35,0.02,0.7,0.05,1.05,0.09
		c1.41,0.17,2.95,0.71,3.89,1.83c0.41,0.5,0.62,1.04,0.81,1.65c0.16,0.5,0.32,1,0.45,1.5c0.07,0.25,0.13,0.51,0.18,0.77
		c-0.03-0.14-0.27-0.35-0.36-0.45c-0.3-0.32-0.61-0.62-0.94-0.91c-1.09-0.95-2.3-1.69-3.8-1.46c-0.58,0.09-1.16,0.2-1.65,0.54
		C166.46,159.29,165.69,159.77,165.75,159.89z"/>
	<path id="_x35_0" d="M173.3,161.84c-0.15,0-0.29-0.1-0.33-0.25c-0.03-0.05-0.14-0.16-0.19-0.21c-0.04-0.04-0.07-0.07-0.09-0.09
		c-0.26-0.28-0.56-0.57-0.92-0.88c-1.31-1.15-2.37-1.56-3.53-1.38c-0.52,0.08-1.06,0.18-1.51,0.48l-0.07,0.05
		c-0.38,0.25-0.53,0.37-0.59,0.43c-0.02,0.08-0.08,0.16-0.16,0.2c-0.16,0.09-0.36,0.03-0.45-0.13c-0.04-0.07-0.94-1.67-0.51-3.11
		c0.2-0.69,0.66-1.22,1.37-1.59c0.08-0.04,0.17-0.06,0.29-0.06c0.08,0,0.17,0.01,0.25,0.02c0.03,0,0.06,0.01,0.08,0.01
		c0.34,0.02,0.71,0.05,1.07,0.09c1.03,0.13,2.94,0.55,4.1,1.95c0.46,0.56,0.69,1.17,0.88,1.76c0.19,0.59,0.39,1.07,0.51,1.52
		c0.07,0.25,0.24,0.52,0.24,0.8c0,0,0,0,0,0c0,0.18-0.14,0.36-0.32,0.39C173.4,161.84,173.32,161.84,173.3,161.84z M168.74,158.31
		c1.48,0,2.64,0.85,3.48,1.59c0.15,0.13,0.29,0.26,0.42,0.38c-0.08-0.29-0.18-0.6-0.29-0.94c-0.18-0.54-0.36-1.07-0.75-1.53
		c-1.02-1.23-2.74-1.6-3.67-1.72c-0.35-0.04-0.69-0.07-1.02-0.09c-0.03,0-0.08-0.03-0.13-0.03c-0.05-0.01-0.12-0.04-0.17-0.04
		c-0.01,0-0.01,0-0.01,0c-0.53,0.27-0.86,0.68-1,1.18c-0.23,0.78,0.04,1.66,0.25,2.17c0.13-0.1,0.28-0.19,0.46-0.3l0.06-0.04
		c0.56-0.38,1.22-0.51,1.79-0.59C168.35,158.33,168.54,158.31,168.74,158.31z"/>
	<path id="_x34_9" class="st2" d="M193.23,145.43c0,0,0.13-4.11,4.65-4.18c0,0,1.55-0.07,2.5,0.4c0.52,0.26,0.69,1.1,0.6,1.6
		c-0.15,0.78-0.92,1.74-1.81,1.57c-0.2-0.04-0.51-0.35-0.7-0.44c-0.53-0.27-1.1-0.48-1.69-0.55c-0.69-0.07-1.42,0.07-2.04,0.36
		C194.41,144.36,193.25,144.98,193.23,145.43z"/>
	<path id="_x34_8" d="M193.23,145.77c0,0-0.01,0-0.01,0c-0.07,0-0.15-0.03-0.2-0.08c-0.06-0.05-0.12-0.13-0.12-0.21c0,0,0,0,0,0l0,0
		v0c0,0,0,0,0,0l0,0v0v0l-0.01-0.07h0.01h0h0h0h0h0h-0.02c0,0,0.01,0,0.01,0v0.03v0.02v0.02v0v0v0v0v0l0,0c0,0,0,0,0,0l0,0
		c0,0,0,0,0,0l0,0c0,0,0,0,0,0l0,0c0-0.02,0-0.03,0-0.05c0,0,0,0,0,0c0,0,0,0,0,0l0,0l0,0h-0.02l0,0c0.01,0,0.25-4.43,4.99-4.5
		c0,0,0.09,0,0.22,0c0.58,0,1.67,0.06,2.44,0.44c0.72,0.36,0.89,1.39,0.78,1.97c-0.17,0.9-0.95,1.86-1.93,1.86
		c-0.1,0-0.19-0.01-0.28-0.03c-0.2-0.04-0.39-0.18-0.57-0.33c-0.08-0.06-0.17-0.13-0.21-0.15c-0.56-0.29-1.08-0.46-1.57-0.51
		c-0.6-0.06-1.21,0.06-1.79,0.33c-0.63,0.3-1.25,0.76-1.25,0.94v0c0,0,0,0,0,0l0,0v0l0,0c0,0.01-0.07,0.01-0.07,0.02
		C193.62,145.64,193.41,145.77,193.23,145.77z M196.42,143.48c0.13,0,0.27,0.01,0.4,0.02c0.58,0.06,1.17,0.25,1.81,0.58
		c0.1,0.05,0.2,0.13,0.31,0.21c0.08,0.06,0.24,0.18,0.3,0.2c0.05,0.01,0.1,0.01,0.15,0.01c0.58,0,1.15-0.69,1.26-1.31
		c0.08-0.43-0.09-1.07-0.42-1.24c-0.86-0.43-2.31-0.37-2.33-0.37c-2.71,0.04-3.73,1.63-4.11,2.76c0.32-0.21,0.64-0.37,0.81-0.45
		C195.18,143.62,195.8,143.48,196.42,143.48z"/>
	<path id="_x34_7" class="st2" d="M196.67,149.55c0,0-5.53,0.79-5.87,6.09c0,0,1.57-4.34,6.31-2.52
		C197.12,153.12,199.24,151.71,196.67,149.55z"/>
	<path id="_x34_6" d="M190.81,155.98c-0.02,0-0.05,0-0.07-0.01c-0.16-0.03-0.28-0.18-0.27-0.35c0.35-5.52,6.1-6.4,6.16-6.41
		c0.1-0.01,0.19,0.01,0.26,0.08c0.96,0.81,1.43,1.64,1.39,2.45c-0.06,1.04-0.93,1.63-0.97,1.66c-0.09,0.06-0.21,0.07-0.31,0.03
		c-0.73-0.28-1.43-0.42-2.07-0.42c-2.77,0-3.77,2.63-3.81,2.74C191.07,155.89,190.95,155.98,190.81,155.98z M196.57,149.91
		c-0.75,0.14-4,0.93-5.09,4.03c0.7-0.8,1.81-1.59,3.45-1.59c0.67,0,1.38,0.13,2.13,0.4c0.19-0.17,0.52-0.54,0.54-1.04
		C197.63,151.14,197.29,150.54,196.57,149.91z"/>
	<path id="_x34_5" class="st2" d="M202.07,157.64c0,0-3.78-0.34-5.4,6.07c0,0,2.83-3.51,7.96-3.04
		C204.63,160.67,205.71,158.18,202.07,157.64z"/>
	<path id="_x34_4" d="M196.67,164.05c-0.05,0-0.1-0.01-0.15-0.04c-0.14-0.07-0.21-0.23-0.18-0.38c1.52-6.02,4.95-6.33,5.62-6.33
		c0.08,0,0.13,0,0.13,0c1.4,0.21,2.31,0.71,2.75,1.49c0.54,0.96,0.11,1.97,0.09,2.01c-0.06,0.13-0.2,0.21-0.34,0.2
		c-0.31-0.03-0.61-0.04-0.91-0.04c-4.32,0-6.73,2.93-6.75,2.96C196.87,164,196.77,164.05,196.67,164.05z M201.97,157.97
		c-0.54,0-3.11,0.24-4.61,4.59c1.14-0.95,3.28-2.28,6.33-2.28c0.23,0,0.47,0.01,0.7,0.02c0.06-0.27,0.12-0.75-0.13-1.2
		c-0.33-0.59-1.08-0.97-2.23-1.14C202.03,157.98,202.01,157.97,201.97,157.97z"/>
	<path id="_x34_3" class="st2" d="M239.94,159.35c0,0-0.99-2.47,1.17-3.71c0,0,4.32,0.38,5.4,5.6
		C246.51,161.24,243.27,157.55,239.94,159.35z"/>
	<path id="_x34_2" d="M246.51,161.58c-0.09,0-0.19-0.04-0.25-0.11c-0.02-0.02-2.03-2.27-4.39-2.27c-0.61,0-1.21,0.15-1.76,0.45
		c-0.08,0.05-0.19,0.05-0.28,0.02c-0.09-0.03-0.16-0.1-0.2-0.19c-0.38-0.95-0.59-3.03,1.31-4.13c0.06-0.03,0.13-0.05,0.2-0.04
		c0.05,0,4.58,0.47,5.7,5.87c0.03,0.15-0.04,0.3-0.18,0.37C246.61,161.56,246.56,161.58,246.51,161.58z M241.86,158.52
		c1.66,0,3.12,0.93,4,1.65c-1.22-3.5-4.09-4.1-4.68-4.18c-1.34,0.83-1.19,2.23-1.04,2.89C240.7,158.64,241.27,158.52,241.86,158.52z
		"/>
	<path id="_x34_1" class="st2" d="M36.52,28.32c0,0,4.86,13.94,17.54,20.23l-4.77-8.63c0,0,5.13-1.89,8.18-3.33
		C57.48,36.6,41.74,34.26,36.52,28.32z"/>
	<path id="_x34_0" d="M54.06,48.9c-0.05,0-0.1-0.01-0.15-0.04c-12.66-6.28-17.66-20.28-17.7-20.42c-0.05-0.15,0.01-0.32,0.15-0.4
		c0.14-0.08,0.32-0.05,0.42,0.07c5.08,5.78,20.59,8.14,20.75,8.16c0.15,0.02,0.26,0.14,0.28,0.28c0.02,0.15-0.06,0.29-0.19,0.35
		c-2.56,1.21-6.61,2.74-7.84,3.2l4.58,8.29c0.07,0.13,0.05,0.29-0.05,0.4C54.24,48.86,54.15,48.9,54.06,48.9z M37.45,29.69
		c1.59,3.61,6.44,12.95,15.78,18.05L49,40.09c-0.05-0.09-0.06-0.19-0.02-0.28c0.03-0.09,0.11-0.16,0.2-0.2
		c0.05-0.02,4.14-1.53,7.15-2.86C52.91,36.15,42.56,34.03,37.45,29.69z"/>
	<polygon id="_x33_9" class="st2" points="74.29,36.96 75.91,38.4 76.27,36.24 	"/>
	<path id="_x33_8" d="M75.91,38.67c-0.07,0-0.13-0.02-0.18-0.07l-1.62-1.44c-0.07-0.06-0.1-0.16-0.09-0.25
		c0.02-0.09,0.08-0.17,0.17-0.2l1.98-0.72c0.09-0.03,0.19-0.02,0.26,0.05c0.07,0.06,0.11,0.16,0.09,0.25l-0.36,2.16
		c-0.02,0.1-0.08,0.18-0.18,0.21C75.97,38.66,75.94,38.67,75.91,38.67z M74.81,37.06l0.92,0.81l0.2-1.22L74.81,37.06z"/>
	<polygon id="_x33_7" class="st2" points="76.35,36.28 78.24,37.77 78.24,35.43 	"/>
	<path id="_x33_6" d="M78.21,38.04c-0.06,0-0.12-0.02-0.17-0.06l-1.89-1.48c-0.07-0.06-0.11-0.15-0.1-0.24
		c0.01-0.09,0.07-0.17,0.16-0.21l1.89-0.85c0.08-0.04,0.2-0.03,0.27,0.02c0.08,0.05,0.14,0.14,0.14,0.23v2.34
		c0,0.1-0.08,0.2-0.17,0.24C78.3,38.03,78.25,38.04,78.21,38.04z M76.87,36.35l1.1,0.87v-1.37L76.87,36.35z"/>
	<polygon id="_x33_5" class="st2" points="80.13,34.08 80.13,37.05 78.24,35.43 	"/>
	<path id="_x33_4" d="M80.09,37.32c-0.06,0-0.13-0.02-0.18-0.06l-1.89-1.62c-0.06-0.05-0.1-0.13-0.09-0.22
		c0-0.08,0.05-0.16,0.11-0.21l1.89-1.35c0.08-0.06,0.21-0.07,0.3-0.02c0.09,0.05,0.16,0.14,0.16,0.24v2.97
		c0,0.11-0.08,0.2-0.17,0.25C80.19,37.31,80.13,37.32,80.09,37.32z M78.67,35.45l1.18,1.01V34.6L78.67,35.45z"/>
	<polygon id="_x33_3" class="st2" points="82.03,32.64 82.21,35.56 80.09,34.26 	"/>
	<path id="_x33_2" d="M82.21,35.83c-0.05,0-0.1-0.01-0.14-0.04l-2.11-1.3c-0.07-0.05-0.12-0.12-0.13-0.21
		c-0.01-0.09,0.03-0.17,0.1-0.23l1.93-1.62c0.08-0.07,0.19-0.08,0.28-0.04c0.09,0.04,0.16,0.13,0.16,0.23l0.18,2.92
		c0.01,0.1-0.04,0.2-0.13,0.25C82.3,35.82,82.26,35.83,82.21,35.83z M80.55,34.23l1.35,0.83l-0.12-1.87L80.55,34.23z"/>
	<polygon id="_x33_1" class="st2" points="74.29,45.05 75.08,43.21 75.62,45.05 	"/>
	<path id="_x33_0" d="M75.62,45.32h-1.33c-0.09,0-0.18,0-0.22-0.08c-0.05-0.08-0.06-0.15-0.02-0.23l0.79-1.83
		c0.04-0.1,0.15-0.17,0.26-0.16c0.11,0.01,0.21,0.09,0.24,0.2l0.54,1.85c0.02,0.08,0.01,0.13-0.04,0.19
		C75.78,45.33,75.7,45.32,75.62,45.32z M74.7,44.78h0.56l-0.23-0.78L74.7,44.78z"/>
	<polygon id="_x32_9" class="st2" points="76.83,45.05 77.55,43.03 78.32,45.05 	"/>
	<path id="_x32_8" d="M78.32,45.32h-1.48c-0.09,0-0.17,0-0.22-0.07c-0.05-0.07-0.06-0.14-0.03-0.22l0.72-1.99
		c0.04-0.11,0.14-0.14,0.25-0.14c0,0,0,0,0,0c0.11,0,0.21,0.05,0.25,0.15l0.76,2.01c0.03,0.08,0.02,0.13-0.03,0.2
		C78.49,45.33,78.41,45.32,78.32,45.32z M77.22,44.78h0.71l-0.37-0.97L77.22,44.78z"/>
	<polygon id="_x32_7" class="st2" points="79.35,45.05 80.09,42.94 81.15,45.05 	"/>
	<path id="_x32_6" d="M81.15,45.32h-1.8c-0.09,0-0.17,0-0.22-0.07c-0.05-0.07-0.06-0.14-0.03-0.22l0.74-2.1
		c0.04-0.1,0.13-0.17,0.24-0.17c0.11-0.01,0.21,0.05,0.26,0.15l1.06,2.11c0.04,0.08,0.04,0.14-0.01,0.22
		C81.33,45.32,81.24,45.32,81.15,45.32z M79.73,44.78h0.98l-0.58-1.15L79.73,44.78z"/>
	<polygon id="_x32_5" class="st2" points="82.36,45.05 82.72,42.67 84.25,44.69 	"/>
	<path id="_x32_4" d="M82.36,45.32c-0.07,0-0.14-0.03-0.19-0.08c-0.06-0.06-0.09-0.15-0.08-0.23l0.36-2.38
		c0.02-0.11,0.1-0.19,0.2-0.22c0.1-0.03,0.22,0.01,0.28,0.1l1.53,2.02c0.06,0.07,0.07,0.17,0.04,0.26c-0.03,0.09-0.11,0.15-0.2,0.17
		l-1.89,0.36C82.4,45.32,82.38,45.32,82.36,45.32z M82.9,43.34l-0.21,1.37l1.09-0.21L82.9,43.34z"/>
	<polygon id="_x32_3" class="st2" points="86.87,43.34 84.95,44.15 85.17,41.41 86.87,43.25 	"/>
	<path id="_x32_2" d="M84.94,44.42c-0.06,0-0.11-0.02-0.16-0.05c-0.08-0.05-0.12-0.15-0.11-0.24l0.21-2.74
		c0.01-0.11,0.08-0.2,0.18-0.23c0.1-0.04,0.21-0.01,0.29,0.07l1.71,1.84c0.05,0.05,0.09,0.11,0.09,0.18v0.09
		c0,0.11-0.08,0.21-0.18,0.25l-1.91,0.81C85.02,44.41,84.97,44.42,84.94,44.42z M85.37,42.05l-0.13,1.68l1.2-0.51L85.37,42.05z"/>
	<polygon id="_x32_1" class="st2" points="87.27,43.16 89.06,42.4 87.81,40.6 	"/>
	<path id="_x32_0" d="M87.27,43.43c-0.06,0-0.12-0.02-0.17-0.06c-0.08-0.06-0.11-0.17-0.09-0.26l0.54-2.56
		c0.02-0.11,0.1-0.19,0.21-0.21c0.1-0.02,0.21,0.02,0.28,0.11l1.26,1.8c0.05,0.07,0.06,0.15,0.04,0.23
		c-0.02,0.08-0.08,0.14-0.15,0.17l-1.8,0.76C87.34,43.42,87.3,43.43,87.27,43.43z M87.94,41.26l-0.3,1.45l1.02-0.43L87.94,41.26z"/>
	<polygon id="_x31_9" class="st2" points="89.95,42.28 91.59,41.97 90.46,39.98 89.83,42.17 	"/>
	<path id="_x31_8" d="M89.95,42.55c-0.07,0-0.13-0.02-0.18-0.07l-0.12-0.11c-0.08-0.07-0.11-0.18-0.08-0.28l0.63-2.19
		c0.03-0.1,0.12-0.18,0.23-0.19c0.11-0.01,0.21,0.04,0.27,0.13l1.13,1.98c0.04,0.08,0.05,0.17,0.01,0.25
		c-0.04,0.08-0.11,0.14-0.19,0.15L90,42.54C89.98,42.55,89.97,42.55,89.95,42.55z M90.54,40.67l-0.37,1.29l1-0.19L90.54,40.67z"/>
	<path id="_x31_7" d="M73.55,28.34l-0.67-0.03c-0.17,3.48-3.1,4.4-3.23,4.43l0.19,0.65C69.88,33.38,73.36,32.31,73.55,28.34z"/>
	<path id="_x31_6" d="M76.65,29.7c-0.16,0.64-0.8,1.45-1.45,1.84l0.35,0.58c0.69-0.42,1.52-1.32,1.76-2.25
		c0.41-1.62-1.25-4.17-2.71-6.01l-0.53,0.42C75.97,26.68,76.91,28.66,76.65,29.7z"/>
	<path id="_x31_5" d="M104.06,19.51l-0.66,0.13c0.01,0.08,0.33,1.86-1.38,3.39l0.45,0.5C104.48,21.75,104.08,19.6,104.06,19.51z"/>
	<path id="_x31_4" d="M106.95,26.96c0.9,0.47,1.94,0.53,2.94,0.59c0.23,0.01,0.46,0.03,0.69,0.05l0.06-0.67
		c-0.23-0.02-0.47-0.03-0.71-0.05c-0.93-0.06-1.9-0.11-2.67-0.52c-0.43-0.23-0.46-0.94-0.28-1.33c0.35-0.78,1.24-1.25,2.03-1.66
		l0.1-0.05c0.37-0.19,0.75-0.38,1.13-0.56c0.68-0.33,1.39-0.67,2.06-1.08c2.02-1.25,4.03-2.8,5.96-4.62l-0.46-0.49
		c-0.76,0.72-1.54,1.39-2.32,2.03c-2.79-0.9-3.65,0.76-3.68,0.84l0.6,0.3c0.03-0.05,0.58-1.04,2.42-0.62
		c-0.95,0.73-1.91,1.4-2.87,1.99c-0.64,0.39-1.33,0.73-2,1.05c-0.38,0.18-0.77,0.37-1.15,0.57l-0.1,0.05
		c-0.84,0.44-1.9,0.99-2.34,1.98C106.04,25.5,106.19,26.57,106.95,26.96z"/>
	<path id="_x31_3" d="M86.18,120.77c-0.07-0.04-7.41-3.66-6.47-11.33c0.01-0.01,0.01-0.02,0.02-0.03c0.06-0.12,0.04-0.27-0.04-0.37
		c-3.38-3.98-3.34-8.19-3.34-8.23l-0.67-0.01c0,0.17-0.05,4.08,3,8.06c-1.8-0.16-3.46-0.42-5-0.75c0.61-2.32-0.53-6.32-0.58-6.5
		l-0.65,0.19c0.01,0.04,1.15,4.05,0.57,6.16c-3.3-0.78-5.99-1.9-8.08-3.03c0.87-1.7,2.07-4.97,2.12-5.11l-0.63-0.23
		c-0.01,0.04-1.23,3.35-2.08,5.02c-3.61-2.06-5.31-4.07-5.34-4.11c-0.34-0.39-0.66-0.78-0.96-1.16c2.12-1.3,2.85-3.48,2.88-3.58
		l-0.64-0.21c-0.01,0.02-0.7,2.08-2.65,3.24c-1.66-2.28-2.45-4.37-2.29-6.11c0.15-1.69,1.12-2.47,1.16-2.51l-0.41-0.53
		c-0.05,0.04-1.23,0.97-1.42,2.95c-0.23,2.4,1.06,5.21,3.81,8.34c0.06,0.08,6.35,7.54,20.54,8.63c-0.84,8,6.79,11.77,6.87,11.81
		L86.18,120.77z"/>
	<path id="_x31_2" d="M237.91,15.78l-0.12-0.17c0-0.04-0.01-0.08-0.02-0.13c-0.04-0.09-0.11-0.16-0.2-0.19l-0.12-0.18
		c-0.14,0.1-0.28,0.2-0.42,0.29c-5.93,2.33-74.05,29.13-85.06,33.55c4.47-4.62,22.17-22.3,43.4-35.69l-0.36-0.57
		c-24.57,15.49-44.43,36.73-44.63,36.94v0c-2.8,2.91-4.2,7.89-4.26,8.1l0.32,0.09l-0.32-0.08c-2.39,9.38-7.2,13.81-9.16,15.28
		c-2.14,1.61-4.29,1.87-4.31,1.87l0.07,0.67c0.09-0.01,2.34-0.27,4.64-2c2.01-1.51,6.96-6.06,9.41-15.65h0
		c0.01-0.05,1.4-4.97,4.06-7.77c1.9-0.83,48.51-19.18,72.6-28.66c-24.31,11.34-65.96,32.14-66.48,32.4
		c-0.16,0.08-0.23,0.26-0.16,0.43c0.06,0.16,0.24,0.25,0.41,0.2c12.23-3.6,40.18-7.84,57.19-10.23
		c-27.69,5.95-60.44,17.08-60.83,17.21c-0.15,0.05-0.25,0.21-0.22,0.37c0.02,0.16,0.16,0.28,0.32,0.29
		c23.04,0.69,37.41,3.91,45.41,6.49c5.43,1.75,8.73,3.45,10.45,4.48c-37.12-8.46-57.11-6.06-57.31-6.03
		c-0.15,0.02-0.27,0.14-0.29,0.29c-0.02,0.15,0.06,0.3,0.2,0.36c22.15,9.82,33.2,19.55,36.96,23.32
		c-15.52-8.71-40.5-17.12-40.76-17.21c-0.15-0.05-0.32,0.01-0.4,0.16c-0.08,0.14-0.04,0.32,0.08,0.42
		c11.42,9.26,17.22,21.44,19.27,26.5c-7.74-10.24-23.53-23.38-23.7-23.52c-0.11-0.09-0.27-0.1-0.4-0.02
		c-0.12,0.08-0.18,0.23-0.14,0.38c0.06,0.23,5.89,21.76,4.49,30.06c-1.24-4.51-5.56-19.87-8.99-26.94c-0.06-0.12-0.17-0.2-0.3-0.2
		c0,0,0,0,0,0c-0.13,0-0.25,0.08-0.3,0.2c-0.38,0.8-7.85,16.53-9.56,26.58c-0.43-6.63-0.53-17.7,2.86-23.15
		c0.08-0.13,0.06-0.29-0.04-0.4c-0.11-0.11-0.27-0.14-0.41-0.06c-0.09,0.05-8.16,4.55-16.03,17.97c1.46-4.55,4.56-13.21,8.36-18.14
		c0.08-0.1,0.09-0.23,0.04-0.35c-0.05-0.11-0.17-0.19-0.29-0.19c-0.43-0.02-10.56-0.16-30.39,15.47c0.55-0.98,1.09-1.87,1.59-2.58
		c1.87-2.67,4.2-5.23,6.93-7.59c2.2-1.9,5.14-4.32,8.38-6.18c2.1-1.2,3.81-2.02,5.38-2.57c0.02-0.01,1.76-0.77,2.8-1l-0.15-0.66
		c-1.09,0.25-2.84,1.01-2.89,1.03c-1.47,0.52-3.08,1.27-5.01,2.35c-3.57-3.79-5.47-10.76-6.48-17.47c0.01-0.02,0.01-0.04,0.02-0.06
		l-0.03-0.01c-1.23-8.23-1.13-16.05-1.11-17.1l2-3.43l3.68,2.37c0.12,0.08,0.27,0.07,0.38-0.01c0.11-0.08,0.16-0.23,0.12-0.37
		l-1.36-4.65l3.02-0.18c0.11-0.01,0.21-0.07,0.27-0.16c0.06-0.09,0.07-0.21,0.02-0.31c-0.04-0.09-0.89-2.04-3.5-2.9l2.84-1.95
		c0.14-0.1,0.19-0.28,0.11-0.43c-0.04-0.08-0.93-1.74-3.51-1.97c0.65-0.94,1.24-1.97,1.29-2.64c0.49,0.03,1.03,0.06,1.61,0.06
		c1.91,0,4.16-0.25,6.18-1.12l-0.27-0.62c-4.36,1.89-10.12,0.67-10.18,0.65l-0.14,0.66c0.09,0.02,0.92,0.19,2.15,0.31
		c0,0.38-0.69,1.63-1.54,2.8c-0.07,0.1-0.09,0.24-0.03,0.35c0.06,0.11,0.17,0.18,0.3,0.18c2.04,0,3.02,0.94,3.38,1.39l-3.16,2.17
		c-0.11,0.08-0.17,0.21-0.14,0.34c0.03,0.13,0.13,0.24,0.26,0.27c2.04,0.45,3.07,1.62,3.49,2.27l-2.9,0.17
		c-0.1,0.01-0.2,0.06-0.26,0.14c-0.06,0.08-0.08,0.19-0.05,0.29l1.23,4.19l-3.22-2.07c-0.08-0.05-0.17-0.07-0.26-0.04
		c-0.09,0.02-0.17,0.08-0.21,0.16l-1.94,3.29l-1.19-2.01c-0.06-0.1-0.16-0.16-0.28-0.16c-0.12,0-0.22,0.05-0.29,0.15l-2.52,3.66
		l-3.31-6.09l-0.59,0.32l3.57,6.58c0.06,0.1,0.16,0.17,0.28,0.18c0.01,0,0.01,0,0.02,0c0.11,0,0.21-0.05,0.28-0.14l2.53-3.67
		l1.12,1.89c-0.67,1.47-1.29,2.95-1.85,4.44c-4.24,0.13-6.69-2.48-6.72-2.5l-0.5,0.46c0.11,0.11,2.56,2.73,6.91,2.73
		c0.02,0,0.03,0,0.05,0c-0.97,2.6-1.79,5.22-2.49,7.8c-5.84-0.6-7.67-3.26-7.68-3.29l-0.28,0.18l-0.28,0.18
		c0.08,0.12,1.96,2.92,8.07,3.58c-0.67,2.58-1.22,5.12-1.67,7.6c-5.49,0.53-9.3-3.73-9.34-3.78l-0.51,0.44
		c0.16,0.18,3.61,4.06,8.87,4.06c0.28,0,0.57-0.02,0.86-0.04c-0.47,2.7-0.82,5.32-1.07,7.79c-9.46,0.17-12.17-3.6-12.2-3.64
		l-0.56,0.38c0.11,0.17,2.77,3.94,12.11,3.94c0.19,0,0.39,0,0.58-0.01c-0.34,3.45-0.49,6.61-0.54,9.32
		c-8.97,1.45-14.7-2.89-14.76-2.94l-0.41,0.53c0.05,0.04,4.43,3.38,11.53,3.38c1.14,0,2.35-0.09,3.63-0.29
		c-0.06,4.19,0.13,7.22,0.23,8.51l-0.01-0.01c-7.07,4.35-14.35,1.08-14.43,1.05l-0.28,0.61c0.05,0.02,2.82,1.27,6.63,1.27
		c2.39,0,5.18-0.49,7.97-2.08c-0.69,1.07-1.43,2.39-2.14,3.81l0.59,0.29l0.01,0.01c0.05,0.01,5.35,0.71,12.37-0.51v8.87
		c0,0.17,0.09,0.31,0.24,0.38c0.15,0.06,0.32,0.02,0.44-0.1c0.04-0.05,4.12-4.34,8.38-6.39c0,0.92,0.02,2.71,0.07,4.48
		c-0.56,0.23-1.82,0.73-2.42,0.86c-0.16,0.01-0.88,0.11-1.37,0.7c-0.4,0.47-0.55,1.12-0.45,1.9c0,0.02,0.01,0.09,0.02,0.19
		c-0.45,0.01-1.06-0.01-1.36-0.13c-0.13-0.15-0.44-0.49-0.73-0.58c-0.01,0-0.02-0.01-0.03-0.01c-0.05-0.01-0.31-0.05-0.6,0.16
		c-0.44,0.32-0.7,1.06-0.8,2.19c-0.01,0.06-0.04,0.22-0.07,0.44c-0.36-0.01-0.9,0.04-1.47,0.4c-0.25,0.16-0.48,0.36-0.68,0.6
		c-0.63-0.48-2.2-1.5-3.28-0.63c-0.16,0.1-0.81,0.57-0.89,1.63c-0.7-0.06-2.52-0.39-4.67-2.28c-0.08-0.07-0.19-0.1-0.29-0.08
		c-0.09,0.02-2.26,0.47-3.46,2.51c-0.93,1.58-1,3.65-0.21,6.14l0.32-0.1l-0.19,0.28c0.11,0.07,2.61,1.72,5.77,1.93
		c-0.54,1.12-1.1,2.28-1.66,3.43c-2.98-0.14-4.83-1.23-4.85-1.24l-0.35,0.58c0.08,0.05,1.89,1.12,4.87,1.32
		c-1.16,2.36-2.31,4.66-3.3,6.63c-2.74-0.03-3.65-1.95-3.68-2.03l-0.62,0.27c0.04,0.1,1.04,2.24,3.97,2.41
		c-1.44,2.86-2.46,4.84-2.48,4.89c0,0.01-0.01,0.02-0.01,0.03c-1.35,3.31-2.94,3.23-2.96,3.23c-0.02,0-0.04,0-0.06,0
		c-0.34,0.02-0.62-0.07-0.86-0.28c-0.74-0.65-0.84-2.16-0.84-2.17l-0.67,0.04c0,0.07,0.12,1.8,1.07,2.64
		c0.34,0.3,0.74,0.45,1.2,0.45c0.04,0,0.09,0,0.13,0c0.29,0.01,2.15-0.06,3.61-3.64c0.26-0.51,7.5-14.62,10.79-22.08
		c0.38,0.55,0.77,1.15,1.06,1.79c0.08,0.18,0.15,0.37,0.22,0.57c0.19,0.54,0.39,1.1,0.86,1.53c0.33,0.29,0.64,0.38,0.89,0.38
		c0.12,0,0.23-0.02,0.32-0.05c0.5-0.15,0.93-0.66,1.11-1.3c0.17-0.61,0.14-1.22,0.12-1.8c-0.02-0.38-0.03-0.73,0.01-1.08
		c0.24-0.04,0.51-0.09,0.79-0.17c0.02-0.01,0.05-0.02,0.07-0.03c0.04-0.02,0.88-0.45,1.71-1.02c0.07,0.05,0.14,0.1,0.22,0.14
		c0.09,0.06,0.3,0.15,1.06,0.24c0.01,0,0.02,0,0.04,0c0.14,0,0.27-0.09,0.32-0.22c0.01-0.02,0.86-2.22,2.52-2.47l0-0.02
		c0.09,0.02,0.18,0.02,0.27,0.02c0.08,0,0.15-0.01,0.23-0.02c0.24-0.01,1.46-0.21,2.76-2.63c0.18-0.19,1.01-1.01,2.33-1.69
		c0.19,4.19-0.35,7.27-1.7,9.66c-1.57,2.78-1.47,6.01,0.28,8.88l0.58-0.35c-1.64-2.69-1.73-5.6-0.27-8.2
		c1.44-2.56,2.01-5.84,1.78-10.3c0.83-0.35,1.81-0.6,2.91-0.63c0.84-0.02,1.67,0.09,2.51,0.34c0.22,3.8,0.37,13.7-1.48,15.01
		l0.39,0.55c2.37-1.67,1.91-12.89,1.78-15.33c1.71,0.64,3.42,1.83,5.11,3.56c0.08,0.08,0.18,0.12,0.29,0.12
		c0.05,0,0.1-0.01,0.15-0.03c0.15-0.06,0.25-0.2,0.26-0.36c0.01-0.22,0.25-4.55,5.35-5.91c0.39,0.86,3.83,8.84,0.05,12.17l0.45,0.51
		c4.05-3.56,0.81-11.41,0.18-12.83c0.78-0.16,1.66-0.25,2.66-0.25c0.01,0,0.02,0,0.03,0c0.04,0,4.4-0.33,9.43,3.08
		c-2.06,5.89-6.39,10.1-6.44,10.15l0.47,0.49c0.02-0.02,1.16-1.13,2.56-3c1.41-0.09,9.9-0.51,13.29,1.76
		c-0.16,1.45-0.16,2.97,0.1,4.49c0.02,0.1,0.18,1.07,0.97,2.24c-0.67,0.73-3.44,3.29-9.86,3.73l0.05,0.67
		c6.44-0.45,9.35-2.92,10.22-3.85c0.84,1.03,2.18,2.14,4.3,2.95c-0.01,0.74-0.34,3.23-4.41,5.05l0.28,0.62
		c4.07-1.82,4.72-4.34,4.8-5.43c1.75,0.58,3.99,0.98,6.84,0.99c-0.27,0.99-2.09,6.57-8.79,6.84c0,0,0,0,0,0c0,0,0,0,0,0l0.01,0.31
		l0.01,0.33c4.15-0.14,7.89,0.68,9.32,1.05c-1.75,1.47-4.03,3.17-5.98,3.94c-0.7,0.3-2.71,0.93-3.62,0.22
		c-0.72-0.52-1.8-1.39-1.97-1.66l-0.58,0.35c0.29,0.48,1.84,1.63,2.14,1.85c0.4,0.32,0.92,0.44,1.45,0.46
		c-0.64,1.21-1.49,1.95-2.53,2.22c-2.44,0.61-5.21-1.55-5.24-1.57l-0.42,0.53c0.11,0.08,2.34,1.82,4.73,1.82
		c0.36,0,0.72-0.04,1.08-0.13c1.34-0.34,2.4-1.31,3.14-2.91c1.06-0.13,2-0.53,2.06-0.56c3.89-1.54,8.81-6.43,9.01-6.64
		c2.65-2.55,1.82-4.77,1.79-4.87c-0.98-2.34-5.35-2.28-5.53-2.28c-11.49,0-12.58-6.11-12.62-6.37c-1.13-6.63,2.97-13.55,3.01-13.62
		l-0.05-0.03c0.5,0.06,0.99,0.09,1.45,0.09c4.54,0,7.37-2.53,8.21-3.41c0.6,0.74,1.31,1.41,2.22,1.74c1.06,0.39,2.07,0.22,3.04,0.05
		c0.73-0.12,1.42-0.24,2.13-0.14c0.52,0.08,0.99,0.28,1.31,0.58c0.26,0.24,0.51,0.59,0.63,0.89l0.63-0.25
		c-0.15-0.38-0.47-0.83-0.8-1.13c-0.42-0.39-1.01-0.65-1.67-0.75c-0.81-0.12-1.59,0.01-2.34,0.14c-0.93,0.16-1.81,0.31-2.69-0.02
		c-1.18-0.44-2.03-1.62-2.77-2.65l-0.23-0.33c-0.09-0.12-0.18-0.24-0.28-0.36c-0.16-0.21-0.33-0.43-0.47-0.65
		c0.03-0.05,0.06-0.1,0.07-0.17c0.01-0.09,1.48-7.92,16.78-10c-0.03,5.33,3.6,8.73,6.84,10.71c-1.07,6.39-6.72,7.05-6.97,7.08
		l0.07,0.67c0.06-0.01,6.25-0.72,7.52-7.38c2.31,1.31,4.28,1.87,4.33,1.89c0.56,0.16,1.29,0.35,2.12,0.56
		c0.63,2.5-3.12,7.12-4.68,8.76l0.49,0.47c0.23-0.24,5.34-5.63,4.91-9.05c2.72,0.66,6.27,1.45,8.88,2.02
		c0.15,4.62-3.62,7.87-3.66,7.9l0.44,0.52c0.17-0.14,3.98-3.42,3.91-8.27c1.66,0.36,2.8,0.6,2.84,0.61
		c1.66,0.23,3.14,0.55,4.47,0.94c-0.11,6.6-2.2,7.62-2.22,7.63l0.26,0.62c0.1-0.04,2.48-1.09,2.63-8.05
		c2.8,0.89,4.86,2.04,6.33,3.12c-1.63,3.95-3.54,5.7-3.56,5.71l0.45,0.5c0.08-0.07,1.99-1.81,3.66-5.79
		c1.82,1.46,2.55,2.67,2.57,2.7c0.01,0.02,0.02,0.04,0.04,0.05c0.97,1.12,1.61,2.78,2.02,4.63c-1.52,1.99-4.82,1.39-4.85,1.38
		l-0.13,0.66c0.06,0.01,0.59,0.11,1.32,0.11c1.12,0,2.71-0.23,3.83-1.32c0.38,2.05,0.51,4.28,0.52,6.26
		c-1.5,2.49-4.37,2.21-4.49,2.2l-0.07,0.67c0.03,0,0.18,0.02,0.43,0.02c0.84,0,2.75-0.19,4.13-1.75c-0.04,2.75-0.27,4.82-0.27,4.87
		c-0.07,0.67-0.15,1.29-0.24,1.87l-0.01-0.01c-2.11,1.95-4.37,0.5-4.46,0.44l-0.37,0.56c0.02,0.01,1.04,0.68,2.41,0.68
		c0.7,0,1.48-0.18,2.26-0.7c-0.94,4.87-2.53,5.79-2.55,5.8c-0.01,0.01-0.02,0.01-0.04,0.02c-1.84,1.23-3.44-0.1-3.51-0.15
		l-0.44,0.51c0.01,0.01,0.99,0.83,2.34,0.83c0.6,0,1.27-0.16,1.97-0.62c0.28-0.16,2.52-1.65,3.31-9.15
		c0.06-0.55,1.49-13.47-2.58-18.22c-0.31-0.52-3.9-6.15-15.04-7.69c-0.11-0.02-11.44-2.44-15.17-3.5
		c-0.12-0.03-11.41-3.28-11.29-12.4c1.43-0.17,2.97-0.3,4.64-0.36c0.16-0.01,0.3-0.1,0.36-0.25c0.06-0.15,0.03-0.31-0.07-0.43
		c-0.17-0.18-4.08-4.59,1.08-10.08c0.03-0.03,0.05-0.06,0.07-0.09c0.01-0.03,1.33-2.58,4.28-4.79c3.95-2.95,8.81-3.93,14.44-2.89
		c0.17,0.03,0.34-0.05,0.42-0.2c0.09-0.15,0.07-0.33-0.04-0.46c-0.05-0.06-5.33-6.4-3.4-14.08c1.72-6.86,8.5-12.67,20.15-17.25
		c0.17-0.07,0.27-0.23,0.25-0.41c-0.02-0.18-0.15-0.33-0.32-0.36c-0.06-0.01-6.32-1.31-7.23-5.71
		C220.48,32.55,222.81,26.3,237.91,15.78z M93.81,95.21c-0.06-0.88-0.15-2.35-0.19-4.31c0.23-0.14,0.64-0.4,1.17-0.74
		c0.05,0.73,0.27,1.89,1.06,2.45C95.12,93.46,94.45,94.33,93.81,95.21z M96.3,92.1c-0.7-0.44-0.85-1.73-0.85-2.38
		c0.47-0.31,1.01-0.68,1.58-1.08l1.07,1.55C97.48,90.82,96.88,91.45,96.3,92.1z M100.56,87.91c-0.68,0.59-1.34,1.19-1.97,1.8
		l-1.01-1.46c0.96-0.69,2-1.48,3.04-2.32l0.88,1.17C101.17,87.38,100.86,87.65,100.56,87.91z M99.97,75.11
		c0.43,0.57,1.38,1.75,2.2,2.44c-0.97,1.3-2.06,2.34-3.14,3.17c-0.72-1.2-1.18-3.04-1.31-3.65C98.44,76.5,99.22,75.84,99.97,75.11z
		 M96.99,72.14c0.63-0.51,1.31-1.13,2-1.84l1.8,2.97c-0.9,1.02-1.91,1.96-2.89,2.77L96.99,72.14z M103.82,82.03
		c-0.87,0.95-1.89,1.89-2.93,2.79l-1.46-3.55c0.85-0.65,1.71-1.43,2.52-2.36C102.4,79.63,103.35,81.22,103.82,82.03z M100.34,85.27
		c-0.85,0.7-1.72,1.37-2.54,1.97c-0.95-1-1.68-3.1-1.92-3.84c0.88-0.4,1.91-0.97,2.98-1.73L100.34,85.27z M102.02,86.67l-0.88-1.17
		c0.98-0.83,1.94-1.71,2.8-2.6l1.12,1.38C103.97,85.08,102.95,85.89,102.02,86.67z M108.9,81.74c-1.14,0.66-2.25,1.39-3.3,2.14
		l-1.21-1.48c1.07-1.18,1.93-2.38,2.43-3.54C107.45,79.93,108.14,80.9,108.9,81.74z M106.4,78.08c-0.35,1.09-1.11,2.26-2.11,3.41
		c-0.56-0.95-1.54-2.59-1.88-3.14c0.9-1.13,1.72-2.47,2.36-4.03C105.25,75.65,105.79,76.92,106.4,78.08z M104.43,73.32
		c-0.5,1.4-1.14,2.62-1.87,3.69c-0.78-0.67-1.72-1.87-2.11-2.37c1.25-1.27,2.4-2.72,3.13-4.26
		C103.84,71.38,104.12,72.36,104.43,73.32z M103.31,69.26c-0.43,1.21-1.17,2.38-2.06,3.47l-1.79-2.94l0,0
		c1.14-1.26,2.24-2.79,3.05-4.57C102.74,66.57,103,67.92,103.31,69.26z M102.31,63.92c-0.55,1.53-1.36,2.89-2.26,4.08l-1.48-2.66
		c0.95-0.82,2.11-1.92,3.47-3.37C102.12,62.62,102.21,63.27,102.31,63.92z M101.93,61.1c-0.79,0.86-1.52,1.6-2.18,2.24
		c-0.07-1.08-0.24-1.99-0.44-2.75c0.69-0.41,1.48-1.06,2.36-2.08C101.74,59.35,101.83,60.22,101.93,61.1z M101.22,48.26
		c0,1.92,0.05,5.31,0.37,9.29c-0.94,1.2-1.78,1.93-2.48,2.37c-0.44-1.32-0.98-2.06-1.24-2.37C98.78,54.46,99.89,51.34,101.22,48.26z
		 M97.63,58.37c0.25,0.38,0.58,0.99,0.87,1.88c-0.68,0.31-1.18,0.33-1.47,0.3C97.22,59.82,97.42,59.1,97.63,58.37z M96.86,61.2
		c0.11,0.02,0.24,0.03,0.39,0.03c0.37,0,0.85-0.08,1.44-0.33c0.21,0.82,0.37,1.83,0.42,3.04c-1.65,1.53-2.81,2.36-3.47,2.77
		C95.99,64.91,96.39,63.07,96.86,61.2z M95.47,67.59c0.36-0.19,1.22-0.69,2.57-1.81l1.55,2.8c-0.74,0.89-1.51,1.67-2.24,2.33
		l-2.07-2.26C95.35,68.3,95.41,67.95,95.47,67.59z M95.14,69.49l1.71,1.87c-0.91,0.77-1.71,1.34-2.23,1.68
		C94.77,71.88,94.94,70.7,95.14,69.49z M94.5,73.91c0.31-0.19,1.02-0.63,1.9-1.31l0.91,3.91c-1.43,1.13-2.7,1.97-3.33,2.36
		C94.12,77.28,94.29,75.62,94.5,73.91z M93.93,79.69c0.15-0.09,1.51-0.88,3.2-2.16c0.2,0.83,0.66,2.47,1.36,3.6
		c-1.03,0.73-2.02,1.27-2.86,1.65c-0.48-0.81-1.43-1.93-1.75-2.3C93.89,80.22,93.91,79.96,93.93,79.69z M93.81,81.45
		c0.39,0.47,0.89,1.11,1.2,1.6c-0.55,0.23-0.99,0.38-1.3,0.48C93.73,82.86,93.76,82.16,93.81,81.45z M93.67,84.24
		c0.31-0.09,0.87-0.27,1.59-0.57c0.26,0.82,0.99,2.86,1.99,3.97c-1.58,1.14-2.94,2.02-3.65,2.47
		C93.58,88.44,93.59,86.46,93.67,84.24z M96.47,122.62c-2.76-0.11-5.11-1.46-5.61-1.77c-0.69-2.24-0.63-4.08,0.18-5.47
		c0.87-1.48,2.38-2.02,2.86-2.16c2.3,1.96,4.24,2.28,5,2.33l0.14,1.47C98.35,118.62,97.45,120.56,96.47,122.62z M103.26,120.51
		c-0.11,0.41-0.38,0.75-0.65,0.83c-0.18,0.05-0.37-0.01-0.57-0.19c-0.34-0.31-0.5-0.76-0.67-1.24c-0.07-0.21-0.15-0.42-0.24-0.62
		c-0.39-0.87-0.93-1.64-1.42-2.32l-0.16-1.63c-0.11-1.11,0.54-1.49,0.56-1.51c0.02-0.01,0.04-0.02,0.05-0.04
		c0.71-0.59,1.97,0.26,2.48,0.65c-0.33,0.57-0.58,1.27-0.73,2.13c-0.04,0.2-0.01,0.62,0.31,0.92c0.26,0.24,0.63,0.36,1.12,0.36
		c-0.03,0.36-0.01,0.71,0,1.06C103.38,119.47,103.4,120,103.26,120.51z M104.62,116.99c-1.36,0.35-1.8,0.13-1.93,0.01
		c-0.14-0.12-0.12-0.29-0.12-0.31c0.26-1.41,0.76-2.37,1.49-2.83c0.43-0.27,0.84-0.31,1.09-0.31c0.01,0.77,0.19,1.79,0.92,2.58
		C105.42,116.57,104.77,116.91,104.62,116.99z M107.72,116.27c-0.35-0.05-0.48-0.09-0.51-0.1c0,0-0.01,0-0.01-0.01
		c-1.82-1.03-1.3-3.49-1.28-3.59c0-0.02,0.01-0.03,0.01-0.05c0.11-1.34,0.44-1.71,0.59-1.76c0.11,0.06,0.31,0.26,0.43,0.41
		c0.03,0.04,0.07,0.07,0.11,0.09c0.48,0.24,1.4,0.24,1.82,0.22c0.14,0.74,0.44,1.76,1.06,2.34
		C108.69,114.39,107.97,115.71,107.72,116.27z M111.24,113.6c-0.02,0-0.03,0-0.05,0c-0.28,0.04-0.52-0.03-0.74-0.2
		c-0.72-0.59-0.98-2.23-1.02-2.83c-0.08-0.61,0.02-1.08,0.29-1.4c0.36-0.43,0.92-0.46,0.92-0.46c0.02,0,0.04,0,0.05-0.01
		c0.57-0.12,1.67-0.55,2.32-0.81c0.05,1.46,0.14,2.83,0.26,3.59c0,0.03,0.01,0.05,0.02,0.07
		C112.19,113.52,111.24,113.6,111.24,113.6z M113.73,102.07c0-0.14-0.07-0.26-0.18-0.34c-0.11-0.07-0.24-0.09-0.37-0.03
		c-3.59,1.55-7.15,4.72-8.5,6.13v-8.38c0-0.12-0.07-0.23-0.16-0.31c-0.09-0.08-0.22-0.11-0.34-0.09c-5.8,1.07-10.46,0.79-12.02,0.65
		c17.19-13.73,27.36-15.62,30-15.87c-4.03,5.6-7.21,15.07-8.43,19C113.73,102.36,113.73,102.08,113.73,102.07z M119.9,108.21
		c-2.86,0.07-4.94,1.52-5.91,2.36c-0.14-1.45-0.2-3.77-0.23-5.63c0.03-0.02,0.05-0.05,0.07-0.09c6.53-12.21,13.55-17.89,16.19-19.73
		c-3.68,7.6-2.45,22.18-1.98,26.54c0,0.06,0.01,0.12,0.01,0.18C125.38,109.36,122.65,108.14,119.9,108.21z M137.59,105.75
		c-5.71,0.03-7.98,2.8-8.88,4.86c0.26-8.38,7.9-25.28,9.53-28.8c3.55,7.73,7.96,23.64,8.83,26.85
		C142.1,105.48,137.94,105.72,137.59,105.75z M170.93,130.48c1.16,0.06,3.69,0.37,4.3,1.84c0.03,0.08,0.68,1.91-1.63,4.14
		c-0.02,0.02-0.9,0.9-2.2,2.02c-0.7-0.19-3.34-0.88-6.68-1.13C169.64,135.59,170.89,130.65,170.93,130.48z M143.96,78.6
		c3.56,3.02,17.79,15.34,23.99,24.4c-1.92,0.18-3.73,0.19-5.48,0.19c-1.21,0-2.47,0.01-3.72,0.07c-2.1,0.11-3.86,0.62-5.4,1.57
		c-0.89,0.55-1.69,1.23-2.46,1.89c-0.66,0.57-1.35,1.15-2.09,1.64c-0.36,0.24-0.63,0.4-0.82,0.5
		C149.84,101.98,145.18,83.27,143.96,78.6z M147.71,109.84c0.28-0.06,0.73-0.29,1.54-0.82c0.77-0.51,1.47-1.11,2.16-1.69
		c0.75-0.64,1.52-1.29,2.36-1.81c1.12-0.7,2.39-1.13,3.84-1.34c-0.55,4.64-2.87,7.9-6.9,9.68c-2.29,1.01-4.53,1.24-5.59,1.3
		C146.07,113.63,147.02,111.83,147.71,109.84z M157.04,118.29c-3.42-2.01-10.52-1.84-12.87-1.72c0.16-0.23,0.33-0.47,0.49-0.72
		c1.38-0.02,9.09-0.45,12.32-7.03c1.07,0.41,2.09,0.68,3.04,0.84C159.51,110.57,157.66,114.07,157.04,118.29z M169.24,104.96
		l0.23,0.32c0.14,0.2,0.29,0.41,0.44,0.61c-0.86,0.93-5.28,5.12-12.65,2.31c0.5-1.18,0.86-2.54,1.03-4.11
		c0.16-0.01,0.32-0.03,0.49-0.04c1.23-0.06,2.42-0.07,3.68-0.07c1.88-0.01,3.82-0.01,5.92-0.23c0.17,0.3,0.38,0.58,0.59,0.85
		C169.07,104.73,169.16,104.85,169.24,104.96z M171.87,97.93c-2.04,1.76-2.93,3.48-3.3,4.47c-1.14-3.17-6.54-16.79-18.74-27.34
		c6.08,2.12,26.89,9.59,39.95,17.15C179.8,92.81,174.55,95.62,171.87,97.93z M196.41,76.67c-2.89,2.17-4.25,4.59-4.46,4.99
		c-3.4,3.65-3.08,6.94-2.3,8.98c-3.67-3.7-14.47-13.28-36.07-23.03c4.8-0.36,23.08-1.06,53.34,5.59
		C202.07,73.28,198.61,75.01,196.41,76.67z M207.56,59.47c-1.43,5.69,0.81,10.57,2.34,13.05c-1.74-1.05-5.05-2.75-10.54-4.52
		c-7.83-2.53-21.72-5.67-43.8-6.48c8.32-2.77,44.15-14.42,69.79-18.67C215.18,47.35,209.2,52.93,207.56,59.47z M220.39,36.1
		c0.71,3.39,4.04,5.09,6.14,5.84c-8.79,1.15-47.99,6.43-66.22,11.03c12.19-6.07,57.58-28.59,74.29-35.8
		C224.16,24.89,219.38,31.25,220.39,36.1z"/>
	<path id="_x31_1" d="M65.98,149.35c-3.88,0.69-6.4-0.5-6.43-0.51c-0.01,0-0.02-0.01-0.03-0.01c-1.69-0.63-3.3,0.02-3.37,0.05
		l0.26,0.62c0.01-0.01,1.42-0.57,2.86-0.05c0.19,0.09,1.76,0.79,4.29,0.79c0.77,0,1.62-0.06,2.56-0.23c0.01,0,0.03-0.01,0.04-0.01
		c0.04-0.01,3.84-1.22,6.07-2.11l-0.25-0.63C69.86,148.12,66.29,149.26,65.98,149.35z"/>
	<path id="_x31_0" d="M64.41,153.76c-0.37-0.11-0.73-0.28-1.11-0.46c-0.29-0.14-0.59-0.28-0.91-0.4c-0.67-0.25-1.52-0.3-2.33-0.13
		c-2.06,0.42-3.93,1.89-4.01,1.95l0.42,0.53c0.02-0.01,1.82-1.43,3.72-1.82c0.69-0.14,1.4-0.1,1.96,0.11
		c0.29,0.11,0.58,0.24,0.85,0.38c0.38,0.18,0.78,0.37,1.21,0.5c0.79,0.23,1.37,0.28,2.33,0.2l-0.06-0.67
		C65.52,154.02,65.02,153.94,64.41,153.76z"/>
	<path id="_x39_" d="M136.68,153.5c-1.42,0.37-2.64,0.7-3.92,0.07c-1.21-0.59-2.32-1.04-3.64-0.55c-1.15,0.43-2.14,1.32-2.99,2.12
		l0.46,0.49c0.8-0.76,1.73-1.59,2.76-1.98c1.07-0.4,2-0.02,3.11,0.52c1.5,0.74,2.97,0.35,4.4-0.03c1.88-0.5,3.56-0.97,5.19-1.68
		l-0.27-0.62C140.2,152.55,138.54,153.01,136.68,153.5z"/>
	<path id="_x38_" d="M208.98,93.29c-4.91-5.81-8.84-5.52-9-5.5l0.06,0.67c0.03,0,3.75-0.28,8.43,5.28c0.01,0.01,0.01,0.01,0.02,0.02
		c0.28,0.28,6.97,6.99,9.32,8.43l0.35-0.57C215.93,100.24,209.28,93.59,208.98,93.29z"/>
	<path id="_x37_" d="M250.18,53.37l0.62,0.26c0.03-0.06,2.55-6.13,3.89-10.14l-0.64-0.21C252.72,47.27,250.21,53.31,250.18,53.37z"
		/>
	<path id="_x36_" d="M258.62,42.97c-0.07,1.53-0.21,2.95-0.39,4.22l-0.45,2.61c-0.48,2.34-0.98,3.75-0.99,3.77l0.63,0.23
		c0.02-0.04,1.59-4.48,1.86-10.8L258.62,42.97z"/>
	<path id="_x35_" class="st1" d="M84.36,25.53c0,0,0.19,3.82,3.58,3.9c0,0,2.69,0.01,3.92-2.8C91.86,26.63,89.64,24.86,84.36,25.53z
		"/>
	<path id="_x34_" d="M87.94,29.68L87.94,29.68C87.94,29.68,87.94,29.68,87.94,29.68c-3.6-0.27-3.85-4.1-3.85-4.14
		c-0.01-0.14,0.1-0.26,0.24-0.28c0.8-0.1,1.58-0.15,2.32-0.15c3.69,0,5.31,1.25,5.38,1.31c0.1,0.08,0.13,0.2,0.08,0.31
		C90.83,29.65,88.06,29.68,87.94,29.68z M84.65,25.77c0.11,0.82,0.65,3.32,3.29,3.39c0.13,0,2.41-0.04,3.57-2.43
		c-0.49-0.3-2.04-1.07-4.87-1.07C86.01,25.65,85.34,25.69,84.65,25.77z"/>
	<path id="_x33_" d="M85.84,25.75c0,0,0.4,1.99,1.97,2.2c0,0,1.13,0.23,2.56-1.81C90.37,26.15,88.19,25.77,85.84,25.75z"/>
	<path id="_x32_" d="M87.92,28.23L87.92,28.23c-0.11,0-0.16-0.01-0.16-0.01c-1.72-0.24-2.16-2.33-2.18-2.41
		c-0.02-0.08,0-0.16,0.06-0.23c0.05-0.06,0.12-0.11,0.21-0.1c2.34,0.02,4.55,0.4,4.57,0.4c0.09,0.02,0.17,0.08,0.2,0.16
		c0.04,0.09,0.03,0.18-0.03,0.26C89.37,28.04,88.32,28.23,87.92,28.23z M86.2,26.03c0.18,0.53,0.65,1.52,1.65,1.66
		c0.02,0,0.04,0.01,0.07,0.01c0.22,0,0.99-0.1,1.96-1.35C89.19,26.25,87.75,26.06,86.2,26.03z"/>
	<path id="_x31_" d="M94.64,27.12c-0.12,0-0.24,0-0.36-0.01c-1.08-0.07-2.14-0.38-3.16-0.67c-0.59-0.17-1.2-0.35-1.8-0.48
		c-0.59-0.12-1.18-0.22-1.76-0.28c-1.94-0.22-3.83-0.23-5.62-0.03l-0.06-0.54c1.83-0.21,3.77-0.2,5.74,0.03
		c0.6,0.07,1.2,0.17,1.81,0.29c0.62,0.13,1.24,0.31,1.84,0.48c0.99,0.29,2.02,0.59,3.04,0.65c0.47,0.03,0.93-0.01,1.38-0.11
		c1.42-0.33,2.74-0.84,3.71-1.44l0.28,0.46c-1.02,0.63-2.39,1.17-3.87,1.5C95.43,27.08,95.04,27.12,94.64,27.12z"/>
</g>
</svg>
